<?xml version="1.0" encoding="UTF-8" standalone="no"?>
<svg
   xmlns:dc="http://purl.org/dc/elements/1.1/"
   xmlns:cc="http://creativecommons.org/ns#"
   xmlns:rdf="http://www.w3.org/1999/02/22-rdf-syntax-ns#"
   xmlns:svg="http://www.w3.org/2000/svg"
   xmlns="http://www.w3.org/2000/svg"
   xmlns:xlink="http://www.w3.org/1999/xlink"
   xmlns:sodipodi="http://sodipodi.sourceforge.net/DTD/sodipodi-0.dtd"
   xmlns:inkscape="http://www.inkscape.org/namespaces/inkscape"
   width="324pt"
   height="252pt"
   viewBox="0 0 324 252"
   version="1.1"
   id="svg340"
   sodipodi:docname="benchmark_avena2018.svg"
   inkscape:version="1.0.1 (c497b03c, 2020-09-10)">
  <sodipodi:namedview
     pagecolor="#ffffff"
     bordercolor="#666666"
     borderopacity="1"
     objecttolerance="10"
     gridtolerance="10"
     guidetolerance="10"
     inkscape:pageopacity="0"
     inkscape:pageshadow="2"
     inkscape:window-width="1647"
     inkscape:window-height="798"
     id="namedview342"
     showgrid="false"
     inkscape:zoom="0.91034467"
     inkscape:cx="216"
     inkscape:cy="168"
     inkscape:window-x="2295"
     inkscape:window-y="156"
     inkscape:window-maximized="0"
     inkscape:current-layer="svg340" />
  <metadata
     id="metadata10">
    <rdf:RDF>
      <cc:Work>
        <dc:type
           rdf:resource="http://purl.org/dc/dcmitype/StillImage" />
        <dc:date>2023-12-01T13:19:52.431727</dc:date>
        <dc:format>image/svg+xml</dc:format>
        <dc:creator>
          <cc:Agent>
            <dc:title>Matplotlib v3.8.0, https://matplotlib.org/</dc:title>
          </cc:Agent>
        </dc:creator>
      </cc:Work>
    </rdf:RDF>
  </metadata>
  <defs
     id="defs14">
    <style
       type="text/css"
       id="style12">*{stroke-linejoin: round; stroke-linecap: butt}</style>
  </defs>
  <g
     id="PathCollection_2"
     transform="translate(23.892052,-12.357953)" />
  <g
     id="PathCollection_3"
     transform="translate(23.892052,-12.357953)" />
  <g
     id="PathCollection_4"
     transform="translate(23.892052,-12.357953)" />
  <g
     id="PathCollection_5"
     transform="translate(23.892052,-12.357953)" />
  <g
     id="g1044"
     inkscape:export-xdpi="300"
     inkscape:export-ydpi="300">
    <g
       id="PolyCollection_1"
       transform="translate(23.892052,-12.357953)">
      <path
         d="m 40.5,180.4064 v 30.8895 l 2.536364,-1.73372 2.536363,-1.73371 2.536364,-1.66369 2.536364,-1.61284 2.536363,-1.56808 2.536364,-1.56913 2.536363,-1.55407 2.536364,-1.58811 2.536364,-1.56845 2.536363,-1.56871 2.536364,-1.59678 2.536364,-1.54319 2.536363,-1.56808 2.536364,-1.57261 2.536364,-1.68964 2.536363,-1.45872 2.536364,-1.65665 2.536363,-1.61281 2.536364,-1.53349 2.536364,-1.66492 2.536363,-1.62654 2.536364,-1.57189 2.536364,-1.52655 2.536366,-1.59986 2.53636,-1.55162 2.53636,-1.60474 2.53637,-1.57236 2.53636,-1.71604 2.53637,-1.54395 2.53636,-1.48215 2.53636,-1.67925 2.53637,-1.59931 2.53636,-1.61731 2.53636,-1.46651 2.53637,-1.45847 2.53636,-1.5683 2.53636,-1.47706 2.53637,-1.58414 2.53636,-1.43586 2.53636,-1.6157 2.53637,-1.50785 2.53636,-1.50582 2.53637,-1.21289 2.53636,-1.44105 2.53636,-1.22557 2.53637,-1.42959 2.53636,-1.50812 2.53636,-1.32825 2.53637,-1.31582 2.53636,-1.07547 2.53636,-1.52415 2.53637,-1.52829 2.53636,-1.27933 2.53637,-1.25078 2.53636,-1.16889 2.53636,-1.03994 2.53637,-1.55948 2.53636,-1.35895 2.53636,-1.19131 2.53637,-1.15525 2.53636,-1.37534 2.53636,-1.21776 2.53637,-1.24192 2.53636,-1.21617 2.53637,-1.23824 2.53636,-1.21598 2.53636,-1.11837 2.53637,-1.19969 2.53636,-1.19509 2.53636,-1.17104 2.53637,-1.17105 2.53636,-1.17105 2.53637,-1.17392 2.53636,-1.17152 2.53636,-1.16771 2.53637,-1.17105 2.53636,-1.17105 2.53636,-1.171047 2.53637,-1.171049 2.53636,-1.171049 2.53636,-1.171049 2.53637,-1.171049 2.53636,-1.171049 2.53636,-1.171049 2.53637,-1.171049 2.53636,-1.171049 2.53637,-1.171049 2.53636,-1.15193 2.53636,-1.150016 2.53637,-1.143783 2.53636,-1.119451 2.53637,-1.11945 2.53636,-1.119451 2.53636,-1.119451 2.53636,-1.119451 2.53637,-1.124917 2.53636,-1.112085 2.53637,-1.117617 L 291.6,75.721434 V 39.06 v 0 l -2.53636,1.708829 -2.53637,1.555291 -2.53636,1.55529 -2.53637,1.617685 -2.53636,1.657164 -2.53636,1.631038 -2.53636,1.570956 -2.53637,1.592102 -2.53636,1.614929 -2.53637,1.614929 -2.53636,1.615828 -2.53636,1.664348 -2.53637,1.570089 -2.53636,1.615838 -2.53637,1.620786 -2.53636,1.61003 -2.53636,1.461023 -2.53637,1.468355 -2.53636,1.512094 -2.53636,1.515039 -2.53637,1.51504 -2.53636,1.556067 -2.53636,1.470865 -2.53637,1.512009 -2.53636,1.51398 -2.53636,1.609925 -2.53637,1.419098 -2.53636,1.512917 -2.53637,1.51398 -2.53636,1.51398 -2.53636,1.602543 -2.53637,1.486256 -2.53636,1.634316 -2.53636,1.540444 -2.53637,1.413531 -2.53636,1.516098 -2.53637,1.610196 -2.53636,1.599797 -2.53636,1.684105 -2.53637,1.68411 -2.53636,1.68412 -2.53636,1.48139 -2.53637,1.31311 -2.53636,1.36189 -2.53636,1.54841 -2.53637,1.26935 -2.53636,1.52611 -2.53637,1.60353 -2.53636,1.45285 -2.53636,1.52713 -2.53637,1.68978 -2.53636,1.42813 -2.53636,1.46103 -2.53637,1.53096 -2.53636,1.70256 -2.53636,1.65164 -2.53637,1.43701 -2.53636,1.42007 -2.53637,1.55618 -2.53636,1.39671 -2.53636,1.33948 -2.53637,1.28152 -2.53636,1.22162 -2.53636,1.24149 -2.53637,1.2749 -2.53636,1.27601 -2.53636,1.37985 -2.53637,1.40918 -2.53636,1.13711 -2.53636,1.32454 -2.53637,1.31306 -2.53636,1.2814 -2.53637,1.39678 -2.53636,1.2394 -2.53636,1.32447 -2.536366,1.28093 -2.536364,1.22642 -2.536364,1.41923 -2.536363,1.2498 -2.536364,1.23138 -2.536364,1.23137 -2.536363,1.23137 -2.536364,1.19387 -2.536363,1.16743 -2.536364,1.33654 -2.536364,1.19365 -2.536363,1.21346 -2.536364,1.27396 -2.536364,1.24782 -2.536363,1.12589 -2.536364,1.10136 -2.536364,1.14305 -2.536363,1.17762 -2.536364,1.26671 -2.536363,1.30042 -2.536364,1.18897 -2.536364,1.0826 -2.536363,1.08726 z"
         clip-path="url(#pd953201b73)"
         style="fill-opacity:0.15"
         id="path22" />
    </g>
    <g
       id="PathCollection_1"
       transform="translate(23.892052,-12.357953)">
      <defs
         id="defs26">
        <path
           id="C0_0_8eca8c6e6b"
           d="m 0,4.1833 c 1.109424,0 2.173559,-0.440779 2.95804,-1.22526 C 3.742521,2.173559 4.1833,1.109424 4.1833,0 4.1833,-1.109424 3.742521,-2.173559 2.95804,-2.95804 2.173559,-3.742521 1.109424,-4.1833 0,-4.1833 c -1.109424,0 -2.173559,0.440779 -2.95804,1.22526 C -3.742521,-2.173559 -4.1833,-1.109424 -4.1833,0 c 0,1.109424 0.440779,2.173559 1.22526,2.95804 C -2.173559,3.742521 -1.109424,4.1833 0,4.1833 Z" />
      </defs>
      <g
         clip-path="url(#pd953201b73)"
         id="g30">
        <use
           xlink:href="#C0_0_8eca8c6e6b"
           x="67.043221"
           y="193.17387"
           style="fill:#0173b2"
           id="use28"
           width="100%"
           height="100%" />
      </g>
      <g
         clip-path="url(#pd953201b73)"
         id="g34">
        <use
           xlink:href="#C0_0_8eca8c6e6b"
           x="67.043221"
           y="198.35988"
           style="fill:#0173b2"
           id="use32"
           width="100%"
           height="100%" />
      </g>
      <g
         clip-path="url(#pd953201b73)"
         id="g38">
        <use
           xlink:href="#C0_0_8eca8c6e6b"
           x="67.043221"
           y="199.8373"
           style="fill:#0173b2;stroke:#000000;stroke-width:0.669328"
           id="use36"
           width="100%"
           height="100%" />
      </g>
      <g
         clip-path="url(#pd953201b73)"
         id="g42">
        <use
           xlink:href="#C0_0_8eca8c6e6b"
           x="67.043221"
           y="199.40031"
           style="fill:#0173b2"
           id="use40"
           width="100%"
           height="100%" />
      </g>
      <g
         clip-path="url(#pd953201b73)"
         id="g46">
        <use
           xlink:href="#C0_0_8eca8c6e6b"
           x="75.887749"
           y="144.3636"
           style="fill:#cc78bc"
           id="use44"
           width="100%"
           height="100%" />
      </g>
      <g
         clip-path="url(#pd953201b73)"
         id="g50">
        <use
           xlink:href="#C0_0_8eca8c6e6b"
           x="75.887749"
           y="145.66415"
           style="fill:#cc78bc;stroke:#000000;stroke-width:0.669328"
           id="use48"
           width="100%"
           height="100%" />
      </g>
      <g
         clip-path="url(#pd953201b73)"
         id="g54">
        <use
           xlink:href="#C0_0_8eca8c6e6b"
           x="75.887749"
           y="161.99319"
           style="fill:#cc78bc"
           id="use52"
           width="100%"
           height="100%" />
      </g>
      <g
         clip-path="url(#pd953201b73)"
         id="g58">
        <use
           xlink:href="#C0_0_8eca8c6e6b"
           x="75.887749"
           y="161.84869"
           style="fill:#cc78bc"
           id="use56"
           width="100%"
           height="100%" />
      </g>
      <g
         clip-path="url(#pd953201b73)"
         id="g62">
        <use
           xlink:href="#C0_0_8eca8c6e6b"
           x="257.36636"
           y="90.029778"
           style="fill:#029e73;stroke:#000000;stroke-width:0.669328"
           id="use60"
           width="100%"
           height="100%" />
      </g>
      <g
         clip-path="url(#pd953201b73)"
         id="g66">
        <use
           xlink:href="#C0_0_8eca8c6e6b"
           x="257.36636"
           y="75.868301"
           style="fill:#029e73"
           id="use64"
           width="100%"
           height="100%" />
      </g>
      <g
         clip-path="url(#pd953201b73)"
         id="g70">
        <use
           xlink:href="#C0_0_8eca8c6e6b"
           x="257.36636"
           y="53.470043"
           style="fill:#029e73"
           id="use68"
           width="100%"
           height="100%" />
      </g>
      <g
         clip-path="url(#pd953201b73)"
         id="g74">
        <use
           xlink:href="#C0_0_8eca8c6e6b"
           x="257.36636"
           y="76.59082"
           style="fill:#029e73;stroke:#000000;stroke-width:0.669328"
           id="use72"
           width="100%"
           height="100%" />
      </g>
      <g
         clip-path="url(#pd953201b73)"
         id="g78">
        <use
           xlink:href="#C0_0_8eca8c6e6b"
           x="132.38623"
           y="150.2883"
           style="fill:#d55e00"
           id="use76"
           width="100%"
           height="100%" />
      </g>
      <g
         clip-path="url(#pd953201b73)"
         id="g82">
        <use
           xlink:href="#C0_0_8eca8c6e6b"
           x="132.38623"
           y="140.75098"
           style="fill:#d55e00"
           id="use80"
           width="100%"
           height="100%" />
      </g>
      <g
         clip-path="url(#pd953201b73)"
         id="g86">
        <use
           xlink:href="#C0_0_8eca8c6e6b"
           x="132.38623"
           y="175.43216"
           style="fill:#d55e00;stroke:#000000;stroke-width:0.669328"
           id="use84"
           width="100%"
           height="100%" />
      </g>
      <g
         clip-path="url(#pd953201b73)"
         id="g90">
        <use
           xlink:href="#C0_0_8eca8c6e6b"
           x="132.38623"
           y="138.2944"
           style="fill:#d55e00"
           id="use88"
           width="100%"
           height="100%" />
      </g>
    </g>
    <g
       id="matplotlib.axis_1"
       transform="translate(23.892052,-12.357953)">
      <g
         id="xtick_1">
        <g
           id="line2d_1">
          <path
             d="M 40.5,224.28 V 30.24"
             clip-path="url(#pd953201b73)"
             style="fill:none;stroke:#b0b0b0;stroke-width:0.8;stroke-linecap:square"
             id="path97" />
        </g>
        <g
           id="line2d_2">
          <defs
             id="defs101">
            <path
               id="m01e7980ba2"
               d="M 0,0 V 3.5"
               style="stroke:#000000;stroke-width:0.8" />
          </defs>
          <g
             id="g105">
            <use
               xlink:href="#m01e7980ba2"
               x="40.5"
               y="224.28"
               style="stroke:#000000;stroke-width:0.8"
               id="use103"
               width="100%"
               height="100%" />
          </g>
        </g>
        <g
           id="text_1">
          <text
             style="font-style:normal;font-variant:normal;font-weight:normal;font-stretch:normal;font-size:12px;line-height:normal;font-family:Arial, sans-serif;text-anchor:middle"
             x="40.5"
             y="239.86937"
             id="text108">0.0</text>
        </g>
      </g>
      <g
         id="xtick_2">
        <g
           id="line2d_3">
          <path
             d="M 90.72,224.28 V 30.24"
             clip-path="url(#pd953201b73)"
             style="fill:none;stroke:#b0b0b0;stroke-width:0.8;stroke-linecap:square"
             id="path112" />
        </g>
        <g
           id="line2d_4">
          <g
             id="g117">
            <use
               xlink:href="#m01e7980ba2"
               x="90.720001"
               y="224.28"
               style="stroke:#000000;stroke-width:0.8"
               id="use115"
               width="100%"
               height="100%" />
          </g>
        </g>
        <g
           id="text_2">
          <text
             style="font-style:normal;font-variant:normal;font-weight:normal;font-stretch:normal;font-size:12px;line-height:normal;font-family:Arial, sans-serif;text-anchor:middle"
             x="90.720001"
             y="239.86937"
             id="text120">0.2</text>
        </g>
      </g>
      <g
         id="xtick_3">
        <g
           id="line2d_5">
          <path
             d="M 140.94,224.28 V 30.24"
             clip-path="url(#pd953201b73)"
             style="fill:none;stroke:#b0b0b0;stroke-width:0.8;stroke-linecap:square"
             id="path124" />
        </g>
        <g
           id="line2d_6">
          <g
             id="g129">
            <use
               xlink:href="#m01e7980ba2"
               x="140.94"
               y="224.28"
               style="stroke:#000000;stroke-width:0.8"
               id="use127"
               width="100%"
               height="100%" />
          </g>
        </g>
        <g
           id="text_3">
          <text
             style="font-style:normal;font-variant:normal;font-weight:normal;font-stretch:normal;font-size:12px;line-height:normal;font-family:Arial, sans-serif;text-anchor:middle"
             x="140.94"
             y="239.86937"
             id="text132">0.4</text>
        </g>
      </g>
      <g
         id="xtick_4">
        <g
           id="line2d_7">
          <path
             d="M 191.16,224.28 V 30.24"
             clip-path="url(#pd953201b73)"
             style="fill:none;stroke:#b0b0b0;stroke-width:0.8;stroke-linecap:square"
             id="path136" />
        </g>
        <g
           id="line2d_8">
          <g
             id="g141">
            <use
               xlink:href="#m01e7980ba2"
               x="191.16"
               y="224.28"
               style="stroke:#000000;stroke-width:0.8"
               id="use139"
               width="100%"
               height="100%" />
          </g>
        </g>
        <g
           id="text_4">
          <text
             style="font-style:normal;font-variant:normal;font-weight:normal;font-stretch:normal;font-size:12px;line-height:normal;font-family:Arial, sans-serif;text-anchor:middle"
             x="191.16"
             y="239.86937"
             id="text144">0.6</text>
        </g>
      </g>
      <g
         id="xtick_5">
        <g
           id="line2d_9">
          <path
             d="M 241.38,224.28 V 30.24"
             clip-path="url(#pd953201b73)"
             style="fill:none;stroke:#b0b0b0;stroke-width:0.8;stroke-linecap:square"
             id="path148" />
        </g>
        <g
           id="line2d_10">
          <g
             id="g153">
            <use
               xlink:href="#m01e7980ba2"
               x="241.38"
               y="224.28"
               style="stroke:#000000;stroke-width:0.8"
               id="use151"
               width="100%"
               height="100%" />
          </g>
        </g>
        <g
           id="text_5">
          <text
             style="font-style:normal;font-variant:normal;font-weight:normal;font-stretch:normal;font-size:12px;line-height:normal;font-family:Arial, sans-serif;text-anchor:middle"
             x="241.38"
             y="239.86937"
             id="text156">0.8</text>
        </g>
      </g>
      <g
         id="xtick_6">
        <g
           id="line2d_11">
          <path
             d="M 291.6,224.28 V 30.24"
             clip-path="url(#pd953201b73)"
             style="fill:none;stroke:#b0b0b0;stroke-width:0.8;stroke-linecap:square"
             id="path160" />
        </g>
        <g
           id="line2d_12">
          <g
             id="g165">
            <use
               xlink:href="#m01e7980ba2"
               x="291.60001"
               y="224.28"
               style="stroke:#000000;stroke-width:0.8"
               id="use163"
               width="100%"
               height="100%" />
          </g>
        </g>
        <g
           id="text_6">
          <text
             style="font-style:normal;font-variant:normal;font-weight:normal;font-stretch:normal;font-size:12px;line-height:normal;font-family:Arial, sans-serif;text-anchor:middle"
             x="291.60001"
             y="239.86937"
             id="text168">1.0</text>
        </g>
      </g>
      <g
         id="text_7">
        <text
           style="font-style:normal;font-variant:normal;font-weight:normal;font-stretch:normal;font-size:12px;line-height:normal;font-family:Arial, sans-serif;text-anchor:middle"
           x="166.05"
           y="254.9975"
           id="text172">Predicted TOC [mM]</text>
      </g>
    </g>
    <g
       id="ytick_1"
       transform="translate(23.892052,-12.357953)">
      <g
         id="line2d_13">
        <path
           d="M 40.5,215.46 H 291.6"
           clip-path="url(#pd953201b73)"
           style="fill:none;stroke:#b0b0b0;stroke-width:0.8;stroke-linecap:square"
           id="path176" />
      </g>
      <g
         id="line2d_14">
        <defs
           id="defs180">
          <path
             id="meffade5b87"
             d="M 0,0 H -3.5"
             style="stroke:#000000;stroke-width:0.8" />
        </defs>
        <g
           id="g184">
          <use
             xlink:href="#meffade5b87"
             x="40.5"
             y="215.46001"
             style="stroke:#000000;stroke-width:0.8"
             id="use182"
             width="100%"
             height="100%" />
        </g>
      </g>
      <g
         id="text_8">
        <text
           style="font-style:normal;font-variant:normal;font-weight:normal;font-stretch:normal;font-size:12px;line-height:normal;font-family:Arial, sans-serif;text-anchor:end"
           x="33.5"
           y="219.75468"
           id="text187">0.0</text>
      </g>
    </g>
    <g
       id="ytick_2"
       transform="translate(23.892052,-12.357953)">
      <g
         id="line2d_15">
        <path
           d="M 40.5,180.74704 H 291.6"
           clip-path="url(#pd953201b73)"
           style="fill:none;stroke:#b0b0b0;stroke-width:0.8;stroke-linecap:square"
           id="path191" />
      </g>
      <g
         id="line2d_16">
        <g
           id="g196">
          <use
             xlink:href="#meffade5b87"
             x="40.5"
             y="180.74704"
             style="stroke:#000000;stroke-width:0.8"
             id="use194"
             width="100%"
             height="100%" />
        </g>
      </g>
      <g
         id="text_9">
        <text
           style="font-style:normal;font-variant:normal;font-weight:normal;font-stretch:normal;font-size:12px;line-height:normal;font-family:Arial, sans-serif;text-anchor:end"
           x="33.5"
           y="185.04173"
           id="text199">0.2</text>
      </g>
    </g>
    <g
       id="ytick_3"
       transform="translate(23.892052,-12.357953)">
      <g
         id="line2d_17">
        <path
           d="M 40.5,146.03408 H 291.6"
           clip-path="url(#pd953201b73)"
           style="fill:none;stroke:#b0b0b0;stroke-width:0.8;stroke-linecap:square"
           id="path203" />
      </g>
      <g
         id="line2d_18">
        <g
           id="g208">
          <use
             xlink:href="#meffade5b87"
             x="40.5"
             y="146.03409"
             style="stroke:#000000;stroke-width:0.8"
             id="use206"
             width="100%"
             height="100%" />
        </g>
      </g>
      <g
         id="text_10">
        <text
           style="font-style:normal;font-variant:normal;font-weight:normal;font-stretch:normal;font-size:12px;line-height:normal;font-family:Arial, sans-serif;text-anchor:end"
           x="33.5"
           y="150.32877"
           id="text211">0.4</text>
      </g>
    </g>
    <g
       id="ytick_4"
       transform="translate(23.892052,-12.357953)">
      <g
         id="line2d_19">
        <path
           d="M 40.5,111.32112 H 291.6"
           clip-path="url(#pd953201b73)"
           style="fill:none;stroke:#b0b0b0;stroke-width:0.8;stroke-linecap:square"
           id="path215" />
      </g>
      <g
         id="line2d_20">
        <g
           id="g220">
          <use
             xlink:href="#meffade5b87"
             x="40.5"
             y="111.32112"
             style="stroke:#000000;stroke-width:0.8"
             id="use218"
             width="100%"
             height="100%" />
        </g>
      </g>
      <g
         id="text_11">
        <text
           style="font-style:normal;font-variant:normal;font-weight:normal;font-stretch:normal;font-size:12px;line-height:normal;font-family:Arial, sans-serif;text-anchor:end"
           x="33.5"
           y="115.61581"
           id="text223">0.6</text>
      </g>
    </g>
    <g
       id="ytick_5"
       transform="translate(23.892052,-12.357953)">
      <g
         id="line2d_21">
        <path
           d="M 40.5,76.608164 H 291.6"
           clip-path="url(#pd953201b73)"
           style="fill:none;stroke:#b0b0b0;stroke-width:0.8;stroke-linecap:square"
           id="path227" />
      </g>
      <g
         id="line2d_22">
        <g
           id="g232">
          <use
             xlink:href="#meffade5b87"
             x="40.5"
             y="76.608162"
             style="stroke:#000000;stroke-width:0.8"
             id="use230"
             width="100%"
             height="100%" />
        </g>
      </g>
      <g
         id="text_12">
        <text
           style="font-style:normal;font-variant:normal;font-weight:normal;font-stretch:normal;font-size:12px;line-height:normal;font-family:Arial, sans-serif;text-anchor:end"
           x="33.5"
           y="80.902847"
           id="text235">0.8</text>
      </g>
    </g>
    <g
       id="ytick_6"
       transform="translate(23.892052,-12.357953)">
      <g
         id="line2d_23">
        <path
           d="M 40.5,41.895204 H 291.6"
           clip-path="url(#pd953201b73)"
           style="fill:none;stroke:#b0b0b0;stroke-width:0.8;stroke-linecap:square"
           id="path239" />
      </g>
      <g
         id="line2d_24">
        <g
           id="g244">
          <use
             xlink:href="#meffade5b87"
             x="40.5"
             y="41.895203"
             style="stroke:#000000;stroke-width:0.8"
             id="use242"
             width="100%"
             height="100%" />
        </g>
      </g>
      <g
         id="text_13">
        <text
           style="font-style:normal;font-variant:normal;font-weight:normal;font-stretch:normal;font-size:12px;line-height:normal;font-family:Arial, sans-serif;text-anchor:end"
           x="33.5"
           y="46.189892"
           id="text247">1.0</text>
      </g>
    </g>
    <g
       id="text_14"
       transform="translate(23.892052,-12.357953)">
      <text
         style="font-style:normal;font-variant:normal;font-weight:normal;font-stretch:normal;font-size:12px;line-height:normal;font-family:Arial, sans-serif;text-anchor:middle"
         x="10.435"
         y="127.26"
         transform="rotate(-90,10.435,127.26)"
         id="text251">Measured TOC [mM]</text>
    </g>
    <g
       id="line2d_25"
       transform="translate(23.892052,-12.357953)">
      <path
         d="m 40.5,195.45532 2.536364,-1.40598 2.536363,-1.40597 2.536364,-1.40598 2.536364,-1.40597 2.536363,-1.40598 2.536364,-1.40597 2.536363,-1.40598 2.536364,-1.40597 2.536364,-1.40597 2.536363,-1.40598 2.536364,-1.40597 2.536364,-1.40598 2.536363,-1.40597 2.536364,-1.40597 2.536364,-1.40598 2.536363,-1.40597 2.536364,-1.40598 2.536363,-1.40597 2.536364,-1.40598 2.536364,-1.40597 2.536363,-1.40597 2.536364,-1.40598 2.536364,-1.40597 2.536366,-1.40598 2.53636,-1.40597 2.53636,-1.40598 2.53637,-1.40597 2.53636,-1.40597 2.53637,-1.40598 2.53636,-1.40597 2.53636,-1.40598 2.53637,-1.40597 2.53636,-1.40597 2.53636,-1.40598 2.53637,-1.40597 2.53636,-1.40598 2.53636,-1.40597 2.53637,-1.40598 2.53636,-1.40597 2.53636,-1.40597 2.53637,-1.40598 2.53636,-1.40597 2.53637,-1.40598 2.53636,-1.40597 2.53636,-1.40598 2.53637,-1.40597 2.53636,-1.40597 2.53636,-1.40598 2.53637,-1.40597 2.53636,-1.40598 2.53636,-1.40597 2.53637,-1.40597 2.53636,-1.40598 2.53637,-1.40597 2.53636,-1.40598 2.53636,-1.40597 2.53637,-1.40598 2.53636,-1.40597 2.53636,-1.40597 2.53637,-1.40598 2.53636,-1.40597 2.53636,-1.40598 2.53637,-1.40597 2.53636,-1.40597 2.53637,-1.40598 2.53636,-1.40597 2.53636,-1.40598 2.53637,-1.405972 2.53636,-1.405974 2.53636,-1.405975 2.53637,-1.405974 2.53636,-1.405974 2.53637,-1.405974 2.53636,-1.405975 2.53636,-1.405974 2.53637,-1.405974 2.53636,-1.405974 2.53636,-1.405974 2.53637,-1.405975 2.53636,-1.405974 2.53636,-1.405974 2.53637,-1.405974 2.53636,-1.405975 2.53636,-1.405974 2.53637,-1.405974 2.53636,-1.405974 2.53637,-1.405974 2.53636,-1.405975 2.53636,-1.405974 2.53637,-1.405974 2.53636,-1.405974 2.53637,-1.405975 2.53636,-1.405974 2.53636,-1.405974 2.53636,-1.405974 2.53637,-1.405974 2.53636,-1.405975 2.53637,-1.405974 2.53636,-1.405974"
         clip-path="url(#pd953201b73)"
         style="fill:none;stroke:#000000;stroke-width:1.5;stroke-linecap:square"
         id="path255" />
    </g>
    <g
       id="line2d_26"
       transform="translate(23.892052,-12.357953)">
      <path
         d="m 40.5,215.46 2.536364,-1.75318 2.536363,-1.75318 2.536364,-1.75318 2.536364,-1.75318 2.536363,-1.75318 2.536364,-1.75318 2.536363,-1.75318 2.536364,-1.75318 2.536364,-1.75318 2.536363,-1.75318 2.536364,-1.75318 2.536364,-1.75318 2.536363,-1.75318 2.536364,-1.75318 2.536364,-1.75318 2.536363,-1.75318 2.536364,-1.75318 2.536363,-1.75318 2.536364,-1.75318 2.536364,-1.75318 2.536363,-1.75318 2.536364,-1.75318 2.536364,-1.75317 2.536366,-1.75318 2.53636,-1.75318 2.53636,-1.75318 2.53637,-1.75318 2.53636,-1.75318 2.53637,-1.75318 2.53636,-1.75318 2.53636,-1.75318 2.53637,-1.75318 2.53636,-1.75318 2.53636,-1.75318 2.53637,-1.75318 2.53636,-1.75318 2.53636,-1.75318 2.53637,-1.75318 2.53636,-1.75318 2.53636,-1.75318 2.53637,-1.75318 2.53636,-1.75318 2.53637,-1.75318 2.53636,-1.75318 2.53636,-1.75318 2.53637,-1.75318 2.53636,-1.75318 2.53636,-1.75318 2.53637,-1.75318 2.53636,-1.75318 2.53636,-1.75318 2.53637,-1.75318 2.53636,-1.75318 2.53637,-1.75318 2.53636,-1.75318 2.53636,-1.75318 2.53637,-1.75318 2.53636,-1.75318 2.53636,-1.75317 2.53637,-1.75318 2.53636,-1.75318 2.53636,-1.75318 2.53637,-1.75318 2.53636,-1.75318 2.53637,-1.75318 2.53636,-1.753184 2.53636,-1.753179 2.53637,-1.75318 2.53636,-1.75318 2.53636,-1.75318 2.53637,-1.753179 2.53636,-1.75318 2.53637,-1.75318 2.53636,-1.75318 2.53636,-1.753179 2.53637,-1.75318 2.53636,-1.75318 2.53636,-1.75318 2.53637,-1.753179 2.53636,-1.75318 2.53636,-1.75318 2.53637,-1.75318 2.53636,-1.753179 2.53636,-1.75318 2.53637,-1.75318 2.53636,-1.75318 2.53637,-1.75318 2.53636,-1.753179 2.53636,-1.75318 2.53637,-1.75318 2.53636,-1.75318 2.53637,-1.753179 2.53636,-1.75318 2.53636,-1.75318 2.53636,-1.75318 2.53637,-1.753179 2.53636,-1.75318 2.53637,-1.75318 2.53636,-1.75318"
         clip-path="url(#pd953201b73)"
         style="fill:none;stroke:#000000;stroke-width:1.5;stroke-dasharray:5.55, 2.4;stroke-dashoffset:0"
         id="path258" />
    </g>
    <g
       id="patch_3"
       transform="translate(23.892052,-12.357953)">
      <path
         d="M 40.5,224.28 V 30.24"
         style="fill:none;stroke:#000000;stroke-width:0.8;stroke-linecap:square;stroke-linejoin:miter"
         id="path261" />
    </g>
    <g
       id="patch_4"
       transform="translate(23.892052,-12.357953)">
      <path
         d="M 291.6,224.28 V 30.24"
         style="fill:none;stroke:#000000;stroke-width:0.8;stroke-linecap:square;stroke-linejoin:miter"
         id="path264" />
    </g>
    <g
       id="patch_5"
       transform="translate(23.892052,-12.357953)">
      <path
         d="M 40.5,224.28 H 291.6"
         style="fill:none;stroke:#000000;stroke-width:0.8;stroke-linecap:square;stroke-linejoin:miter"
         id="path267" />
    </g>
    <g
       id="patch_6"
       transform="translate(23.892052,-12.357953)">
      <path
         d="M 40.5,30.24 H 291.6"
         style="fill:none;stroke:#000000;stroke-width:0.8;stroke-linecap:square;stroke-linejoin:miter"
         id="path270" />
    </g>
    <g
       id="patch_7"
       transform="translate(23.892052,-12.357953)">
      <path
         d="m 301.111,123.11187 h 71.74844 q 2,0 2,-2 V 37.24 q 0,-2 -2,-2 H 301.111 q -2,0 -2,2 v 83.87187 q 0,2 2,2 z"
         style="opacity:0.8;fill:#ffffff;stroke:#cccccc;stroke-linejoin:miter"
         id="path273" />
    </g>
    <g
       id="line2d_27"
       transform="translate(23.892052,-12.357953)">
      <path
         d="m 303.111,42.897812 h 10 10"
         style="fill:none;stroke:#000000;stroke-width:1.5;stroke-linecap:square"
         id="path276" />
    </g>
    <g
       id="text_15"
       transform="translate(23.892052,-12.357953)">
      <text
         style="font-style:normal;font-variant:normal;font-weight:normal;font-stretch:normal;font-size:10px;line-height:normal;font-family:Arial, sans-serif;text-anchor:start"
         x="331.11099"
         y="46.397812"
         id="text279">r<tspan
   style="font-size:65%;baseline-shift:super"
   id="tspan849">2</tspan> = 0.85</text>
    </g>
    <g
       id="line2d_28"
       transform="translate(23.892052,-12.357953)">
      <path
         d="m 303.111,57.043125 h 10 10"
         style="fill:none;stroke:#000000;stroke-width:1.5;stroke-dasharray:5.55, 2.4;stroke-dashoffset:0"
         id="path282" />
    </g>
    <g
       id="text_16"
       transform="translate(23.892052,-12.357953)">
      <text
         style="font-style:normal;font-variant:normal;font-weight:normal;font-stretch:normal;font-size:10px;line-height:normal;font-family:Arial, sans-serif;text-anchor:start"
         x="331.11099"
         y="60.543125"
         id="text285">1-1 line</text>
    </g>
    <g
       id="PathCollection_6"
       transform="translate(23.892052,-12.357953)">
      <defs
         id="defs289">
        <path
           id="mc3d9d3990a"
           d="M 0,3 C 0.795609,3 1.55874,2.683901 2.12132,2.12132 2.683901,1.55874 3,0.795609 3,0 3,-0.795609 2.683901,-1.55874 2.12132,-2.12132 1.55874,-2.683901 0.795609,-3 0,-3 -0.795609,-3 -1.55874,-2.683901 -2.12132,-2.12132 -2.683901,-1.55874 -3,-0.795609 -3,0 -3,0.795609 -2.683901,1.55874 -2.12132,2.12132 -1.55874,2.683901 -0.795609,3 0,3 Z"
           style="stroke:#0173b2" />
      </defs>
      <g
         id="g293">
        <use
           xlink:href="#mc3d9d3990a"
           x="313.11099"
           y="72.063438"
           style="fill:#0173b2;stroke:#0173b2"
           id="use291"
           width="100%"
           height="100%" />
      </g>
    </g>
    <g
       id="text_17"
       transform="translate(23.892052,-12.357953)">
      <text
         style="font-style:normal;font-variant:normal;font-weight:normal;font-stretch:normal;font-size:10px;line-height:normal;font-family:Arial, sans-serif;text-anchor:start"
         x="331.11099"
         y="74.688438"
         id="text296">Week 3</text>
    </g>
    <g
       id="PathCollection_7"
       transform="translate(23.892052,-12.357953)">
      <defs
         id="defs300">
        <path
           id="mada1e0e15a"
           d="M 0,3 C 0.795609,3 1.55874,2.683901 2.12132,2.12132 2.683901,1.55874 3,0.795609 3,0 3,-0.795609 2.683901,-1.55874 2.12132,-2.12132 1.55874,-2.683901 0.795609,-3 0,-3 -0.795609,-3 -1.55874,-2.683901 -2.12132,-2.12132 -2.683901,-1.55874 -3,-0.795609 -3,0 -3,0.795609 -2.683901,1.55874 -2.12132,2.12132 -1.55874,2.683901 -0.795609,3 0,3 Z"
           style="stroke:#cc78bc" />
      </defs>
      <g
         id="g304">
        <use
           xlink:href="#mada1e0e15a"
           x="313.11099"
           y="86.208748"
           style="fill:#cc78bc;stroke:#cc78bc"
           id="use302"
           width="100%"
           height="100%" />
      </g>
    </g>
    <g
       id="text_18"
       transform="translate(23.892052,-12.357953)">
      <text
         style="font-style:normal;font-variant:normal;font-weight:normal;font-stretch:normal;font-size:10px;line-height:normal;font-family:Arial, sans-serif;text-anchor:start"
         x="331.11099"
         y="88.833748"
         id="text307">Week 6</text>
    </g>
    <g
       id="PathCollection_8"
       transform="translate(23.892052,-12.357953)">
      <defs
         id="defs311">
        <path
           id="m6a2fa68833"
           d="M 0,3 C 0.795609,3 1.55874,2.683901 2.12132,2.12132 2.683901,1.55874 3,0.795609 3,0 3,-0.795609 2.683901,-1.55874 2.12132,-2.12132 1.55874,-2.683901 0.795609,-3 0,-3 -0.795609,-3 -1.55874,-2.683901 -2.12132,-2.12132 -2.683901,-1.55874 -3,-0.795609 -3,0 -3,0.795609 -2.683901,1.55874 -2.12132,2.12132 -1.55874,2.683901 -0.795609,3 0,3 Z"
           style="stroke:#029e73" />
      </defs>
      <g
         id="g315">
        <use
           xlink:href="#m6a2fa68833"
           x="313.11099"
           y="100.35406"
           style="fill:#029e73;stroke:#029e73"
           id="use313"
           width="100%"
           height="100%" />
      </g>
    </g>
    <g
       id="text_19"
       transform="translate(23.892052,-12.357953)">
      <text
         style="font-style:normal;font-variant:normal;font-weight:normal;font-stretch:normal;font-size:10px;line-height:normal;font-family:Arial, sans-serif;text-anchor:start"
         x="331.11099"
         y="102.97906"
         id="text318">Week 9</text>
    </g>
    <g
       id="PathCollection_9"
       transform="translate(23.892052,-12.357953)">
      <defs
         id="defs322">
        <path
           id="m472712c071"
           d="M 0,3 C 0.795609,3 1.55874,2.683901 2.12132,2.12132 2.683901,1.55874 3,0.795609 3,0 3,-0.795609 2.683901,-1.55874 2.12132,-2.12132 1.55874,-2.683901 0.795609,-3 0,-3 -0.795609,-3 -1.55874,-2.683901 -2.12132,-2.12132 -2.683901,-1.55874 -3,-0.795609 -3,0 -3,0.795609 -2.683901,1.55874 -2.12132,2.12132 -1.55874,2.683901 -0.795609,3 0,3 Z"
           style="stroke:#d55e00" />
      </defs>
      <g
         id="g326">
        <use
           xlink:href="#m472712c071"
           x="313.11099"
           y="114.49937"
           style="fill:#d55e00;stroke:#d55e00"
           id="use324"
           width="100%"
           height="100%" />
      </g>
    </g>
    <g
       id="text_20"
       transform="translate(23.892052,-12.357953)">
      <text
         style="font-style:normal;font-variant:normal;font-weight:normal;font-stretch:normal;font-size:10px;line-height:normal;font-family:Arial, sans-serif;text-anchor:start"
         x="331.11099"
         y="117.12437"
         id="text329">Week 12</text>
    </g>
  </g>
  <defs
     id="defs338">
    <clipPath
       id="pd953201b73">
      <rect
         x="40.5"
         y="30.24"
         width="251.1"
         height="194.04"
         id="rect335" />
    </clipPath>
  </defs>
</svg>
