<?xml version="1.0" encoding="utf-8" standalone="no"?>
<!DOCTYPE svg PUBLIC "-//W3C//DTD SVG 1.1//EN"
  "http://www.w3.org/Graphics/SVG/1.1/DTD/svg11.dtd">
<svg xmlns:xlink="http://www.w3.org/1999/xlink" width="492.48pt" height="360pt" viewBox="0 0 492.48 360" xmlns="http://www.w3.org/2000/svg" version="1.1">
 <metadata>
  <rdf:RDF xmlns:dc="http://purl.org/dc/elements/1.1/" xmlns:cc="http://creativecommons.org/ns#" xmlns:rdf="http://www.w3.org/1999/02/22-rdf-syntax-ns#">
   <cc:Work>
    <dc:type rdf:resource="http://purl.org/dc/dcmitype/StillImage"/>
    <dc:date>2024-02-28T11:09:03.977033</dc:date>
    <dc:format>image/svg+xml</dc:format>
    <dc:creator>
     <cc:Agent>
      <dc:title>Matplotlib v3.8.0, https://matplotlib.org/</dc:title>
     </cc:Agent>
    </dc:creator>
   </cc:Work>
  </rdf:RDF>
 </metadata>
 <defs>
  <style type="text/css">*{stroke-linejoin: round; stroke-linecap: butt}</style>
 </defs>
 <g id="figure_1">
  <g id="patch_1">
   <path d="M 0 360 
L 492.48 360 
L 492.48 0 
L 0 0 
z
" style="fill: #ffffff"/>
  </g>
  <g id="axes_1">
   <g id="patch_2">
    <path d="M 61.56 320.4 
L 443.232 320.4 
L 443.232 43.2 
L 61.56 43.2 
z
" style="fill: #ffffff"/>
   </g>
   <g id="patch_3">
    <path d="M 74.2824 292.409302 
L 176.0616 292.409302 
L 176.0616 261.958185 
L 74.2824 261.958185 
L 74.2824 292.409302 
z
" clip-path="url(#paeda798f29)" style="fill: #a9a9a9; stroke: #656565; stroke-width: 1.5; stroke-linejoin: miter"/>
   </g>
   <g id="patch_4">
    <path d="M 201.5064 97.719067 
L 303.2856 97.719067 
L 303.2856 59.394979 
L 201.5064 59.394979 
L 201.5064 97.719067 
z
" clip-path="url(#paeda798f29)" style="fill: #a9a9a9; stroke: #656565; stroke-width: 1.5; stroke-linejoin: miter"/>
   </g>
   <g id="patch_5">
    <path d="M 328.7304 252.226217 
L 430.5096 252.226217 
L 430.5096 235.221517 
L 328.7304 235.221517 
L 328.7304 252.226217 
z
" clip-path="url(#paeda798f29)" style="fill: #a9a9a9; stroke: #656565; stroke-width: 1.5; stroke-linejoin: miter"/>
   </g>
   <g id="matplotlib.axis_1">
    <g id="xtick_1">
     <g id="line2d_1">
      <defs>
       <path id="m34cefb1604" d="M 0 0 
L 0 3.5 
" style="stroke: #000000; stroke-width: 0.8"/>
      </defs>
      <g>
       <use xlink:href="#m34cefb1604" x="125.172" y="320.4" style="stroke: #000000; stroke-width: 0.8"/>
      </g>
     </g>
     <g id="text_1">
      <text style="font: 12px 'Arial', sans-serif; text-anchor: middle" x="125.172" y="335.989375" transform="rotate(-0 125.172 335.989375)">4</text>
     </g>
    </g>
    <g id="xtick_2">
     <g id="line2d_2">
      <g>
       <use xlink:href="#m34cefb1604" x="252.396" y="320.4" style="stroke: #000000; stroke-width: 0.8"/>
      </g>
     </g>
     <g id="text_2">
      <text style="font: 12px 'Arial', sans-serif; text-anchor: middle" x="252.396" y="335.989375" transform="rotate(-0 252.396 335.989375)">8</text>
     </g>
    </g>
    <g id="xtick_3">
     <g id="line2d_3">
      <g>
       <use xlink:href="#m34cefb1604" x="379.62" y="320.4" style="stroke: #000000; stroke-width: 0.8"/>
      </g>
     </g>
     <g id="text_3">
      <text style="font: 12px 'Arial', sans-serif; text-anchor: middle" x="379.62" y="335.989375" transform="rotate(-0 379.62 335.989375)">12</text>
     </g>
    </g>
    <g id="text_4">
     <text style="font: 12px 'Arial', sans-serif; text-anchor: middle" x="252.396" y="351.11" transform="rotate(-0 252.396 351.11)">Time (weeks)</text>
    </g>
   </g>
   <g id="matplotlib.axis_2">
    <g id="ytick_1">
     <g id="line2d_4">
      <defs>
       <path id="m947486a378" d="M 0 0 
L -3.5 0 
" style="stroke: #000000; stroke-width: 0.8"/>
      </defs>
      <g>
       <use xlink:href="#m947486a378" x="61.56" y="319.562053" style="stroke: #000000; stroke-width: 0.8"/>
      </g>
     </g>
     <g id="text_5">
      <text style="font: 12px 'Arial', sans-serif; text-anchor: end" x="54.56" y="323.856741" transform="rotate(-0 54.56 323.856741)">0.000</text>
     </g>
    </g>
    <g id="ytick_2">
     <g id="line2d_5">
      <g>
       <use xlink:href="#m947486a378" x="61.56" y="277.184449" style="stroke: #000000; stroke-width: 0.8"/>
      </g>
     </g>
     <g id="text_6">
      <text style="font: 12px 'Arial', sans-serif; text-anchor: end" x="54.56" y="281.479136" transform="rotate(-0 54.56 281.479136)">0.002</text>
     </g>
    </g>
    <g id="ytick_3">
     <g id="line2d_6">
      <g>
       <use xlink:href="#m947486a378" x="61.56" y="234.806844" style="stroke: #000000; stroke-width: 0.8"/>
      </g>
     </g>
     <g id="text_7">
      <text style="font: 12px 'Arial', sans-serif; text-anchor: end" x="54.56" y="239.101532" transform="rotate(-0 54.56 239.101532)">0.004</text>
     </g>
    </g>
    <g id="ytick_4">
     <g id="line2d_7">
      <g>
       <use xlink:href="#m947486a378" x="61.56" y="192.42924" style="stroke: #000000; stroke-width: 0.8"/>
      </g>
     </g>
     <g id="text_8">
      <text style="font: 12px 'Arial', sans-serif; text-anchor: end" x="54.56" y="196.723927" transform="rotate(-0 54.56 196.723927)">0.006</text>
     </g>
    </g>
    <g id="ytick_5">
     <g id="line2d_8">
      <g>
       <use xlink:href="#m947486a378" x="61.56" y="150.051635" style="stroke: #000000; stroke-width: 0.8"/>
      </g>
     </g>
     <g id="text_9">
      <text style="font: 12px 'Arial', sans-serif; text-anchor: end" x="54.56" y="154.346323" transform="rotate(-0 54.56 154.346323)">0.008</text>
     </g>
    </g>
    <g id="ytick_6">
     <g id="line2d_9">
      <g>
       <use xlink:href="#m947486a378" x="61.56" y="107.674031" style="stroke: #000000; stroke-width: 0.8"/>
      </g>
     </g>
     <g id="text_10">
      <text style="font: 12px 'Arial', sans-serif; text-anchor: end" x="54.56" y="111.968719" transform="rotate(-0 54.56 111.968719)">0.010</text>
     </g>
    </g>
    <g id="ytick_7">
     <g id="line2d_10">
      <g>
       <use xlink:href="#m947486a378" x="61.56" y="65.296427" style="stroke: #000000; stroke-width: 0.8"/>
      </g>
     </g>
     <g id="text_11">
      <text style="font: 12px 'Arial', sans-serif; text-anchor: end" x="54.56" y="69.591114" transform="rotate(-0 54.56 69.591114)">0.012</text>
     </g>
    </g>
    <g id="text_12">
     <text style="font: 12px 'Arial', sans-serif; text-anchor: middle" x="18.008125" y="181.8" transform="rotate(-90 18.008125 181.8)">Root exudation [g C g soil-1]</text>
    </g>
   </g>
   <g id="line2d_11">
    <path d="M 125.172 292.409302 
L 125.172 307.8 
" clip-path="url(#paeda798f29)" style="fill: none; stroke: #656565; stroke-width: 1.5; stroke-linecap: square"/>
   </g>
   <g id="line2d_12">
    <path d="M 125.172 261.958185 
L 125.172 261.836021 
" clip-path="url(#paeda798f29)" style="fill: none; stroke: #656565; stroke-width: 1.5; stroke-linecap: square"/>
   </g>
   <g id="line2d_13">
    <path d="M 99.7272 307.8 
L 150.6168 307.8 
" clip-path="url(#paeda798f29)" style="fill: none; stroke: #656565; stroke-width: 1.5; stroke-linecap: square"/>
   </g>
   <g id="line2d_14">
    <path d="M 99.7272 261.836021 
L 150.6168 261.836021 
" clip-path="url(#paeda798f29)" style="fill: none; stroke: #656565; stroke-width: 1.5; stroke-linecap: square"/>
   </g>
   <g id="line2d_15">
    <path d="M 252.396 97.719067 
L 252.396 97.719067 
" clip-path="url(#paeda798f29)" style="fill: none; stroke: #656565; stroke-width: 1.5; stroke-linecap: square"/>
   </g>
   <g id="line2d_16">
    <path d="M 252.396 59.394979 
L 252.396 55.8 
" clip-path="url(#paeda798f29)" style="fill: none; stroke: #656565; stroke-width: 1.5; stroke-linecap: square"/>
   </g>
   <g id="line2d_17">
    <path d="M 226.9512 97.719067 
L 277.8408 97.719067 
" clip-path="url(#paeda798f29)" style="fill: none; stroke: #656565; stroke-width: 1.5; stroke-linecap: square"/>
   </g>
   <g id="line2d_18">
    <path d="M 226.9512 55.8 
L 277.8408 55.8 
" clip-path="url(#paeda798f29)" style="fill: none; stroke: #656565; stroke-width: 1.5; stroke-linecap: square"/>
   </g>
   <g id="line2d_19">
    <path d="M 379.62 252.226217 
L 379.62 273.340787 
" clip-path="url(#paeda798f29)" style="fill: none; stroke: #656565; stroke-width: 1.5; stroke-linecap: square"/>
   </g>
   <g id="line2d_20">
    <path d="M 379.62 235.221517 
L 379.62 235.221517 
" clip-path="url(#paeda798f29)" style="fill: none; stroke: #656565; stroke-width: 1.5; stroke-linecap: square"/>
   </g>
   <g id="line2d_21">
    <path d="M 354.1752 273.340787 
L 405.0648 273.340787 
" clip-path="url(#paeda798f29)" style="fill: none; stroke: #656565; stroke-width: 1.5; stroke-linecap: square"/>
   </g>
   <g id="line2d_22">
    <path d="M 354.1752 235.221517 
L 405.0648 235.221517 
" clip-path="url(#paeda798f29)" style="fill: none; stroke: #656565; stroke-width: 1.5; stroke-linecap: square"/>
   </g>
   <g id="line2d_23">
    <path d="M 74.2824 274.638988 
L 176.0616 274.638988 
" clip-path="url(#paeda798f29)" style="fill: none; stroke: #656565; stroke-width: 1.5"/>
   </g>
   <g id="line2d_24">
    <path d="M 201.5064 65.675641 
L 303.2856 65.675641 
" clip-path="url(#paeda798f29)" style="fill: none; stroke: #656565; stroke-width: 1.5"/>
   </g>
   <g id="line2d_25">
    <path d="M 328.7304 244.774001 
L 430.5096 244.774001 
" clip-path="url(#paeda798f29)" style="fill: none; stroke: #656565; stroke-width: 1.5"/>
   </g>
   <g id="patch_6">
    <path d="M 61.56 320.4 
L 61.56 43.2 
" style="fill: none; stroke: #000000; stroke-width: 0.8; stroke-linejoin: miter; stroke-linecap: square"/>
   </g>
   <g id="patch_7">
    <path d="M 443.232 320.4 
L 443.232 43.2 
" style="fill: none; stroke: #000000; stroke-width: 0.8; stroke-linejoin: miter; stroke-linecap: square"/>
   </g>
   <g id="patch_8">
    <path d="M 61.56 320.4 
L 443.232 320.4 
" style="fill: none; stroke: #000000; stroke-width: 0.8; stroke-linejoin: miter; stroke-linecap: square"/>
   </g>
   <g id="patch_9">
    <path d="M 61.56 43.2 
L 443.232 43.2 
" style="fill: none; stroke: #000000; stroke-width: 0.8; stroke-linejoin: miter; stroke-linecap: square"/>
   </g>
   <g id="PathCollection_1">
    <defs>
     <path id="C0_0_9d0d68abee" d="M 0 3 
C 0.795609 3 1.55874 2.683901 2.12132 2.12132 
C 2.683901 1.55874 3 0.795609 3 -0 
C 3 -0.795609 2.683901 -1.55874 2.12132 -2.12132 
C 1.55874 -2.683901 0.795609 -3 0 -3 
C -0.795609 -3 -1.55874 -2.683901 -2.12132 -2.12132 
C -2.683901 -1.55874 -3 -0.795609 -3 0 
C -3 0.795609 -2.683901 1.55874 -2.12132 2.12132 
C -1.55874 2.683901 -0.795609 3 0 3 
z
"/>
    </defs>
    <g clip-path="url(#paeda798f29)">
     <use xlink:href="#C0_0_9d0d68abee" x="113.1103" y="287.279069"/>
    </g>
    <g clip-path="url(#paeda798f29)">
     <use xlink:href="#C0_0_9d0d68abee" x="115.721314" y="261.836021"/>
    </g>
    <g clip-path="url(#paeda798f29)">
     <use xlink:href="#C0_0_9d0d68abee" x="116.596372" y="261.998907"/>
    </g>
    <g clip-path="url(#paeda798f29)">
     <use xlink:href="#C0_0_9d0d68abee" x="131.796437" y="307.8"/>
    </g>
   </g>
   <g id="PathCollection_2">
    <defs>
     <path id="C1_0_6b883484a1" d="M 0 3 
C 0.795609 3 1.55874 2.683901 2.12132 2.12132 
C 2.683901 1.55874 3 0.795609 3 -0 
C 3 -0.795609 2.683901 -1.55874 2.12132 -2.12132 
C 1.55874 -2.683901 0.795609 -3 0 -3 
C -0.795609 -3 -1.55874 -2.683901 -2.12132 -2.12132 
C -2.683901 -1.55874 -3 -0.795609 -3 0 
C -3 0.795609 -2.683901 1.55874 -2.12132 2.12132 
C -1.55874 2.683901 -0.795609 3 0 3 
z
"/>
    </defs>
    <g clip-path="url(#paeda798f29)">
     <use xlink:href="#C1_0_6b883484a1" x="254.520136" y="55.8"/>
    </g>
    <g clip-path="url(#paeda798f29)">
     <use xlink:href="#C1_0_6b883484a1" x="252.990561" y="70.757977"/>
    </g>
    <g clip-path="url(#paeda798f29)">
     <use xlink:href="#C1_0_6b883484a1" x="249.442376" y="60.593306"/>
    </g>
    <g clip-path="url(#paeda798f29)">
     <use xlink:href="#C1_0_6b883484a1" x="241.361384" y="178.602339"/>
    </g>
   </g>
   <g id="PathCollection_3">
    <defs>
     <path id="C2_0_cb3bb266ac" d="M 0 3 
C 0.795609 3 1.55874 2.683901 2.12132 2.12132 
C 2.683901 1.55874 3 0.795609 3 -0 
C 3 -0.795609 2.683901 -1.55874 2.12132 -2.12132 
C 1.55874 -2.683901 0.795609 -3 0 -3 
C -0.795609 -3 -1.55874 -2.683901 -2.12132 -2.12132 
C -2.683901 -1.55874 -3 -0.795609 -3 0 
C -3 0.795609 -2.683901 1.55874 -2.12132 2.12132 
C -1.55874 2.683901 -0.795609 3 0 3 
z
"/>
    </defs>
    <g clip-path="url(#paeda798f29)">
     <use xlink:href="#C2_0_cb3bb266ac" x="374.959931" y="207.806141"/>
    </g>
    <g clip-path="url(#paeda798f29)">
     <use xlink:href="#C2_0_cb3bb266ac" x="384.031488" y="245.188027"/>
    </g>
    <g clip-path="url(#paeda798f29)">
     <use xlink:href="#C2_0_cb3bb266ac" x="385.293762" y="244.359975"/>
    </g>
    <g clip-path="url(#paeda798f29)">
     <use xlink:href="#C2_0_cb3bb266ac" x="373.531532" y="273.340787"/>
    </g>
   </g>
   <g id="legend_1"/>
  </g>
 </g>
 <defs>
  <clipPath id="paeda798f29">
   <rect x="61.56" y="43.2" width="381.672" height="277.2"/>
  </clipPath>
 </defs>
</svg>
