<?xml version="1.0" encoding="UTF-8" standalone="no"?>
<svg
   xmlns:dc="http://purl.org/dc/elements/1.1/"
   xmlns:cc="http://creativecommons.org/ns#"
   xmlns:rdf="http://www.w3.org/1999/02/22-rdf-syntax-ns#"
   xmlns:svg="http://www.w3.org/2000/svg"
   xmlns="http://www.w3.org/2000/svg"
   xmlns:xlink="http://www.w3.org/1999/xlink"
   xmlns:sodipodi="http://sodipodi.sourceforge.net/DTD/sodipodi-0.dtd"
   xmlns:inkscape="http://www.inkscape.org/namespaces/inkscape"
   width="324pt"
   height="252pt"
   viewBox="0 0 324 252"
   version="1.1"
   id="svg532"
   sodipodi:docname="rateC_avena2013.svg"
   inkscape:version="1.0.1 (c497b03c, 2020-09-10)">
  <sodipodi:namedview
     pagecolor="#ffffff"
     bordercolor="#666666"
     borderopacity="1"
     objecttolerance="10"
     gridtolerance="10"
     guidetolerance="10"
     inkscape:pageopacity="0"
     inkscape:pageshadow="2"
     inkscape:window-width="1301"
     inkscape:window-height="599"
     id="namedview534"
     showgrid="false"
     inkscape:zoom="0.43973244"
     inkscape:cx="216"
     inkscape:cy="168"
     inkscape:window-x="2365"
     inkscape:window-y="228"
     inkscape:window-maximized="0"
     inkscape:current-layer="svg532" />
  <metadata
     id="metadata324">
    <rdf:RDF>
      <cc:Work>
        <dc:type
           rdf:resource="http://purl.org/dc/dcmitype/StillImage" />
        <dc:date>2023-12-01T17:15:00.953461</dc:date>
        <dc:format>image/svg+xml</dc:format>
        <dc:creator>
          <cc:Agent>
            <dc:title>Matplotlib v3.8.0, https://matplotlib.org/</dc:title>
          </cc:Agent>
        </dc:creator>
      </cc:Work>
    </rdf:RDF>
  </metadata>
  <defs
     id="defs328">
    <style
       type="text/css"
       id="style326">*{stroke-linejoin: round; stroke-linecap: butt}</style>
  </defs>
  <g
     id="axes_1"
     transform="translate(23.878156,-23.878157)"
     inkscape:export-xdpi="300"
     inkscape:export-ydpi="300">
    <g
       id="patch_2">
      <path
         d="M 40.5,224.28 H 291.6 V 30.24 H 40.5 Z"
         style="fill:#ffffff"
         id="path333" />
    </g>
    <g
       id="matplotlib.axis_1">
      <g
         id="xtick_1">
        <g
           id="line2d_1">
          <defs
             id="defs337">
            <path
               id="m2a55f45510"
               d="M 0,0 V 3.5"
               style="stroke:#000000;stroke-width:0.8" />
          </defs>
          <g
             id="g341">
            <use
               xlink:href="#m2a55f45510"
               x="40.5"
               y="224.28"
               style="stroke:#000000;stroke-width:0.8"
               id="use339"
               width="100%"
               height="100%" />
          </g>
        </g>
        <g
           id="text_1">
          <text
             style="font-style:normal;font-variant:normal;font-weight:normal;font-stretch:normal;font-size:12px;line-height:normal;font-family:Arial, sans-serif"
             transform="rotate(-90,158.75,115.21812)"
             id="text344">January</text>
        </g>
      </g>
      <g
         id="xtick_2">
        <g
           id="line2d_2">
          <g
             id="g350">
            <use
               xlink:href="#m2a55f45510"
               x="71.887497"
               y="224.28"
               style="stroke:#000000;stroke-width:0.8"
               id="use348"
               width="100%"
               height="100%" />
          </g>
        </g>
        <g
           id="text_2">
          <text
             style="font-style:normal;font-variant:normal;font-weight:normal;font-stretch:normal;font-size:12px;line-height:normal;font-family:Arial, sans-serif"
             transform="rotate(-90,177.10625,102.18687)"
             id="text353">February</text>
        </g>
      </g>
      <g
         id="xtick_3">
        <g
           id="line2d_3">
          <g
             id="g359">
            <use
               xlink:href="#m2a55f45510"
               x="103.275"
               y="224.28"
               style="stroke:#000000;stroke-width:0.8"
               id="use357"
               width="100%"
               height="100%" />
          </g>
        </g>
        <g
           id="text_3">
          <text
             style="font-style:normal;font-variant:normal;font-weight:normal;font-stretch:normal;font-size:12px;line-height:normal;font-family:Arial, sans-serif"
             transform="rotate(-90,185.49734,79.120156)"
             id="text362">March</text>
        </g>
      </g>
      <g
         id="xtick_4">
        <g
           id="line2d_4">
          <g
             id="g368">
            <use
               xlink:href="#m2a55f45510"
               x="134.66251"
               y="224.28"
               style="stroke:#000000;stroke-width:0.8"
               id="use366"
               width="100%"
               height="100%" />
          </g>
        </g>
        <g
           id="text_4">
          <text
             style="font-style:normal;font-variant:normal;font-weight:normal;font-stretch:normal;font-size:12px;line-height:normal;font-family:Arial, sans-serif"
             transform="rotate(-90,196.52516,58.760469)"
             id="text371">April</text>
        </g>
      </g>
      <g
         id="xtick_5">
        <g
           id="line2d_5">
          <g
             id="g377">
            <use
               xlink:href="#m2a55f45510"
               x="166.05"
               y="224.28"
               style="stroke:#000000;stroke-width:0.8"
               id="use375"
               width="100%"
               height="100%" />
          </g>
        </g>
        <g
           id="text_5">
          <text
             style="font-style:normal;font-variant:normal;font-weight:normal;font-stretch:normal;font-size:12px;line-height:normal;font-family:Arial, sans-serif"
             transform="rotate(-90,211.51531,42.433437)"
             id="text380">May</text>
        </g>
      </g>
      <g
         id="xtick_6">
        <g
           id="line2d_6">
          <g
             id="g386">
            <use
               xlink:href="#m2a55f45510"
               x="197.4375"
               y="224.28"
               style="stroke:#000000;stroke-width:0.8"
               id="use384"
               width="100%"
               height="100%" />
          </g>
        </g>
        <g
           id="text_6">
          <text
             style="font-style:normal;font-variant:normal;font-weight:normal;font-stretch:normal;font-size:12px;line-height:normal;font-family:Arial, sans-serif"
             transform="rotate(-90,228.91953,28.379843)"
             id="text389">June</text>
        </g>
      </g>
      <g
         id="xtick_7">
        <g
           id="line2d_7">
          <g
             id="g395">
            <use
               xlink:href="#m2a55f45510"
               x="228.825"
               y="224.28"
               style="stroke:#000000;stroke-width:0.8"
               id="use393"
               width="100%"
               height="100%" />
          </g>
        </g>
        <g
           id="text_7">
          <text
             style="font-style:normal;font-variant:normal;font-weight:normal;font-stretch:normal;font-size:12px;line-height:normal;font-family:Arial, sans-serif"
             transform="rotate(-90,242.23812,10.38125)"
             id="text398">July</text>
        </g>
      </g>
      <g
         id="xtick_8">
        <g
           id="line2d_8">
          <g
             id="g404">
            <use
               xlink:href="#m2a55f45510"
               x="260.21249"
               y="224.28"
               style="stroke:#000000;stroke-width:0.8"
               id="use402"
               width="100%"
               height="100%" />
          </g>
        </g>
        <g
           id="text_8">
          <text
             style="font-style:normal;font-variant:normal;font-weight:normal;font-stretch:normal;font-size:12px;line-height:normal;font-family:Arial, sans-serif"
             transform="rotate(-90,265.94094,2.6965625)"
             id="text407">August</text>
        </g>
      </g>
      <g
         id="xtick_9">
        <g
           id="line2d_9">
          <g
             id="g413">
            <use
               xlink:href="#m2a55f45510"
               x="291.60001"
               y="224.28"
               style="stroke:#000000;stroke-width:0.8"
               id="use411"
               width="100%"
               height="100%" />
          </g>
        </g>
        <g
           id="text_9">
          <text
             style="font-style:normal;font-variant:normal;font-weight:normal;font-stretch:normal;font-size:12px;line-height:normal;font-family:Arial, sans-serif"
             transform="rotate(-90,292.37516,-2.4001565)"
             id="text416">September</text>
        </g>
      </g>
    </g>
    <g
       id="matplotlib.axis_2">
      <g
         id="ytick_1">
        <g
           id="line2d_10">
          <defs
             id="defs422">
            <path
               id="mffef9e14ec"
               d="M 0,0 H -3.5"
               style="stroke:#000000;stroke-width:0.8" />
          </defs>
          <g
             id="g426">
            <use
               xlink:href="#mffef9e14ec"
               x="40.5"
               y="215.46001"
               style="stroke:#000000;stroke-width:0.8"
               id="use424"
               width="100%"
               height="100%" />
          </g>
        </g>
        <g
           id="text_10">
          <text
             style="font-style:normal;font-variant:normal;font-weight:normal;font-stretch:normal;font-size:12px;line-height:normal;font-family:Arial, sans-serif;text-anchor:end"
             x="33.5"
             y="219.75468"
             id="text429">0.0000</text>
        </g>
      </g>
      <g
         id="ytick_2">
        <g
           id="line2d_11">
          <g
             id="g435">
            <use
               xlink:href="#mffef9e14ec"
               x="40.5"
               y="187.20659"
               style="stroke:#000000;stroke-width:0.8"
               id="use433"
               width="100%"
               height="100%" />
          </g>
        </g>
        <g
           id="text_11">
          <text
             style="font-style:normal;font-variant:normal;font-weight:normal;font-stretch:normal;font-size:12px;line-height:normal;font-family:Arial, sans-serif;text-anchor:end"
             x="33.5"
             y="191.50128"
             id="text438">0.0005</text>
        </g>
      </g>
      <g
         id="ytick_3">
        <g
           id="line2d_12">
          <g
             id="g444">
            <use
               xlink:href="#mffef9e14ec"
               x="40.5"
               y="158.95319"
               style="stroke:#000000;stroke-width:0.8"
               id="use442"
               width="100%"
               height="100%" />
          </g>
        </g>
        <g
           id="text_12">
          <text
             style="font-style:normal;font-variant:normal;font-weight:normal;font-stretch:normal;font-size:12px;line-height:normal;font-family:Arial, sans-serif;text-anchor:end"
             x="33.5"
             y="163.24788"
             id="text447">0.0010</text>
        </g>
      </g>
      <g
         id="ytick_4">
        <g
           id="line2d_13">
          <g
             id="g453">
            <use
               xlink:href="#mffef9e14ec"
               x="40.5"
               y="130.69978"
               style="stroke:#000000;stroke-width:0.8"
               id="use451"
               width="100%"
               height="100%" />
          </g>
        </g>
        <g
           id="text_13">
          <text
             style="font-style:normal;font-variant:normal;font-weight:normal;font-stretch:normal;font-size:12px;line-height:normal;font-family:Arial, sans-serif;text-anchor:end"
             x="33.5"
             y="134.99448"
             id="text456">0.0015</text>
        </g>
      </g>
      <g
         id="ytick_5">
        <g
           id="line2d_14">
          <g
             id="g462">
            <use
               xlink:href="#mffef9e14ec"
               x="40.5"
               y="102.44638"
               style="stroke:#000000;stroke-width:0.8"
               id="use460"
               width="100%"
               height="100%" />
          </g>
        </g>
        <g
           id="text_14">
          <text
             style="font-style:normal;font-variant:normal;font-weight:normal;font-stretch:normal;font-size:12px;line-height:normal;font-family:Arial, sans-serif;text-anchor:end"
             x="33.5"
             y="106.74107"
             id="text465">0.0020</text>
        </g>
      </g>
      <g
         id="ytick_6">
        <g
           id="line2d_15">
          <g
             id="g471">
            <use
               xlink:href="#mffef9e14ec"
               x="40.5"
               y="74.192978"
               style="stroke:#000000;stroke-width:0.8"
               id="use469"
               width="100%"
               height="100%" />
          </g>
        </g>
        <g
           id="text_15">
          <text
             style="font-style:normal;font-variant:normal;font-weight:normal;font-stretch:normal;font-size:12px;line-height:normal;font-family:Arial, sans-serif;text-anchor:end"
             x="33.5"
             y="78.487663"
             id="text474">0.0025</text>
        </g>
      </g>
      <g
         id="ytick_7">
        <g
           id="line2d_16">
          <g
             id="g480">
            <use
               xlink:href="#mffef9e14ec"
               x="40.5"
               y="45.939571"
               style="stroke:#000000;stroke-width:0.8"
               id="use478"
               width="100%"
               height="100%" />
          </g>
        </g>
        <g
           id="text_16">
          <text
             style="font-style:normal;font-variant:normal;font-weight:normal;font-stretch:normal;font-size:12px;line-height:normal;font-family:Arial, sans-serif;text-anchor:end"
             x="33.5"
             y="50.234261"
             id="text483">0.0030</text>
        </g>
      </g>
      <g
         id="text_17">
        <text
           style="font-style:normal;font-variant:normal;font-weight:normal;font-stretch:normal;font-size:12px;line-height:normal;font-family:Arial, sans-serif;text-anchor:middle"
           x="-9.5843754"
           y="127.26"
           transform="rotate(-90,-9.584375,127.26)"
           id="text487">Exudation rate [mol C m-3 h-1]</text>
      </g>
    </g>
    <g
       id="line2d_17">
      <path
         d="m 40.457033,215.46 1.331981,-0.10725 1.031212,-0.26359 12.116735,-0.0154 6.31617,0.13742 3.952978,-0.4009 2.70693,-0.82599 1.546817,-0.58711 2.062423,-0.051 1.246047,-0.41352 0.859343,-0.60154 1.589785,-1.77752 0.515606,-0.37095 0.945277,-0.20891 1.074178,0.42345 1.031212,-0.26632 1.117146,-0.67641 0.816375,-0.29057 1.331982,-2.69891 0.816376,-1.01318 0.988244,-0.1239 2.019456,-2.40765 1.074179,-3.21517 1.074178,-5.97464 0.945277,-1.72055 1.117146,-5.08356 0.945277,-0.91438 1.160113,-3.74092 0.859343,-4.21019 0.08594,0.0548 0.945277,0.60229 0.04297,-0.0798 1.117146,-2.26713 0.90231,-3.02259 1.50385,12.34374 1.546817,13.49668 0.257803,1.32286 1.117148,4.54199 0.98824,2.56643 1.03122,1.53484 1.33198,1.11006 1.89055,1.15095 1.20308,0.64878 0.98825,0.7629 1.58978,1.26421 4.08188,1.07203 2.53506,0.16322 1.97649,-0.11009 1.97649,-0.32371 1.67572,-0.41451 1.41791,-0.5337 0.98825,-0.64697 1.46088,-1.30139 1.50385,-1.30092 1.24605,-3.02856 0.85934,-2.23649 0.85934,-0.87375 1.11715,-9.17391 1.58978,-24.52094 0.51561,-8.59903 1.37495,-37.30828 0.94527,-32.178039 0.77341,-25.730578 0.90231,-5.071698 0.043,0.273232 1.58978,9.420747 0.42968,2.2403 1.03121,-21.310667 0.043,0.268703 1.11715,7.630341 2.06242,24.358107 2.01946,35.462672 0.94528,1.38624 1.16011,-7.89781 0.98824,-1.98129 0.94528,-3.85269 1.07418,8.90515 1.33198,25.97262 2.06242,29.05125 1.11715,10.61746 0.94528,8.28832 1.24604,11.65672 0.73045,5.18753 0.94527,4.24221 1.03121,1.83815 1.11715,0.76389 1.33198,0.25222 5.7576,0.3039 2.06242,-0.21035 1.24605,-0.10999 3.48034,0.32815 7.60518,0.36525 10.39805,0.0207 56.20103,0.0144 h 42.19374 v 0"
         clip-path="url(#p5448d3fac9)"
         style="fill:none;stroke:#ffa500;stroke-width:1.5;stroke-linecap:square"
         id="path491" />
    </g>
    <g
       id="line2d_18">
      <path
         d="m 40.457033,215.46 1.331981,-0.10725 1.031212,-0.26359 12.116735,-0.0154 6.31617,0.13742 3.952978,-0.4009 2.70693,-0.82599 1.546817,-0.58711 2.062423,-0.051 1.246047,-0.41352 0.859343,-0.60154 1.589785,-1.77752 0.515606,-0.37095 0.945277,-0.20891 1.074178,0.42345 1.031212,-0.26632 1.117146,-0.67641 0.816375,-0.29057 1.331982,-2.69891 0.816376,-1.01318 0.988244,-0.1239 2.019456,-2.40765 1.074179,-3.21517 1.074178,-5.97464 0.945277,-1.72055 1.117146,-5.08356 0.945277,-0.91438 1.160113,-3.74092 0.859343,-4.21019 0.08594,0.0548 0.945277,0.60229 0.04297,-0.0798 1.117146,-2.26713 0.90231,-3.02259 1.50385,12.34374 1.546817,13.49668 0.257803,1.32286 1.117148,4.54199 0.98824,2.56643 1.03122,1.53484 1.33198,1.11006 1.89055,1.15095 1.20308,0.64878 0.98825,0.7629 1.58978,1.26421 4.08188,1.07203 2.53506,0.16322 1.97649,-0.11009 1.97649,-0.32371 1.67572,-0.41451 1.41791,-0.5337 0.98825,-0.64697 1.46088,-1.30139 1.50385,-1.30092 1.24605,-3.02856 0.85934,-2.23649 0.85934,-0.87375 1.11715,-9.17391 1.58978,-24.52094 0.51561,-8.59903 1.37495,-37.30828 0.94527,-32.178039 0.77341,-25.730578 0.90231,-5.071698 0.043,0.273232 1.58978,9.420747 0.42968,2.2403 1.03121,-21.310667 0.043,0.268703 1.11715,7.630341 2.06242,24.358107 2.01946,35.462672 0.94528,1.38624 1.16011,-7.89781 0.98824,-1.98129 0.94528,-3.85269 1.07418,8.90515 1.33198,25.97262 2.06242,29.05125 1.11715,10.61746 0.94528,8.28832 1.24604,11.65672 0.73045,5.18753 0.94527,4.24221 1.03121,1.83815 1.11715,0.76389 1.33198,0.25222 5.7576,0.3039 2.06242,-0.21035 1.24605,-0.10999 3.48034,0.32815 7.60518,0.36525 10.39805,0.0207 56.20103,0.0144 h 42.19374 v 0"
         clip-path="url(#p5448d3fac9)"
         style="fill:none;stroke:#ffa500;stroke-width:1.5;stroke-linecap:square"
         id="path494" />
    </g>
    <g
       id="line2d_19">
      <path
         d="m 40.457033,215.46 h 2.062423 l 0.171868,-0.3173 1.289015,-0.0173 0.515606,-0.0437 0.60154,-0.0112 0.30077,-0.0451 0.687474,0.035 0.386704,-0.0558 0.644507,0.0255 0.429672,-0.0366 0.816376,-0.0111 1.976488,-0.0418 0.30077,-0.0239 0.687475,0.0231 0.30077,-0.047 0.687474,0.0793 0.386704,-0.0389 0.687475,0.0347 0.343737,-0.0149 0.687474,0.0701 0.343737,-0.0157 0.687475,0.0648 0.429671,-0.003 0.687475,0.0217 0.343737,0.025 0.730441,0.0317 0.644507,0.0655 0.343738,0.0123 0.558572,0.0493 0.945278,-0.0108 1.50385,-0.0396 0.558573,-0.0402 1.50385,-0.0821 0.644507,-0.0471 0.429671,-0.0595 0.515606,-0.0841 0.429672,-0.0827 0.687474,-0.17982 0.30077,-0.071 0.730441,-0.13383 0.257803,-0.0716 0.472639,-0.29782 0.515606,-0.0136 0.257803,-0.3288 0.128901,-0.21825 0.08593,-0.11236 0.04297,0.0489 0.257803,0.10404 0.257803,0.0625 0.171869,-0.22298 0.343737,-0.1117 0.429671,0.17484 0.171869,-0.005 0.257803,-0.0783 0.60154,0.33358 0.214836,-0.28309 0.257802,-0.15259 0.472639,0.31 0.04297,0.017 0.257803,-0.45913 0.214836,-0.15235 0.171868,-0.28676 0.515606,0.24061 0.171869,-0.39883 0.171868,-0.17712 0.08594,-0.4857 0.08593,0.0231 0.429671,0.0583 0.08593,-0.0663 0.171868,-0.61401 0.04297,0.009 0.257803,-0.75282 0.08593,0.079 0.343737,0.36342 0.343737,-0.77565 0.128901,-0.0148 0.558573,0.66486 0.128902,-0.86953 0.08593,0.0276 0.128901,-0.18758 0.128902,-0.0874 0.60154,1.21784 0.04297,-0.0263 0.214836,-0.50178 0.171868,-0.0774 0.343737,0.25691 0.214836,0.25638 0.04297,-0.0554 0.386705,-0.66032 0.214835,0.0642 0.386705,0.19784 0.128901,-0.99801 0.08593,0.0944 0.128902,-0.0255 0.128901,-0.0464 0.644507,0.8457 0.08594,-0.49033 0.128901,-0.52894 0.128902,-0.32005 0.128901,-1.5828 0.128902,0.12714 0.429671,0.51613 0.04297,-0.0504 0.128902,-0.92221 0.214835,-0.2878 0.08593,-1.08351 0.128901,0.23939 0.171869,0.34166 0.171868,0.31877 0.04297,-0.15961 0.04297,0.014 0.171869,-0.82446 0.171869,-0.3426 0.343737,0.59111 0.343737,0.79394 0.04297,-0.22733 0.128902,-0.96398 0.214835,-0.0664 0.08594,-1.00773 0.128901,0.26194 0.386704,1.16464 0.04297,-0.10968 0.04297,-0.0938 0.171868,-1.32459 0.128902,-0.11474 0.08593,-1.17738 0.04297,-1.02663 0.08593,0.29384 0.472639,2.25418 0.04297,-0.12685 0.08593,-1.42281 0.08594,0.0965 0.128901,0.027 0.04297,-0.13598 0.08594,-1.83398 0.08593,0.32231 0.472638,1.70149 0.04297,-0.16492 0.429671,-8.6802 0.08593,0.29796 0.429672,2.15113 0.04297,0.0631 0.04297,-0.26748 0.08593,-2.6632 0.04297,0.0674 0.128901,-0.007 0.04297,-0.0467 0.04297,-0.25875 0.08593,-2.94527 0.08593,0.54101 0.472638,3.90843 0.04297,-0.19368 0.08593,-2.77263 0.08593,0.0786 0.128902,-0.20355 0.04297,-0.39372 0.08593,-3.72392 0.08593,0.58528 0.386705,2.81825 0.128901,-4.42263 0.128902,0.24142 0.171868,-0.36388 0.04297,0.14375 0.558573,3.12351 0.08593,-0.87584 0.171869,-2.89222 0.257803,-0.47823 0.08593,-0.81386 0.04297,0.11405 0.257803,1.56784 0.214836,1.03141 0.04297,-0.58111 0.171869,-3.9895 0.08593,-0.20837 0.08593,-1.47913 0.08594,-5.39668 0.08593,0.3846 0.30077,3.44172 0.171868,1.34587 0.128902,-3.85109 0.08593,0.71085 0.171869,0.7123 0.04297,-0.36865 0.04297,-1.57362 0.08593,0.48584 0.472639,4.22042 0.08593,-3.07731 0.128902,0.25806 0.171868,-0.2503 0.04297,-0.2504 0.04297,-2.49736 0.08593,0.1793 0.472638,3.59485 0.08594,-3.44492 0.08593,0.51477 0.08593,0.35156 0.04297,-0.008 0.04297,-0.0262 0.04297,0.0915 0.04297,0.13356 0.171869,-1.17791 0.128901,0.18048 0.214836,0.41557 0.128901,-5.62585 0.04297,0.63126 0.214836,2.07211 0.08593,0.43769 0.558573,7.19469 0.08593,-0.36555 0.04297,-1.78458 0.08593,1.03782 0.257803,2.37611 0.558573,6.23654 0.08593,-0.72108 0.30077,3.23998 0.128901,0.86612 0.60154,7.37404 0.08594,-0.94175 0.04297,0.26835 0.257803,1.66152 0.04297,0.0525 0.043,-0.45834 0.043,0.25792 0.51561,3.91347 0.043,-0.43801 0.043,-0.36396 0.043,0.19373 0.2578,1.18604 0.043,0.0411 0.043,-0.28615 0.043,0.18053 0.51561,2.83331 0.043,-0.18605 0.043,-0.57111 0.0859,0.19999 0.21483,0.53748 0.043,-0.0779 0.043,-0.44805 0.0859,0.26384 0.47264,1.97036 0.043,-0.13181 0.0859,-0.50065 0.043,0.14497 0.21483,0.38147 0.043,-0.10548 0.043,-0.49164 0.0859,0.18984 0.47264,1.47656 0.043,-0.12733 0.0859,-0.43411 0.043,0.11337 0.21484,0.26757 0.043,-0.0954 0.043,-0.49579 0.0859,0.11776 0.47264,1.34085 0.043,-0.1302 0.0859,-0.38492 0.043,0.0888 0.21484,0.21762 0.0859,-0.71363 0.0859,0.17755 0.47263,1.18097 0.0859,-0.35594 0.043,0.0839 0.30077,0.39768 0.1289,0.0416 0.34373,0.42398 0.043,-0.0641 0.1289,-0.48149 0.043,0.0974 0.21484,0.21753 0.17186,0.0756 0.42968,0.58567 0.17186,-0.31801 0.25781,0.33422 0.17187,0.1003 0.55857,0.6582 0.043,-0.1331 0.043,0.0535 0.30077,0.33082 0.98825,0.76075 0.1289,-0.0391 0.043,-0.0963 0.0859,0.0617 0.42967,0.25074 0.0859,-0.0647 0.043,0.0345 0.38671,0.15229 1.97649,0.49231 1.80462,0.3008 1.33198,0.0632 0.30077,0.004 0.68747,-0.0386 0.30077,-0.032 0.81638,-0.0632 0.94527,-0.0759 0.21484,-0.0994 0.47264,-0.0701 0.21483,-0.003 0.12891,-0.10784 0.17186,-0.1214 0.47264,0.10409 0.12891,-0.0797 0.2578,-0.0217 0.17187,-0.19651 0.47264,0.067 0.0859,-0.17859 0.043,0.0178 0.21483,4.8e-4 0.1289,-0.46861 0.12891,0.0651 0.3867,0.21488 0.0859,-0.20752 0.043,0.0228 0.30077,0.05 0.0859,-0.41251 0.0859,0.0316 0.3867,0.13677 0.17187,-0.37259 0.0859,0.0564 0.21483,0.0127 0.21484,-0.58164 0.3867,-0.10031 0.0859,-0.45591 0.043,0.0318 0.25781,0.1324 0.043,-0.0679 0.12891,-0.87317 0.043,0.0156 0.21484,0.29022 0.21483,0.27275 0.12891,-0.62043 0.043,0.0695 0.17187,0.12982 0.043,-0.0405 0.1289,-1.34838 0.1289,0.21246 0.38671,0.82691 0.0859,-0.74604 0.043,0.0746 0.2578,0.41521 0.043,-0.0725 0.0859,-1.25338 0.0859,0.0805 0.34373,0.36077 0.043,-0.0642 0.0859,-0.95914 0.0859,-0.77736 0.043,0.0962 0.17186,0.20287 0.043,-0.10328 0.0859,-1.45971 0.0859,-1.23279 0.043,0.0196 0.2578,0.42456 0.1289,0.17616 0.043,-0.28166 0.043,-1.19841 0.0859,0.23925 0.17187,0.2556 0.1289,0.0426 0.0859,-1.90454 0.12891,0.33706 0.34373,1.81489 0.043,-0.009 0.0859,-1.87748 0.0859,0.31736 0.21483,0.5614 0.043,-0.33847 0.0859,-3.13445 0.0859,0.13319 0.30077,0.66828 0.043,-0.10864 0.0859,-0.6684 0.1289,-4.82235 0.0859,0.13422 0.043,0.0132 0.043,-0.10598 0.0859,-1.70995 0.2578,-10.54497 0.1289,0.23183 0.21484,0.51303 0.043,-0.77379 0.0859,-5.95452 0.043,0.29061 0.21484,1.84871 0.043,0.0714 0.043,-0.71446 0.12891,-9.72295 0.0859,0.17237 0.34374,2.06848 0.043,-1.03965 0.0859,-7.86708 0.043,0.45153 0.2578,2.86157 0.043,-1.16914 0.21483,-13.81943 0.1289,-0.0254 0.1289,-0.30656 0.0859,-0.6984 0.0859,-10.17188 0.043,-3.74636 0.0859,1.50685 0.17187,3.04973 0.043,-0.11748 0.0859,-10.73013 0.12891,-10.53015 0.1289,1.87189 0.2578,5.50629 0.043,-1.01615 0.1289,-21.28086 0.0859,2.56587 0.0859,1.32516 0.043,-0.9033 0.0859,-14.506061 0.0859,-25.436421 0.0859,1.433064 0.3867,13.803605 0.043,-3.489203 0.0859,-19.73825 0.043,1.636561 0.2578,12.813429 0.043,-1.936038 0.0859,-25.727601 0.0859,2.65716 0.3867,18.442256 0.0859,-16.709763 0.0859,5.70356 0.30077,12.523223 0.043,-0.452015 0.043,-6.366281 0.0859,1.176638 0.30077,11.996935 0.0859,-1.344553 0.0859,-16.713824 0.043,2.461591 0.30077,14.622294 0.043,1.308844 0.043,-2.00484 0.043,-10.305739 0.0859,1.727041 0.30077,18.806404 0.0859,4.865115 0.043,-1.017627 0.0859,-20.532449 0.0859,3.352544 0.17187,8.131196 0.043,-0.522744 0.0859,-24.167414 0.043,-15.632917 0.0859,3.617356 0.38671,24.993219 0.043,-2.777145 0.0859,-22.139237 0.043,2.683504 0.30077,18.152315 0.0859,-24.316004 0.1289,5.840619 0.34374,23.605953 0.043,-3.432749 0.0859,-16.661141 0.043,3.643748 0.30077,17.14267 0.043,-1.753517 0.043,-13.613177 0.0859,2.184741 0.30077,17.265582 0.0859,-2.787224 0.0859,-14.564568 0.043,4.327682 0.25781,15.420513 0.1289,4.06242 0.043,-1.036219 0.043,-0.31277 0.043,0.457849 0.21483,7.110221 0.0859,3.204484 0.0859,-8.340304 0.043,-14.276965 0.0859,5.013067 0.30077,18.199666 0.0859,3.455512 0.043,-0.89853 0.0859,-1.03537 0.043,0.537363 0.30077,9.077416 0.043,-0.61753 0.0859,-13.486406 0.043,3.540018 0.30077,19.436668 0.0859,3.53418 0.0859,-3.25827 0.043,0.20748 0.1289,3.27339 0.25781,10.24322 0.043,-2.56913 0.0859,-10.2394 0.043,2.85501 0.25781,15.06241 0.043,-0.86696 0.0859,-18.61863 0.0859,1.74478 0.38671,15.32329 0.043,-2.31099 0.0859,-10.75223 0.043,2.39308 0.2578,13.72382 0.043,-1.83656 0.0859,-18.70693 0.0859,1.81844 0.34374,11.66625 0.043,-0.34546 0.1289,-16.19303 0.043,2.01494 0.2578,13.60663 0.043,-1.85473 0.0859,-19.37137 0.0859,2.39091 0.3867,16.93276 0.043,-2.49589 0.0859,-12.76298 0.043,1.92071 0.2578,13.11536 0.043,-2.01512 0.0859,-20.10665 0.0859,2.32702 0.3867,13.70828 0.1289,-14.960886 0.043,2.970186 0.30077,18.0179 0.043,-1.56743 0.043,-5.92124 0.0859,0.73765 0.2578,5.74396 0.043,-1.0214 0.0859,-2.61548 0.0859,-10.89192 0.043,2.87228 0.38671,22.04717 0.043,-0.25277 0.043,-3.32704 0.0859,1.1068 0.34373,8.5464 0.0859,-7.87606 0.043,2.66834 0.34373,16.63502 0.043,1.40248 0.043,-0.88227 0.043,-5.12037 0.0859,1.08223 0.34374,7.92441 0.0859,-7.128 0.043,2.15383 0.34373,15.21949 0.043,1.08935 0.0859,-8.11905 0.1289,2.5645 0.30077,9.19949 0.0859,-5.51839 0.043,1.79654 0.34374,13.12808 0.043,0.95437 0.043,-1.2255 0.043,-3.64427 0.0859,0.60926 0.34374,3.49077 0.043,-3.6981 0.043,0.72485 0.38671,12.06306 0.0859,1.09705 0.1289,-2.26667 0.0859,0.11922 0.21483,0.6832 0.043,-0.60667 0.043,-2.60105 0.043,0.36667 0.42968,12.09936 0.0859,0.99058 0.043,-0.24037 0.0859,-0.0812 0.17187,0.64418 0.043,-0.26886 0.0859,-1.06603 0.043,-0.75988 0.043,1.03162 0.3867,7.76011 0.1289,1.78791 0.0859,-0.0148 0.17186,0.59427 0.043,0.20423 0.1289,-0.92139 0.043,0.17317 0.3867,4.59066 0.30077,1.71466 0.30077,0.97713 0.043,-0.32137 0.043,0.18376 0.3867,2.13808 0.0859,0.19532 0.043,-0.12409 0.25781,0.40067 0.17187,0.26262 0.0859,-0.19285 0.043,0.12128 0.3867,0.96057 0.30077,0.0207 0.21484,0.14659 0.0859,-0.14758 0.043,0.0515 0.3867,0.48271 0.21484,-0.12192 0.34374,0.0685 0.0859,-0.0745 0.043,0.0432 0.34374,0.24862 0.17186,-0.17666 0.34374,0.0713 0.0859,-0.13622 0.043,0.0344 0.42967,0.28582 0.30077,-0.0136 0.12891,-0.0818 0.1289,-0.16195 0.043,0.038 0.42968,0.2663 0.47263,-0.0794 0.0859,-0.10747 0.043,0.0325 0.42967,0.22736 0.47264,-0.16127 0.0859,-0.0674 0.043,0.0335 0.42967,0.22154 0.68747,-0.0922 0.34374,0.10486 0.17187,-0.0592 0.34374,-0.0658 0.1289,0.0285 0.3867,0.14648 0.30077,-0.0518 0.17187,-0.0714 0.1289,-0.10688 0.42967,0.1568 0.17187,-0.10746 0.34374,-0.0943 0.0859,-0.11409 0.043,0.0293 0.34374,0.20051 0.2578,-0.19909 0.21484,-0.0313 0.1289,-0.25247 0.0859,0.092 0.42967,0.27783 0.55858,-0.17335 0.47263,0.30776 0.51561,-0.21738 0.47264,0.28531 0.17187,-0.0401 0.2578,-0.16849 0.0859,-0.0282 0.043,0.0382 0.47264,0.27029 0.21484,-0.0268 0.21483,-0.12902 0.0859,-0.0709 0.043,0.0316 0.51561,0.25395 0.77341,0.0219 0.5156,0.0426 1.67572,0.0695 0.51561,-0.0287 0.21483,0.0235 0.85935,0.0525 0.5156,0.0291 2.53506,-0.0162 0.34374,0.009 1.71869,-5.8e-4 0.55857,0.0181 4.51155,0.005 3.35144,0.003 5.97243,0.001 13.66355,2.8e-4 6.35914,0.006 12.84718,0.002 34.58855,0.005 h 23.6749 v 0"
         clip-path="url(#p5448d3fac9)"
         style="fill:none;stroke:#000000;stroke-linecap:square"
         id="path497" />
    </g>
    <g
       id="line2d_20">
      <path
         d="M 201.15416,224.28 V 30.24"
         clip-path="url(#p5448d3fac9)"
         style="fill:none;stroke:#000000;stroke-dasharray:3.7, 1.6;stroke-dashoffset:0"
         id="path500" />
    </g>
    <g
       id="patch_3">
      <path
         d="M 40.5,224.28 V 30.24"
         style="fill:none;stroke:#000000;stroke-width:0.8;stroke-linecap:square;stroke-linejoin:miter"
         id="path503" />
    </g>
    <g
       id="patch_4">
      <path
         d="M 291.6,224.28 V 30.24"
         style="fill:none;stroke:#000000;stroke-width:0.8;stroke-linecap:square;stroke-linejoin:miter"
         id="path506" />
    </g>
    <g
       id="patch_5">
      <path
         d="M 40.5,224.28 H 291.6"
         style="fill:none;stroke:#000000;stroke-width:0.8;stroke-linecap:square;stroke-linejoin:miter"
         id="path509" />
    </g>
    <g
       id="patch_6">
      <path
         d="M 40.5,30.24 H 291.6"
         style="fill:none;stroke:#000000;stroke-width:0.8;stroke-linecap:square;stroke-linejoin:miter"
         id="path512" />
    </g>
    <g
       id="legend_1">
      <g
         id="patch_7">
        <path
           d="m 47.5,52.385313 h 54.24375 q 2,0 2,-2 V 37.24 q 0,-2 -2,-2 H 47.5 q -2,0 -2,2 v 13.145313 q 0,2 2,2 z"
           style="opacity:0.8;fill:#ffffff;stroke:#cccccc;stroke-linejoin:miter"
           id="path515" />
      </g>
      <g
         id="line2d_21">
        <path
           d="m 49.5,42.897813 h 10 10"
           style="fill:none;stroke:#000000;stroke-linecap:square"
           id="path518" />
      </g>
      <g
         id="text_18">
        <text
           style="font-style:normal;font-variant:normal;font-weight:normal;font-stretch:normal;font-size:10px;line-height:normal;font-family:Arial, sans-serif;text-anchor:start"
           x="77.5"
           y="46.397812"
           id="text521">2013</text>
      </g>
    </g>
  </g>
  <defs
     id="defs530">
    <clipPath
       id="p5448d3fac9">
      <rect
         x="40.5"
         y="30.24"
         width="251.1"
         height="194.04"
         id="rect527" />
    </clipPath>
  </defs>
</svg>
