<?xml version="1.0" encoding="utf-8" standalone="no"?>
<!DOCTYPE svg PUBLIC "-//W3C//DTD SVG 1.1//EN"
  "http://www.w3.org/Graphics/SVG/1.1/DTD/svg11.dtd">
<svg xmlns:xlink="http://www.w3.org/1999/xlink" width="324pt" height="252pt" viewBox="0 0 324 252" xmlns="http://www.w3.org/2000/svg" version="1.1">
 <metadata>
  <rdf:RDF xmlns:dc="http://purl.org/dc/elements/1.1/" xmlns:cc="http://creativecommons.org/ns#" xmlns:rdf="http://www.w3.org/1999/02/22-rdf-syntax-ns#">
   <cc:Work>
    <dc:type rdf:resource="http://purl.org/dc/dcmitype/StillImage"/>
    <dc:date>2023-12-09T12:14:47.751496</dc:date>
    <dc:format>image/svg+xml</dc:format>
    <dc:creator>
     <cc:Agent>
      <dc:title>Matplotlib v3.8.0, https://matplotlib.org/</dc:title>
     </cc:Agent>
    </dc:creator>
   </cc:Work>
  </rdf:RDF>
 </metadata>
 <defs>
  <style type="text/css">*{stroke-linejoin: round; stroke-linecap: butt}</style>
 </defs>
 <g id="figure_1">
  <g id="patch_1">
   <path d="M 0 252 
L 324 252 
L 324 0 
L 0 0 
z
" style="fill: #ffffff"/>
  </g>
  <g id="axes_1">
   <g id="patch_2">
    <path d="M 40.5 224.28 
L 291.6 224.28 
L 291.6 30.24 
L 40.5 30.24 
z
" style="fill: #ffffff"/>
   </g>
   <g id="matplotlib.axis_1">
    <g id="xtick_1">
     <g id="line2d_1">
      <defs>
       <path id="mde090a91b7" d="M 0 0 
L 0 3.5 
" style="stroke: #000000; stroke-width: 0.8"/>
      </defs>
      <g>
       <use xlink:href="#mde090a91b7" x="40.5" y="224.28" style="stroke: #000000; stroke-width: 0.8"/>
      </g>
     </g>
     <g id="text_1">
      <text style="font: 12px 'Arial', sans-serif" transform="translate(43.531875 273.968125) rotate(-90)">January</text>
     </g>
    </g>
    <g id="xtick_2">
     <g id="line2d_2">
      <g>
       <use xlink:href="#mde090a91b7" x="98.842414" y="224.28" style="stroke: #000000; stroke-width: 0.8"/>
      </g>
     </g>
     <g id="text_2">
      <text style="font: 12px 'Arial', sans-serif" transform="translate(101.874289 279.293125) rotate(-90)">February</text>
     </g>
    </g>
    <g id="xtick_3">
     <g id="line2d_3">
      <g>
       <use xlink:href="#mde090a91b7" x="157.184828" y="224.28" style="stroke: #000000; stroke-width: 0.8"/>
      </g>
     </g>
     <g id="text_3">
      <text style="font: 12px 'Arial', sans-serif" transform="translate(160.287016 264.6175) rotate(-90)">March</text>
     </g>
    </g>
    <g id="xtick_4">
     <g id="line2d_4">
      <g>
       <use xlink:href="#mde090a91b7" x="215.527242" y="224.28" style="stroke: #000000; stroke-width: 0.8"/>
      </g>
     </g>
     <g id="text_4">
      <text style="font: 12px 'Arial', sans-serif" transform="translate(218.62943 255.285625) rotate(-90)">April</text>
     </g>
    </g>
    <g id="xtick_5">
     <g id="line2d_5">
      <g>
       <use xlink:href="#mde090a91b7" x="273.869656" y="224.28" style="stroke: #000000; stroke-width: 0.8"/>
      </g>
     </g>
     <g id="text_5">
      <text style="font: 12px 'Arial', sans-serif" transform="translate(276.901531 253.94875) rotate(-90)">May</text>
     </g>
    </g>
   </g>
   <g id="matplotlib.axis_2">
    <g id="ytick_1">
     <g id="line2d_6">
      <defs>
       <path id="mb5f74988e9" d="M 0 0 
L -3.5 0 
" style="stroke: #000000; stroke-width: 0.8"/>
      </defs>
      <g>
       <use xlink:href="#mb5f74988e9" x="40.5" y="215.46" style="stroke: #000000; stroke-width: 0.8"/>
      </g>
     </g>
     <g id="text_6">
      <text style="font: 12px 'Arial', sans-serif; text-anchor: end" x="33.5" y="219.754688" transform="rotate(-0 33.5 219.754688)">0.000</text>
     </g>
    </g>
    <g id="ytick_2">
     <g id="line2d_7">
      <g>
       <use xlink:href="#mb5f74988e9" x="40.5" y="169.67877" style="stroke: #000000; stroke-width: 0.8"/>
      </g>
     </g>
     <g id="text_7">
      <text style="font: 12px 'Arial', sans-serif; text-anchor: end" x="33.5" y="173.973458" transform="rotate(-0 33.5 173.973458)">0.001</text>
     </g>
    </g>
    <g id="ytick_3">
     <g id="line2d_8">
      <g>
       <use xlink:href="#mb5f74988e9" x="40.5" y="123.89754" style="stroke: #000000; stroke-width: 0.8"/>
      </g>
     </g>
     <g id="text_8">
      <text style="font: 12px 'Arial', sans-serif; text-anchor: end" x="33.5" y="128.192228" transform="rotate(-0 33.5 128.192228)">0.002</text>
     </g>
    </g>
    <g id="ytick_4">
     <g id="line2d_9">
      <g>
       <use xlink:href="#mb5f74988e9" x="40.5" y="78.116311" style="stroke: #000000; stroke-width: 0.8"/>
      </g>
     </g>
     <g id="text_9">
      <text style="font: 12px 'Arial', sans-serif; text-anchor: end" x="33.5" y="82.410998" transform="rotate(-0 33.5 82.410998)">0.003</text>
     </g>
    </g>
    <g id="ytick_5">
     <g id="line2d_10">
      <g>
       <use xlink:href="#mb5f74988e9" x="40.5" y="32.335081" style="stroke: #000000; stroke-width: 0.8"/>
      </g>
     </g>
     <g id="text_10">
      <text style="font: 12px 'Arial', sans-serif; text-anchor: end" x="33.5" y="36.629768" transform="rotate(-0 33.5 36.629768)">0.004</text>
     </g>
    </g>
    <g id="text_11">
     <text style="font: 12px 'Arial', sans-serif; text-anchor: middle" x="-2.91125" y="127.26" transform="rotate(-90 -2.91125 127.26)">Exudation rate [mol C m-3 h-1]</text>
    </g>
   </g>
   <g id="line2d_11">
    <path d="M 40.420134 215.46 
L 46.010782 215.351467 
L 48.087309 215.17466 
L 58.31021 215.0203 
L 63.820992 214.970254 
L 76.280153 214.735341 
L 82.988931 214.370687 
L 84.825859 214.177754 
L 85.784256 213.961936 
L 88.339981 212.787325 
L 91.295038 211.129203 
L 95.687691 203.058882 
L 97.125286 200.027189 
L 99.121947 193.842526 
L 101.198473 190.41982 
L 102.875668 188.160176 
L 104.792462 184.022564 
L 106.789122 182.21461 
L 110.62271 177.279202 
L 112.299905 176.314853 
L 114.216698 178.424784 
L 116.772424 186.429503 
L 120.366412 196.461069 
L 122.522805 202.793614 
L 124.279866 207.00771 
L 125.877195 209.927406 
L 128.113454 211.487057 
L 132.266508 213.439289 
L 135.221565 214.167886 
L 136.89876 214.431759 
L 138.496088 214.566496 
L 139.77395 214.54268 
L 142.090076 214.407789 
L 144.565935 214.297398 
L 146.961927 214.025852 
L 149.038454 213.134395 
L 150.795515 212.858142 
L 153.750573 211.238674 
L 154.549237 210.768648 
L 156.625763 207.842106 
L 158.302958 206.642155 
L 160.299618 198.286124 
L 162.216412 179.703928 
L 164.612405 142.596495 
L 166.129866 123.808334 
L 167.886927 112.879037 
L 167.966794 112.923085 
L 169.803721 113.936195 
L 171.720515 107.855125 
L 175.633969 52.819645 
L 177.470897 51.077928 
L 179.467557 64.964374 
L 181.544084 92.540414 
L 183.221279 105.931824 
L 183.301145 105.835552 
L 185.138073 103.621314 
L 187.214599 122.767268 
L 191.048187 140.169166 
L 194.801908 165.591021 
L 196.638836 174.635916 
L 198.715363 167.178769 
L 200.472424 164.994373 
L 202.469084 167.419657 
L 204.306011 166.977786 
L 207.181202 171.871998 
L 208.219466 173.911927 
L 212.212786 187.351833 
L 214.528912 194.093631 
L 216.445706 200.654357 
L 218.043034 206.279193 
L 219.879962 210.616511 
L 221.796756 213.113257 
L 223.873282 214.306044 
L 226.029676 214.911883 
L 228.425668 215.191244 
L 229.94313 215.180343 
L 233.05792 215.010598 
L 240.884828 215.218709 
L 248.552004 214.974428 
L 251.347328 214.502675 
L 258.295706 213.902591 
L 263.726622 213.981943 
L 268.598473 214.896743 
L 271.234065 215.047736 
L 272.272328 214.974529 
L 280.977767 214.299753 
L 285.37042 214.533201 
L 287.606679 214.570213 
L 289.922805 214.546083 
L 291.679866 214.50361 
L 291.679866 214.50361 
" clip-path="url(#p8b48d2ebe3)" style="fill: none; stroke: #ffa500; stroke-width: 1.5; stroke-linecap: square"/>
   </g>
   <g id="line2d_12">
    <path d="M 40.420134 215.46 
L 46.72958 215.358894 
L 48.806107 215.095719 
L 58.150477 214.976926 
L 63.820992 214.948151 
L 77.558015 214.615479 
L 83.46813 214.33628 
L 85.065458 214.139008 
L 86.742653 213.636035 
L 90.496374 211.51162 
L 93.371565 207.417506 
L 94.729294 205.181131 
L 96.166889 202.420594 
L 100.16021 191.134356 
L 103.834065 186.443993 
L 105.830725 181.4418 
L 107.747519 178.688941 
L 109.744179 176.827217 
L 111.421374 174.748751 
L 113.258302 174.742299 
L 116.612691 184.28817 
L 119.008683 191.095027 
L 121.404676 199.24567 
L 124.040267 206.196525 
L 124.998664 208.33694 
L 126.835592 210.870118 
L 129.790649 212.328593 
L 133.304771 213.741852 
L 136.818893 214.398092 
L 139.055153 214.55021 
L 144.246469 214.415821 
L 146.722328 213.987178 
L 149.198187 213.246559 
L 150.955248 212.779433 
L 151.913645 212.451342 
L 153.830439 211.293521 
L 155.747233 209.435118 
L 158.622424 205.801942 
L 159.261355 205.043534 
L 161.258015 191.441855 
L 163.254676 165.712567 
L 165.091603 133.188828 
L 167.088263 122.800149 
L 168.925191 117.825616 
L 170.762118 117.006593 
L 172.918511 85.694932 
L 174.995038 69.110495 
L 176.5125 59.860096 
L 176.592366 59.931141 
L 178.429294 61.565186 
L 180.505821 80.679718 
L 182.422615 90.787783 
L 185.138073 112.005622 
L 186.575668 121.676613 
L 188.492462 132.03079 
L 190.169656 139.841847 
L 194.162977 163.967508 
L 195.680439 171.464843 
L 195.760305 171.442008 
L 197.597233 170.916816 
L 199.514027 162.436383 
L 201.430821 169.938759 
L 201.510687 169.896738 
L 203.427481 169.003479 
L 205.344275 170.836602 
L 207.580534 174.798418 
L 209.177863 177.0704 
L 212.13292 186.727645 
L 213.730248 191.259527 
L 215.008111 194.851428 
L 217.164504 203.321563 
L 218.921565 208.488618 
L 220.838359 212.02052 
L 222.755153 213.817165 
L 224.911546 214.660707 
L 227.627004 215.126313 
L 229.144466 215.20691 
L 231.540458 215.100069 
L 233.377385 215.062042 
L 236.971374 215.189221 
L 241.28416 215.2274 
L 247.673473 215.108816 
L 259.333969 213.778822 
L 263.886355 213.967827 
L 268.917939 214.874981 
L 272.67166 214.945763 
L 275.546851 214.709115 
L 277.144179 214.551391 
L 279.380439 214.344604 
L 282.016031 214.304734 
L 290.961069 214.505301 
L 291.679866 214.46577 
L 291.679866 214.46577 
" clip-path="url(#p8b48d2ebe3)" style="fill: none; stroke: #ffa500; stroke-width: 1.5; stroke-linecap: square"/>
   </g>
   <g id="line2d_13">
    <path d="M 40.420134 215.46 
L 47.049046 215.46 
L 47.288645 215.188456 
L 48.247042 215.101949 
L 49.045706 215.147297 
L 50.004103 215.093837 
L 50.403435 215.052177 
L 52.95916 215.047532 
L 72.127099 214.869707 
L 73.00563 214.817389 
L 73.644561 214.80915 
L 74.602958 214.846917 
L 75.321756 214.747354 
L 76.12042 214.767234 
L 76.839218 214.679506 
L 77.637882 214.608269 
L 78.276813 214.640988 
L 79.155344 214.473564 
L 79.474809 214.488408 
L 80.513073 214.586789 
L 81.152004 214.304045 
L 82.589599 214.417505 
L 83.308397 214.257565 
L 84.027195 214.426533 
L 84.266794 214.429067 
L 84.506393 214.297328 
L 84.825859 214.136704 
L 85.065458 213.997651 
L 86.103721 214.146551 
L 86.423187 213.865846 
L 86.662786 213.622483 
L 86.902385 213.238655 
L 88.020515 213.317866 
L 88.978912 212.098797 
L 89.617844 212.355961 
L 89.937309 212.402613 
L 90.336641 211.83747 
L 90.57624 211.622129 
L 90.735973 210.995474 
L 90.81584 211.052039 
L 91.614504 211.361958 
L 92.013836 210.850786 
L 92.652767 207.560587 
L 92.972233 207.681476 
L 93.691031 208.115813 
L 93.770897 208.126547 
L 93.93063 207.156338 
L 94.329962 205.407121 
L 94.569561 203.406713 
L 94.729294 203.640728 
L 95.687691 204.94244 
L 95.767557 204.601251 
L 95.92729 203.414343 
L 96.326622 201.828545 
L 96.486355 199.912308 
L 96.646088 200.124242 
L 96.965553 200.496345 
L 97.285019 200.604216 
L 97.524618 200.402822 
L 97.604485 200.033939 
L 97.844084 197.801912 
L 98.243416 196.112989 
L 98.403149 193.289879 
L 98.483015 193.384384 
L 98.562882 193.426193 
L 98.802481 193.985964 
L 99.441412 194.84069 
L 99.521279 194.722262 
L 99.681011 192.681702 
L 99.920611 191.531652 
L 100.319943 188.922009 
L 100.399809 189.139367 
L 100.559542 189.649114 
L 101.118607 191.717222 
L 101.358206 192.31653 
L 101.438073 192.280269 
L 101.677672 189.788674 
L 102.15687 187.662645 
L 102.236737 185.834163 
L 102.316603 186.179988 
L 102.476336 186.906003 
L 103.275 190.404373 
L 103.354866 190.482599 
L 103.594466 187.442292 
L 103.993798 185.820671 
L 104.153531 182.113773 
L 104.233397 182.298693 
L 104.632729 183.84876 
L 105.032061 185.234383 
L 105.111927 185.145938 
L 105.191794 185.265531 
L 105.27166 184.629408 
L 105.431393 182.21166 
L 105.591126 182.01749 
L 105.830725 181.594115 
L 105.990458 181.702084 
L 106.070324 181.275757 
L 106.150191 181.393231 
L 107.028721 183.103668 
L 107.108588 182.649892 
L 107.428053 179.397964 
L 107.747519 178.647029 
L 107.987118 179.06164 
L 108.146851 179.026698 
L 108.865649 180.715158 
L 108.945515 181.065762 
L 109.025382 180.768927 
L 109.105248 180.020641 
L 109.264981 177.186033 
L 109.424714 177.278353 
L 109.744179 177.254655 
L 109.824046 177.37724 
L 110.063645 176.813737 
L 110.223378 176.931 
L 110.782443 178.073208 
L 110.942176 176.289681 
L 111.101908 174.013525 
L 111.341508 174.801831 
L 111.421374 174.749032 
L 111.660973 174.359644 
L 111.820706 175.36457 
L 111.900573 175.153493 
L 111.980439 175.148236 
L 112.140172 175.477555 
L 112.699237 177.431625 
L 112.858969 175.979116 
L 112.938836 173.770376 
L 113.018702 174.056995 
L 113.258302 174.878757 
L 113.418034 174.461109 
L 113.497901 174.228397 
L 113.577767 174.263967 
L 114.376431 179.055038 
L 114.695897 181.072763 
L 114.775763 181.019121 
L 114.935496 179.028052 
L 115.254962 180.394446 
L 115.414695 180.454586 
L 115.574427 181.19066 
L 116.532824 186.876201 
L 116.772424 183.565894 
L 116.85229 184.126603 
L 117.091889 185.504429 
L 117.411355 185.904896 
L 118.449618 191.697145 
L 118.689218 189.50303 
L 118.928817 190.957168 
L 119.08855 191.095027 
L 119.248282 190.964285 
L 119.328149 191.081115 
L 119.807347 193.563625 
L 120.446279 197.363499 
L 120.526145 197.399219 
L 120.606011 196.610049 
L 120.925477 197.870801 
L 121.244943 198.0117 
L 121.724141 199.888471 
L 122.363073 202.718371 
L 122.442939 202.621456 
L 122.522805 202.071025 
L 122.602672 202.290682 
L 122.922137 203.212011 
L 123.161737 203.569819 
L 124.040267 206.694906 
L 124.359733 207.686526 
L 124.439599 207.61749 
L 124.519466 207.327153 
L 125.158397 208.465275 
L 125.31813 208.652824 
L 126.356393 210.877315 
L 126.516126 210.503554 
L 126.915458 210.906005 
L 126.995324 210.928284 
L 127.155057 210.389482 
L 127.234924 210.491941 
L 128.273187 211.921095 
L 128.43292 211.612601 
L 128.832252 211.883242 
L 128.991985 211.842962 
L 129.071851 211.6013 
L 129.151718 211.66164 
L 130.110115 212.595034 
L 130.269847 212.454874 
L 130.589313 212.641092 
L 131.068511 212.79265 
L 132.106775 213.592489 
L 132.186641 213.446791 
L 132.825573 213.580874 
L 132.985305 213.470235 
L 134.023569 214.006236 
L 134.183302 213.890599 
L 134.742366 214.015241 
L 134.981966 214.019872 
L 135.940363 214.359246 
L 136.100095 214.280007 
L 136.65916 214.368141 
L 136.978626 214.391316 
L 137.937023 214.515808 
L 139.055153 214.568934 
L 139.853817 214.68447 
L 140.093416 214.547319 
L 140.333015 214.502644 
L 140.572615 214.233089 
L 141.371279 214.493927 
L 141.770611 214.585482 
L 141.930344 214.483805 
L 142.329676 214.435735 
L 142.569275 214.200141 
L 143.048473 214.406328 
L 143.607538 214.583471 
L 143.847137 214.452583 
L 144.246469 214.435806 
L 144.565935 214.212898 
L 145.524332 214.32659 
L 145.684065 214.195395 
L 146.163263 214.192363 
L 146.24313 214.15195 
L 146.402863 213.967886 
L 147.041794 214.159505 
L 147.520992 214.244619 
L 147.680725 214.044064 
L 148.080057 213.103856 
L 148.23979 212.752236 
L 148.639122 213.008599 
L 149.118321 213.400295 
L 149.35792 213.409986 
L 149.517653 213.075224 
L 149.916985 213.065386 
L 150.076718 212.863721 
L 150.156584 212.542935 
L 150.23645 212.577394 
L 151.114981 213.151576 
L 151.274714 213.148836 
L 151.514313 212.666873 
L 151.833779 212.520104 
L 151.993511 211.908718 
L 152.153244 211.549899 
L 152.392844 211.668561 
L 152.872042 211.920291 
L 153.191508 211.962492 
L 153.271374 211.834652 
L 153.35124 211.484344 
L 153.431107 211.512066 
L 153.670706 211.57859 
L 153.830439 211.30653 
L 154.070038 210.437329 
L 154.149905 210.473364 
L 154.948569 211.152389 
L 155.108302 211.115957 
L 155.507634 209.858391 
L 155.667366 209.369774 
L 155.986832 207.171658 
L 156.146565 207.390234 
L 156.70563 208.346471 
L 156.945229 208.563567 
L 157.025095 208.379495 
L 157.184828 207.350304 
L 157.424427 207.318756 
L 157.664027 207.144713 
L 157.743893 206.851665 
L 157.82376 206.094323 
L 157.903626 206.134391 
L 158.462691 206.700526 
L 158.862023 206.896774 
L 158.941889 206.837097 
L 159.021756 206.621226 
L 159.261355 205.316727 
L 159.421088 204.556975 
L 159.660687 200.808091 
L 159.82042 199.285753 
L 160.539218 198.942606 
L 160.858683 198.693564 
L 160.93855 198.356039 
L 161.417748 187.881705 
L 161.737214 181.072227 
L 161.976813 180.943165 
L 162.695611 181.127308 
L 162.855344 180.089598 
L 162.93521 178.820791 
L 163.574141 149.116417 
L 163.733874 149.18368 
L 164.452672 150.574343 
L 164.612405 150.908376 
L 164.692271 150.676795 
L 164.852004 147.658518 
L 165.091603 133.620988 
L 165.171469 133.471358 
L 165.251336 132.731703 
L 165.331202 130.370855 
L 165.570802 116.031827 
L 165.730534 117.055657 
L 165.890267 120.388826 
L 166.369466 131.237065 
L 166.529198 133.378361 
L 166.609065 131.709826 
L 166.768798 126.437126 
L 166.848664 125.991206 
L 167.088263 121.334369 
L 167.327863 115.437502 
L 167.487595 99.459706 
L 167.567462 99.819338 
L 167.727195 102.7622 
L 168.366126 124.399065 
L 168.445992 125.378058 
L 168.605725 119.985496 
L 168.685592 120.433309 
L 168.765458 120.237491 
L 168.925191 117.861226 
L 169.324523 109.19724 
L 169.404389 103.71544 
L 169.484256 104.030406 
L 169.643989 106.259684 
L 169.883588 113.936195 
L 170.28292 124.222016 
L 170.362786 124.72762 
L 170.522519 118.855979 
L 170.602385 119.334779 
L 170.682252 119.155246 
L 170.841985 117.006593 
L 171.40105 106.847065 
L 171.480916 106.707699 
L 171.640649 107.084959 
L 171.960115 108.377526 
L 172.039981 108.491173 
L 172.439313 88.034905 
L 172.599046 88.661096 
L 172.758779 87.716378 
L 173.078244 84.768707 
L 173.39771 77.91776 
L 173.557443 78.820108 
L 173.956775 83.125569 
L 174.036641 80.690842 
L 174.196374 81.846999 
L 174.356107 70.612497 
L 174.435973 70.849643 
L 174.595706 71.775418 
L 174.755439 71.091611 
L 174.915172 69.714879 
L 174.995038 66.144116 
L 175.154771 45.024688 
L 175.234637 45.166681 
L 175.474237 49.063459 
L 176.113168 63.561334 
L 176.193034 56.950639 
L 176.272901 56.987335 
L 176.5125 60.277021 
L 176.831966 58.040839 
L 176.911832 57.257981 
L 177.071565 39.06 
L 177.151431 39.803964 
L 177.391031 45.917237 
L 177.950095 62.147724 
L 178.029962 62.039028 
L 178.109828 54.159921 
L 178.189695 56.455031 
L 178.429294 61.395236 
L 178.50916 61.565186 
L 178.589027 61.498 
L 178.668893 61.514975 
L 178.828626 62.255061 
L 178.908492 58.940325 
L 178.988359 50.147398 
L 179.068225 51.177162 
L 179.387691 60.938078 
L 179.866889 76.019716 
L 179.946756 76.031515 
L 180.026622 69.682838 
L 180.425954 79.878947 
L 181.464218 92.16645 
L 181.62395 95.073747 
L 181.943416 78.154055 
L 182.74208 96.69796 
L 182.821947 96.636146 
L 182.981679 98.645492 
L 183.460878 109.87428 
L 183.540744 111.794579 
L 183.620611 108.491102 
L 183.700477 108.924073 
L 183.780344 108.625882 
L 184.019943 100.527101 
L 184.339408 105.982188 
L 184.419275 106.239622 
L 184.499141 104.924662 
L 184.73874 88.792888 
L 184.818607 90.571746 
L 185.377672 109.033904 
L 185.697137 118.167887 
L 185.85687 113.339452 
L 185.936737 114.67686 
L 186.176336 118.92803 
L 186.415935 120.77729 
L 186.495802 119.188804 
L 186.655534 108.821474 
L 186.975 117.163496 
L 187.454198 129.850705 
L 187.613931 130.604294 
L 187.773664 125.110878 
L 188.332729 131.405533 
L 188.412595 129.233127 
L 188.572328 118.856776 
L 188.652195 120.511001 
L 189.530725 139.46103 
L 189.690458 134.407293 
L 190.169656 139.275489 
L 190.249523 139.301442 
L 190.329389 137.113665 
L 190.489122 127.871608 
L 190.808588 134.93515 
L 191.447519 149.717377 
L 191.607252 146.732611 
L 191.926718 150.242257 
L 192.166317 151.143726 
L 192.246183 150.910717 
L 192.405916 142.74183 
L 192.485782 143.884948 
L 193.124714 157.52006 
L 193.364313 161.286339 
L 193.524046 158.502893 
L 193.843511 161.994525 
L 194.162977 163.402035 
L 194.32271 157.826407 
L 194.402576 158.732676 
L 195.281107 170.954873 
L 195.360973 167.992896 
L 195.44084 168.526826 
L 195.760305 171.464843 
L 196.079771 172.998397 
L 196.159637 172.809085 
L 196.239504 171.324132 
L 196.31937 171.717876 
L 196.958302 176.298156 
L 197.357634 168.291779 
L 197.916698 172.009499 
L 197.996565 171.509829 
L 198.236164 166.479694 
L 198.475763 166.920717 
L 198.875095 167.964533 
L 199.194561 158.806435 
L 199.274427 158.977163 
L 199.833492 164.014947 
L 199.913359 163.656208 
L 200.073092 159.416724 
L 200.152958 159.821862 
L 200.392557 162.549652 
L 201.031489 171.783599 
L 201.111355 170.800085 
L 201.271088 167.621365 
L 201.590553 170.423304 
L 201.67042 170.558538 
L 201.750286 169.784612 
L 201.989885 161.715037 
L 202.389218 166.408422 
L 202.78855 170.585066 
L 202.868416 170.842847 
L 202.948282 170.305628 
L 203.108015 166.105362 
L 203.187882 166.509249 
L 203.507347 169.486781 
L 203.587214 169.843067 
L 203.66708 169.659703 
L 203.826813 164.082537 
L 203.906679 161.085123 
L 203.986546 161.787934 
L 204.78521 171.458109 
L 204.865076 171.295594 
L 205.024809 167.640316 
L 205.504008 171.580433 
L 205.583874 171.693668 
L 205.66374 170.490491 
L 205.823473 164.249618 
L 206.063073 166.843293 
L 206.702004 174.897654 
L 206.78187 174.925956 
L 206.941603 171.342867 
L 207.500668 175.44595 
L 207.580534 174.531853 
L 207.740267 168.391511 
L 207.820134 169.039153 
L 208.618798 176.874996 
L 208.698664 176.100404 
L 208.858397 173.350416 
L 209.417462 178.685868 
L 209.497328 179.024032 
L 209.577195 178.379809 
L 209.657061 176.685916 
L 209.736927 177.131796 
L 210.535592 183.193933 
L 210.615458 182.796843 
L 210.695324 180.342856 
L 210.775191 180.553405 
L 211.254389 184.370019 
L 211.493989 185.601307 
L 211.573855 185.311607 
L 211.653721 185.359938 
L 211.893321 186.0321 
L 212.452385 187.839166 
L 212.612118 185.974791 
L 213.091317 189.541176 
L 213.490649 191.200247 
L 213.570515 191.084389 
L 213.730248 191.251742 
L 214.049714 192.329353 
L 214.209447 192.973341 
L 214.449046 190.102532 
L 215.008111 194.550928 
L 215.886641 198.242167 
L 216.206107 199.68337 
L 216.285973 199.595222 
L 216.36584 198.931277 
L 216.924905 202.378561 
L 217.883302 205.815685 
L 218.043034 206.463909 
L 218.122901 206.392375 
L 218.202767 206.297155 
L 218.282634 206.001175 
L 219.081298 208.86595 
L 219.560496 209.913678 
L 220.119561 211.018582 
L 220.279294 210.917317 
L 220.838359 212.017725 
L 221.637023 212.961773 
L 222.116221 213.433323 
L 222.275954 213.381253 
L 222.835019 213.889171 
L 222.994752 213.956644 
L 223.154485 213.943199 
L 224.59208 214.586336 
L 225.71021 214.865312 
L 226.029676 214.845649 
L 226.82834 215.041696 
L 228.186069 215.18234 
L 229.304198 215.244051 
L 230.502195 215.190446 
L 231.06126 215.072473 
L 237.131107 215.212535 
L 239.367366 215.225514 
L 239.686832 215.213585 
L 240.565363 215.205869 
L 242.162691 215.204433 
L 242.40229 215.168986 
L 244.798282 215.179235 
L 247.833206 215.119714 
L 248.072805 214.991266 
L 248.951336 214.952356 
L 249.190935 214.852836 
L 249.75 214.892901 
L 250.069466 214.568405 
L 250.788263 214.608568 
L 251.027863 214.446909 
L 251.74666 214.626848 
L 252.066126 214.378761 
L 252.705057 214.405156 
L 252.86479 214.214828 
L 253.663454 214.498833 
L 254.062786 214.283373 
L 254.701718 214.294429 
L 254.86145 214.064278 
L 255.580248 214.350499 
L 255.899714 214.049724 
L 256.538645 214.072063 
L 256.778244 213.738513 
L 257.417176 214.089271 
L 257.576908 214.083532 
L 257.736641 213.934341 
L 258.455439 213.867558 
L 258.615172 213.451631 
L 259.493702 214.000014 
L 259.813168 213.898802 
L 260.372233 213.772028 
L 260.531966 213.438735 
L 261.170897 213.952405 
L 261.490363 214.090587 
L 262.129294 213.778863 
L 262.368893 213.325063 
L 262.848092 213.742198 
L 263.247424 213.95907 
L 263.487023 214.025082 
L 263.886355 213.987433 
L 263.966221 213.995969 
L 264.125954 213.86783 
L 264.365553 213.804451 
L 264.764885 214.12899 
L 265.643416 214.374748 
L 266.122615 214.351597 
L 266.282347 214.337867 
L 266.761546 214.613407 
L 267.320611 214.789053 
L 268.039408 214.667471 
L 268.199141 214.634214 
L 268.838073 214.9452 
L 269.237405 214.991166 
L 269.876336 214.8566 
L 270.036069 214.725436 
L 271.074332 215.061253 
L 271.872996 214.924534 
L 272.032729 214.842665 
L 272.831393 215.062019 
L 273.150859 214.888388 
L 273.709924 214.760614 
L 273.949523 214.561332 
L 274.828053 214.875233 
L 275.067653 214.808555 
L 275.706584 214.803174 
L 276.02605 214.570686 
L 276.585115 214.798545 
L 276.744847 214.675411 
L 276.90458 214.486038 
L 277.623378 214.513832 
L 277.862977 214.205544 
L 278.501908 214.564285 
L 278.661641 214.553824 
L 278.90124 214.389916 
L 279.540172 214.273308 
L 279.699905 214.007639 
L 280.338836 214.430553 
L 280.578435 214.518458 
L 280.897901 214.3414 
L 281.456966 214.097556 
L 281.536832 213.896409 
L 281.616698 213.953917 
L 282.175763 214.397875 
L 282.575095 214.516012 
L 283.054294 214.335539 
L 283.293893 214.224238 
L 283.453626 213.986411 
L 283.932824 214.368161 
L 284.731489 214.539932 
L 285.050954 214.470062 
L 285.37042 213.981416 
L 286.089218 214.606413 
L 286.408683 214.713934 
L 286.887882 214.613733 
L 287.207347 214.495445 
L 287.36708 214.21839 
L 288.085878 214.760387 
L 288.245611 214.752444 
L 288.405344 214.56425 
L 289.124141 214.463641 
L 289.283874 214.154587 
L 289.922805 214.669927 
L 290.162405 214.758551 
L 290.561737 214.580399 
L 291.040935 214.441782 
L 291.200668 214.131825 
L 291.679866 214.555716 
L 291.679866 214.555716 
" clip-path="url(#p8b48d2ebe3)" style="fill: none; stroke: #000000; stroke-linecap: square"/>
   </g>
   <g id="patch_3">
    <path d="M 40.5 224.28 
L 40.5 30.24 
" style="fill: none; stroke: #000000; stroke-width: 0.8; stroke-linejoin: miter; stroke-linecap: square"/>
   </g>
   <g id="patch_4">
    <path d="M 291.6 224.28 
L 291.6 30.24 
" style="fill: none; stroke: #000000; stroke-width: 0.8; stroke-linejoin: miter; stroke-linecap: square"/>
   </g>
   <g id="patch_5">
    <path d="M 40.5 224.28 
L 291.6 224.28 
" style="fill: none; stroke: #000000; stroke-width: 0.8; stroke-linejoin: miter; stroke-linecap: square"/>
   </g>
   <g id="patch_6">
    <path d="M 40.5 30.24 
L 291.6 30.24 
" style="fill: none; stroke: #000000; stroke-width: 0.8; stroke-linejoin: miter; stroke-linecap: square"/>
   </g>
   <g id="legend_1">
    <g id="patch_7">
     <path d="M 47.5 52.385313 
L 101.74375 52.385313 
Q 103.74375 52.385313 103.74375 50.385313 
L 103.74375 37.24 
Q 103.74375 35.24 101.74375 35.24 
L 47.5 35.24 
Q 45.5 35.24 45.5 37.24 
L 45.5 50.385313 
Q 45.5 52.385313 47.5 52.385313 
z
" style="fill: #ffffff; opacity: 0.8; stroke: #cccccc; stroke-linejoin: miter"/>
    </g>
    <g id="line2d_14">
     <path d="M 49.5 42.897813 
L 59.5 42.897813 
L 69.5 42.897813 
" style="fill: none; stroke: #000000; stroke-linecap: square"/>
    </g>
    <g id="text_12">
     <text style="font: 10px 'Arial', sans-serif; text-anchor: start" x="77.5" y="46.397813" transform="rotate(-0 77.5 46.397813)">2018</text>
    </g>
   </g>
  </g>
 </g>
 <defs>
  <clipPath id="p8b48d2ebe3">
   <rect x="40.5" y="30.24" width="251.1" height="194.04"/>
  </clipPath>
 </defs>
</svg>
