<?xml version="1.0" encoding="UTF-8" standalone="no"?>
<svg
   xmlns:dc="http://purl.org/dc/elements/1.1/"
   xmlns:cc="http://creativecommons.org/ns#"
   xmlns:rdf="http://www.w3.org/1999/02/22-rdf-syntax-ns#"
   xmlns:svg="http://www.w3.org/2000/svg"
   xmlns="http://www.w3.org/2000/svg"
   xmlns:xlink="http://www.w3.org/1999/xlink"
   xmlns:sodipodi="http://sodipodi.sourceforge.net/DTD/sodipodi-0.dtd"
   xmlns:inkscape="http://www.inkscape.org/namespaces/inkscape"
   width="324pt"
   height="252pt"
   viewBox="0 0 324 252"
   version="1.1"
   id="svg233"
   sodipodi:docname="rateC_avena2006_2012_2013_2018.svg"
   inkscape:version="1.0.1 (c497b03c, 2020-09-10)">
  <sodipodi:namedview
     pagecolor="#ffffff"
     bordercolor="#666666"
     borderopacity="1"
     objecttolerance="10"
     gridtolerance="10"
     guidetolerance="10"
     inkscape:pageopacity="0"
     inkscape:pageshadow="2"
     inkscape:window-width="1173"
     inkscape:window-height="716"
     id="namedview235"
     showgrid="false"
     inkscape:zoom="0.35446665"
     inkscape:cx="530.89636"
     inkscape:cy="296.83489"
     inkscape:window-x="0"
     inkscape:window-y="25"
     inkscape:window-maximized="0"
     inkscape:current-layer="svg233"
     inkscape:document-rotation="0" />
  <metadata
     id="metadata10">
    <rdf:RDF>
      <cc:Work>
        <dc:type
           rdf:resource="http://purl.org/dc/dcmitype/StillImage" />
        <dc:date>2024-01-09T17:01:08.922421</dc:date>
        <dc:format>image/svg+xml</dc:format>
        <dc:creator>
          <cc:Agent>
            <dc:title>Matplotlib v3.8.0, https://matplotlib.org/</dc:title>
          </cc:Agent>
        </dc:creator>
      </cc:Work>
    </rdf:RDF>
  </metadata>
  <defs
     id="defs14">
    <style
       type="text/css"
       id="style12">*{stroke-linejoin: round; stroke-linecap: butt}</style>
  </defs>
  <g
     id="g434"
     inkscape:export-xdpi="299.79999"
     inkscape:export-ydpi="299.79999">
    <g
       id="matplotlib.axis_1"
       transform="translate(38.857277,-32.879233)">
      <g
         id="xtick_1">
        <g
           id="line2d_1">
          <defs
             id="defs23">
            <path
               id="m8bdd58d4bd"
               d="M 0,0 V 3.5"
               style="stroke:#000000;stroke-width:0.8" />
          </defs>
          <g
             id="g27">
            <use
               xlink:href="#m8bdd58d4bd"
               x="40.5"
               y="224.28"
               style="stroke:#000000;stroke-width:0.8"
               id="use25"
               width="100%"
               height="100%" />
          </g>
        </g>
        <g
           id="text_1">
          <text
             style="font-style:normal;font-variant:normal;font-weight:normal;font-stretch:normal;font-size:12px;line-height:normal;font-family:Arial, sans-serif"
             transform="rotate(-90,158.75,115.21812)"
             id="text30">January</text>
        </g>
      </g>
      <g
         id="xtick_2">
        <g
           id="line2d_2">
          <g
             id="g36">
            <use
               xlink:href="#m8bdd58d4bd"
               x="87.532257"
               y="224.28"
               style="stroke:#000000;stroke-width:0.8"
               id="use34"
               width="100%"
               height="100%" />
          </g>
        </g>
        <g
           id="text_2">
          <text
             style="font-style:normal;font-variant:normal;font-weight:normal;font-stretch:normal;font-size:12px;line-height:normal;font-family:Arial, sans-serif"
             transform="rotate(-90,184.92863,94.364496)"
             id="text39">February</text>
        </g>
      </g>
      <g
         id="xtick_3">
        <g
           id="line2d_3">
          <g
             id="g45">
            <use
               xlink:href="#m8bdd58d4bd"
               x="134.56451"
               y="224.28"
               style="stroke:#000000;stroke-width:0.8"
               id="use43"
               width="100%"
               height="100%" />
          </g>
        </g>
        <g
           id="text_3">
          <text
             style="font-style:normal;font-variant:normal;font-weight:normal;font-stretch:normal;font-size:12px;line-height:normal;font-family:Arial, sans-serif"
             transform="rotate(-90,201.1421,63.475398)"
             id="text48">March</text>
        </g>
      </g>
      <g
         id="xtick_4">
        <g
           id="line2d_4">
          <g
             id="g54">
            <use
               xlink:href="#m8bdd58d4bd"
               x="181.59677"
               y="224.28"
               style="stroke:#000000;stroke-width:0.8"
               id="use52"
               width="100%"
               height="100%" />
          </g>
        </g>
        <g
           id="text_4">
          <text
             style="font-style:normal;font-variant:normal;font-weight:normal;font-stretch:normal;font-size:12px;line-height:normal;font-family:Arial, sans-serif"
             transform="rotate(-90,219.99229,35.293331)"
             id="text57">April</text>
        </g>
      </g>
      <g
         id="xtick_5">
        <g
           id="line2d_5">
          <g
             id="g63">
            <use
               xlink:href="#m8bdd58d4bd"
               x="228.62903"
               y="224.28"
               style="stroke:#000000;stroke-width:0.8"
               id="use61"
               width="100%"
               height="100%" />
          </g>
        </g>
        <g
           id="text_5">
          <text
             style="font-style:normal;font-variant:normal;font-weight:normal;font-stretch:normal;font-size:12px;line-height:normal;font-family:Arial, sans-serif"
             transform="rotate(-90,242.80483,11.143922)"
             id="text66">May</text>
        </g>
      </g>
      <g
         id="xtick_6">
        <g
           id="line2d_6">
          <g
             id="g72">
            <use
               xlink:href="#m8bdd58d4bd"
               x="275.66129"
               y="224.28"
               style="stroke:#000000;stroke-width:0.8"
               id="use70"
               width="100%"
               height="100%" />
          </g>
        </g>
        <g
           id="text_6">
          <text
             style="font-style:normal;font-variant:normal;font-weight:normal;font-stretch:normal;font-size:12px;line-height:normal;font-family:Arial, sans-serif"
             transform="rotate(-90,268.03143,-10.732052)"
             id="text75">June</text>
        </g>
      </g>
    </g>
    <g
       id="matplotlib.axis_2"
       transform="translate(38.857277,-32.879233)">
      <g
         id="ytick_1">
        <g
           id="line2d_7">
          <defs
             id="defs81">
            <path
               id="mda8b8c4a18"
               d="M 0,0 H -3.5"
               style="stroke:#000000;stroke-width:0.8" />
          </defs>
          <g
             id="g85">
            <use
               xlink:href="#mda8b8c4a18"
               x="40.5"
               y="215.46001"
               style="stroke:#000000;stroke-width:0.8"
               id="use83"
               width="100%"
               height="100%" />
          </g>
        </g>
        <g
           id="text_7">
          <text
             style="font-style:normal;font-variant:normal;font-weight:normal;font-stretch:normal;font-size:12px;line-height:normal;font-family:Arial, sans-serif;text-anchor:end"
             x="33.5"
             y="219.75468"
             id="text88">0.0000</text>
        </g>
      </g>
      <g
         id="ytick_2">
        <g
           id="line2d_8">
          <g
             id="g94">
            <use
               xlink:href="#mda8b8c4a18"
               x="40.5"
               y="188.17337"
               style="stroke:#000000;stroke-width:0.8"
               id="use92"
               width="100%"
               height="100%" />
          </g>
        </g>
        <g
           id="text_8">
          <text
             style="font-style:normal;font-variant:normal;font-weight:normal;font-stretch:normal;font-size:12px;line-height:normal;font-family:Arial, sans-serif;text-anchor:end"
             x="33.5"
             y="192.46806"
             id="text97">0.0025</text>
        </g>
      </g>
      <g
         id="ytick_3">
        <g
           id="line2d_9">
          <g
             id="g103">
            <use
               xlink:href="#mda8b8c4a18"
               x="40.5"
               y="160.88673"
               style="stroke:#000000;stroke-width:0.8"
               id="use101"
               width="100%"
               height="100%" />
          </g>
        </g>
        <g
           id="text_9">
          <text
             style="font-style:normal;font-variant:normal;font-weight:normal;font-stretch:normal;font-size:12px;line-height:normal;font-family:Arial, sans-serif;text-anchor:end"
             x="33.5"
             y="165.18143"
             id="text106">0.0050</text>
        </g>
      </g>
      <g
         id="ytick_4">
        <g
           id="line2d_10">
          <g
             id="g112">
            <use
               xlink:href="#mda8b8c4a18"
               x="40.5"
               y="133.60011"
               style="stroke:#000000;stroke-width:0.8"
               id="use110"
               width="100%"
               height="100%" />
          </g>
        </g>
        <g
           id="text_10">
          <text
             style="font-style:normal;font-variant:normal;font-weight:normal;font-stretch:normal;font-size:12px;line-height:normal;font-family:Arial, sans-serif;text-anchor:end"
             x="33.5"
             y="137.89481"
             id="text115">0.0075</text>
        </g>
      </g>
      <g
         id="ytick_5">
        <g
           id="line2d_11">
          <g
             id="g121">
            <use
               xlink:href="#mda8b8c4a18"
               x="40.5"
               y="106.31348"
               style="stroke:#000000;stroke-width:0.8"
               id="use119"
               width="100%"
               height="100%" />
          </g>
        </g>
        <g
           id="text_11">
          <text
             style="font-style:normal;font-variant:normal;font-weight:normal;font-stretch:normal;font-size:12px;line-height:normal;font-family:Arial, sans-serif;text-anchor:end"
             x="33.5"
             y="110.60817"
             id="text124">0.0100</text>
        </g>
      </g>
      <g
         id="ytick_6">
        <g
           id="line2d_12">
          <g
             id="g130">
            <use
               xlink:href="#mda8b8c4a18"
               x="40.5"
               y="79.026855"
               style="stroke:#000000;stroke-width:0.8"
               id="use128"
               width="100%"
               height="100%" />
          </g>
        </g>
        <g
           id="text_12">
          <text
             style="font-style:normal;font-variant:normal;font-weight:normal;font-stretch:normal;font-size:12px;line-height:normal;font-family:Arial, sans-serif;text-anchor:end"
             x="33.5"
             y="83.321541"
             id="text133">0.0125</text>
        </g>
      </g>
      <g
         id="ytick_7">
        <g
           id="line2d_13">
          <g
             id="g139">
            <use
               xlink:href="#mda8b8c4a18"
               x="40.5"
               y="51.740223"
               style="stroke:#000000;stroke-width:0.8"
               id="use137"
               width="100%"
               height="100%" />
          </g>
        </g>
        <g
           id="text_13">
          <text
             style="font-style:normal;font-variant:normal;font-weight:normal;font-stretch:normal;font-size:12px;line-height:normal;font-family:Arial, sans-serif;text-anchor:end"
             x="33.5"
             y="56.034912"
             id="text142">0.0150</text>
        </g>
      </g>
      <g
         id="text_14">
        <text
           style="font-style:normal;font-variant:normal;font-weight:normal;font-stretch:normal;font-size:12px;line-height:normal;font-family:Arial, sans-serif;text-anchor:middle"
           x="-9.5843754"
           y="127.26"
           transform="rotate(-90,-9.584375,127.26)"
           id="text146">Exudation rate [mol C m-3 h-1]</text>
      </g>
    </g>
    <g
       id="line2d_14"
       transform="translate(38.857277,-32.879233)">
      <path
         d="m 40.434677,215.39006 24.561291,-0.10987 6.009677,-0.35292 4.768549,-0.73722 2.54758,-0.37893 2.155645,-0.29115 2.416936,-1.11785 1.175806,-0.75203 1.241129,-1.05847 1.76371,-2.20814 1.959677,-1.9704 0.914517,-1.14778 1.894354,-3.72112 1.241129,-1.81082 1.567742,-0.43203 1.567742,0.47407 1.829033,-0.53803 1.633064,-0.23794 1.175802,-0.30458 1.63307,1.24636 1.95968,3.02791 1.30645,1.48894 1.95968,1.23191 0.97983,0.5638 1.89436,2.84694 1.69839,1.73266 1.43709,1.05614 2.35162,1.07149 1.24113,0.3913 2.80887,0.65397 4.05,0.49468 1.37177,0.22236 2.87419,0.3826 1.89436,0.0552 2.22097,-0.10276 6.075,-0.28377 2.025,-0.56021 2.41693,-0.83436 2.09032,-0.77306 3.00484,-1.31726 3.07016,-1.73789 1.30646,-1.50844 2.80887,-12.37208 2.28629,-10.01341 2.35161,-11.09642 0.84919,-4.31451 1.56774,-8.20635 1.37178,-5.57766 2.87419,-8.17555 1.89436,-12.67655 1.69838,-8.87038 1.24113,-6.91595 1.4371,-1.77488 2.80887,5.6362 0.32661,0.61805 0.0653,-0.11077 1.76371,-2.80824 1.37177,-1.52222 1.63307,-5.8633 1.56774,-10.43203 1.69838,-19.289493 1.37178,-19.045007 1.50242,-2.643102 1.69838,14.747403 1.63307,20.754738 1.63306,11.273991 1.37178,6.65296 2.35161,25.386 0.91452,9.54443 1.50242,8.27983 1.89435,1.72858 1.11049,1.26125 3.39677,24.95204 1.56774,6.90426 1.50242,3.91772 2.09032,2.90935 2.61291,3.04768 1.50242,0.80285 4.31129,5.75108 0.71854,0.70632 1.30646,0.99707 1.69838,0.29479 1.50242,-0.0544 1.69839,0.57488 2.48226,1.22697 0.84919,0.266 2.74355,0.58359 3.4621,0.26207 4.70322,0.0328 7.77339,0.033 16.13468,0.0143 8.88387,-0.15782 3.39677,-0.15935 3.59274,-0.39201 3.85404,-0.27259 2.54758,-0.0211 1.69839,-0.19739 0.65322,0.0128 3.52742,0.18979 0.32661,0.007 v 0"
         clip-path="url(#p4619d7e9e7)"
         style="fill:none;stroke:#ffa500;stroke-width:1.5;stroke-linecap:square"
         id="path150" />
    </g>
    <g
       id="line2d_15"
       transform="translate(38.857277,-32.879233)">
      <path
         d="m 40.434677,215.4027 27.108871,-0.24343 4.637904,-0.36371 4.964516,-0.69007 2.678226,-0.44563 1.894354,-0.63747 1.959678,-1.09193 0.979839,-0.73344 1.502419,-1.62466 1.502419,-2.1051 1.50242,-1.06069 1.698387,-2.80392 1.502419,-3.07544 1.502419,-1.22313 1.633065,0.34532 1.567742,0.88445 1.567742,-0.11912 1.502423,-0.66354 1.50242,0.31729 2.35161,2.74787 0.97984,1.11905 2.41693,1.63406 0.65323,0.50787 3.98468,4.47218 1.11048,0.85344 1.63306,0.94649 1.69839,0.67412 2.80887,0.77274 2.41694,0.41249 8.1,0.96352 5.68306,-0.23887 2.80887,-0.18057 1.37178,-0.30968 6.59758,-2.59415 2.93951,-1.4962 1.4371,-0.78489 1.11049,-0.78476 1.82903,-6.65832 1.76371,-7.99318 1.30645,-5.18766 1.89435,-10.15512 3.00484,-14.02186 1.4371,-8.6172 1.56774,-6.04856 1.4371,-4.00515 1.56774,-7.19516 2.025,-13.38369 2.54758,-14.46592 1.95968,7.83239 1.1758,3.64484 1.76371,-5.05806 1.56774,-2.04608 1.37178,-0.86367 2.48226,-16.764149 0.71855,-5.839059 1.76371,-28.228539 1.30645,-13.071011 0.0653,0.363434 1.56774,9.133766 2.35161,29.203436 0.8492,10.167598 1.56774,6.745974 1.50242,10.31645 1.82903,24.47325 1.37178,12.71475 1.43709,3.5671 1.56774,-3.40333 3.59275,27.71739 1.30645,7.49735 1.89435,5.87746 1.30645,3.17093 1.95968,2.95974 1.50242,1.77676 1.24113,1.09804 1.37177,0.70718 3.4621,5.15542 1.4371,1.61603 1.43709,0.79698 1.69839,-0.0236 1.82903,0.62105 3.07017,1.3605 2.6129,0.71892 1.04516,0.14189 2.35161,0.19082 5.09516,0.0769 8.88387,0.0344 20.44597,-0.0353 7.5121,-0.26212 3.26613,-0.35942 2.41693,-0.21692 7.31613,-0.15571 3.26613,0.0691 v 0"
         clip-path="url(#p4619d7e9e7)"
         style="fill:none;stroke:#ffa500;stroke-width:1.5;stroke-linecap:square"
         id="path153" />
    </g>
    <g
       id="line2d_16"
       transform="translate(38.857277,-32.879233)">
      <path
         d="m 40.434677,215.4247 0.391936,-0.0254 20.837903,-0.0834 1.175807,0.008 2.939516,-0.0479 3.854032,-0.25414 0.391935,-0.0434 1.241129,-0.0976 0.261291,-0.05 0.849193,0.013 0.522581,-0.27269 0.26129,-0.004 0.783871,0.0358 0.261291,-0.0853 0.914516,-0.064 0.26129,-0.0596 0.26129,-0.13342 0.653226,-0.11563 0.653226,-0.0354 0.26129,-0.14102 0.457258,-0.12028 0.391936,0.12093 0.457258,0.0485 0.130645,-0.11598 0.391936,-0.18884 0.130645,-0.0821 0.130645,-0.083 0.914516,0.23258 0.195968,-0.19829 0.26129,-0.22725 0.195968,-0.20426 0.849193,0.18801 0.718549,-0.99651 0.849193,0.23588 0.391936,-0.57835 0.130645,-0.30321 0.130645,-0.42427 0.06532,0.0266 0.653226,0.32086 0.26129,-0.12599 0.195968,-0.53106 0.195967,-0.41783 0.195968,-0.85809 0.06532,0.0362 0.849193,0.38728 0.391936,-1.65101 0.26129,-1.61339 0.06532,0.0631 0.391935,0.6803 0.457258,0.65937 0.26129,-0.89154 0.195968,-0.31109 0.06532,-0.1783 0.130645,-1.01703 0.06532,0.11341 0.78387,0.91014 0.06532,-0.067 0.195968,-1.08037 0.326613,-0.63649 0.130645,-1.22513 0.06532,0.0373 0.522581,0.32141 0.326613,-0.0542 0.195968,-1.36141 0.326613,-1.50145 0.130645,-1.62194 0.06532,0.0958 0.391936,0.92342 0.391935,0.80798 0.06532,-0.0463 0.195968,-1.29088 0.326613,-1.03461 0.130645,-1.68466 0.06532,0.21703 0.195968,0.72331 0.587903,2.20446 0.06532,-0.0272 0.130645,-1.24175 0.06532,0.0225 0.26129,-0.23201 0.06532,-0.19265 0.130645,-1.59273 0.06532,0.23694 0.849194,3.56996 0.130645,-1.01025 0.130645,-0.13262 0.391936,-1.22506 0.06532,0.20556 0.653226,2.3772 0.26129,-1.88777 0.06532,0.13331 0.06532,-0.0772 0.326613,-0.46732 0.326613,0.70893 0.522581,1.33772 0.130645,-0.57413 0.195968,-0.91851 0.130645,-0.24819 0.26129,-0.54309 0.06532,-0.0136 0.06532,-0.1958 0.06532,0.0449 0.195968,0.44792 0.457257,1.40636 0.19597,-1.61679 0.0653,0.0328 0.13065,0.0351 0.32661,-0.62139 0.52258,1.40012 0.32662,1.23823 0.19596,-1.59104 0.19597,0.45865 0.26129,-0.13007 0.26129,0.59967 0.32662,1.1476 0.39193,1.17861 0.0653,-0.0838 0.0653,-0.53841 0.0653,0.0115 0.19597,0.26756 0.26129,0.15758 0.5879,1.28607 0.39193,0.93727 0.0653,-0.12294 0.0653,-0.54452 0.0653,0.0218 0.26129,0.27007 0.19597,0.0759 0.0653,-0.3113 0.0653,0.0276 0.26129,0.48003 0.52258,1.13717 0.0653,-0.12224 0.13065,-0.54842 0.26129,0.36311 0.19596,0.0817 0.0653,-0.30782 0.0653,0.0159 0.26129,0.38987 0.39193,0.76556 0.13065,-0.31257 0.13064,-0.44747 0.32662,0.60891 0.26129,0.37545 0.19596,0.33449 0.65323,1.7998 0.0653,-0.0359 0.13065,-0.37634 0.32661,0.52385 0.13065,0.0224 0.0653,-0.21946 0.0653,0.10035 0.8492,1.74653 0.13064,-0.3324 0.32661,0.36687 0.13065,-0.0477 0.0653,-0.2705 0.0653,0.0867 0.8492,1.46644 0.0653,-0.23006 0.0653,0.03 0.32662,0.18702 0.13064,-0.0117 0.0653,-0.25812 0.0653,0.0576 0.8492,1.00015 0.0653,-0.17387 0.0653,0.0371 0.39194,0.14775 0.0653,-0.0131 0.0653,-0.20513 0.0653,0.0385 0.5879,0.64467 0.26129,0.19368 0.13065,-0.16086 0.39193,0.13161 0.26129,-0.179 0.78387,0.61452 0.13065,-0.11325 0.39193,0.089 0.0653,-0.0184 0.13064,-0.13481 0.65323,0.47288 0.19596,0.0801 0.13065,-0.10882 0.39193,0.0918 0.45726,0.017 0.58791,0.23347 0.13064,-0.0957 0.45726,0.0646 0.13065,-0.0727 1.43709,0.29613 0.19597,-0.0264 1.17581,0.14724 0.71854,0.13964 0.45726,0.0446 1.50242,0.29304 0.26129,0.0105 1.82903,0.16312 4.83387,-0.22227 0.19597,-0.0324 1.24113,0.0495 0.65323,-0.0437 0.52258,-0.001 0.32661,-0.003 0.19597,-0.0767 0.19597,-0.045 0.84919,0.0595 0.19597,-0.036 0.26129,-0.0488 0.26129,-0.19943 0.78387,0.0632 0.26129,-0.15837 0.26129,-0.10634 0.26129,-0.39011 0.78387,0.0536 0.19597,-0.19424 0.26129,0.002 0.13064,-0.2357 0.19597,-0.30616 0.78387,0.26778 0.13065,-0.26678 0.0653,0.0287 0.26129,0.0267 0.13065,-0.28351 0.13064,-0.40513 0.0653,0.0277 0.78388,0.32376 0.13064,-0.29729 0.32661,0.0664 0.0653,-0.0754 0.19596,-0.75942 0.0653,0.035 0.78387,0.53679 0.13064,-0.44509 0.0653,0.0349 0.2613,0.0223 0.13064,-0.45643 0.13065,-0.66649 0.0653,0.0521 0.78387,0.71678 0.0653,-0.0766 0.19597,-0.29717 0.19597,0.0888 0.0653,-0.10349 0.19597,-1.21913 0.0653,0.0516 0.71855,0.83171 0.19597,-0.52226 0.26129,0.0879 0.13064,-0.0438 0.0653,-0.20041 0.13065,-1.04732 0.0653,0.0605 0.78387,0.98997 0.32662,-0.52593 0.0653,0.0747 0.13064,-0.01 0.13065,-1.04671 0.0653,-0.59779 0.0653,0.0433 0.39194,0.57031 0.32661,0.3908 0.0653,-0.0487 0.39194,-1.51323 0.19597,-2.53352 0.13064,-2.07238 0.0653,0.0315 0.71854,0.29646 0.13065,-1.88021 0.0653,-0.65286 0.0653,0.008 0.13065,-0.0612 0.13064,-0.33361 0.13065,-2.13649 0.13065,-3.13229 0.0653,0.006 0.19597,0.276 0.52258,0.98109 0.19596,-2.413 0.19597,0.20783 0.13065,-0.10168 0.0653,-0.22341 0.13064,-3.31106 0.0653,-1.90196 0.0653,0.0362 0.26129,0.95198 0.39194,1.50531 0.0653,-0.0147 0.19597,-4.1111 0.13064,0.37151 0.13065,0.0717 0.0653,-0.24272 0.13064,-3.20644 0.13065,-5.07245 0.0653,0.17062 0.32661,1.91871 0.39194,2.20449 0.19597,-4.29828 0.0653,0.36574 0.19597,0.49175 0.0653,-0.0484 0.0653,-0.46483 0.19597,-8.4077 0.13065,0.71974 0.65322,5.11377 0.19597,-5.53737 0.0653,0.5993 0.26129,1.35872 0.0653,-0.30572 0.13064,-5.02628 0.0653,-3.87834 0.0653,0.36312 0.52258,4.67525 0.13064,-0.10781 0.0653,-0.43356 0.19597,-5.86202 0.26129,1.60634 0.0653,0.0847 0.0653,-0.34411 0.13064,-6.09216 0.0653,-4.62456 0.0653,0.33195 0.26129,2.70163 0.45726,5.05454 0.19596,-5.78805 0.0653,0.69897 0.26129,1.23336 0.0653,-0.32834 0.13064,-7.16601 0.0653,-4.58221 0.0653,0.62557 0.39193,5.7132 0.32662,4.12916 0.13064,-4.61631 0.26129,1.58119 0.13065,-0.24691 0.0653,-0.25419 0.0653,-1.62903 0.13065,-9.61492 0.0653,0.39416 0.26129,3.94205 0.39194,6.37732 0.0653,-0.0853 0.13064,-6.18566 0.0653,0.61615 0.26129,2.42688 0.0653,0.22289 0.0653,-0.17826 0.13065,-8.06628 0.0653,-4.74805 0.0653,0.32953 0.26129,2.75615 0.39194,4.25738 0.0653,-0.63798 0.13065,-8.22786 0.0653,0.1404 0.32661,3.65974 0.0653,-0.33433 0.13065,-8.50868 0.0653,-6.06656 0.0653,0.38344 0.26129,3.9608 0.45725,7.55628 0.19597,-8.47753 0.26129,3.37923 0.0653,0.13378 0.0653,-0.92711 0.19596,-16.34074 0.13065,1.58915 0.65323,12.25503 0.19596,-10.32252 0.0653,1.48412 0.26129,2.75659 0.0653,-1.59197 0.19597,-17.52225 0.0653,1.01208 0.52258,13.90888 0.13064,2.9186 0.0653,-0.066 0.13064,-7.29787 0.45726,8.68543 0.0653,-0.49234 0.13065,-11.87889 0.0653,1.03611 0.39194,10.08983 0.26129,4.27277 0.0653,-1.41728 0.13064,-7.16613 0.45726,9.17304 0.0653,-0.30807 0.13064,-9.21994 0.0653,0.89239 0.65323,13.22111 0.0653,-0.0615 0.19597,-8.65339 0.32661,5.73969 0.0653,-0.15299 0.13065,-9.34825 0.0653,-6.40438 0.0653,0.83935 0.39194,8.38078 0.32661,5.74149 0.13065,-8.1926 0.0653,0.71056 0.32661,5.76867 0.0653,0.0333 0.0653,-2.46416 0.13064,-12.95402 0.0653,0.80349 0.39193,8.36229 0.26129,5.49511 0.0653,-0.34144 0.13064,-7.83023 0.45726,7.78025 0.0653,-2.33088 0.13065,-12.51933 0.0653,0.77045 0.32661,6.48121 0.32661,6.33932 0.0653,-0.16703 0.19596,-10.55729 0.32662,6.04032 0.0653,-1.16611 0.19597,-17.979237 0.13064,1.748088 0.45726,10.104129 0.19597,2.75716 0.19597,-11.18023 0.26129,5.35703 0.0653,0.0131 0.0653,-2.24573 0.19597,-18.080667 0.0653,0.680108 0.32662,6.847548 0.32661,7.240351 0.0653,-0.24022 0.19597,-15.013325 0.0653,1.106521 0.13065,1.899249 0.0653,-0.01909 0.0653,-1.772147 0.26129,-28.419535 0.13065,1.957914 0.52258,13.679958 0.0653,1.544888 0.0653,-0.315489 0.19597,-15.550143 0.26129,7.353932 0.0653,-0.231122 0.13065,-13.216161 0.13064,-14.01683 0.0653,1.036689 0.32661,10.561343 0.32661,12.079663 0.0653,-0.138239 0.13065,-11.481693 0.45726,16.066892 0.13064,-14.61558 0.0653,-6.403327 0.0653,1.252637 0.32661,11.962055 0.39194,13.328955 0.13064,-9.567977 0.45726,18.329762 0.0653,-2.692093 0.13065,-15.032077 0.0653,1.558332 0.39194,15.506933 0.32661,11.242508 0.13064,-7.143294 0.45726,17.549571 0.0653,-1.59634 0.13065,-12.374378 0.0653,1.229812 0.45726,13.331526 0.19597,5.36944 0.0653,-0.38607 0.13065,-8.653794 0.0653,0.759784 0.32661,11.66255 0.0653,0.13423 0.13065,-9.5341 0.0653,-5.724119 0.0653,0.969749 0.39193,9.54904 0.26129,6.85359 0.0653,-0.27099 0.13065,-7.74207 0.0653,1.44486 0.39194,12.08414 0.13064,-8.46722 0.0653,-4.75461 0.0653,1.08023 0.39193,10.10503 0.26129,7.24671 0.0653,-0.32796 0.0653,-4.17277 0.0653,1.40622 0.45726,15.17261 0.0653,0.42958 0.13065,-7.78059 0.0653,0.89388 0.39193,9.09203 0.26129,6.36469 0.0653,-0.0376 0.13064,-3.93078 0.45726,11.968 0.0653,-0.94744 0.13065,-6.44515 0.0653,0.8589 0.52258,10.09112 0.19597,2.36551 0.19597,-5.38909 0.32661,6.63676 0.0653,-0.32546 0.19597,-9.35393 0.13064,1.69943 0.58791,9.70612 0.0653,-0.0314 0.19597,-6.09147 0.32661,5.13569 0.0653,-0.9036 0.19597,-10.19846 0.0653,0.32702 0.32662,2.95058 0.32661,3.54781 0.13064,-3.63466 0.0653,1.5016 0.45726,10.75663 0.0653,0.88948 0.0653,-0.8203 0.0653,-3.37974 0.0653,0.14016 0.19596,1.71224 0.45726,6.2848 0.0653,-0.56996 0.13064,-2.459 0.52258,9.91929 0.13065,-3.92162 0.0653,0.57677 0.39193,5.3419 0.32662,3.94512 0.13064,-2.08334 0.45726,6.4743 0.0653,-0.41662 0.13065,-3.3021 0.0653,0.54472 0.71855,7.07393 0.13064,-1.81372 0.45726,4.69914 0.0653,-0.3904 0.19597,-3.60403 0.65323,5.45846 0.0653,-0.11607 0.0653,-1.37996 0.0653,0.087 0.52258,4.42483 0.13064,-2.13753 0.0653,-1.31704 0.0653,0.31243 0.5879,2.70732 0.13064,-1.64717 0.0653,0.32513 0.52258,3.96332 0.0653,-0.28569 0.13065,-2.24996 0.0653,0.19923 0.5879,1.94447 0.13065,-1.46299 0.0653,0.1419 0.5879,3.65545 0.13065,-1.92279 0.0653,0.0854 0.32661,0.80801 0.26129,0.64174 0.13065,-1.29622 0.0653,0.14364 0.58791,3.27629 0.13064,-1.76507 0.0653,0.0202 0.26129,0.34978 0.32662,0.55619 0.19596,-1.6149 0.0653,0.30651 0.45725,2.79662 0.0653,-0.15529 0.13064,-1.67411 0.0653,0.0428 0.26129,0.46968 0.32662,0.84331 0.13064,-0.71677 0.58791,3.07883 0.0653,-0.1472 0.13064,-1.27771 0.0653,0.0871 0.39193,0.88909 0.19597,0.45308 0.13064,-0.48993 0.58791,2.48953 0.0653,0.0689 0.13065,-0.93625 0.0653,0.0491 0.32661,0.49959 0.26129,0.46845 0.13065,-0.37475 0.65322,2.0178 0.13065,-0.63034 0.0653,0.0359 0.32661,0.40037 0.26129,0.38176 0.13065,-0.49774 0.0653,0.10108 0.52258,1.26302 0.0653,0.0306 0.13065,-0.60941 0.0653,0.0248 0.5879,0.39078 0.19597,-0.61278 0.0653,0.13194 0.45725,0.9283 0.0653,-0.0967 0.19596,-0.67352 0.52259,-0.097 0.19596,-0.58822 0.0653,0.15456 0.52259,1.20246 0.13064,0.0885 0.5879,-0.6096 0.13065,-0.53258 0.0653,0.0248 0.71855,1.50454 0.19597,0.0711 0.32661,-0.005 0.0653,0.0193 0.26129,-0.47078 0.91452,1.11168 0.5879,-0.0266 0.13065,-0.0729 0.5879,0.5917 0.19597,0.005 0.91451,0.0349 0.58791,0.33705 0.52258,0.0681 0.32661,-0.088 0.71855,0.24556 0.65323,-0.005 0.19596,-0.0131 0.8492,0.14361 18.94355,0.13455 22.34032,-0.27491 0.19597,-0.099 0.78387,0.17354 0.91451,-0.2768 0.65323,0.19678 0.65323,-0.49358 0.13064,-0.0738 0.65323,0.41263 0.19596,-0.0379 0.52258,-0.43565 0.13065,-0.18971 0.5879,0.47686 0.26129,0.0866 0.32662,-0.31947 0.26129,-0.19888 0.13064,-0.2791 0.71855,0.72826 0.13064,0.0162 0.58791,-0.67709 0.0653,-0.31286 0.0653,0.02 0.58791,0.762 0.26129,0.15471 0.39193,-0.26245 0.32661,-0.54826 0.8492,0.77227 0.26129,-0.25649 0.32661,-0.22843 0.13065,-0.39543 0.0653,0.0589 0.52258,0.68487 0.19597,0.11487 0.5879,-0.62397 0.19597,-0.56929 0.0653,0.10523 0.52258,0.80243 0.26129,0.16169 0.58791,-0.47448 0.13064,-0.37705 0.0653,0.0815 0.52258,0.71442 0.26129,0.10785 0.26129,-0.22167 0.32662,-0.22623 0.13064,-0.34204 0.0653,0.0828 0.52258,0.66081 0.26129,0.10424 0.26129,-0.23374 0.32661,-0.23589 0.0653,-0.22487 v 0"
         clip-path="url(#p4619d7e9e7)"
         style="fill:none;stroke:#000000;stroke-linecap:square"
         id="path156" />
    </g>
    <g
       id="line2d_17"
       transform="translate(38.857277,-32.879233)">
      <path
         d="m 40.434677,215.46 36.841936,-0.11068 14.240322,-0.60058 2.220968,-0.26076 7.577417,-0.30489 2.61291,-0.6069 3.13548,-0.25036 2.15564,-0.51479 1.11049,-0.20782 1.76371,-1.35163 2.48226,-0.9542 0.71854,-0.13159 1.56775,-0.19815 1.30645,-0.53901 1.56774,-1.54897 1.82903,0.0924 1.69839,-0.16088 1.63306,-0.0171 1.04517,-0.0487 4.6379,4.79281 2.025,0.99032 2.09032,0.50929 1.95968,0.25334 9.34113,0.8767 4.05,0.1704 6.075,0.0907 7.57742,-0.16641 5.81371,-0.49193 2.74354,-0.34527 0.91452,-0.16725 1.89436,-0.78043 2.54758,-0.72078 2.48225,-4.83404 1.17581,-2.30172 1.17581,-2.7969 1.56774,-6.49265 1.56774,-9.64565 1.4371,-3.75445 0.0653,0.12714 1.63306,2.94364 1.4371,0.212 1.63307,-4.82542 1.50242,0.0396 1.69838,3.25375 1.63307,4.73266 1.69838,3.03577 1.30646,2.78394 2.67822,-0.28194 0.45726,-0.09 1.69839,-1.67567 1.37177,-0.51057 2.41694,4.55387 1.95967,4.26565 0.71855,1.36324 2.025,3.45289 1.11049,1.84171 1.82903,2.2219 3.13548,3.11905 1.37178,0.91709 1.50242,0.58793 2.15564,0.26741 3.00484,0.0788 7.70806,0.0502 27.69678,0.0598 29.19919,0.002 v 0"
         clip-path="url(#p4619d7e9e7)"
         style="fill:none;stroke:#ffa500;stroke-width:1.5;stroke-linecap:square"
         id="path159" />
    </g>
    <g
       id="line2d_18"
       transform="translate(38.857277,-32.879233)">
      <path
         d="m 40.434677,215.46 37.756452,-0.10962 13.717742,-0.53623 3.658064,-0.34594 2.220968,0.0917 1.698387,-0.15406 1.04516,-0.0277 1.30645,0.008 2.61291,-0.62268 0.71854,-0.0389 1.82904,-0.0541 3.65806,-0.53876 0.45726,-0.15716 1.63306,-1.16166 1.56775,-0.43298 1.50242,-1.04887 1.89435,-0.0346 1.24113,-0.3056 1.56774,-1.1424 1.76371,-0.0227 1.37178,-0.43289 1.43709,-1.32498 0.0653,0.0713 2.22097,2.27222 1.11049,1.11711 1.50241,1.96266 2.09033,1.09969 1.43709,0.47244 2.22097,0.35115 2.74355,0.21707 5.68306,0.41552 2.61291,0.19139 9.66774,0.20111 8.94919,-0.18984 3.78871,-0.30254 3.85404,-0.419 1.04516,-0.29185 1.43709,-0.5472 1.50242,-0.17539 1.4371,-0.88897 1.95968,-3.89008 1.24113,-2.14633 3.13548,-9.06032 1.56774,-8.50576 1.50242,-2.99463 1.50242,0.58785 1.56774,4.3086 1.63307,-4.54341 1.56774,0.002 1.50242,-1.63284 0.0653,0.0829 1.56774,2.09681 1.82904,5.63939 1.30645,4.74976 1.56774,0.49208 1.63306,-1.24456 1.50242,-0.12179 1.69839,-1.59888 1.37177,-0.51181 1.95968,5.34078 2.87419,5.79991 3.13549,3.50722 2.87419,3.94836 0.52258,0.50701 1.4371,1.10242 1.82903,0.54144 2.35161,0.20993 2.48226,0.0169 64.01613,0.14787 v 0"
         clip-path="url(#p4619d7e9e7)"
         style="fill:none;stroke:#ffa500;stroke-width:1.5;stroke-linecap:square"
         id="path162" />
    </g>
    <g
       id="line2d_19"
       transform="translate(38.857277,-32.879233)">
      <path
         d="m 40.434677,215.46 16.2,-0.10856 2.025,0.008 5.944355,0.0261 13.979033,-0.0596 1.959677,-0.0737 1.241129,-0.0386 4.768548,-0.15717 1.175807,0.0159 0.979839,0.0118 0.587903,-0.063 1.110484,-0.0605 0.587903,-0.0648 1.829032,-0.28306 0.326613,-0.089 0.653226,0.0227 0.26129,-0.083 0.587903,0.0117 0.653226,0.0364 0.195968,-0.10519 1.045161,0.11421 0.457258,0.0233 0.261291,-0.0567 0.653225,0.0115 0.587904,0.0432 0.195967,-0.0845 1.306451,-0.0458 0.19597,-0.11239 1.50242,0.13853 0.26129,-0.17578 0.26129,-0.1355 0.19597,-0.22701 0.84919,0.10948 0.19597,-0.17813 0.39193,-0.12151 0.13065,-0.13344 0.84919,0.0581 0.19597,-0.0816 0.45726,-0.0626 0.52258,0.18823 0.39193,0.0318 0.13065,-0.18404 0.45726,-0.0655 0.13064,-0.13479 0.8492,0.2269 0.19596,-0.25163 0.32662,-0.0813 0.19596,-0.35009 0.8492,0.44693 0.19596,-0.26281 0.32662,-0.0144 0.19597,-0.32619 0.0653,0.0342 0.71855,0.32866 0.0653,-0.0319 0.32661,-0.58607 0.13065,-0.24399 0.19597,-0.84657 0.0653,0.0254 0.84919,0.40813 0.13065,-0.51441 0.0653,0.013 0.32661,-0.0603 0.13065,-0.5689 0.0653,0.0434 0.84919,0.77859 0.13065,-0.53556 0.0653,0.0136 0.26129,-0.0377 0.0653,-0.076 0.13065,-0.7193 0.0653,0.0502 0.65323,0.60721 0.19597,-0.85426 0.13064,0.0409 0.65323,0.16496 0.5879,0.40161 0.13065,-0.16917 0.19596,-0.55625 0.45726,-0.0948 0.13065,-0.1572 0.32661,0.21328 0.45726,0.31081 0.0653,-0.11224 0.19597,-0.76839 0.26129,-0.11638 0.13064,-0.7193 0.0653,-0.53489 0.0653,0.0219 0.26129,0.30583 0.52258,0.67128 0.19597,-0.74387 0.0653,0.0773 0.32661,0.19762 0.0653,-0.0712 0.0653,-0.30396 0.0653,0.0362 0.52258,0.60047 0.26129,0.27241 0.32661,-0.54456 0.32662,-0.0967 0.13064,-0.48208 0.26129,0.23929 0.52258,0.48941 0.13065,-0.66541 0.0653,0.0312 0.26129,0.13456 0.26129,-0.0805 0.19597,-0.10862 0.52258,0.11514 0.19597,-1.08667 0.0653,0.12193 0.26129,0.38521 0.19597,0.0996 0.91451,1.37656 0.0653,-0.0575 0.0653,-0.34471 0.0653,0.0463 0.26129,0.43235 0.26129,0.28843 0.45726,0.59166 0.32661,0.50528 0.0653,-0.0756 0.0653,-0.0637 0.39193,0.6 0.26129,0.19312 0.91452,1.42434 0.19597,-0.13007 0.39193,0.32093 0.32662,0.10502 0.65322,0.62232 0.19597,-0.11749 0.39193,0.22909 0.39194,0.1294 0.5879,0.40541 0.32662,-0.0781 0.32661,0.0592 0.13064,-0.0646 0.91452,0.28869 0.84919,0.0738 0.65323,0.20862 0.13065,-0.0839 0.45725,0.0551 0.13065,-0.0876 1.37177,0.23323 0.26129,-0.10354 0.78387,0.18026 0.26129,0.0237 1.17581,0.093 0.19597,-0.0412 0.71855,0.0712 4.57258,0.4361 0.32661,0.007 1.82903,0.0875 3.72339,0.10364 6.6629,0.0136 1.30645,-0.0152 3.33146,-0.0827 0.39193,-0.0312 1.17581,-0.0464 0.32661,-0.0563 1.24113,0.0155 0.32661,-0.0692 1.11049,-0.0294 0.19596,-0.0503 0.19597,-0.0682 1.30645,-0.0898 0.26129,-0.16565 1.17581,0.0274 0.13065,-0.067 0.19596,-0.19289 0.78387,0.10082 0.19597,-0.0175 0.39194,0.0456 0.26129,-0.22655 0.65322,0.0165 0.19597,-0.29461 0.39194,0.0378 0.13064,-0.28195 0.13065,-0.23812 0.71855,0.0654 0.13064,-0.21811 0.39194,0.0852 0.19596,-0.0851 0.13065,-0.2716 0.39193,0.246 0.32662,0.16202 0.19597,-0.34528 0.39193,0.15237 0.0653,-0.0654 0.19597,-0.5959 0.65323,0.0925 0.0653,-0.0973 0.26129,-0.91964 0.19597,-0.004 0.13064,-0.33028 0.32662,-2.03289 0.39193,0.082 0.19597,0.058 0.0653,-0.14946 0.13065,-1.15015 0.0653,0.0561 0.32661,0.35709 0.0653,0.0138 0.0653,-0.13801 0.26129,-1.87505 0.32661,0.2549 0.26129,0.17494 0.0653,-0.20082 0.13065,-1.51957 0.0653,0.0872 0.32662,0.53194 0.0653,0.0208 0.0653,-0.22583 0.26129,-2.63853 0.5879,-0.2298 0.0653,-0.47109 0.13064,-2.21731 0.0653,0.0606 0.32662,0.81953 0.0653,-0.0227 0.0653,-0.47733 0.19597,-3.61911 0.13064,0.059 0.26129,0.66631 0.26129,0.68975 0.0653,-0.19628 0.19597,-4.11053 0.0653,0.24931 0.19597,0.50226 0.0653,-0.17448 0.13064,-2.80193 0.13065,-4.91321 0.0653,0.0803 0.19597,0.80011 0.45726,2.06268 0.0653,-0.67396 0.13064,-3.81257 0.0653,0.31611 0.32661,2.29775 0.0653,0.17725 0.0653,-0.37396 0.13064,-4.96945 0.0653,0.19641 0.32662,2.09934 0.32661,1.77973 0.13064,-3.22759 0.0653,0.46624 0.32661,2.15883 0.19597,0.89555 0.0653,-0.0873 0.0653,-1.22969 0.0653,0.0508 0.19597,0.74732 0.32662,1.74642 0.0653,-0.0149 0.0653,-0.24481 0.13065,-3.22838 0.0653,0.47547 0.32661,2.20853 0.19597,0.86867 0.0653,-0.38725 0.0653,-1.99062 0.0653,0.0734 0.19596,1.11914 0.45726,3.71332 0.0653,-0.19656 0.13064,-3.96598 0.0653,0.0623 0.32662,2.15584 0.0653,-0.10097 0.13064,-4.66809 0.0653,-3.0196 0.0653,0.28307 0.32661,2.68 0.32661,2.56325 0.0653,-0.53643 0.13064,-4.27633 0.52258,4.02457 0.13065,-4.69679 0.13064,0.64229 0.58791,5.0455 0.0653,-0.66306 0.13064,-3.2182 0.39194,3.36347 0.13064,0.65156 0.0653,-0.3387 0.0653,-2.62948 0.0653,0.1404 0.26129,1.59364 0.26129,2.02292 0.0653,-0.15554 0.0653,-0.38283 0.13064,-2.81324 0.32662,3.23244 0.32661,1.36673 0.13064,-0.26057 0.13065,0.27676 0.39194,1.80403 0.13064,-1.61098 0.0653,-2.75769 0.0653,0.15198 0.39193,3.7214 0.26129,1.27776 0.0653,-0.17355 0.13065,-0.19999 0.13064,0.29169 0.39194,1.56547 0.0653,-0.11929 0.13065,-2.60498 0.52258,4.43809 0.13064,0.68265 0.13065,-0.62935 0.13064,0.18358 0.26129,1.15882 0.26129,1.30849 0.0653,-0.49624 0.13064,-1.97781 0.45726,3.46087 0.0653,-0.16746 0.13065,-3.59631 0.0653,0.12727 0.26129,1.11949 0.39194,2.05005 0.0653,-0.44638 0.13064,-2.07687 0.45726,3.11309 0.0653,-0.35475 0.13065,-3.61336 0.0653,0.13902 0.26129,1.10403 0.32662,1.3616 0.0653,-0.0667 0.19597,-3.12779 0.0653,0.3892 0.39193,2.6282 0.0653,-0.35825 0.13064,-3.7417 0.0653,0.18869 0.32662,1.79202 0.32661,1.75178 0.0653,-0.4821 0.13065,-2.46525 0.45726,2.90431 0.0653,-0.38923 0.13064,-3.88373 0.0653,0.1836 0.39193,2.01216 0.26129,0.90156 0.19597,-2.88979 0.0653,0.57371 0.45726,3.48028 0.0653,-0.30276 0.0653,-1.14373 0.0653,0.0423 0.26129,0.60391 0.19597,0.60577 0.19596,-0.70248 0.13065,-2.10385 0.65322,4.81335 0.0653,-0.0488 0.0653,-0.64264 0.0653,0.0687 0.26129,0.84068 0.32662,0.95525 0.13064,-1.52131 0.52258,3.42387 0.13065,0.57559 0.0653,-0.17041 0.0653,-0.98904 0.0653,0.0733 0.26129,0.74999 0.32662,0.91644 0.13064,-1.37682 0.65323,3.56618 0.13064,-1.56825 0.13065,0.28124 0.52258,1.99105 0.13064,-1.06591 0.0653,0.34701 0.45726,2.2933 0.13064,0.42682 0.0653,-0.23671 0.0653,-0.70392 0.0653,0.0477 0.5879,0.74429 0.0653,-0.71431 0.0653,0.14001 0.45725,1.94446 0.2613,0.5975 0.13064,-0.4179 0.26129,0.0352 0.26129,0.0999 0.0653,-0.11719 0.0653,-0.50241 0.0653,0.0708 0.52258,1.97123 0.26129,0.55718 0.19597,-0.0621 0.39193,0.0122 0.13065,-0.29238 0.65322,1.69818 0.26129,0.33604 0.32662,0.12123 0.13064,-0.0302 0.19597,-0.0749 0.45726,0.74073 0.52258,0.44849 1.89435,0.71067 1.82904,0.22307 0.32661,0.0367 0.84919,0.0379 1.89436,0.0275 0.32661,-0.004 1.17581,0.0207 0.52258,0.003 1.1758,-0.009 2.15565,0.0455 1.89435,-0.002 5.35646,-0.0999 1.7637,0.0432 1.17581,0.024 0.39194,4e-5 1.1758,0.0182 0.39194,-0.002 1.24113,0.009 0.39193,0.01 2.09033,0.0463 8.1,0.0259 35.33951,0.003 v 0"
         clip-path="url(#p4619d7e9e7)"
         style="fill:none;stroke:#000000;stroke-linecap:square"
         id="path165" />
    </g>
    <g
       id="line2d_20"
       transform="translate(38.857277,-32.879233)">
      <path
         d="m 40.434677,215.46 36.972581,-0.10962 6.532258,-0.26938 2.482258,-0.0176 3.658065,-0.12938 1.829032,-0.24088 2.416935,-0.26364 2.025,0.0248 1.829033,0.005 2.090321,-0.15564 1.69839,-0.15246 2.35161,-0.55102 0.97984,-0.0753 1.76371,-0.1161 2.80887,-0.50702 1.37178,-0.58655 1.50241,-1.0529 1.63307,-0.45757 1.50242,-0.85669 1.76371,-0.29834 1.63306,-0.72284 1.24113,-0.68067 1.76371,0.0393 1.82903,-0.54306 1.04516,-0.35336 2.15565,2.24277 2.22097,2.47675 0.5879,0.46357 1.82903,0.92586 1.69839,0.51645 2.025,0.32136 3.4621,0.30403 9.60242,0.66919 6.6629,0.12485 7.38145,-0.11172 5.22581,-0.30494 5.42177,-0.79032 1.37178,-0.49662 0.91451,-0.2333 1.24113,-0.26828 1.56774,-1.64718 2.15565,-4.27749 0.97984,-1.91035 1.95967,-6.65028 1.4371,-6.01492 1.30645,-5.88939 1.50242,-0.97351 2.48226,1.86295 0.5879,0.38946 1.56774,-4.11629 0.0653,0.0519 1.69838,1.47385 3.07017,4.55289 3.07016,6.9897 1.56774,0.21825 1.69839,-1.46383 1.76371,-0.518 1.24112,-0.5445 1.56775,1.65572 1.89435,4.77032 3.13549,5.68357 1.69838,2.0939 1.56774,1.73219 1.69839,2.04682 1.30645,1.20676 1.50242,0.83582 1.95968,0.3855 2.41694,0.14171 13.39112,0.0117 3.72339,0.0301 14.56694,0.0965 34.55564,0.003 v 0"
         clip-path="url(#p4619d7e9e7)"
         style="fill:none;stroke:#ffa500;stroke-width:1.5;stroke-linecap:square"
         id="path168" />
    </g>
    <g
       id="line2d_21"
       transform="translate(38.857277,-32.879233)">
      <path
         d="m 40.434677,215.46 36.972581,-0.10962 6.532258,-0.26938 2.482258,-0.0176 3.658065,-0.12938 1.829032,-0.24088 2.416935,-0.26364 2.025,0.0248 1.829033,0.005 2.090321,-0.15564 1.69839,-0.15246 2.35161,-0.55102 0.97984,-0.0753 1.76371,-0.1161 2.80887,-0.50702 1.37178,-0.58655 1.50241,-1.0529 1.63307,-0.45757 1.50242,-0.85669 1.76371,-0.29834 1.63306,-0.72284 1.24113,-0.68067 1.76371,0.0393 1.82903,-0.54306 1.04516,-0.35336 2.15565,2.24277 2.22097,2.47675 0.5879,0.46357 1.82903,0.92586 1.69839,0.51645 2.025,0.32136 3.4621,0.30403 9.60242,0.66919 6.6629,0.12485 7.38145,-0.11172 5.22581,-0.30494 5.42177,-0.79032 1.37178,-0.49662 0.91451,-0.2333 1.24113,-0.26828 1.56774,-1.64718 2.15565,-4.27749 0.97984,-1.91035 1.95967,-6.65028 1.4371,-6.01492 1.30645,-5.88939 1.50242,-0.97351 2.48226,1.86295 0.5879,0.38946 1.56774,-4.11629 0.0653,0.0519 1.69838,1.47385 3.07017,4.55289 3.07016,6.9897 1.56774,0.21825 1.69839,-1.46383 1.76371,-0.518 1.24112,-0.5445 1.56775,1.65572 1.89435,4.77032 3.13549,5.68357 1.69838,2.0939 1.56774,1.73219 1.69839,2.04682 1.30645,1.20676 1.50242,0.83582 1.95968,0.3855 2.41694,0.14171 13.39112,0.0117 3.72339,0.0301 14.56694,0.0965 34.55564,0.003 v 0"
         clip-path="url(#p4619d7e9e7)"
         style="fill:none;stroke:#ffa500;stroke-width:1.5;stroke-linecap:square"
         id="path171" />
    </g>
    <g
       id="line2d_22"
       transform="translate(38.857277,-32.879233)">
      <path
         d="m 40.434677,215.46 16.657258,-0.10856 2.025,0.008 5.944355,0.0261 13.979033,-0.0596 1.959677,-0.0737 1.241129,-0.0386 4.768548,-0.15717 1.175807,0.0159 0.979839,0.0118 0.587903,-0.063 1.110484,-0.0605 0.587903,-0.0648 1.829032,-0.28306 0.326613,-0.089 0.653226,0.0227 0.26129,-0.083 0.587903,0.0117 0.653226,0.0364 0.195968,-0.10519 1.045161,0.11421 0.457258,0.0233 0.261291,-0.0567 0.653225,0.0115 0.587904,0.0432 0.195967,-0.0845 1.306453,-0.0458 0.19597,-0.11239 1.50242,0.13853 0.26129,-0.17578 0.26129,-0.1355 0.19597,-0.22701 0.84919,0.10948 0.19597,-0.17813 0.39193,-0.12151 0.13065,-0.13344 0.84919,0.0581 0.19597,-0.0816 0.45726,-0.0626 0.52258,0.18823 0.39193,0.0318 0.13065,-0.18404 0.45726,-0.0655 0.13064,-0.13479 0.84919,0.2269 0.19597,-0.25163 0.32662,-0.0813 0.19596,-0.35009 0.8492,0.44693 0.19596,-0.26281 0.32662,-0.0144 0.19596,-0.32619 0.0653,0.0342 0.71855,0.32866 0.0653,-0.0319 0.32661,-0.58607 0.13065,-0.24399 0.19596,-0.84657 0.0653,0.0254 0.84919,0.40813 0.13065,-0.51441 0.0653,0.013 0.32661,-0.0603 0.13064,-0.5689 0.0653,0.0434 0.84919,0.77859 0.13065,-0.53556 0.0653,0.0136 0.26129,-0.0377 0.0653,-0.076 0.13065,-0.7193 0.0653,0.0502 0.65323,0.60721 0.19596,-0.85426 0.13065,0.0409 0.65323,0.16496 0.5879,0.40161 0.13064,-0.16917 0.19597,-0.55625 0.45726,-0.0948 0.13064,-0.1572 0.32662,0.21328 0.45725,0.31081 0.0653,-0.11224 0.19596,-0.76839 0.26129,-0.11638 0.13065,-0.7193 0.0653,-0.53489 0.0653,0.0219 0.26129,0.30583 0.52258,0.67128 0.19596,-0.74387 0.0653,0.0773 0.32661,0.19762 0.0653,-0.0712 0.0653,-0.30396 0.0653,0.0362 0.52258,0.60047 0.26129,0.27241 0.32661,-0.54456 0.32662,-0.0967 0.13064,-0.48208 0.26129,0.23929 0.52258,0.48941 0.13065,-0.66541 0.0653,0.0312 0.26129,0.13456 0.26129,-0.0805 0.19597,-0.10862 0.52258,0.11514 0.19596,-1.08667 0.0653,0.12193 0.26129,0.38521 0.19597,0.0996 0.91451,1.37656 0.0653,-0.0575 0.0653,-0.34471 0.0653,0.0463 0.26129,0.43235 0.26129,0.28843 0.45726,0.59166 0.32661,0.50528 0.0653,-0.0756 0.0653,-0.0637 0.39193,0.6 0.26129,0.19312 0.91452,1.42434 0.19597,-0.13007 0.39193,0.32093 0.32661,0.10502 0.65323,0.62232 0.19597,-0.11749 0.39193,0.22909 0.39194,0.1294 0.5879,0.40541 0.32661,-0.0781 0.32662,0.0592 0.13064,-0.0646 0.91452,0.28869 0.84919,0.0738 0.65323,0.20862 0.13064,-0.0839 0.45726,0.0551 0.13065,-0.0876 1.37177,0.23323 0.26129,-0.10354 0.78387,0.18026 0.26129,0.0237 1.17581,0.093 0.19597,-0.0412 0.71854,0.0712 4.57259,0.4361 0.32661,0.007 1.82903,0.0875 3.72339,0.10364 6.6629,0.0136 1.30645,-0.0152 3.33145,-0.0827 0.39194,-0.0312 1.17581,-0.0464 0.32661,-0.0563 1.24113,0.0155 0.32661,-0.0692 1.11048,-0.0294 0.19597,-0.0503 0.19597,-0.0682 1.30645,-0.0898 0.26129,-0.16565 1.17581,0.0274 0.13064,-0.067 0.19597,-0.19289 0.78387,0.10082 0.19597,-0.0175 0.39194,0.0456 0.26129,-0.22655 0.65322,0.0165 0.19597,-0.29461 0.39194,0.0378 0.13064,-0.28195 0.13065,-0.23812 0.71854,0.0654 0.13065,-0.21811 0.39193,0.0852 0.19597,-0.0851 0.13065,-0.2716 0.39193,0.246 0.32662,0.16202 0.19596,-0.34528 0.39194,0.15237 0.0653,-0.0654 0.19597,-0.5959 0.65323,0.0925 0.0653,-0.0973 0.26129,-0.91964 0.19597,-0.004 0.13064,-0.33028 0.32661,-2.03289 0.39194,0.082 0.19597,0.058 0.0653,-0.14946 0.13064,-1.15015 0.0653,0.0561 0.32661,0.35709 0.0653,0.0138 0.0653,-0.13801 0.26129,-1.87505 0.32661,0.2549 0.26129,0.17494 0.0653,-0.20082 0.13065,-1.51957 0.0653,0.0872 0.32661,0.53194 0.0653,0.0208 0.0653,-0.22583 0.26129,-2.63853 0.5879,-0.2298 0.0653,-0.47109 0.13065,-2.21731 0.0653,0.0606 0.32661,0.81953 0.0653,-0.0227 0.0653,-0.47733 0.19597,-3.61911 0.13064,0.059 0.26129,0.66631 0.26129,0.68975 0.0653,-0.19628 0.19596,-4.11053 0.0653,0.24931 0.19596,0.50226 0.0653,-0.17448 0.13064,-2.80193 0.13065,-4.91321 0.0653,0.0803 0.19597,0.80011 0.45725,2.06268 0.0653,-0.67396 0.13064,-3.81257 0.0653,0.31611 0.32661,2.29775 0.0653,0.17725 0.0653,-0.37396 0.13065,-4.96945 0.0653,0.19641 0.32661,2.09934 0.32662,1.77973 0.13064,-3.22759 0.0653,0.46624 0.32662,2.15883 0.19597,0.89555 0.0653,-0.0873 0.0653,-1.22969 0.0653,0.0508 0.19597,0.74732 0.32661,1.74642 0.0653,-0.0149 0.0653,-0.24481 0.13064,-3.22838 0.0653,0.47547 0.32661,2.20853 0.19597,0.86867 0.0653,-0.38725 0.0653,-1.99062 0.0653,0.0734 0.19597,1.11914 0.45726,3.71332 0.0653,-0.19656 0.13065,-3.96598 0.0653,0.0623 0.32661,2.15584 0.0653,-0.10097 0.13064,-4.66809 0.0653,-3.0196 0.0653,0.28307 0.32661,2.68 0.32661,2.56325 0.0653,-0.53643 0.13064,-4.27633 0.52258,4.02457 0.13065,-4.69679 0.13064,0.64229 0.5879,5.0455 0.0653,-0.66306 0.13064,-3.2182 0.39194,3.36347 0.13064,0.65156 0.0653,-0.3387 0.0653,-2.62948 0.0653,0.1404 0.26129,1.59364 0.26129,2.02292 0.0653,-0.15554 0.0653,-0.38283 0.13064,-2.81324 0.32661,3.23244 0.32662,1.36673 0.13064,-0.26057 0.13065,0.27676 0.39193,1.80403 0.13065,-1.61098 0.0653,-2.75769 0.0653,0.15198 0.39194,3.7214 0.26129,1.27776 0.0653,-0.17355 0.13065,-0.19999 0.13064,0.29169 0.39194,1.56547 0.0653,-0.11929 0.13065,-2.60498 0.52258,4.43809 0.13064,0.68265 0.13065,-0.62935 0.13064,0.18358 0.26129,1.15882 0.26129,1.30849 0.0653,-0.49624 0.13065,-1.97781 0.45726,3.46087 0.0653,-0.16746 0.13065,-3.59631 0.0653,0.12727 0.26129,1.11949 0.39194,2.05005 0.0653,-0.44638 0.13064,-2.07687 0.45726,3.11309 0.0653,-0.35475 0.13065,-3.61336 0.0653,0.13902 0.26129,1.10403 0.32661,1.3616 0.0653,-0.0667 0.19596,-3.12779 0.0653,0.3892 0.39193,2.6282 0.0653,-0.35825 0.13065,-3.7417 0.0653,0.18869 0.32662,1.79202 0.32661,1.75178 0.0653,-0.4821 0.13065,-2.46525 0.45725,2.90431 0.0653,-0.38923 0.13064,-3.88373 0.0653,0.1836 0.39194,2.01216 0.26129,0.90156 0.19597,-2.88979 0.0653,0.57371 0.45726,3.48028 0.0653,-0.30276 0.0653,-1.14373 0.0653,0.0423 0.26129,0.60391 0.19596,0.60577 0.19597,-0.70248 0.13065,-2.10385 0.65322,4.81335 0.0653,-0.0488 0.0653,-0.64264 0.0653,0.0687 0.26129,0.84068 0.32661,0.95525 0.13065,-1.52131 0.52258,3.42387 0.13064,0.57559 0.0653,-0.17041 0.0653,-0.98904 0.0653,0.0733 0.26129,0.74999 0.32662,0.91644 0.13064,-1.37682 0.65323,3.56618 0.13064,-1.56825 0.13065,0.28124 0.52258,1.99105 0.13064,-1.06591 0.0653,0.34701 0.45725,2.2933 0.13065,0.42682 0.0653,-0.23671 0.0653,-0.70392 0.0653,0.0477 0.5879,0.74429 0.0653,-0.71431 0.0653,0.14001 0.45726,1.94446 0.26129,0.5975 0.13065,-0.4179 0.26129,0.0352 0.26129,0.0999 0.0653,-0.11719 0.0653,-0.50241 0.0653,0.0708 0.52258,1.97123 0.26129,0.55718 0.19597,-0.0621 0.39193,0.0122 0.13065,-0.29238 0.65322,1.69818 0.26129,0.33604 0.32662,0.12123 0.13064,-0.0302 0.19597,-0.0749 0.45726,0.74073 0.52258,0.44849 1.89435,0.71067 1.82903,0.22307 0.32662,0.0367 0.84919,0.0379 1.89436,0.0275 0.32661,-0.004 1.1758,0.0207 0.52259,0.003 1.1758,-0.009 2.15565,0.0455 1.89435,-0.002 5.35645,-0.0999 1.76371,0.0432 1.17581,0.024 0.39193,4e-5 1.17581,0.0182 0.39194,-0.002 1.24113,0.009 0.39193,0.01 2.09032,0.0463 8.10001,0.0259 34.88225,0.003 v 0"
         clip-path="url(#p4619d7e9e7)"
         style="fill:none;stroke:#000000;stroke-linecap:square"
         id="path174" />
    </g>
    <g
       id="line2d_23"
       transform="translate(38.857277,-32.879233)">
      <path
         d="m 40.434677,215.46 17.571775,-0.11088 19.270161,-0.21481 4.703226,-0.67281 4.703226,-2.55583 1.894354,-1.66586 2.090323,-0.93992 1.110484,-0.5219 1.437097,-0.84522 2.090322,-0.6272 2.874194,-1.00295 1.241129,-0.11229 1.502422,0.56487 2.35161,2.09242 3.07016,2.55387 1.63307,1.33206 1.37177,0.89675 1.17581,0.55366 2.74355,0.48938 3.52741,0.40197 4.44194,0.17988 9.34113,-0.39305 3.72339,-0.74907 1.50241,-0.53736 1.11049,-0.2935 1.56774,-1.91661 1.63306,-4.73886 2.025,-9.03715 1.17581,-4.0986 1.4371,-2.4767 1.56774,0.18113 1.50242,-1.38938 3.26613,-13.139 1.4371,-0.39719 1.63306,3.31066 1.76371,6.7264 1.37177,3.01765 1.50242,-0.5279 1.76371,4.64924 3.20081,4.32959 3.00484,5.88906 1.43709,2.06263 0.0653,-0.0721 1.69838,-1.72942 1.50242,-0.44854 1.69839,0.51591 1.50242,0.002 2.93952,1.49392 3.65806,3.53508 2.09032,1.83688 1.50242,1.57281 0.97984,0.93323 1.56774,1.01851 1.69839,0.57557 2.28629,0.31256 2.28629,0.11258 4.11532,-0.0311 6.46694,0.0484 8.03468,-0.15194 8.88387,-0.15364 4.05,0.14293 3.65806,0.11772 3.91936,-0.0672 4.31129,-0.10713 4.6379,0.0732 4.37661,-0.0282 7.77339,-0.0115 8.49194,0.13453 11.43145,-0.0683 4.96451,-0.0365 5.74839,0.0578 7.12016,0.0493 v 0"
         clip-path="url(#p4619d7e9e7)"
         style="fill:none;stroke:#ffa500;stroke-width:1.5;stroke-linecap:square"
         id="path177" />
    </g>
    <g
       id="line2d_24"
       transform="translate(38.857277,-32.879233)">
      <path
         d="m 40.434677,215.46 10.843549,-0.11095 27.174193,-0.34438 3.266129,-0.61548 2.939517,-1.27709 1.567741,-0.9266 3.200807,-2.57231 3.070161,-1.22166 1.633065,-1.12849 1.763709,-0.66809 1.829033,-0.56831 0.979838,-0.27276 1.371771,0.0548 9.21049,7.77487 0.52258,0.26162 1.56774,0.56121 4.70323,0.6233 5.09516,0.21331 6.00968,-0.11966 5.09516,-0.48442 1.69838,-0.37752 1.4371,-0.49006 2.28629,-0.91997 1.63306,-3.35396 1.63307,-6.2454 1.50242,-7.50921 1.69838,-2.48077 1.50242,-1.0959 1.37178,-0.17829 1.76371,-7.46498 1.76371,-4.06994 1.24113,-2.07237 1.50242,0.38957 1.76371,4.65253 1.56774,2.46931 2.41693,5.45373 1.11049,2.08317 1.50242,2.30844 1.37177,1.93082 3.33145,5.79785 1.11049,1.49976 1.56774,-0.20945 1.50242,-1.93757 0.0653,0.0745 1.56774,1.70409 1.76371,-0.1606 1.69839,0.56273 1.95968,0.94218 0.97983,0.49546 2.8742,2.69556 1.24113,0.9575 0.65322,0.61338 1.82904,2.03938 1.43709,1.16712 1.63307,0.80675 1.76371,0.41049 2.54758,0.21755 3.98467,0.0339 4.18065,0.0122 9.27581,-0.017 11.95403,-0.32035 1.89435,0.0891 4.18065,0.18787 4.50726,-0.0476 21.03387,-0.0983 8.49193,0.14792 12.73791,-0.0501 6.72822,-0.006 3.4621,0.0113 6.00968,0.0618 0.65322,0.006 v 0"
         clip-path="url(#p4619d7e9e7)"
         style="fill:none;stroke:#ffa500;stroke-width:1.5;stroke-linecap:square"
         id="path180" />
    </g>
    <g
       id="line2d_25"
       transform="translate(38.857277,-32.879233)">
      <path
         d="m 40.434677,215.46 10.974194,-0.10965 2.808871,0.006 9.86371,-0.0503 2.025,0.006 1.437096,-0.007 5.879033,-0.0796 0.718548,-0.0145 1.045161,-0.0326 0.457258,0.006 1.045162,-0.0216 0.52258,-0.0364 0.849194,-0.0464 1.110484,-0.13001 0.326613,-0.0793 1.110484,-0.15648 0.391935,-0.0182 0.26129,-0.0996 0.261291,-0.11886 0.130645,-0.0684 0.849193,0.0472 0.195968,-0.20574 0.391936,-0.66073 0.391935,0.0303 0.653226,0.0232 0.26129,-0.36012 0.130645,-0.21993 0.195968,-0.47691 0.522581,0.245 0.391935,0.12113 0.522581,-0.74238 0.130645,-0.45685 0.06532,0.0154 0.457258,0.14572 0.326613,-0.0442 0.06532,-0.0879 0.195968,-0.53214 0.326613,-0.40265 0.130645,-0.67305 0.06532,0.0225 0.26129,0.14342 0.587903,0.17554 0.195968,-0.55146 0.457258,-0.83137 0.130645,0.0889 0.587903,0.6586 0.195968,0.0532 0.195968,-0.59402 0.391935,-0.50687 0.06532,-0.43592 0.06532,0.0824 0.261291,0.3217 0.391935,0.59015 0.195968,0.11394 0.26129,-0.78563 0.261291,-0.32582 0.130645,-0.88376 0.06532,0.0441 0.783871,0.70732 0.06532,-0.15166 0.130645,-0.57641 0.457258,-0.12149 0.130645,-0.0736 0.718549,0.40778 0.130645,-0.39767 0.130645,-0.4513 0.457258,-0.12225 0.391936,0.13128 0.52258,0.28332 0.06532,-0.1784 0.130645,-0.67579 0.457258,0.0456 0.26129,-0.12886 0.522581,0.29479 0.26129,-0.96787 0.06532,0.0909 0.195968,0.0845 0.195967,-0.0928 0.261291,0.18801 0.26129,0.2074 0.326613,0.33698 0.130645,-0.34629 0.06532,-0.52659 0.06532,0.0683 0.195966,0.19591 0.32661,-0.0465 0.19597,0.21401 0.32661,0.67786 0.32662,0.6313 0.0653,-0.0128 0.13065,-0.47469 0.26129,0.32576 0.19596,0.077 0.8492,1.46834 0.19597,-0.78921 0.0653,0.13368 0.26129,0.34795 0.19597,0.076 0.84919,1.38092 0.19597,-0.52309 0.26129,0.38125 0.32661,0.0795 0.78387,1.38461 0.13065,0.0372 0.0653,-0.18815 0.0653,0.10029 0.26129,0.21287 0.26129,0.0851 0.8492,1.05807 0.26129,-0.0213 0.32661,0.18412 0.45726,0.40543 0.65322,0.59977 0.13065,-0.0277 0.45725,0.22987 0.2613,0.13148 0.71854,0.44357 0.19597,-0.0626 0.39194,0.0246 0.13064,-0.0538 0.91452,0.28498 0.26129,0.0287 4.37661,0.52414 0.26129,-0.0133 4.50726,0.17503 0.65323,-0.1039 1.43709,0.0114 0.26129,-0.0136 1.24113,0.0468 0.52258,-0.0415 1.11049,-0.0262 0.19597,-0.0415 1.04516,-0.0197 0.5879,-0.24653 0.78387,0.0717 0.71855,-0.12427 0.78387,0.12115 0.32661,-0.12477 0.19597,-0.0683 0.19597,-0.18816 1.37177,-0.058 0.26129,-0.19864 0.78387,0.1532 0.8492,-0.88824 0.65322,0.27973 0.0653,-0.0439 0.13065,-0.24536 0.39194,-0.049 0.32661,-0.19195 0.71855,0.11861 0.13064,-0.23912 0.32661,-0.52424 0.26129,-1.03694 0.91452,-0.22166 0.39194,-2.49717 0.26129,-1.62344 0.45725,-0.0129 0.39194,-0.0547 0.13065,-0.46918 0.5879,-7.07705 0.0653,0.0113 0.78387,0.35597 0.13065,-0.71959 0.26129,-3.38234 0.0653,-0.17634 0.0653,-0.56285 0.19597,-3.41855 0.13065,0.24409 0.19596,1.33855 0.39194,2.32797 0.0653,0.22496 0.0653,-0.3978 0.13065,-1.25705 0.13064,-0.37251 0.32662,-2.2499 0.13064,-3.80925 0.0653,0.0857 0.13064,0.7016 0.52258,5.15842 0.0653,0.2334 0.13065,-1.28563 0.0653,0.10676 0.0653,-0.0467 0.19597,-0.98378 0.26129,-1.64832 0.0653,-1.30691 0.0653,0.0751 0.19596,0.95671 0.45726,3.85715 0.0653,0.12054 0.13064,-1.39985 0.0653,0.11415 0.0653,-0.0428 0.19596,-0.88531 0.45726,-2.08229 0.26129,0.27355 0.19597,0.15164 0.32661,-4.87695 0.13065,0.14928 0.13064,-0.22522 0.32662,-1.24818 0.13064,-1.07423 0.13065,0.0739 0.26129,0.75051 0.13064,0.40354 0.0653,-0.58046 0.0653,0.24126 0.0653,0.0344 0.13064,-2.6784 0.0653,0.0565 0.13064,0.22071 0.19597,-0.28961 0.0653,-0.20164 0.0653,-0.8513 0.13064,-5.03506 0.0653,0.0339 0.19597,0.92903 0.52258,3.45642 0.0653,-1.57605 0.0653,0.009 0.19597,0.78429 0.26128,-0.53313 0.0653,-0.18664 0.13064,-4.33856 0.0653,0.17737 0.2613,2.07036 0.39193,3.25659 0.0653,-0.0259 0.0653,-1.87845 0.0653,0.54717 0.19597,1.17779 0.32661,0.20499 0.13064,-2.88657 0.13065,0.68847 0.65323,5.48253 0.0653,-1.51358 0.0653,0.65434 0.26129,1.7765 0.84919,2.92945 0.13065,0.69313 0.26129,-4.03381 0.65323,4.42103 0.0653,-0.0147 0.19597,0.84604 0.39193,2.76786 0.0653,-0.78758 0.0653,0.10323 0.0653,-0.0711 0.19597,-1.93082 0.26129,1.30054 0.0653,0.0614 0.0653,-0.3135 0.19597,-3.84595 0.0653,0.42409 0.71855,6.57917 0.0653,-0.44952 0.0653,-0.70163 0.0653,0.31885 0.26129,1.20378 0.13064,0.25062 0.0653,-0.37871 0.13064,-2.47166 0.0653,0.40298 0.71855,4.79024 0.13065,-1.30968 0.45726,1.5007 0.13064,-1.79992 0.0653,-1.19182 0.0653,0.39438 0.71854,4.51786 0.13065,-1.20486 0.0653,0.23198 0.26129,0.84526 0.13065,0.0896 0.13064,-1.82303 0.0653,-0.90194 0.0653,0.33222 0.71855,4.876 0.0653,-0.46052 0.0653,-0.25107 0.26129,0.83673 0.19597,0.21492 0.0653,-0.0556 0.13065,-1.94754 0.0653,0.27253 0.71855,4.14865 0.13064,-0.6636 0.26129,0.83244 0.26129,0.33556 0.13065,-1.32928 0.0653,0.21606 0.71855,2.91388 0.0653,-0.70616 0.0653,0.12729 0.26129,0.70045 0.32661,0.32048 0.0653,-0.35402 0.0653,0.0939 0.52258,1.09198 0.32662,-1.90879 0.45726,0.88633 0.0653,-0.11912 0.19597,-1.19923 0.0653,0.0258 0.45726,0.32816 0.26129,-2.18337 0.0653,0.0407 0.45726,1.20105 0.0653,-0.0855 0.13065,-1.01074 0.0653,0.0966 0.26129,0.93693 0.45726,1.91486 0.19597,-0.99232 0.0653,0.21225 0.26129,0.488 0.0653,-0.18451 0.19597,-1.92386 0.0653,0.18124 0.65323,1.99491 0.0653,-0.12807 0.13064,-1.00138 0.0653,0.0963 0.32661,0.79481 0.0653,-0.0437 0.19597,-2.04425 0.13064,0.38323 0.58791,2.08978 0.0653,-0.0387 0.13065,-0.87145 0.45725,0.96636 0.0653,-0.28685 0.13064,-1.48788 0.0653,0.15963 0.71855,2.3857 0.13065,-0.85424 0.45726,0.97821 0.0653,-0.21792 0.13064,-1.46392 0.0653,0.15441 0.65322,1.86813 0.0653,-0.18467 0.13065,-0.65562 0.45726,1.27202 0.0653,0.0806 0.13065,-0.55743 0.0653,0.10631 0.65322,1.44526 0.0653,-0.0947 0.0653,-0.58505 0.0653,0.0502 0.45726,1.02667 0.13064,0.17679 0.13065,-0.0575 0.26129,0.23604 0.39194,0.35503 0.13064,-0.44449 0.45726,0.92398 0.45726,0.3341 0.39193,0.41044 0.19597,-0.68443 0.45726,1.06054 0.84919,1.10429 0.13065,0.11933 0.0653,-0.021 0.0653,-0.15829 0.52258,0.88353 0.97984,0.87256 0.0653,-0.0706 0.0653,0.0771 0.45725,0.50647 0.97984,0.61267 0.19597,0.0221 0.5879,0.29603 1.69839,0.3791 2.09032,0.21984 0.8492,0.0383 2.6129,0.0413 17.0492,-0.14084 0.32661,-0.0235 0.84919,-0.0261 1.95968,-0.006 0.45726,-0.0338 0.52258,-0.0429 2.22096,-0.10466 0.19597,-0.007 0.71855,0.081 1.30645,0.018 0.52258,-0.0117 0.26129,-0.08 0.19597,-0.0461 0.71855,0.14126 0.52258,-0.004 0.32661,-0.0457 0.71855,0.13394 1.89436,0.10058 4.96451,0.0121 0.45726,-0.0379 1.04516,0.0367 1.63307,-0.0767 1.69838,-0.057 0.19597,-0.0466 0.71855,0.0879 0.97984,-0.0623 0.71855,0.0585 1.04516,-0.009 0.71855,0.0247 1.11048,0.0481 0.65323,-0.0385 4.76854,-0.14471 0.19597,-0.0894 0.71855,0.20904 0.97984,-0.17767 0.5879,0.1538 0.45726,-0.0815 0.13065,-0.0413 0.19596,-0.19614 0.8492,0.3145 0.97984,-0.0879 0.71854,0.1162 0.91452,-0.0394 0.97984,0.0506 0.45726,-0.0178 0.71855,0.10486 1.04516,-0.002 0.78387,0.0192 2.22097,-0.0314 0.78387,0.0407 1.30645,0.0318 7.64274,0.0131 0.84919,-0.0319 0.32662,-0.0145 0.97983,0.0274 4.24597,-0.047 0.45726,-0.0584 0.26129,-0.11334 0.13065,-0.0568 0.78387,0.18661 0.32661,-0.0455 0.84919,-0.0121 0.65323,0.0591 0.45726,-0.14549 0.19597,0.0215 0.71854,0.13676 1.24113,0.0185 0.45726,-0.0409 4.50726,0.0672 0.65323,-0.0419 0.39193,-0.002 0.78387,0.0392 2.67823,0.0412 0.13064,0.01 v 0"
         clip-path="url(#p4619d7e9e7)"
         style="fill:none;stroke:#000000;stroke-linecap:square"
         id="path183" />
    </g>
    <g
       id="patch_3"
       transform="translate(38.857277,-32.879233)">
      <path
         d="M 40.5,224.28 V 30.24"
         style="fill:none;stroke:#000000;stroke-width:0.8;stroke-linecap:square;stroke-linejoin:miter"
         id="path186" />
    </g>
    <g
       id="patch_4"
       transform="translate(38.857277,-32.879233)">
      <path
         d="M 291.6,224.28 V 30.24"
         style="fill:none;stroke:#000000;stroke-width:0.8;stroke-linecap:square;stroke-linejoin:miter"
         id="path189" />
    </g>
    <g
       id="patch_5"
       transform="translate(38.857277,-32.879233)">
      <path
         d="M 40.5,224.28 H 291.6"
         style="fill:none;stroke:#000000;stroke-width:0.8;stroke-linecap:square;stroke-linejoin:miter"
         id="path192" />
    </g>
    <g
       id="patch_6"
       transform="translate(38.857277,-32.879233)">
      <path
         d="M 40.5,30.24 H 291.6"
         style="fill:none;stroke:#000000;stroke-width:0.8;stroke-linecap:square;stroke-linejoin:miter"
         id="path195" />
    </g>
    <g
       id="legend_1"
       transform="translate(38.857277,-32.879233)">
      <g
         id="patch_7">
        <path
           d="m 47.5,94.82125 h 54.24375 q 2,0 2,-2 V 37.24 q 0,-2 -2,-2 H 47.5 q -2,0 -2,2 v 55.58125 q 0,2 2,2 z"
           style="opacity:0.8;fill:#ffffff;stroke:#cccccc;stroke-linejoin:miter"
           id="path198" />
      </g>
      <g
         id="line2d_26">
        <path
           d="m 49.5,42.897813 h 10 10"
           style="fill:none;stroke:#000000;stroke-linecap:square"
           id="path201" />
      </g>
      <g
         id="text_15">
        <text
           style="font-style:normal;font-variant:normal;font-weight:normal;font-stretch:normal;font-size:10px;line-height:normal;font-family:Arial, sans-serif;text-anchor:start"
           x="77.5"
           y="46.397812"
           id="text204">2006</text>
      </g>
      <g
         id="line2d_27">
        <path
           d="m 49.5,57.043125 h 10 10"
           style="fill:none;stroke:#000000;stroke-linecap:square"
           id="path207" />
      </g>
      <g
         id="text_16">
        <text
           style="font-style:normal;font-variant:normal;font-weight:normal;font-stretch:normal;font-size:10px;line-height:normal;font-family:Arial, sans-serif;text-anchor:start"
           x="77.5"
           y="60.543125"
           id="text210">2012</text>
      </g>
      <g
         id="line2d_28">
        <path
           d="m 49.5,71.188438 h 10 10"
           style="fill:none;stroke:#000000;stroke-linecap:square"
           id="path213" />
      </g>
      <g
         id="text_17">
        <text
           style="font-style:normal;font-variant:normal;font-weight:normal;font-stretch:normal;font-size:10px;line-height:normal;font-family:Arial, sans-serif;text-anchor:start"
           x="77.5"
           y="74.688438"
           id="text216">2013</text>
      </g>
      <g
         id="line2d_29">
        <path
           d="m 49.5,85.33375 h 10 10"
           style="fill:none;stroke:#000000;stroke-linecap:square"
           id="path219" />
      </g>
      <g
         id="text_18">
        <text
           style="font-style:normal;font-variant:normal;font-weight:normal;font-stretch:normal;font-size:10px;line-height:normal;font-family:Arial, sans-serif;text-anchor:start"
           x="77.5"
           y="88.833748"
           id="text222">2018</text>
      </g>
    </g>
  </g>
  <defs
     id="defs231">
    <clipPath
       id="p4619d7e9e7">
      <rect
         x="40.5"
         y="30.24"
         width="251.1"
         height="194.04"
         id="rect228" />
    </clipPath>
  </defs>
</svg>
