<?xml version="1.0" encoding="utf-8" standalone="no"?>
<!DOCTYPE svg PUBLIC "-//W3C//DTD SVG 1.1//EN"
  "http://www.w3.org/Graphics/SVG/1.1/DTD/svg11.dtd">
<svg xmlns:xlink="http://www.w3.org/1999/xlink" width="324pt" height="252pt" viewBox="0 0 324 252" xmlns="http://www.w3.org/2000/svg" version="1.1">
 <metadata>
  <rdf:RDF xmlns:dc="http://purl.org/dc/elements/1.1/" xmlns:cc="http://creativecommons.org/ns#" xmlns:rdf="http://www.w3.org/1999/02/22-rdf-syntax-ns#">
   <cc:Work>
    <dc:type rdf:resource="http://purl.org/dc/dcmitype/StillImage"/>
    <dc:date>2023-12-01T17:17:30.060808</dc:date>
    <dc:format>image/svg+xml</dc:format>
    <dc:creator>
     <cc:Agent>
      <dc:title>Matplotlib v3.8.0, https://matplotlib.org/</dc:title>
     </cc:Agent>
    </dc:creator>
   </cc:Work>
  </rdf:RDF>
 </metadata>
 <defs>
  <style type="text/css">*{stroke-linejoin: round; stroke-linecap: butt}</style>
 </defs>
 <g id="figure_1">
  <g id="patch_1">
   <path d="M 0 252 
L 324 252 
L 324 0 
L 0 0 
z
" style="fill: #ffffff"/>
  </g>
  <g id="axes_1">
   <g id="patch_2">
    <path d="M 40.5 224.28 
L 291.6 224.28 
L 291.6 30.24 
L 40.5 30.24 
z
" style="fill: #ffffff"/>
   </g>
   <g id="matplotlib.axis_1">
    <g id="xtick_1">
     <g id="line2d_1">
      <defs>
       <path id="m6fb58d105e" d="M 0 0 
L 0 3.5 
" style="stroke: #000000; stroke-width: 0.8"/>
      </defs>
      <g>
       <use xlink:href="#m6fb58d105e" x="40.5" y="224.28" style="stroke: #000000; stroke-width: 0.8"/>
      </g>
     </g>
     <g id="text_1">
      <text style="font: 12px 'Arial', sans-serif" transform="translate(43.531875 273.968125) rotate(-90)">January</text>
     </g>
    </g>
    <g id="xtick_2">
     <g id="line2d_2">
      <g>
       <use xlink:href="#m6fb58d105e" x="71.8875" y="224.28" style="stroke: #000000; stroke-width: 0.8"/>
      </g>
     </g>
     <g id="text_2">
      <text style="font: 12px 'Arial', sans-serif" transform="translate(74.919375 279.293125) rotate(-90)">February</text>
     </g>
    </g>
    <g id="xtick_3">
     <g id="line2d_3">
      <g>
       <use xlink:href="#m6fb58d105e" x="103.275" y="224.28" style="stroke: #000000; stroke-width: 0.8"/>
      </g>
     </g>
     <g id="text_3">
      <text style="font: 12px 'Arial', sans-serif" transform="translate(106.377188 264.6175) rotate(-90)">March</text>
     </g>
    </g>
    <g id="xtick_4">
     <g id="line2d_4">
      <g>
       <use xlink:href="#m6fb58d105e" x="134.6625" y="224.28" style="stroke: #000000; stroke-width: 0.8"/>
      </g>
     </g>
     <g id="text_4">
      <text style="font: 12px 'Arial', sans-serif" transform="translate(137.764688 255.285625) rotate(-90)">April</text>
     </g>
    </g>
    <g id="xtick_5">
     <g id="line2d_5">
      <g>
       <use xlink:href="#m6fb58d105e" x="166.05" y="224.28" style="stroke: #000000; stroke-width: 0.8"/>
      </g>
     </g>
     <g id="text_5">
      <text style="font: 12px 'Arial', sans-serif" transform="translate(169.081875 253.94875) rotate(-90)">May</text>
     </g>
    </g>
    <g id="xtick_6">
     <g id="line2d_6">
      <g>
       <use xlink:href="#m6fb58d105e" x="197.4375" y="224.28" style="stroke: #000000; stroke-width: 0.8"/>
      </g>
     </g>
     <g id="text_6">
      <text style="font: 12px 'Arial', sans-serif" transform="translate(200.539688 257.299375) rotate(-90)">June</text>
     </g>
    </g>
    <g id="xtick_7">
     <g id="line2d_7">
      <g>
       <use xlink:href="#m6fb58d105e" x="228.825" y="224.28" style="stroke: #000000; stroke-width: 0.8"/>
      </g>
     </g>
     <g id="text_7">
      <text style="font: 12px 'Arial', sans-serif" transform="translate(231.856875 252.619375) rotate(-90)">July</text>
     </g>
    </g>
    <g id="xtick_8">
     <g id="line2d_8">
      <g>
       <use xlink:href="#m6fb58d105e" x="260.2125" y="224.28" style="stroke: #000000; stroke-width: 0.8"/>
      </g>
     </g>
     <g id="text_8">
      <text style="font: 12px 'Arial', sans-serif" transform="translate(263.244375 268.6375) rotate(-90)">August</text>
     </g>
    </g>
    <g id="xtick_9">
     <g id="line2d_9">
      <g>
       <use xlink:href="#m6fb58d105e" x="291.6" y="224.28" style="stroke: #000000; stroke-width: 0.8"/>
      </g>
     </g>
     <g id="text_9">
      <text style="font: 12px 'Arial', sans-serif" transform="translate(294.775313 289.975) rotate(-90)">September</text>
     </g>
    </g>
   </g>
   <g id="matplotlib.axis_2">
    <g id="ytick_1">
     <g id="line2d_10">
      <defs>
       <path id="mda7b6971b9" d="M 0 0 
L -3.5 0 
" style="stroke: #000000; stroke-width: 0.8"/>
      </defs>
      <g>
       <use xlink:href="#mda7b6971b9" x="40.5" y="215.46" style="stroke: #000000; stroke-width: 0.8"/>
      </g>
     </g>
     <g id="text_10">
      <text style="font: 12px 'Arial', sans-serif; text-anchor: end" x="33.5" y="219.754687" transform="rotate(-0 33.5 219.754687)">0.0000</text>
     </g>
    </g>
    <g id="ytick_2">
     <g id="line2d_11">
      <g>
       <use xlink:href="#mda7b6971b9" x="40.5" y="187.206595" style="stroke: #000000; stroke-width: 0.8"/>
      </g>
     </g>
     <g id="text_11">
      <text style="font: 12px 'Arial', sans-serif; text-anchor: end" x="33.5" y="191.501283" transform="rotate(-0 33.5 191.501283)">0.0005</text>
     </g>
    </g>
    <g id="ytick_3">
     <g id="line2d_12">
      <g>
       <use xlink:href="#mda7b6971b9" x="40.5" y="158.953191" style="stroke: #000000; stroke-width: 0.8"/>
      </g>
     </g>
     <g id="text_12">
      <text style="font: 12px 'Arial', sans-serif; text-anchor: end" x="33.5" y="163.247878" transform="rotate(-0 33.5 163.247878)">0.0010</text>
     </g>
    </g>
    <g id="ytick_4">
     <g id="line2d_13">
      <g>
       <use xlink:href="#mda7b6971b9" x="40.5" y="130.699786" style="stroke: #000000; stroke-width: 0.8"/>
      </g>
     </g>
     <g id="text_13">
      <text style="font: 12px 'Arial', sans-serif; text-anchor: end" x="33.5" y="134.994474" transform="rotate(-0 33.5 134.994474)">0.0015</text>
     </g>
    </g>
    <g id="ytick_5">
     <g id="line2d_14">
      <g>
       <use xlink:href="#mda7b6971b9" x="40.5" y="102.446381" style="stroke: #000000; stroke-width: 0.8"/>
      </g>
     </g>
     <g id="text_14">
      <text style="font: 12px 'Arial', sans-serif; text-anchor: end" x="33.5" y="106.741069" transform="rotate(-0 33.5 106.741069)">0.0020</text>
     </g>
    </g>
    <g id="ytick_6">
     <g id="line2d_15">
      <g>
       <use xlink:href="#mda7b6971b9" x="40.5" y="74.192977" style="stroke: #000000; stroke-width: 0.8"/>
      </g>
     </g>
     <g id="text_15">
      <text style="font: 12px 'Arial', sans-serif; text-anchor: end" x="33.5" y="78.487664" transform="rotate(-0 33.5 78.487664)">0.0025</text>
     </g>
    </g>
    <g id="ytick_7">
     <g id="line2d_16">
      <g>
       <use xlink:href="#mda7b6971b9" x="40.5" y="45.939572" style="stroke: #000000; stroke-width: 0.8"/>
      </g>
     </g>
     <g id="text_16">
      <text style="font: 12px 'Arial', sans-serif; text-anchor: end" x="33.5" y="50.23426" transform="rotate(-0 33.5 50.23426)">0.0030</text>
     </g>
    </g>
    <g id="text_17">
     <text style="font: 12px 'Arial', sans-serif; text-anchor: middle" x="-9.584375" y="127.26" transform="rotate(-90 -9.584375 127.26)">Exudation rate [mol C m-3 h-1]</text>
    </g>
   </g>
   <g id="line2d_17">
    <path d="M 40.457033 215.46 
L 42.30462 215.353819 
L 43.378799 215.087545 
L 53.476078 214.949187 
L 60.651591 215.228438 
L 64.561602 214.903421 
L 65.463912 214.676662 
L 68.127875 213.846361 
L 69.073152 213.366362 
L 70.147331 213.326237 
L 71.178542 213.438076 
L 72.123819 213.195468 
L 73.799538 212.023176 
L 74.229209 211.552012 
L 75.13152 210.509182 
L 77.022074 209.998968 
L 77.23691 210.043333 
L 78.311088 210.306616 
L 79.3423 210.071156 
L 80.201643 209.490904 
L 81.662526 206.614695 
L 82.35 205.658482 
L 83.467146 205.128405 
L 84.369456 204.21432 
L 85.486602 201.914745 
L 86.345945 201.239593 
L 87.591992 193.672432 
L 88.881006 189.640508 
L 89.56848 188.107955 
L 90.513758 187.596067 
L 91.544969 184.602582 
L 92.533214 176.1425 
L 92.619148 176.215473 
L 93.564425 177.018175 
L 93.607392 176.964143 
L 94.681571 175.756343 
L 95.712782 176.058668 
L 96.65806 175.159635 
L 99.751694 200.333842 
L 100.997741 205.260818 
L 102.114887 207.598492 
L 103.146099 208.909069 
L 104.392146 209.800822 
L 105.036653 210.261907 
L 106.110832 211.559208 
L 107.313912 212.096958 
L 108.602926 213.095999 
L 109.462269 213.713495 
L 111.052053 214.458232 
L 111.696561 214.617199 
L 114.790195 215.229164 
L 116.809651 215.284517 
L 119.344713 215.027734 
L 123.59846 213.615742 
L 124.672639 212.788924 
L 126.649127 210.375289 
L 127.594405 209.87777 
L 128.883419 205.478199 
L 130.688039 201.466065 
L 132.535626 173.436891 
L 133.223101 162.306463 
L 133.910575 148.714358 
L 134.941786 114.24018 
L 136.015965 64.725726 
L 136.875308 47.055365 
L 136.918275 47.713621 
L 137.992454 62.953284 
L 138.937731 64.050851 
L 139.968943 39.06 
L 140.054877 39.077834 
L 141.000154 39.274008 
L 142.160267 57.15553 
L 143.277413 81.755223 
L 144.394559 97.859893 
L 145.125 110.800102 
L 145.210934 110.70068 
L 146.371047 109.519169 
L 147.187423 109.185291 
L 148.347536 100.149344 
L 149.249846 97.50606 
L 151.054466 124.544512 
L 153.288758 158.892325 
L 154.062166 169.974655 
L 154.749641 178.521574 
L 155.952721 189.84203 
L 157.972177 205.545641 
L 158.788552 209.875332 
L 159.73383 212.95904 
L 160.765041 214.227198 
L 161.925154 214.689851 
L 166.05 215.074806 
L 169.96001 215.070727 
L 172.022433 214.889542 
L 175.631674 215.18652 
L 183.193891 215.435982 
L 274.971715 215.46 
L 291.642967 215.46 
L 291.642967 215.46 
" clip-path="url(#pbc9a068ef3)" style="fill: none; stroke: #ffa500; stroke-width: 1.5; stroke-linecap: square"/>
   </g>
   <g id="line2d_18">
    <path d="M 40.457033 215.46 
L 41.831982 215.359355 
L 42.90616 215.149976 
L 53.604979 215.036865 
L 60.909394 215.254554 
L 64.003029 215.075497 
L 65.420945 214.86084 
L 68.428645 214.01231 
L 69.803593 213.529553 
L 70.662936 213.46999 
L 71.780082 213.546344 
L 72.682392 213.34492 
L 73.670637 212.749896 
L 75.260421 211.0366 
L 75.776027 210.600974 
L 76.63537 210.265123 
L 77.709548 210.900463 
L 78.74076 210.576603 
L 79.729004 209.701812 
L 80.674281 210.278586 
L 80.717248 210.183634 
L 82.092197 207.403622 
L 82.822639 206.428261 
L 83.85385 206.549038 
L 85.443634 204.936357 
L 86.775616 203.232531 
L 86.86155 203.118176 
L 88.021663 196.576337 
L 88.96694 194.85406 
L 89.955185 188.881828 
L 90.041119 188.904569 
L 91.029363 189.093429 
L 92.017608 187.683712 
L 93.048819 181.201115 
L 93.134754 181.229119 
L 94.122998 181.452033 
L 95.154209 179.182202 
L 96.142454 172.010765 
L 96.185421 172.379847 
L 97.732238 184.73884 
L 98.376745 189.926901 
L 99.407957 200.285956 
L 100.611037 205.36283 
L 101.513347 207.945652 
L 102.630493 209.563373 
L 103.919507 210.61774 
L 104.907752 211.150632 
L 105.767094 211.403473 
L 106.626437 211.587514 
L 107.915452 212.578833 
L 109.634138 214.115698 
L 114.618326 215.261811 
L 116.165144 215.338167 
L 117.926797 215.269011 
L 120.28999 214.9724 
L 122.309446 214.506639 
L 124.114066 213.682023 
L 125.574949 212.53037 
L 127.078799 211.459892 
L 128.152977 209.890086 
L 129.270123 206.307432 
L 130.172433 205.937705 
L 131.203645 201.490495 
L 132.664528 179.017424 
L 133.394969 168.569251 
L 135.457392 120.684395 
L 136.531571 77.164353 
L 137.390914 62.949796 
L 137.476848 63.214438 
L 138.422125 66.1255 
L 139.453337 88.431784 
L 139.496304 87.451019 
L 140.484548 64.89343 
L 140.570483 64.926297 
L 141.51576 65.287831 
L 142.546971 56.466844 
L 142.589938 56.895803 
L 143.62115 67.751301 
L 144.953131 100.810562 
L 145.72654 121.660391 
L 146.671817 124.364111 
L 147.788963 117.641827 
L 148.73424 117.354745 
L 149.93732 108.607442 
L 150.796663 106.083914 
L 152.214579 135.870742 
L 154.019199 164.123294 
L 156.081622 182.405236 
L 158.015144 203.244229 
L 159.218224 210.691915 
L 160.249435 213.30999 
L 161.323614 214.321814 
L 162.44076 214.65285 
L 164.889887 214.773432 
L 166.178901 214.827603 
L 167.167146 214.948806 
L 168.241324 214.979961 
L 170.088912 214.897987 
L 170.733419 214.762966 
L 171.678696 214.550365 
L 176.491016 215.103032 
L 177.865965 215.243808 
L 184.096201 215.399104 
L 210.263193 215.438293 
L 221.262782 215.451286 
L 291.642967 215.46 
L 291.642967 215.46 
" clip-path="url(#pbc9a068ef3)" style="fill: none; stroke: #ffa500; stroke-width: 1.5; stroke-linecap: square"/>
   </g>
   <g id="line2d_19">
    <path d="M 40.457033 215.46 
L 42.218686 215.46 
L 42.390554 215.1427 
L 43.679569 215.125354 
L 44.195175 215.081689 
L 44.796715 215.070532 
L 45.097485 215.025401 
L 45.784959 215.060355 
L 46.171663 215.00451 
L 46.81617 215.029995 
L 47.245842 214.993375 
L 48.062218 214.982273 
L 50.038706 214.94049 
L 50.339476 214.916591 
L 51.026951 214.939715 
L 51.327721 214.892733 
L 52.015195 214.972035 
L 52.401899 214.933096 
L 53.089374 214.967838 
L 53.433111 214.952898 
L 54.120585 215.022976 
L 54.464322 215.007241 
L 55.151797 215.072066 
L 55.581468 215.068967 
L 56.268943 215.090661 
L 56.61268 215.115653 
L 57.343121 215.1473 
L 57.987628 215.212758 
L 58.331366 215.225083 
L 58.889938 215.274339 
L 59.835216 215.263535 
L 61.339066 215.223947 
L 61.897639 215.183717 
L 63.401489 215.101628 
L 64.045996 215.054548 
L 64.475667 214.995039 
L 64.991273 214.9109 
L 65.420945 214.828215 
L 66.108419 214.648387 
L 66.409189 214.577391 
L 67.13963 214.443563 
L 67.397433 214.372005 
L 67.870072 214.074178 
L 68.385678 214.060628 
L 68.64348 213.731829 
L 68.772382 213.513577 
L 68.858316 213.401225 
L 68.901283 213.450146 
L 69.159086 213.55419 
L 69.416889 213.616654 
L 69.588758 213.393667 
L 69.932495 213.281965 
L 70.362166 213.456809 
L 70.534035 213.451344 
L 70.791838 213.373021 
L 71.393378 213.706602 
L 71.608214 213.423512 
L 71.866016 213.27092 
L 72.338655 213.580918 
L 72.381622 213.597897 
L 72.639425 213.138773 
L 72.854261 212.986422 
L 73.026129 212.699662 
L 73.541735 212.940267 
L 73.713604 212.541439 
L 73.885472 212.364317 
L 73.971407 211.878622 
L 74.057341 211.901734 
L 74.487012 211.960049 
L 74.572947 211.893709 
L 74.744815 211.279697 
L 74.787782 211.289165 
L 75.045585 210.536341 
L 75.13152 210.615353 
L 75.475257 210.978767 
L 75.818994 210.203118 
L 75.947895 210.188334 
L 76.506468 210.853192 
L 76.63537 209.983661 
L 76.721304 210.011215 
L 76.850205 209.823631 
L 76.979107 209.736229 
L 77.580647 210.954074 
L 77.623614 210.927806 
L 77.83845 210.426029 
L 78.010318 210.348675 
L 78.354055 210.605576 
L 78.568891 210.861961 
L 78.611858 210.806553 
L 78.998563 210.146233 
L 79.213398 210.210466 
L 79.600103 210.408307 
L 79.729004 209.410299 
L 79.814938 209.504746 
L 79.94384 209.479258 
L 80.072741 209.432888 
L 80.717248 210.278586 
L 80.803183 209.788261 
L 80.932084 209.259324 
L 81.060986 208.939271 
L 81.189887 207.356473 
L 81.318789 207.483615 
L 81.74846 207.999738 
L 81.791427 207.949377 
L 81.920329 207.02717 
L 82.135164 206.739374 
L 82.221099 205.655862 
L 82.35 205.895251 
L 82.521869 206.23691 
L 82.693737 206.55568 
L 82.736704 206.396075 
L 82.779671 206.410095 
L 82.95154 205.585626 
L 83.123409 205.243035 
L 83.467146 205.834136 
L 83.810883 206.628083 
L 83.85385 206.400753 
L 83.982752 205.436769 
L 84.197587 205.370379 
L 84.283522 204.362651 
L 84.412423 204.624587 
L 84.799127 205.789227 
L 84.842094 205.679546 
L 84.885062 205.585765 
L 85.05693 204.261172 
L 85.185832 204.146433 
L 85.271766 202.96905 
L 85.314733 201.942424 
L 85.400667 202.236261 
L 85.873306 204.490443 
L 85.916273 204.363594 
L 86.002207 202.940779 
L 86.088142 203.037303 
L 86.217043 203.06434 
L 86.26001 202.928363 
L 86.345945 201.094377 
L 86.431879 201.416689 
L 86.904517 203.118176 
L 86.947485 202.953258 
L 87.377156 194.273063 
L 87.46309 194.571016 
L 87.892762 196.722147 
L 87.935729 196.785282 
L 87.978696 196.517796 
L 88.06463 193.854599 
L 88.107598 193.921985 
L 88.236499 193.915012 
L 88.279466 193.868301 
L 88.322433 193.609555 
L 88.408368 190.664285 
L 88.494302 191.205288 
L 88.96694 195.113722 
L 89.009908 194.920042 
L 89.095842 192.147409 
L 89.181776 192.226052 
L 89.310678 192.022502 
L 89.353645 191.628784 
L 89.439579 187.904858 
L 89.525513 188.490136 
L 89.912218 191.308389 
L 90.041119 186.885763 
L 90.170021 187.127183 
L 90.341889 186.763304 
L 90.384856 186.907053 
L 90.943429 190.030561 
L 91.029363 189.154721 
L 91.201232 186.262498 
L 91.459035 185.784266 
L 91.544969 184.970412 
L 91.587936 185.084464 
L 91.845739 186.652297 
L 92.060575 187.683712 
L 92.103542 187.102599 
L 92.275411 183.113102 
L 92.361345 182.904734 
L 92.447279 181.425601 
L 92.533214 176.028917 
L 92.619148 176.413521 
L 92.919918 179.855241 
L 93.091786 181.201115 
L 93.220688 177.350021 
L 93.306622 178.060871 
L 93.478491 178.773174 
L 93.521458 178.404521 
L 93.564425 176.8309 
L 93.650359 177.316741 
L 94.122998 181.537165 
L 94.208932 178.459853 
L 94.337834 178.717912 
L 94.509702 178.467606 
L 94.552669 178.217214 
L 94.595637 175.719852 
L 94.681571 175.899152 
L 95.154209 179.494004 
L 95.240144 176.049083 
L 95.326078 176.56385 
L 95.412012 176.915411 
L 95.454979 176.907373 
L 95.497947 176.881161 
L 95.540914 176.972682 
L 95.583881 177.106243 
L 95.755749 175.92833 
L 95.884651 176.108815 
L 96.099487 176.524383 
L 96.228388 170.898534 
L 96.271355 171.529791 
L 96.486191 173.601896 
L 96.572125 174.039587 
L 97.130698 181.234277 
L 97.216632 180.868734 
L 97.2596 179.084153 
L 97.345534 180.12197 
L 97.603337 182.498085 
L 98.16191 188.734618 
L 98.247844 188.013544 
L 98.548614 191.253517 
L 98.677515 192.119645 
L 99.279055 199.493685 
L 99.36499 198.551926 
L 99.407957 198.820279 
L 99.66576 200.481803 
L 99.708727 200.53426 
L 99.751694 200.075924 
L 99.794661 200.333842 
L 100.310267 204.24731 
L 100.353234 203.809305 
L 100.396201 203.445342 
L 100.439168 203.639067 
L 100.696971 204.825112 
L 100.739938 204.866178 
L 100.782906 204.580027 
L 100.825873 204.76056 
L 101.341478 207.59387 
L 101.384446 207.407818 
L 101.427413 206.836712 
L 101.513347 207.036697 
L 101.728183 207.574179 
L 101.77115 207.496275 
L 101.814117 207.04822 
L 101.900051 207.312065 
L 102.37269 209.282424 
L 102.415657 209.150606 
L 102.501591 208.649961 
L 102.544559 208.794935 
L 102.759394 209.176401 
L 102.802361 209.07092 
L 102.845329 208.579284 
L 102.931263 208.76912 
L 103.403901 210.245678 
L 103.446869 210.118348 
L 103.532803 209.684243 
L 103.57577 209.797608 
L 103.790606 210.06518 
L 103.833573 209.969741 
L 103.87654 209.473954 
L 103.962474 209.591712 
L 104.435113 210.932562 
L 104.47808 210.802359 
L 104.564014 210.41744 
L 104.606982 210.506187 
L 104.821817 210.72381 
L 104.907752 210.010184 
L 104.993686 210.187732 
L 105.466324 211.368702 
L 105.552259 211.012761 
L 105.595226 211.096626 
L 105.895996 211.494308 
L 106.024897 211.535948 
L 106.368634 211.959932 
L 106.411602 211.895848 
L 106.540503 211.414363 
L 106.58347 211.511733 
L 106.798306 211.72926 
L 106.970175 211.804821 
L 107.399846 212.390489 
L 107.571715 212.072484 
L 107.829517 212.406698 
L 108.001386 212.507 
L 108.559959 213.165202 
L 108.602926 213.0321 
L 108.645893 213.085587 
L 108.946663 213.416407 
L 109.934908 214.177164 
L 110.063809 214.138047 
L 110.106776 214.041759 
L 110.19271 214.103502 
L 110.622382 214.354241 
L 110.708316 214.289555 
L 110.751283 214.324055 
L 111.137988 214.476339 
L 113.114476 214.968647 
L 114.919097 215.269452 
L 116.251078 215.332665 
L 116.551848 215.336615 
L 117.239322 215.298017 
L 117.540092 215.26602 
L 118.356468 215.202796 
L 119.301745 215.126907 
L 119.516581 215.027495 
L 119.98922 214.957348 
L 120.204055 214.954002 
L 120.332957 214.846157 
L 120.504825 214.724764 
L 120.977464 214.828855 
L 121.106366 214.749131 
L 121.364168 214.727412 
L 121.536037 214.530901 
L 122.008676 214.59794 
L 122.09461 214.419347 
L 122.137577 214.437147 
L 122.352413 214.43763 
L 122.481314 213.969017 
L 122.610216 214.034097 
L 122.99692 214.248983 
L 123.082854 214.041455 
L 123.125821 214.064292 
L 123.426591 214.114322 
L 123.512526 213.701806 
L 123.59846 213.73339 
L 123.985164 213.870161 
L 124.157033 213.497575 
L 124.242967 213.553923 
L 124.457803 213.56667 
L 124.672639 212.985035 
L 125.059343 212.884719 
L 125.145277 212.428815 
L 125.188244 212.460656 
L 125.446047 212.593062 
L 125.489014 212.525124 
L 125.617916 211.651949 
L 125.660883 211.667556 
L 125.875719 211.957781 
L 126.090554 212.230535 
L 126.219456 211.610098 
L 126.262423 211.679548 
L 126.434292 211.809372 
L 126.477259 211.768901 
L 126.60616 210.420519 
L 126.735062 210.63298 
L 127.121766 211.459892 
L 127.2077 210.713849 
L 127.250667 210.788421 
L 127.50847 211.203635 
L 127.551437 211.131146 
L 127.637372 209.87777 
L 127.723306 209.958254 
L 128.067043 210.31902 
L 128.11001 210.254805 
L 128.195945 209.295658 
L 128.281879 208.5183 
L 128.324846 208.614495 
L 128.496715 208.817356 
L 128.539682 208.714084 
L 128.625616 207.254372 
L 128.71155 206.021575 
L 128.754517 206.041189 
L 129.01232 206.465755 
L 129.141222 206.641908 
L 129.184189 206.360251 
L 129.227156 205.161838 
L 129.31309 205.401092 
L 129.484959 205.656692 
L 129.61386 205.699322 
L 129.699795 203.794777 
L 129.828696 204.131836 
L 130.172433 205.946731 
L 130.2154 205.937705 
L 130.301335 204.060219 
L 130.387269 204.377578 
L 130.602105 204.938984 
L 130.645072 204.600515 
L 130.731006 201.466065 
L 130.81694 201.599253 
L 131.11771 202.267535 
L 131.160678 202.158894 
L 131.246612 201.490495 
L 131.375513 196.668136 
L 131.461448 196.802357 
L 131.504415 196.8156 
L 131.547382 196.709625 
L 131.633316 194.999672 
L 131.891119 184.4547 
L 132.020021 184.686535 
L 132.234856 185.199557 
L 132.277823 184.425775 
L 132.363758 178.47125 
L 132.406725 178.761856 
L 132.621561 180.610571 
L 132.664528 180.681942 
L 132.707495 179.967483 
L 132.836396 170.244532 
L 132.922331 170.416904 
L 133.266068 172.485385 
L 133.309035 171.445732 
L 133.394969 163.578654 
L 133.437936 164.030179 
L 133.695739 166.891755 
L 133.738706 165.722607 
L 133.953542 151.903176 
L 134.082444 151.877763 
L 134.211345 151.571197 
L 134.297279 150.872801 
L 134.383214 140.700924 
L 134.426181 136.954561 
L 134.512115 138.461406 
L 134.683984 141.511136 
L 134.726951 141.393657 
L 134.812885 130.663534 
L 134.941786 120.133376 
L 135.070688 122.005273 
L 135.328491 127.511563 
L 135.371458 126.495414 
L 135.500359 105.214551 
L 135.586294 107.78042 
L 135.672228 109.105582 
L 135.715195 108.202279 
L 135.801129 93.696219 
L 135.887064 68.259798 
L 135.972998 69.692862 
L 136.359702 83.496467 
L 136.402669 80.007264 
L 136.488604 60.269014 
L 136.531571 61.905575 
L 136.789374 74.719004 
L 136.832341 72.782966 
L 136.918275 47.055365 
L 137.004209 49.712525 
L 137.390914 68.154781 
L 137.476848 51.445018 
L 137.562782 57.148578 
L 137.863552 69.671801 
L 137.90652 69.219786 
L 137.949487 62.853505 
L 138.035421 64.030143 
L 138.336191 76.027078 
L 138.422125 74.682525 
L 138.50806 57.968701 
L 138.551027 60.430292 
L 138.851797 75.052586 
L 138.894764 76.36143 
L 138.937731 74.35659 
L 138.980698 64.050851 
L 139.066632 65.777892 
L 139.367402 84.584296 
L 139.453337 89.449411 
L 139.496304 88.431784 
L 139.582238 67.899335 
L 139.668172 71.251879 
L 139.840041 79.383075 
L 139.883008 78.860331 
L 139.968943 54.692917 
L 140.01191 39.06 
L 140.097844 42.677356 
L 140.484548 67.670575 
L 140.527515 64.89343 
L 140.61345 42.754193 
L 140.656417 45.437697 
L 140.957187 63.590012 
L 141.043121 39.274008 
L 141.172023 45.114627 
L 141.51576 68.72058 
L 141.558727 65.287831 
L 141.644661 48.62669 
L 141.687628 52.270438 
L 141.988398 69.413108 
L 142.031366 67.659591 
L 142.074333 54.046414 
L 142.160267 56.231155 
L 142.461037 73.496737 
L 142.546971 70.709513 
L 142.632906 56.144945 
L 142.675873 60.472627 
L 142.933676 75.89314 
L 143.062577 79.95556 
L 143.105544 78.919341 
L 143.148511 78.606571 
L 143.191478 79.06442 
L 143.406314 86.174641 
L 143.492248 89.379125 
L 143.578183 81.038821 
L 143.62115 66.761856 
L 143.707084 71.774923 
L 144.007854 89.974589 
L 144.093789 93.430101 
L 144.136756 92.531571 
L 144.22269 91.496201 
L 144.265657 92.033564 
L 144.566427 101.110982 
L 144.609394 100.493448 
L 144.695329 87.007044 
L 144.738296 90.547062 
L 145.039066 109.983729 
L 145.125 113.517912 
L 145.210934 110.259642 
L 145.253901 110.467121 
L 145.382803 113.740508 
L 145.640606 123.983726 
L 145.683573 121.414599 
L 145.769507 111.175202 
L 145.812474 114.030209 
L 146.070277 129.092623 
L 146.113244 128.22566 
L 146.199179 109.607031 
L 146.285113 111.351805 
L 146.671817 126.675098 
L 146.714784 124.364111 
L 146.800719 113.611882 
L 146.843686 116.004958 
L 147.101489 129.728785 
L 147.144456 127.892223 
L 147.23039 109.185291 
L 147.316324 111.003732 
L 147.660062 122.669979 
L 147.703029 122.324522 
L 147.83193 106.131491 
L 147.874897 108.146434 
L 148.1327 121.753057 
L 148.175667 119.898334 
L 148.261602 100.526956 
L 148.347536 102.917873 
L 148.73424 119.850632 
L 148.777207 117.354745 
L 148.863142 104.591765 
L 148.906109 106.512475 
L 149.163912 119.627833 
L 149.206879 117.612712 
L 149.292813 97.50606 
L 149.378747 99.83308 
L 149.765452 113.541362 
L 149.894353 98.580474 
L 149.93732 101.55066 
L 150.23809 119.568563 
L 150.281057 118.00113 
L 150.324025 112.079894 
L 150.409959 112.817541 
L 150.667762 118.561496 
L 150.710729 117.540096 
L 150.796663 114.924623 
L 150.882598 104.032697 
L 150.925565 106.904984 
L 151.312269 128.952146 
L 151.355236 128.699384 
L 151.398203 125.372342 
L 151.484138 126.479144 
L 151.827875 135.025537 
L 151.913809 127.149482 
L 151.956776 129.817822 
L 152.300513 146.452845 
L 152.34348 147.85532 
L 152.386448 146.973051 
L 152.429415 141.852677 
L 152.515349 142.934913 
L 152.859086 150.859322 
L 152.945021 143.731316 
L 152.987988 145.885154 
L 153.331725 161.104636 
L 153.374692 162.193986 
L 153.460626 154.074941 
L 153.589528 156.639445 
L 153.890298 165.838928 
L 153.976232 160.320538 
L 154.019199 162.117077 
L 154.362936 175.245158 
L 154.405903 176.199527 
L 154.448871 174.974034 
L 154.491838 171.329765 
L 154.577772 171.939023 
L 154.921509 175.429793 
L 154.964476 171.731687 
L 155.007444 172.456542 
L 155.394148 184.519603 
L 155.480082 185.616653 
L 155.608984 183.349976 
L 155.694918 183.469201 
L 155.909754 184.152399 
L 155.952721 183.545729 
L 155.995688 180.944678 
L 156.038655 181.311353 
L 156.468326 193.410712 
L 156.554261 194.401292 
L 156.597228 194.160925 
L 156.683162 194.079732 
L 156.855031 194.72391 
L 156.897998 194.45505 
L 156.983932 193.389017 
L 157.026899 192.629142 
L 157.069867 193.660757 
L 157.456571 201.420874 
L 157.585472 203.208782 
L 157.671407 203.193947 
L 157.843275 203.788221 
L 157.886242 203.992449 
L 158.015144 203.071058 
L 158.058111 203.244229 
L 158.444815 207.834893 
L 158.745585 209.549551 
L 159.046355 210.526679 
L 159.089322 210.205306 
L 159.13229 210.389069 
L 159.518994 212.527146 
L 159.604928 212.722468 
L 159.647895 212.598385 
L 159.905698 212.999049 
L 160.077567 213.261668 
L 160.163501 213.068821 
L 160.206468 213.190099 
L 160.593172 214.150666 
L 160.893943 214.171388 
L 161.108778 214.317978 
L 161.194713 214.170403 
L 161.23768 214.22187 
L 161.624384 214.704579 
L 161.83922 214.582662 
L 162.182957 214.651176 
L 162.268891 214.576701 
L 162.311858 214.619923 
L 162.655595 214.86854 
L 162.827464 214.691877 
L 163.171201 214.763186 
L 163.257136 214.626969 
L 163.300103 214.661345 
L 163.729774 214.947159 
L 164.030544 214.933577 
L 164.159446 214.851788 
L 164.288347 214.689842 
L 164.331314 214.727805 
L 164.760986 214.994103 
L 165.233624 214.914674 
L 165.319559 214.807196 
L 165.362526 214.839732 
L 165.792197 215.067093 
L 166.264836 214.905823 
L 166.35077 214.838461 
L 166.393737 214.871996 
L 166.823409 215.093537 
L 167.510883 215.00138 
L 167.85462 215.106238 
L 168.026489 215.04704 
L 168.370226 214.981232 
L 168.499127 215.009767 
L 168.885832 215.15625 
L 169.186602 215.104454 
L 169.35847 215.033023 
L 169.487372 214.926138 
L 169.917043 215.082936 
L 170.088912 214.975476 
L 170.432649 214.881159 
L 170.518583 214.767066 
L 170.56155 214.79636 
L 170.905287 214.996869 
L 171.16309 214.797778 
L 171.377926 214.766486 
L 171.506828 214.51402 
L 171.592762 214.606001 
L 172.022433 214.883827 
L 172.581006 214.710479 
L 173.053645 215.018236 
L 173.569251 214.800865 
L 174.041889 215.086167 
L 174.213758 215.046075 
L 174.471561 214.877581 
L 174.557495 214.849348 
L 174.600462 214.887562 
L 175.073101 215.157852 
L 175.287936 215.131089 
L 175.502772 215.002066 
L 175.588706 214.931169 
L 175.631674 214.962771 
L 176.147279 215.216718 
L 176.920688 215.238657 
L 177.436294 215.281227 
L 179.112012 215.350689 
L 179.627618 215.321963 
L 179.842454 215.345471 
L 180.701797 215.397943 
L 181.217402 215.427041 
L 183.752464 215.410819 
L 184.096201 215.41965 
L 185.814887 215.419072 
L 186.37346 215.437162 
L 190.88501 215.441931 
L 194.236448 215.445419 
L 200.208881 215.446767 
L 213.872433 215.447048 
L 220.231571 215.452797 
L 233.078747 215.455135 
L 267.6673 215.46 
L 291.642967 215.46 
L 291.642967 215.46 
" clip-path="url(#pbc9a068ef3)" style="fill: none; stroke: #000000; stroke-linecap: square"/>
   </g>
   <g id="line2d_20">
    <path d="M 237.160626 224.28 
L 237.160626 30.24 
" clip-path="url(#pbc9a068ef3)" style="fill: none; stroke-dasharray: 3.7,1.6; stroke-dashoffset: 0; stroke: #000000"/>
   </g>
   <g id="patch_3">
    <path d="M 40.5 224.28 
L 40.5 30.24 
" style="fill: none; stroke: #000000; stroke-width: 0.8; stroke-linejoin: miter; stroke-linecap: square"/>
   </g>
   <g id="patch_4">
    <path d="M 291.6 224.28 
L 291.6 30.24 
" style="fill: none; stroke: #000000; stroke-width: 0.8; stroke-linejoin: miter; stroke-linecap: square"/>
   </g>
   <g id="patch_5">
    <path d="M 40.5 224.28 
L 291.6 224.28 
" style="fill: none; stroke: #000000; stroke-width: 0.8; stroke-linejoin: miter; stroke-linecap: square"/>
   </g>
   <g id="patch_6">
    <path d="M 40.5 30.24 
L 291.6 30.24 
" style="fill: none; stroke: #000000; stroke-width: 0.8; stroke-linejoin: miter; stroke-linecap: square"/>
   </g>
   <g id="legend_1">
    <g id="patch_7">
     <path d="M 47.5 52.385313 
L 101.74375 52.385313 
Q 103.74375 52.385313 103.74375 50.385313 
L 103.74375 37.24 
Q 103.74375 35.24 101.74375 35.24 
L 47.5 35.24 
Q 45.5 35.24 45.5 37.24 
L 45.5 50.385313 
Q 45.5 52.385313 47.5 52.385313 
z
" style="fill: #ffffff; opacity: 0.8; stroke: #cccccc; stroke-linejoin: miter"/>
    </g>
    <g id="line2d_21">
     <path d="M 49.5 42.897813 
L 59.5 42.897813 
L 69.5 42.897813 
" style="fill: none; stroke: #000000; stroke-linecap: square"/>
    </g>
    <g id="text_18">
     <text style="font: 10px 'Arial', sans-serif; text-anchor: start" x="77.5" y="46.397813" transform="rotate(-0 77.5 46.397813)">2012</text>
    </g>
   </g>
  </g>
 </g>
 <defs>
  <clipPath id="pbc9a068ef3">
   <rect x="40.5" y="30.24" width="251.1" height="194.04"/>
  </clipPath>
 </defs>
</svg>
