<?xml version="1.0" encoding="UTF-8" standalone="no"?>
<svg
   xmlns:dc="http://purl.org/dc/elements/1.1/"
   xmlns:cc="http://creativecommons.org/ns#"
   xmlns:rdf="http://www.w3.org/1999/02/22-rdf-syntax-ns#"
   xmlns:svg="http://www.w3.org/2000/svg"
   xmlns="http://www.w3.org/2000/svg"
   xmlns:xlink="http://www.w3.org/1999/xlink"
   xmlns:sodipodi="http://sodipodi.sourceforge.net/DTD/sodipodi-0.dtd"
   xmlns:inkscape="http://www.inkscape.org/namespaces/inkscape"
   width="324pt"
   height="252pt"
   viewBox="0 0 324 252"
   version="1.1"
   id="svg200"
   sodipodi:docname="rateC_avena2018.svg"
   inkscape:version="1.0.1 (c497b03c, 2020-09-10)">
  <sodipodi:namedview
     pagecolor="#ffffff"
     bordercolor="#666666"
     borderopacity="1"
     objecttolerance="10"
     gridtolerance="10"
     guidetolerance="10"
     inkscape:pageopacity="0"
     inkscape:pageshadow="2"
     inkscape:window-width="1745"
     inkscape:window-height="720"
     id="namedview202"
     showgrid="false"
     inkscape:zoom="0.79727638"
     inkscape:cx="216"
     inkscape:cy="218.17081"
     inkscape:window-x="1925"
     inkscape:window-y="136"
     inkscape:window-maximized="0"
     inkscape:current-layer="svg200" />
  <metadata
     id="metadata10">
    <rdf:RDF>
      <cc:Work>
        <dc:type
           rdf:resource="http://purl.org/dc/dcmitype/StillImage" />
        <dc:date>2023-12-01T17:10:40.984851</dc:date>
        <dc:format>image/svg+xml</dc:format>
        <dc:creator>
          <cc:Agent>
            <dc:title>Matplotlib v3.8.0, https://matplotlib.org/</dc:title>
          </cc:Agent>
        </dc:creator>
      </cc:Work>
    </rdf:RDF>
  </metadata>
  <defs
     id="defs14">
    <style
       type="text/css"
       id="style12">*{stroke-linejoin: round; stroke-linecap: butt}</style>
  </defs>
  <g
     id="axes_1"
     transform="translate(48.916538,-10.347729)"
     inkscape:export-xdpi="300"
     inkscape:export-ydpi="300">
    <g
       id="patch_2">
      <path
         d="M 40.5,224.28 H 291.6 V 30.24 H 40.5 Z"
         style="fill:#ffffff"
         id="path19" />
    </g>
    <g
       id="matplotlib.axis_1">
      <g
         id="xtick_1">
        <g
           id="line2d_1">
          <defs
             id="defs23">
            <path
               id="mf5d63a5542"
               d="M 0,0 V 3.5"
               style="stroke:#000000;stroke-width:0.8" />
          </defs>
          <g
             id="g27">
            <use
               xlink:href="#mf5d63a5542"
               x="40.5"
               y="224.28"
               style="stroke:#000000;stroke-width:0.8"
               id="use25"
               width="100%"
               height="100%" />
          </g>
        </g>
        <g
           id="text_1">
          <text
             style="font-style:normal;font-variant:normal;font-weight:normal;font-stretch:normal;font-size:12px;line-height:normal;font-family:Arial, sans-serif"
             transform="rotate(-90,158.75,115.21812)"
             id="text30">January</text>
        </g>
      </g>
      <g
         id="xtick_2">
        <g
           id="line2d_2">
          <g
             id="g36">
            <use
               xlink:href="#mf5d63a5542"
               x="71.887497"
               y="224.28"
               style="stroke:#000000;stroke-width:0.8"
               id="use34"
               width="100%"
               height="100%" />
          </g>
        </g>
        <g
           id="text_2">
          <text
             style="font-style:normal;font-variant:normal;font-weight:normal;font-stretch:normal;font-size:12px;line-height:normal;font-family:Arial, sans-serif"
             transform="rotate(-90,177.10625,102.18687)"
             id="text39">February</text>
        </g>
      </g>
      <g
         id="xtick_3">
        <g
           id="line2d_3">
          <g
             id="g45">
            <use
               xlink:href="#mf5d63a5542"
               x="103.275"
               y="224.28"
               style="stroke:#000000;stroke-width:0.8"
               id="use43"
               width="100%"
               height="100%" />
          </g>
        </g>
        <g
           id="text_3">
          <text
             style="font-style:normal;font-variant:normal;font-weight:normal;font-stretch:normal;font-size:12px;line-height:normal;font-family:Arial, sans-serif"
             transform="rotate(-90,185.49734,79.120156)"
             id="text48">March</text>
        </g>
      </g>
      <g
         id="xtick_4">
        <g
           id="line2d_4">
          <g
             id="g54">
            <use
               xlink:href="#mf5d63a5542"
               x="134.66251"
               y="224.28"
               style="stroke:#000000;stroke-width:0.8"
               id="use52"
               width="100%"
               height="100%" />
          </g>
        </g>
        <g
           id="text_4">
          <text
             style="font-style:normal;font-variant:normal;font-weight:normal;font-stretch:normal;font-size:12px;line-height:normal;font-family:Arial, sans-serif"
             transform="rotate(-90,196.52516,58.760469)"
             id="text57">April</text>
        </g>
      </g>
      <g
         id="xtick_5">
        <g
           id="line2d_5">
          <g
             id="g63">
            <use
               xlink:href="#mf5d63a5542"
               x="166.05"
               y="224.28"
               style="stroke:#000000;stroke-width:0.8"
               id="use61"
               width="100%"
               height="100%" />
          </g>
        </g>
        <g
           id="text_5">
          <text
             style="font-style:normal;font-variant:normal;font-weight:normal;font-stretch:normal;font-size:12px;line-height:normal;font-family:Arial, sans-serif"
             transform="rotate(-90,211.51531,42.433437)"
             id="text66">May</text>
        </g>
      </g>
      <g
         id="xtick_6">
        <g
           id="line2d_6">
          <g
             id="g72">
            <use
               xlink:href="#mf5d63a5542"
               x="197.4375"
               y="224.28"
               style="stroke:#000000;stroke-width:0.8"
               id="use70"
               width="100%"
               height="100%" />
          </g>
        </g>
        <g
           id="text_6">
          <text
             style="font-style:normal;font-variant:normal;font-weight:normal;font-stretch:normal;font-size:12px;line-height:normal;font-family:Arial, sans-serif"
             transform="rotate(-90,228.91953,28.379843)"
             id="text75">June</text>
        </g>
      </g>
      <g
         id="xtick_7">
        <g
           id="line2d_7">
          <g
             id="g81">
            <use
               xlink:href="#mf5d63a5542"
               x="228.825"
               y="224.28"
               style="stroke:#000000;stroke-width:0.8"
               id="use79"
               width="100%"
               height="100%" />
          </g>
        </g>
        <g
           id="text_7">
          <text
             style="font-style:normal;font-variant:normal;font-weight:normal;font-stretch:normal;font-size:12px;line-height:normal;font-family:Arial, sans-serif"
             transform="rotate(-90,242.23812,10.38125)"
             id="text84">July</text>
        </g>
      </g>
      <g
         id="xtick_8">
        <g
           id="line2d_8">
          <g
             id="g90">
            <use
               xlink:href="#mf5d63a5542"
               x="260.21249"
               y="224.28"
               style="stroke:#000000;stroke-width:0.8"
               id="use88"
               width="100%"
               height="100%" />
          </g>
        </g>
        <g
           id="text_8">
          <text
             style="font-style:normal;font-variant:normal;font-weight:normal;font-stretch:normal;font-size:12px;line-height:normal;font-family:Arial, sans-serif"
             transform="rotate(-90,265.94094,2.6965625)"
             id="text93">August</text>
        </g>
      </g>
      <g
         id="xtick_9">
        <g
           id="line2d_9">
          <g
             id="g99">
            <use
               xlink:href="#mf5d63a5542"
               x="291.60001"
               y="224.28"
               style="stroke:#000000;stroke-width:0.8"
               id="use97"
               width="100%"
               height="100%" />
          </g>
        </g>
        <g
           id="text_9">
          <text
             style="font-style:normal;font-variant:normal;font-weight:normal;font-stretch:normal;font-size:12px;line-height:normal;font-family:Arial, sans-serif"
             transform="rotate(-90,292.37516,-2.4001565)"
             id="text102">September</text>
        </g>
      </g>
    </g>
    <g
       id="matplotlib.axis_2">
      <g
         id="ytick_1">
        <g
           id="line2d_10">
          <defs
             id="defs108">
            <path
               id="m3431b01c4d"
               d="M 0,0 H -3.5"
               style="stroke:#000000;stroke-width:0.8" />
          </defs>
          <g
             id="g112">
            <use
               xlink:href="#m3431b01c4d"
               x="40.5"
               y="215.46001"
               style="stroke:#000000;stroke-width:0.8"
               id="use110"
               width="100%"
               height="100%" />
          </g>
        </g>
        <g
           id="text_10">
          <text
             style="font-style:normal;font-variant:normal;font-weight:normal;font-stretch:normal;font-size:12px;line-height:normal;font-family:Arial, sans-serif;text-anchor:end"
             x="33.5"
             y="219.75468"
             id="text115">0.000</text>
        </g>
      </g>
      <g
         id="ytick_2">
        <g
           id="line2d_11">
          <g
             id="g121">
            <use
               xlink:href="#m3431b01c4d"
               x="40.5"
               y="169.67877"
               style="stroke:#000000;stroke-width:0.8"
               id="use119"
               width="100%"
               height="100%" />
          </g>
        </g>
        <g
           id="text_11">
          <text
             style="font-style:normal;font-variant:normal;font-weight:normal;font-stretch:normal;font-size:12px;line-height:normal;font-family:Arial, sans-serif;text-anchor:end"
             x="33.5"
             y="173.97346"
             id="text124">0.001</text>
        </g>
      </g>
      <g
         id="ytick_3">
        <g
           id="line2d_12">
          <g
             id="g130">
            <use
               xlink:href="#m3431b01c4d"
               x="40.5"
               y="123.89754"
               style="stroke:#000000;stroke-width:0.8"
               id="use128"
               width="100%"
               height="100%" />
          </g>
        </g>
        <g
           id="text_12">
          <text
             style="font-style:normal;font-variant:normal;font-weight:normal;font-stretch:normal;font-size:12px;line-height:normal;font-family:Arial, sans-serif;text-anchor:end"
             x="33.5"
             y="128.19223"
             id="text133">0.002</text>
        </g>
      </g>
      <g
         id="ytick_4">
        <g
           id="line2d_13">
          <g
             id="g139">
            <use
               xlink:href="#m3431b01c4d"
               x="40.5"
               y="78.11631"
               style="stroke:#000000;stroke-width:0.8"
               id="use137"
               width="100%"
               height="100%" />
          </g>
        </g>
        <g
           id="text_13">
          <text
             style="font-style:normal;font-variant:normal;font-weight:normal;font-stretch:normal;font-size:12px;line-height:normal;font-family:Arial, sans-serif;text-anchor:end"
             x="33.5"
             y="82.410995"
             id="text142">0.003</text>
        </g>
      </g>
      <g
         id="ytick_5">
        <g
           id="line2d_14">
          <g
             id="g148">
            <use
               xlink:href="#m3431b01c4d"
               x="40.5"
               y="32.335079"
               style="stroke:#000000;stroke-width:0.8"
               id="use146"
               width="100%"
               height="100%" />
          </g>
        </g>
        <g
           id="text_14">
          <text
             style="font-style:normal;font-variant:normal;font-weight:normal;font-stretch:normal;font-size:12px;line-height:normal;font-family:Arial, sans-serif;text-anchor:end"
             x="33.5"
             y="36.629768"
             id="text151">0.004</text>
        </g>
      </g>
      <g
         id="text_15">
        <text
           style="font-style:normal;font-variant:normal;font-weight:normal;font-stretch:normal;font-size:12px;line-height:normal;font-family:Arial, sans-serif;text-anchor:middle"
           x="-2.9112501"
           y="127.26"
           transform="rotate(-90,-2.91125,127.26)"
           id="text155">Exudation rate [mol C m-3 h-1]</text>
      </g>
    </g>
    <g
       id="line2d_15">
      <path
         d="m 40.457033,215.46 3.0077,-0.10853 1.160113,-0.17888 5.456828,-0.15229 2.964733,-0.05 6.702874,-0.23491 3.652208,-0.36825 0.945277,-0.18934 0.558573,-0.2488 1.417916,-1.22743 1.50385,-1.57232 2.835831,-9.79417 0.343738,-1.56998 1.117145,-6.20098 1.20308,-3.54337 0.773409,-2.04245 1.074179,-4.09101 1.074178,-1.88555 2.062423,-4.81433 0.816376,-0.87251 0.04297,0.0879 1.031212,2.2836 1.589784,9.03817 2.019456,10.71214 1.117146,5.79234 0.816376,3.4008 0.773408,2.41777 1.246047,1.55829 2.191325,1.87882 1.546817,0.70104 1.718686,0.38076 0.687474,-0.0238 1.246047,-0.13489 1.331982,-0.11039 1.289014,-0.27155 1.160113,-0.90056 0.90231,-0.26715 1.804619,-1.81404 0.21483,-0.27545 1.20308,-3.04083 0.81638,-1.08567 1.07418,-8.35603 1.11714,-21.17178 1.46089,-40.79829 0.6445,-13.50129 0.85935,-9.93572 0.0859,0.0881 0.94528,0.96906 1.03121,-6.08106 2.19132,-55.186938 0.90231,-1.590264 1.11715,15.002228 1.20308,28.373317 0.77341,11.478347 0.0859,-0.19254 0.94528,-2.11797 1.20308,19.85622 2.06242,17.80523 2.10539,25.88129 0.81638,7.47187 0.043,-0.30245 1.11714,-7.25399 0.90231,-2.08511 0.043,0.10186 0.98824,2.34264 0.0859,-0.0384 0.94528,-0.42265 1.93352,6.21671 0.2578,1.27061 2.32023,14.2203 1.28901,7.2232 1.07418,7.15794 0.64451,3.81298 0.94527,3.96034 1.03121,2.37438 1.11715,1.14475 1.11715,0.56572 1.28901,0.2718 0.77341,-0.0162 1.67572,-0.16974 4.21078,0.20811 4.12484,-0.24428 1.54682,-0.47991 3.69518,-0.59193 2.92176,0.0794 2.621,0.9148 1.41791,0.151 0.55858,-0.0732 4.68342,-0.67478 2.36319,0.23345 1.20308,0.037 1.28901,-0.022 1.03121,-0.0573 0.94528,-0.20363 1.41792,-0.26911 3.09363,0.4876 2.06242,0.41315 1.63276,-0.032 2.62099,0.13216 1.58979,-0.009 2.44912,0.0955 1.46089,-0.16409 1.67572,-0.33984 1.54681,-0.0707 0.73044,-0.011 1.58979,0.18737 1.11714,-0.0413 0.64451,0.0723 1.54682,0.10126 6.96068,0.33447 1.07418,0.0617 2.53506,0.0998 9.36683,0.10206 69.82162,0.0229 v 0"
         clip-path="url(#pb99017ca4f)"
         style="fill:none;stroke:#ffa500;stroke-width:1.5;stroke-linecap:square"
         id="path159" />
    </g>
    <g
       id="line2d_16">
      <path
         d="m 40.457033,215.46 3.394404,-0.10111 1.117146,-0.26317 5.027156,-0.11879 3.050668,-0.0288 7.390349,-0.33267 3.222536,-0.28389 0.816375,-0.19258 0.945278,-0.54593 1.976488,-2.08146 1.933522,-5.18201 1.20308,-4.3726 2.148357,-11.0213 1.933522,-4.70256 1.160113,-5.1551 1.031211,-2.59569 0.988245,-1.75905 0.90231,-1.97484 0.945277,-0.006 6.101335,32.847 0.343737,1.09734 0.945277,2.26872 1.675719,1.51212 1.761653,1.29173 1.890554,0.64813 1.160113,0.14287 2.792864,-0.13439 1.331982,-0.42864 1.374949,-0.76717 0.945277,-0.45982 0.51561,-0.35239 1.03121,-1.18604 1.07418,-1.99828 1.84758,-4.70536 1.07418,-14.06808 1.16011,-29.1136 0.94528,-29.01193 1.11715,-10.19785 0.94527,-4.37226 0.90231,-0.74781 1.24605,-32.659289 1.20308,-17.184259 0.64451,-7.302946 0.0859,0.142091 0.94528,1.562999 1.24605,20.315688 0.98824,10.206494 1.84759,26.263792 0.55857,6.07404 0.98825,9.36261 0.81637,7.53981 2.27726,25.00747 0.55857,5.12975 0.0859,-0.0457 0.94528,-0.50235 1.03121,-8.48044 0.043,0.3126 0.98825,7.18978 0.0859,-0.084 0.94528,-0.92445 0.043,0.0732 1.07418,1.98249 1.33198,4.23358 0.68747,1.85085 2.01946,12.09323 1.20308,6.34544 1.28901,9.04855 0.90231,4.55774 0.94528,3.06618 1.03121,1.70624 1.11715,0.78994 1.41791,0.44859 0.81638,0.0806 1.28901,-0.10684 0.98825,-0.038 1.93352,0.12718 2.32022,0.0382 3.43738,-0.11858 6.2732,-1.33 2.44913,0.18901 2.70693,0.90715 2.01945,0.0708 1.54682,-0.23665 0.85934,-0.15772 1.20308,-0.20679 1.41792,-0.0399 4.81232,0.20057 0.55857,-0.10868 1.11715,-0.33903 1.41791,-0.22046 0.47264,-0.0105 1.67572,0.44486 1.80462,0.46229 1.03121,0.11494 9.83948,0.074 3.73814,-0.49461 2.23429,0.28124 0.68748,0.043 2.23429,-0.0518 0.81637,0.0686 1.54682,0.13969 3.65221,0.26437 3.86704,0.11721 8.98013,0.15023 70.72393,0.0193 v 0"
         clip-path="url(#pb99017ca4f)"
         style="fill:none;stroke:#ffa500;stroke-width:1.5;stroke-linecap:square"
         id="path162" />
    </g>
    <g
       id="line2d_17">
      <path
         d="m 40.457033,215.46 h 3.566273 l 0.171869,-0.26954 0.472638,-0.0885 0.429672,0.0454 0.515605,-0.0535 0.257803,-0.0385 0.644507,0.0453 0.644508,-0.0519 6.402104,-0.0738 0.343737,-0.0515 0.343738,-0.01 0.644507,-0.0299 0.343737,-0.0492 0.558573,0.0533 0.472639,-0.0846 0.644507,0.0602 0.257803,-0.0627 0.816375,0.0168 0.343738,-0.008 0.515605,0.0378 0.386705,-0.0996 0.429671,0.0199 0.386704,-0.0877 0.429672,-0.0712 0.386704,0.0263 0.687474,-0.11477 0.472639,0.067 0.343737,-0.28275 0.816376,0.0838 0.128901,-0.11082 0.128902,-0.0631 0.558573,0.22551 0.214835,-0.16401 0.171869,-0.22654 0.128901,-0.0344 0.515606,0.13208 0.214836,-0.33869 0.429671,-0.52082 0.386705,0.0308 0.472638,-1.24659 0.08594,0.0724 0.171868,0.12878 0.30077,0.13012 0.30077,-0.69096 0.08593,-0.37272 0.04297,-0.34346 0.08593,0.0961 0.386704,0.27037 0.214836,-0.51117 0.343737,-3.2902 0.04297,0.0131 0.214836,0.22332 0.343737,0.32959 0.30077,-2.71943 0.128902,-2.00041 0.04297,0.0695 0.472638,1.389 0.08593,0.0772 0.343737,-3.1139 0.08593,-1.91623 0.04297,0.0645 0.257803,0.5746 0.128902,0.0528 0.128901,-0.2014 0.08593,-1.60624 0.214836,-2.01554 0.04297,10e-4 0.128902,-3.49251 0.171868,0.42071 0.214836,0.79653 0.171869,0.33357 0.04297,-0.11843 0.171868,-2.71835 0.257803,-3.0819 0.08593,0.37272 0.472639,3.0218 0.04297,-0.0363 0.171869,-2.78191 0.214836,-1.83572 0.04297,-1.82848 0.08593,0.55901 0.386704,3.61154 0.04297,0.0733 0.08594,0.40455 0.214835,-3.61693 0.128902,-1.045 0.08593,-3.7069 0.08593,0.42614 0.386705,2.69447 0.04297,-0.0884 0.04297,0.11959 0.04297,-0.63612 0.128902,-2.45905 0.171868,-0.57625 0.04297,0.10934 0.04297,-0.001 0.04297,-0.42632 0.04297,0.11747 0.472638,1.71044 0.08593,-1.66802 0.128901,-2.03769 0.171869,-0.75093 0.04297,0.15697 0.08593,0.25764 0.04297,-0.0666 0.08593,0.19343 0.171868,0.79049 0.214836,1.08681 0.04297,-0.29683 0.30077,-3.57497 0.04297,-0.0269 0.04297,0.0876 0.04297,0.12258 0.128901,-0.5635 0.04297,0.023 0.171869,0.58023 0.171868,0.65624 0.171869,-4.05969 0.08593,0.65556 0.04297,0.13275 0.04297,-0.0528 0.08593,-0.41837 0.04297,0.029 0.08593,1.00493 0.08593,-0.21633 0.128902,0.58489 0.257803,1.69849 0.128901,-3.66124 0.128902,1.02898 0.04297,0.0794 0.04297,-0.13646 0.08593,-0.5139 0.04297,0.0356 0.60154,6.80879 0.04297,-0.0536 0.08593,-1.99107 0.04297,0.48827 0.171869,0.87713 0.04297,0.0611 0.257803,2.06965 0.343737,4.35196 0.04297,-0.99722 0.08593,-2.31309 0.04297,0.56071 0.171869,1.45948 0.08593,0.0691 0.08593,0.73855 0.30077,3.00732 0.214835,2.2961 0.128902,-2.19411 0.04297,0.63221 0.128901,0.96695 0.04297,-0.007 0.08594,-0.13075 0.04297,0.11683 0.343737,3.59149 0.30077,2.72662 0.04297,-0.78917 0.04297,0.42066 0.171869,0.89285 0.08593,-0.0166 0.08594,0.37335 0.558572,4.43807 0.04297,-0.0969 0.04297,-0.55044 0.04297,0.21966 0.214836,1.0064 0.128901,0.52415 0.60154,3.8653 0.04297,-0.069 0.04297,-0.29034 0.04297,0.17398 0.30077,0.96414 0.08593,0.18755 0.558573,2.22449 0.04297,-0.25231 0.04297,-0.12145 0.04297,0.111 0.214836,0.31373 0.08593,-0.5388 0.08593,0.2189 0.515606,1.31271 0.08593,-0.30849 0.04297,0.0807 0.214835,0.22061 0.08594,-0.31259 0.08593,0.13702 0.472639,0.85671 0.04297,-0.16375 0.08593,0.096 0.214836,0.12862 0.214835,0.19283 0.515606,0.7438 0.04297,-0.1457 0.08593,0.0568 0.257803,0.0773 0.04297,-0.13915 0.08593,0.0678 0.515606,0.49668 0.08593,-0.11564 0.04297,0.0341 0.30077,0.0535 0.343737,0.24123 0.257803,0.13978 0.08594,-0.0792 0.04297,0.0246 0.90231,0.29832 0.128901,-0.0735 0.257803,0.0358 0.128901,-0.0514 0.558573,0.1705 0.171869,-0.14024 0.08593,-0.0416 0.171869,-0.25396 0.730441,0.24285 0.171869,-0.0558 0.128901,-0.23559 0.04297,0.0182 0.343738,0.2905 0.171868,0.0747 0.171869,-0.12624 0.214836,-0.0994 0.128901,-0.1449 0.515606,0.11369 0.128901,-0.12098 0.257803,-0.0537 0.128901,-0.17404 0.601541,0.223 0.343737,-1.44867 0.128901,0.10893 0.429672,0.5981 0.04297,-0.0493 0.08593,-0.33477 0.04297,0.0125 0.214836,-0.0623 0.08593,-0.48245 0.08593,0.0978 0.429677,0.51088 0.0859,-0.003 0.17187,-0.4984 0.1289,-0.13034 0.17187,-0.9702 0.1289,0.11866 0.34374,0.30077 0.0859,-0.007 0.0859,-0.47815 0.1289,0.0962 0.0859,-0.0887 0.0859,-0.48873 0.0859,-0.56575 0.043,0.036 0.47264,0.70852 0.043,-0.0659 0.47264,-3.9443 0.0859,0.21857 0.3867,1.12329 0.043,0.05 0.043,-0.18408 0.0859,-1.02919 0.043,0.0178 0.17187,-0.1458 0.0859,-0.37068 0.043,-0.75734 0.0859,0.14546 0.34374,0.55672 0.1289,0.10027 0.043,-0.0597 0.043,-0.21587 0.51561,-7.43195 0.47264,-0.49572 0.043,-0.33752 0.30077,-13.04507 0.17186,-4.30826 0.17187,-0.0253 0.30077,0.14986 0.0859,-1.03771 0.0859,-4.56912 0.30077,-26.40406 0.1289,0.20031 0.42967,1.59165 0.043,-0.23159 0.0859,-3.01827 0.21483,-14.92682 0.0859,-9.73123 0.0859,-6.96864 0.043,0.328 0.0859,1.91691 0.38671,15.10162 0.42967,-17.94086 0.0859,-15.977794 0.0859,1.407174 0.17186,12.01216 0.25781,12.49902 0.0859,-5.39256 0.043,0.44781 0.043,-0.19582 0.17186,-5.92806 0.12891,-5.11219 0.043,-5.4818 0.0859,1.22519 0.1289,5.97294 0.30077,13.81405 0.0859,-5.87164 0.043,0.4788 0.043,-0.17953 0.17187,-5.28078 0.2578,-7.16677 0.043,0.16738 0.2578,1.61609 0.21483,-20.456265 0.043,0.444375 0.043,0.181816 0.043,-0.300934 0.21483,-3.591455 0.17187,-6.850947 0.043,0.36721 0.21483,4.024343 0.043,0.816256 0.21484,-12.513072 0.0859,0.981877 0.043,0.181044 0.043,-0.230608 0.12891,-1.829931 0.0859,-14.025603 0.043,-10.664588 0.0859,1.05088 0.34374,14.255772 0.0859,3.229994 0.043,-6.610695 0.0859,1.973094 0.0859,1.353288 0.043,-0.416925 0.17186,-2.602115 0.0859,-18.197981 0.0859,2.351714 0.38671,20.73601 0.043,-0.108696 0.043,-7.879107 0.043,2.29511 0.17187,5.110155 0.0859,-0.05021 0.0859,0.740086 0.0859,-12.107663 0.0859,2.887801 0.42968,22.996316 0.043,-6.348677 0.043,2.744619 0.21484,8.308699 0.60154,14.337591 0.17186,-16.919692 0.043,2.120271 0.34374,15.707064 0.2578,5.990389 0.21484,9.8228 0.21483,-11.00516 0.043,-0.26232 0.21484,5.71252 0.0859,-5.90709 0.0859,-11.539641 0.043,1.778858 0.47264,27.596143 0.043,-1.88549 0.043,-2.94295 0.043,1.33741 0.21484,5.72402 0.043,0.37641 0.043,-1.58849 0.0859,-10.36733 0.043,1.6903 0.47264,20.09252 0.0859,-5.49341 0.043,1.06165 0.21484,5.16583 0.043,0.0672 0.0859,-7.54971 0.043,-4.99904 0.043,1.65422 0.47264,18.95003 0.0859,-5.05374 0.043,0.97303 0.21484,3.89517 0.043,0.026 0.1289,-11.42983 0.0859,3.11871 0.42968,18.72706 0.043,-1.93164 0.043,-1.05313 0.043,1.20604 0.21483,2.91829 0.043,0.28679 0.043,-0.23301 0.0859,-8.16889 0.0859,2.60098 0.42967,15.94353 0.0859,-2.78345 0.043,1.2129 0.2578,3.50108 0.043,0.18516 0.0859,-5.57562 0.0859,2.03351 0.42967,11.09495 0.043,-2.96197 0.0859,1.56918 0.2578,3.02894 0.043,0.40738 0.043,-0.18932 0.043,-1.48495 0.043,0.39375 0.34374,4.58028 0.21483,-8.00638 0.043,0.59262 0.2578,3.1251 0.043,-0.49967 0.1289,-5.03014 0.043,0.1084 0.30077,1.37644 0.17187,-9.1581 0.043,0.17073 0.30077,5.03779 0.043,-0.35874 0.0859,-4.23949 0.0859,1.11757 0.42967,11.24931 0.043,-0.98352 0.0859,-3.17872 0.043,0.89028 0.17187,2.0469 0.043,-0.77393 0.1289,-8.06957 0.043,0.76017 0.42967,8.36764 0.043,-0.53722 0.0859,-4.20027 0.043,0.40389 0.21483,3.33382 0.043,-0.18337 0.1289,-8.57458 0.0859,1.60748 0.38671,8.76551 0.043,-0.16252 0.0859,-3.65527 0.043,0.72469 0.2578,3.32866 0.0859,-4.81192 0.043,-2.63213 0.043,0.66957 0.47264,10.00677 0.0859,-3.58309 0.043,0.6435 0.2578,3.45958 0.0859,-4.13507 0.043,-2.91937 0.0859,1.44933 0.3867,7.03416 0.1289,-3.52458 0.043,0.93109 0.30077,4.74252 0.0859,-2.33811 0.0859,0.99217 0.3867,5.51584 0.043,-0.39709 0.043,-2.45398 0.0859,0.99676 0.34374,4.26169 0.043,-0.2897 0.043,0.0483 0.17187,0.99008 0.2578,1.48915 0.0859,-1.86438 0.043,0.73462 0.30077,3.4363 0.1289,1.05454 0.0859,-0.0852 0.17187,0.90434 0.1289,0.95398 0.1289,-2.87081 0.043,0.78849 0.30077,3.9639 0.51561,4.3279 0.0859,0.50055 0.043,-0.0881 0.043,-0.66394 0.043,0.58483 0.30077,3.12113 0.55857,3.82667 0.0859,-0.16676 0.043,-0.29598 0.043,0.32324 0.34374,2.32864 0.55857,2.27829 0.043,0.0872 0.043,-0.11189 0.043,0.0106 0.42968,1.43577 0.98824,1.58719 0.34374,0.23336 0.47264,0.35306 0.55857,0.28247 0.85934,0.26129 1.20308,0.17359 0.64451,-0.0536 0.34374,-0.11758 0.77341,-0.0551 0.17186,-0.0348 0.94528,0.0709 2.10539,0.1576 1.93352,-0.007 0.17187,-0.0315 1.07418,0.005 1.80462,-0.058 0.17187,-0.12757 0.42967,-0.0398 0.1289,-0.0995 0.30077,0.0401 0.21484,-0.31667 0.34373,0.0323 0.0859,-0.1834 0.043,0.0217 0.3867,0.17994 0.21484,-0.23802 0.30077,0.0163 0.0859,-0.19033 0.043,0.0341 0.3867,0.24988 0.2578,-0.20049 0.25781,0.0764 0.1289,-0.31048 0.0859,0.0877 0.30077,0.19848 0.21484,-0.30024 0.30077,0.0218 0.0859,-0.36621 0.0859,0.0923 0.34373,0.31626 0.55858,-0.50049 0.043,-0.16231 0.043,0.0565 0.38671,0.48537 0.17186,-0.0857 0.34374,-0.13578 0.0859,-0.3333 0.043,0.0826 0.38671,0.52513 0.1289,0.006 0.30077,-0.27367 0.1289,-0.4538 0.043,0.0972 0.2578,0.34146 0.34374,0.2354 0.34373,-0.16955 0.043,-0.11907 0.043,0.094 0.2578,0.35763 0.17187,0.15564 0.17187,0.049 0.5156,0.1048 0.34374,0.28798 0.21484,0.025 0.2578,-0.0478 0.0859,-0.14525 0.043,0.0427 0.42967,0.36386 0.30077,-0.0146 0.12891,-0.0541 0.1289,-0.20396 0.043,0.0348 0.47264,0.31954 0.30077,-0.0237 0.1289,-0.0819 0.17187,-0.10275 0.38671,0.19057 0.21483,-0.17732 0.25781,-0.12409 0.1289,-0.19928 0.043,0.0368 0.42968,0.27712 0.17186,-0.0651 0.30077,-0.007 0.12891,-0.26883 0.043,0.0364 0.34374,0.21485 0.21484,-0.30294 0.30077,0.0312 0.0859,-0.34311 0.0859,0.0944 0.34374,0.32206 0.51561,-0.31388 0.043,-0.28231 0.0859,0.0869 0.3867,0.42836 0.0859,-0.0598 0.47264,-0.55004 0.0859,0.14091 0.3867,0.49214 0.0859,-0.0135 0.47264,-0.5296 0.043,0.084 0.30077,0.37235 0.21484,0.21201 0.043,-0.0477 0.34373,-0.37644 0.0859,-0.24918 0.043,0.0851 0.3867,0.58758 0.17187,0.0269 0.3867,-0.18552 0.0859,-0.27705 0.043,0.0773 0.38671,0.4967 0.60154,-0.63782 0.043,0.0812 0.3867,0.51753 0.1289,-0.096 0.38671,-0.21561 0.0859,-0.30996 0.043,0.0838 0.3867,0.5262 0.0859,-0.0121 0.34373,-0.57864 0.1289,-0.68005 0.043,0.0852 0.38671,0.82314 0.0859,0.0537 0.2578,-0.2502 0.1289,-0.1276 0.0859,-0.17312 0.0859,-0.43352 0.043,0.11554 0.3867,0.79513 0.12891,-0.19094 0.30077,-0.35053 0.1289,-0.82273 0.043,0.13958 0.38671,0.98611 0.1289,0.1935 0.043,-0.05 0.34373,-0.46392 0.043,-0.3592 0.0859,0.17743 0.3867,0.76206 0.1289,0.15546 0.043,-0.0547 0.34374,-0.41881 0.043,-0.31079 0.0859,0.18928 0.30077,0.47106 0.21483,0.24957 0.043,-0.0495 0.34374,-0.28489 0.043,-0.23485 0.0859,0.13733 0.3867,0.58348 0.17187,0.032 0.34374,-0.21224 0.043,-0.18572 0.0859,0.10054 0.3867,0.4439 0.17187,0.0123 0.30077,-0.21546 0.1289,-0.28165 0.043,0.0645 0.38671,0.43882 0.0859,0.0128 0.17187,-0.16184 0.2578,-0.12558 0.0859,-0.17825 0.043,0.0532 0.42968,0.44182 0.17186,-0.0752 0.30077,-0.18024 0.0859,-0.18333 0.043,0.0495 0.42967,0.41255 0.17187,-0.0299 0.30077,-0.20922 0.0859,-0.16852 0.043,0.045 0.42967,0.38111 0.2578,-0.0567 0.21484,-0.1497 0.0859,-0.17916 0.043,0.0283 0.42967,0.34697 0.68747,-0.20836 0.38671,0.24095 0.60154,-0.15225 0.42967,0.22417 0.60154,-0.23066 0.42967,0.23623 0.68748,-0.20663 0.34373,0.18634 0.68748,-0.31159 0.30077,0.20903 0.30077,-0.2778 0.21483,-0.0932 0.0859,-0.19544 0.043,0.0576 0.38671,0.37834 0.55857,-0.6607 0.043,0.0625 0.42967,0.52664 0.1289,-0.0213 0.30077,-0.49409 0.0859,-0.50363 0.0859,0.165 0.30077,0.45381 0.21484,0.269 0.043,-0.0754 0.42967,-0.76079 0.0859,0.20278 0.3867,0.64629 0.0859,0.061 0.043,-0.0459 0.34374,-0.41568 0.0859,-0.34047 0.043,0.0732 0.42967,0.69848 0.17187,-0.0585 0.34374,-0.0373 0.0859,-0.24842 0.043,0.0609 0.38671,0.42192 0.2578,-0.26214 0.2578,-0.0505 0.043,-0.16865 0.0859,0.10811 0.38671,0.40238 0.1289,-0.047 0.34374,-0.25458 0.0859,-0.19648 0.043,0.0647 0.34373,0.32068 0.25781,0.10656 0.2578,-0.37112 0.1289,-0.29559 0.043,0.0775 0.42967,0.55291 0.17187,0.0485 0.34374,-0.2711 0.043,-0.13523 0.0859,0.095 0.3867,0.3852 0.1289,-0.0848 0.38671,-0.23118 0.043,-0.0766 0.043,0.0336 0.42967,0.39452 0.21484,-0.0539 0.30077,-0.11005 0.0859,-0.0708 0.043,0.0414 0.42967,0.26491 0.55858,-0.26729 0.47263,0.293 0.81638,-0.001 0.3867,0.0543 0.77341,0.0448 0.1289,-0.0424 0.17187,-0.0543 0.21484,-0.0568 0.1289,-0.0494 0.51561,0.2023 0.90231,0.0526 0.3867,-0.0157 0.30077,-0.0678 0.60154,0.1088 0.81638,0.0155 0.47263,-0.0267 0.21484,0.008 0.68747,0.0437 0.34374,-0.0301 0.73044,0.0306 0.51561,0.0178 1.46088,0.0266 8.72233,0.0194 5.32793,0.009 0.30077,-0.007 4.51155,0.0171 h 55.42762 v 0"
         clip-path="url(#pb99017ca4f)"
         style="fill:none;stroke:#000000;stroke-linecap:square"
         id="path165" />
    </g>
    <g
       id="line2d_18">
      <path
         d="M 228.825,224.28 V 30.24"
         clip-path="url(#pb99017ca4f)"
         style="fill:none;stroke:#000000;stroke-dasharray:3.7, 1.6;stroke-dashoffset:0"
         id="path168" />
    </g>
    <g
       id="patch_3">
      <path
         d="M 40.5,224.28 V 30.24"
         style="fill:none;stroke:#000000;stroke-width:0.8;stroke-linecap:square;stroke-linejoin:miter"
         id="path171" />
    </g>
    <g
       id="patch_4">
      <path
         d="M 291.6,224.28 V 30.24"
         style="fill:none;stroke:#000000;stroke-width:0.8;stroke-linecap:square;stroke-linejoin:miter"
         id="path174" />
    </g>
    <g
       id="patch_5">
      <path
         d="M 40.5,224.28 H 291.6"
         style="fill:none;stroke:#000000;stroke-width:0.8;stroke-linecap:square;stroke-linejoin:miter"
         id="path177" />
    </g>
    <g
       id="patch_6">
      <path
         d="M 40.5,30.24 H 291.6"
         style="fill:none;stroke:#000000;stroke-width:0.8;stroke-linecap:square;stroke-linejoin:miter"
         id="path180" />
    </g>
    <g
       id="legend_1">
      <g
         id="patch_7">
        <path
           d="m 47.5,52.385313 h 54.24375 q 2,0 2,-2 V 37.24 q 0,-2 -2,-2 H 47.5 q -2,0 -2,2 v 13.145313 q 0,2 2,2 z"
           style="opacity:0.8;fill:#ffffff;stroke:#cccccc;stroke-linejoin:miter"
           id="path183" />
      </g>
      <g
         id="line2d_19">
        <path
           d="m 49.5,42.897813 h 10 10"
           style="fill:none;stroke:#000000;stroke-linecap:square"
           id="path186" />
      </g>
      <g
         id="text_16">
        <text
           style="font-style:normal;font-variant:normal;font-weight:normal;font-stretch:normal;font-size:10px;line-height:normal;font-family:Arial, sans-serif;text-anchor:start"
           x="77.5"
           y="46.397812"
           id="text189">2018</text>
      </g>
    </g>
  </g>
  <defs
     id="defs198">
    <clipPath
       id="pb99017ca4f">
      <rect
         x="40.5"
         y="30.24"
         width="251.1"
         height="194.04"
         id="rect195" />
    </clipPath>
  </defs>
</svg>
