<?xml version="1.0" encoding="utf-8" standalone="no"?>
<!DOCTYPE svg PUBLIC "-//W3C//DTD SVG 1.1//EN"
  "http://www.w3.org/Graphics/SVG/1.1/DTD/svg11.dtd">
<svg xmlns:xlink="http://www.w3.org/1999/xlink" width="324pt" height="252pt" viewBox="0 0 324 252" xmlns="http://www.w3.org/2000/svg" version="1.1">
 <metadata>
  <rdf:RDF xmlns:dc="http://purl.org/dc/elements/1.1/" xmlns:cc="http://creativecommons.org/ns#" xmlns:rdf="http://www.w3.org/1999/02/22-rdf-syntax-ns#">
   <cc:Work>
    <dc:type rdf:resource="http://purl.org/dc/dcmitype/StillImage"/>
    <dc:date>2023-12-01T17:18:28.068708</dc:date>
    <dc:format>image/svg+xml</dc:format>
    <dc:creator>
     <cc:Agent>
      <dc:title>Matplotlib v3.8.0, https://matplotlib.org/</dc:title>
     </cc:Agent>
    </dc:creator>
   </cc:Work>
  </rdf:RDF>
 </metadata>
 <defs>
  <style type="text/css">*{stroke-linejoin: round; stroke-linecap: butt}</style>
 </defs>
 <g id="figure_1">
  <g id="patch_1">
   <path d="M 0 252 
L 324 252 
L 324 0 
L 0 0 
z
" style="fill: #ffffff"/>
  </g>
  <g id="axes_1">
   <g id="patch_2">
    <path d="M 40.5 224.28 
L 291.6 224.28 
L 291.6 30.24 
L 40.5 30.24 
z
" style="fill: #ffffff"/>
   </g>
   <g id="matplotlib.axis_1">
    <g id="xtick_1">
     <g id="line2d_1">
      <defs>
       <path id="m58cfd27ab8" d="M 0 0 
L 0 3.5 
" style="stroke: #000000; stroke-width: 0.8"/>
      </defs>
      <g>
       <use xlink:href="#m58cfd27ab8" x="40.5" y="224.28" style="stroke: #000000; stroke-width: 0.8"/>
      </g>
     </g>
     <g id="text_1">
      <text style="font: 12px 'Arial', sans-serif" transform="translate(43.531875 273.968125) rotate(-90)">January</text>
     </g>
    </g>
    <g id="xtick_2">
     <g id="line2d_2">
      <g>
       <use xlink:href="#m58cfd27ab8" x="71.8875" y="224.28" style="stroke: #000000; stroke-width: 0.8"/>
      </g>
     </g>
     <g id="text_2">
      <text style="font: 12px 'Arial', sans-serif" transform="translate(74.919375 279.293125) rotate(-90)">February</text>
     </g>
    </g>
    <g id="xtick_3">
     <g id="line2d_3">
      <g>
       <use xlink:href="#m58cfd27ab8" x="103.275" y="224.28" style="stroke: #000000; stroke-width: 0.8"/>
      </g>
     </g>
     <g id="text_3">
      <text style="font: 12px 'Arial', sans-serif" transform="translate(106.377188 264.6175) rotate(-90)">March</text>
     </g>
    </g>
    <g id="xtick_4">
     <g id="line2d_4">
      <g>
       <use xlink:href="#m58cfd27ab8" x="134.6625" y="224.28" style="stroke: #000000; stroke-width: 0.8"/>
      </g>
     </g>
     <g id="text_4">
      <text style="font: 12px 'Arial', sans-serif" transform="translate(137.764688 255.285625) rotate(-90)">April</text>
     </g>
    </g>
    <g id="xtick_5">
     <g id="line2d_5">
      <g>
       <use xlink:href="#m58cfd27ab8" x="166.05" y="224.28" style="stroke: #000000; stroke-width: 0.8"/>
      </g>
     </g>
     <g id="text_5">
      <text style="font: 12px 'Arial', sans-serif" transform="translate(169.081875 253.94875) rotate(-90)">May</text>
     </g>
    </g>
    <g id="xtick_6">
     <g id="line2d_6">
      <g>
       <use xlink:href="#m58cfd27ab8" x="197.4375" y="224.28" style="stroke: #000000; stroke-width: 0.8"/>
      </g>
     </g>
     <g id="text_6">
      <text style="font: 12px 'Arial', sans-serif" transform="translate(200.539688 257.299375) rotate(-90)">June</text>
     </g>
    </g>
    <g id="xtick_7">
     <g id="line2d_7">
      <g>
       <use xlink:href="#m58cfd27ab8" x="228.825" y="224.28" style="stroke: #000000; stroke-width: 0.8"/>
      </g>
     </g>
     <g id="text_7">
      <text style="font: 12px 'Arial', sans-serif" transform="translate(231.856875 252.619375) rotate(-90)">July</text>
     </g>
    </g>
    <g id="xtick_8">
     <g id="line2d_8">
      <g>
       <use xlink:href="#m58cfd27ab8" x="260.2125" y="224.28" style="stroke: #000000; stroke-width: 0.8"/>
      </g>
     </g>
     <g id="text_8">
      <text style="font: 12px 'Arial', sans-serif" transform="translate(263.244375 268.6375) rotate(-90)">August</text>
     </g>
    </g>
    <g id="xtick_9">
     <g id="line2d_9">
      <g>
       <use xlink:href="#m58cfd27ab8" x="291.6" y="224.28" style="stroke: #000000; stroke-width: 0.8"/>
      </g>
     </g>
     <g id="text_9">
      <text style="font: 12px 'Arial', sans-serif" transform="translate(294.775313 289.975) rotate(-90)">September</text>
     </g>
    </g>
   </g>
   <g id="matplotlib.axis_2">
    <g id="ytick_1">
     <g id="line2d_10">
      <defs>
       <path id="m1963f11fec" d="M 0 0 
L -3.5 0 
" style="stroke: #000000; stroke-width: 0.8"/>
      </defs>
      <g>
       <use xlink:href="#m1963f11fec" x="40.5" y="215.46" style="stroke: #000000; stroke-width: 0.8"/>
      </g>
     </g>
     <g id="text_10">
      <text style="font: 12px 'Arial', sans-serif; text-anchor: end" x="33.5" y="219.754687" transform="rotate(-0 33.5 219.754687)">0.0000</text>
     </g>
    </g>
    <g id="ytick_2">
     <g id="line2d_11">
      <g>
       <use xlink:href="#m1963f11fec" x="40.5" y="188.173371" style="stroke: #000000; stroke-width: 0.8"/>
      </g>
     </g>
     <g id="text_11">
      <text style="font: 12px 'Arial', sans-serif; text-anchor: end" x="33.5" y="192.468058" transform="rotate(-0 33.5 192.468058)">0.0025</text>
     </g>
    </g>
    <g id="ytick_3">
     <g id="line2d_12">
      <g>
       <use xlink:href="#m1963f11fec" x="40.5" y="160.886741" style="stroke: #000000; stroke-width: 0.8"/>
      </g>
     </g>
     <g id="text_12">
      <text style="font: 12px 'Arial', sans-serif; text-anchor: end" x="33.5" y="165.181429" transform="rotate(-0 33.5 165.181429)">0.0050</text>
     </g>
    </g>
    <g id="ytick_4">
     <g id="line2d_13">
      <g>
       <use xlink:href="#m1963f11fec" x="40.5" y="133.600112" style="stroke: #000000; stroke-width: 0.8"/>
      </g>
     </g>
     <g id="text_13">
      <text style="font: 12px 'Arial', sans-serif; text-anchor: end" x="33.5" y="137.8948" transform="rotate(-0 33.5 137.8948)">0.0075</text>
     </g>
    </g>
    <g id="ytick_5">
     <g id="line2d_14">
      <g>
       <use xlink:href="#m1963f11fec" x="40.5" y="106.313483" style="stroke: #000000; stroke-width: 0.8"/>
      </g>
     </g>
     <g id="text_14">
      <text style="font: 12px 'Arial', sans-serif; text-anchor: end" x="33.5" y="110.60817" transform="rotate(-0 33.5 110.60817)">0.0100</text>
     </g>
    </g>
    <g id="ytick_6">
     <g id="line2d_15">
      <g>
       <use xlink:href="#m1963f11fec" x="40.5" y="79.026853" style="stroke: #000000; stroke-width: 0.8"/>
      </g>
     </g>
     <g id="text_15">
      <text style="font: 12px 'Arial', sans-serif; text-anchor: end" x="33.5" y="83.321541" transform="rotate(-0 33.5 83.321541)">0.0125</text>
     </g>
    </g>
    <g id="ytick_7">
     <g id="line2d_16">
      <g>
       <use xlink:href="#m1963f11fec" x="40.5" y="51.740224" style="stroke: #000000; stroke-width: 0.8"/>
      </g>
     </g>
     <g id="text_16">
      <text style="font: 12px 'Arial', sans-serif; text-anchor: end" x="33.5" y="56.034912" transform="rotate(-0 33.5 56.034912)">0.0150</text>
     </g>
    </g>
    <g id="text_17">
     <text style="font: 12px 'Arial', sans-serif; text-anchor: middle" x="-9.584375" y="127.26" transform="rotate(-90 -9.584375 127.26)">Exudation rate [mol C m-3 h-1]</text>
    </g>
   </g>
   <g id="line2d_17">
    <path d="M 40.457033 215.390065 
L 56.61268 215.280186 
L 60.565657 214.927274 
L 63.702259 214.19005 
L 65.377977 213.811123 
L 66.795893 213.519967 
L 68.428645 212.366677 
L 69.245021 211.550693 
L 70.018429 210.503848 
L 71.264476 208.201025 
L 72.553491 206.194165 
L 73.069097 205.129231 
L 74.444045 201.128359 
L 75.13152 199.71157 
L 76.119764 199.301332 
L 77.150975 199.775396 
L 78.397023 199.232147 
L 79.428234 198.999431 
L 80.201643 198.694847 
L 81.275821 199.941207 
L 82.693737 203.214393 
L 83.510113 204.548473 
L 84.799127 205.75553 
L 85.3577 206.253768 
L 86.732649 209.317995 
L 87.849795 210.994217 
L 88.752105 211.955606 
L 90.341889 213.040439 
L 91.115298 213.388057 
L 92.876951 214.006269 
L 95.540914 214.500947 
L 96.443224 214.723308 
L 98.376745 215.111612 
L 99.579825 215.161103 
L 101.040708 215.058338 
L 105.036653 214.774575 
L 106.368634 214.21436 
L 108.173255 213.26444 
L 110.579415 211.813924 
L 112.040298 210.692726 
L 113.372279 209.476373 
L 114.231622 207.743734 
L 116.508881 192.630025 
L 117.969764 182.426374 
L 121.450103 156.999061 
L 123.469559 148.287368 
L 124.844507 134.649386 
L 125.961653 125.548457 
L 126.692094 119.743815 
L 127.594405 118.049612 
L 127.637372 118.186596 
L 129.656828 124.30386 
L 130.945842 121.254552 
L 131.762218 119.862633 
L 132.879363 113.58921 
L 133.910575 102.862596 
L 135.113655 81.438294 
L 135.930031 65.117883 
L 136.875308 62.589698 
L 138.078388 79.093011 
L 139.152567 99.051654 
L 140.226745 109.9638 
L 141.086088 116.692076 
L 142.847741 145.974228 
L 143.277413 151.727309 
L 144.22269 159.284021 
L 145.511704 161.106014 
L 146.156211 162.218876 
L 148.519405 188.09773 
L 149.507649 194.437956 
L 150.495893 198.186199 
L 151.999743 201.302124 
L 153.546561 203.979605 
L 154.491838 204.752778 
L 157.499538 210.81893 
L 158.702618 212.222879 
L 159.776797 212.50204 
L 160.765041 212.447645 
L 161.882187 213.022517 
L 163.64384 214.337564 
L 164.116478 214.531997 
L 165.878131 215.099077 
L 168.15539 215.361153 
L 171.249025 215.393965 
L 176.362115 215.42692 
L 186.975 215.441185 
L 192.818532 215.283363 
L 195.052823 215.124013 
L 197.416016 214.732003 
L 199.951078 214.459413 
L 201.626797 214.438256 
L 202.743943 214.240868 
L 203.216581 214.259225 
L 205.49384 214.443497 
L 207.9 214.629552 
L 210.993634 214.952913 
L 213.872433 215.054853 
L 215.505185 215.2404 
L 219.973768 215.421736 
L 222.551797 215.46 
L 291.642967 215.46 
L 291.642967 215.46 
" clip-path="url(#pf8010c9a22)" style="fill: none; stroke: #ffa500; stroke-width: 1.5; stroke-linecap: square"/>
   </g>
   <g id="line2d_18">
    <path d="M 40.457033 215.402697 
L 58.288398 215.15927 
L 61.339066 214.795561 
L 64.647536 214.09723 
L 66.366222 213.65986 
L 67.612269 213.02239 
L 68.987218 211.848415 
L 69.588758 211.132384 
L 70.577002 209.473239 
L 71.565246 207.426382 
L 72.510524 206.406566 
L 73.713604 203.312864 
L 74.658881 200.468023 
L 75.604158 199.304085 
L 76.678337 199.649396 
L 77.709548 200.533848 
L 78.74076 200.414727 
L 79.771971 199.762352 
L 80.717248 200.068485 
L 82.435934 203.153877 
L 82.994507 204.03082 
L 84.670226 205.729422 
L 84.970996 206.153312 
L 87.677926 210.72522 
L 88.3654 211.488476 
L 89.439579 212.410448 
L 90.513758 213.044149 
L 92.361345 213.810465 
L 93.908162 214.208795 
L 99.236088 215.172314 
L 102.97423 214.933441 
L 104.821817 214.752871 
L 105.724127 214.443188 
L 110.106776 211.813017 
L 112.126232 210.260491 
L 112.985575 209.521786 
L 113.673049 208.78319 
L 114.962064 201.493304 
L 116.165144 193.412751 
L 116.938552 188.572804 
L 118.313501 177.609243 
L 120.204055 163.928732 
L 121.1923 155.345581 
L 122.223511 149.586232 
L 123.125821 145.524724 
L 124.157033 137.991361 
L 125.617916 123.640678 
L 127.078799 111.051374 
L 127.121766 111.327101 
L 128.496715 119.491232 
L 129.141222 122.528599 
L 129.184189 122.329291 
L 130.344302 117.378981 
L 131.41848 115.342209 
L 132.234856 114.560792 
L 134.211345 94.016327 
L 134.340246 91.957582 
L 135.586294 62.421942 
L 136.359702 50.658032 
L 136.402669 51.021466 
L 137.476848 60.930023 
L 139.238501 94.612468 
L 139.582238 99.794083 
L 140.656417 107.126255 
L 141.601694 117.510974 
L 142.890708 143.018331 
L 143.707084 153.93883 
L 144.609394 157.343794 
L 144.652361 157.201988 
L 145.640606 153.940463 
L 148.175667 183.270577 
L 148.949076 189.58405 
L 150.324025 195.891752 
L 151.054466 198.41452 
L 152.429415 201.503525 
L 153.374692 203.135445 
L 154.105133 204.068444 
L 154.964476 204.745312 
L 157.413604 210.224033 
L 158.229979 211.557053 
L 159.175257 212.309307 
L 160.249435 212.290191 
L 161.495483 212.942668 
L 163.514938 214.29253 
L 165.233624 215.006549 
L 167.424949 215.323371 
L 170.776386 215.400303 
L 176.619918 215.434737 
L 190.068634 215.39947 
L 195.009856 215.137353 
L 197.158214 214.777928 
L 198.747998 214.561013 
L 203.560318 214.405301 
L 206.739887 214.546858 
L 212.196715 214.96479 
L 213.872433 215.140237 
L 216.579363 215.325657 
L 223.11037 215.46 
L 291.642967 215.46 
L 291.642967 215.46 
" clip-path="url(#pf8010c9a22)" style="fill: none; stroke: #ffa500; stroke-width: 1.5; stroke-linecap: square"/>
   </g>
   <g id="line2d_19">
    <path d="M 40.457033 215.424704 
L 40.714836 215.399322 
L 54.421355 215.315887 
L 55.194764 215.324352 
L 57.128285 215.276467 
L 59.663347 215.022334 
L 59.92115 214.978929 
L 60.737526 214.881318 
L 60.909394 214.831271 
L 61.467967 214.84423 
L 61.854671 214.547571 
L 62.62808 214.532282 
L 63.22962 214.450429 
L 63.444456 214.394927 
L 63.702259 214.202591 
L 63.960062 214.121905 
L 64.4327 214.170067 
L 64.776437 213.87361 
L 64.948306 213.849162 
L 65.249076 213.989799 
L 65.549846 214.001673 
L 65.764682 213.765879 
L 66.108419 213.593227 
L 66.452156 213.815527 
L 66.624025 213.781209 
L 66.795893 213.546993 
L 66.967762 213.213979 
L 67.096663 213.174013 
L 67.612269 213.339419 
L 68.084908 212.342911 
L 68.127875 212.369206 
L 68.64348 212.578793 
L 69.073152 211.272965 
L 69.116119 211.29958 
L 69.631725 211.68736 
L 69.674692 211.659357 
L 70.104363 209.687471 
L 70.233265 209.793822 
L 70.577002 210.105043 
L 70.705903 210.110902 
L 71.006674 208.018231 
L 71.135575 206.846503 
L 71.178542 206.909597 
L 71.608214 208.017577 
L 71.737115 208.249266 
L 71.951951 207.288732 
L 72.166786 205.851308 
L 72.252721 206.055679 
L 72.553491 206.750424 
L 72.725359 206.874863 
L 72.768326 206.807872 
L 72.940195 205.627918 
L 73.112064 205.091012 
L 73.197998 203.865879 
L 73.283932 203.957694 
L 73.670637 204.245868 
L 73.756571 204.236104 
L 73.799538 204.170343 
L 74.014374 202.271875 
L 74.143275 201.307479 
L 74.229209 199.685536 
L 74.315144 199.898014 
L 74.787782 201.512758 
L 74.830749 201.466423 
L 75.002618 199.993462 
L 75.217454 198.351913 
L 75.260421 197.456275 
L 75.346355 197.844426 
L 75.818994 200.601074 
L 75.861961 200.573904 
L 76.03383 199.318178 
L 76.205698 198.929972 
L 76.291632 197.337241 
L 76.377567 197.863458 
L 76.893172 201.144139 
L 77.022074 200.101962 
L 77.279877 199.405375 
L 77.322844 198.776206 
L 77.365811 198.98177 
L 77.795483 201.358974 
L 77.967351 199.471199 
L 78.010318 199.604511 
L 78.268121 199.060013 
L 78.311088 199.169807 
L 78.525924 199.954919 
L 78.826694 201.106662 
L 78.912628 200.53253 
L 79.084497 199.524906 
L 79.385267 198.613331 
L 79.428234 198.658207 
L 79.600103 199.34288 
L 79.857906 200.512492 
L 79.986807 198.895697 
L 80.072741 199.009439 
L 80.158676 198.834757 
L 80.330544 198.342287 
L 80.717248 199.996708 
L 80.889117 200.98064 
L 81.018018 199.389598 
L 81.060986 199.599468 
L 81.14692 199.848252 
L 81.232854 199.725402 
L 81.318789 199.718177 
L 81.533624 200.496057 
L 81.920329 202.657292 
L 82.006263 202.560248 
L 82.04923 202.021837 
L 82.135164 202.176139 
L 82.35 202.37345 
L 82.65077 203.174929 
L 83.037474 204.681823 
L 83.080441 204.558879 
L 83.123409 204.014356 
L 83.209343 204.145225 
L 83.424179 204.381424 
L 83.467146 204.382112 
L 83.510113 204.070813 
L 83.596047 204.179149 
L 84.068686 205.715572 
L 84.111653 205.593327 
L 84.197587 205.044912 
L 84.240554 205.180005 
L 84.45539 205.508962 
L 84.498357 205.489761 
L 84.541324 205.181943 
L 84.627259 205.260089 
L 85.013963 206.353248 
L 85.099897 206.040679 
L 85.185832 205.593209 
L 85.228799 205.767799 
L 85.486602 206.348366 
L 85.916273 207.868716 
L 86.131109 208.711855 
L 86.174076 208.675994 
L 86.26001 208.299648 
L 86.302977 208.449049 
L 86.517813 208.8899 
L 86.56078 208.845924 
L 86.603747 208.626456 
L 86.646715 208.726811 
L 87.205287 210.473345 
L 87.248255 210.218936 
L 87.291222 210.140941 
L 87.334189 210.247352 
L 87.549025 210.544847 
L 87.634959 210.189665 
L 87.720893 210.383551 
L 88.236499 211.742849 
L 88.279466 211.512795 
L 88.3654 211.60941 
L 88.580236 211.750715 
L 88.623203 211.718132 
L 88.66617 211.460013 
L 88.752105 211.592542 
L 89.26771 212.517803 
L 89.310678 212.343928 
L 89.396612 212.427922 
L 89.654415 212.515661 
L 89.697382 212.310526 
L 89.783316 212.405265 
L 90.298922 213.187348 
L 90.384856 213.026495 
L 90.427823 213.066526 
L 90.642659 213.158096 
L 90.728593 212.901124 
L 90.857495 213.032349 
L 91.330133 213.593624 
L 91.373101 213.462644 
L 91.459035 213.512102 
L 91.716838 213.55096 
L 91.759805 213.39371 
L 91.845739 213.451402 
L 92.361345 213.969138 
L 92.447279 213.860317 
L 92.490246 213.890265 
L 92.748049 213.938671 
L 92.833984 213.851019 
L 92.876951 213.874652 
L 93.392556 214.202638 
L 93.478491 214.106905 
L 93.521458 214.131524 
L 93.779261 214.171492 
L 93.908162 214.115199 
L 94.681571 214.386836 
L 95.283111 214.51634 
L 95.412012 214.479149 
L 95.540914 214.468098 
L 95.970585 214.553435 
L 97.474435 214.993041 
L 97.646304 215.003535 
L 98.849384 215.166653 
L 102.028953 214.944383 
L 102.200821 214.920304 
L 102.888296 214.958538 
L 103.060164 214.90264 
L 103.189066 214.862361 
L 103.87654 214.907055 
L 104.091376 214.837141 
L 104.220277 214.792169 
L 104.77885 214.851667 
L 104.950719 214.817942 
L 105.07962 214.766817 
L 105.294456 214.575586 
L 105.767094 214.630593 
L 105.938963 214.472216 
L 106.110832 214.365876 
L 106.325667 213.982625 
L 106.798306 214.029382 
L 106.88424 213.82192 
L 106.927207 213.835138 
L 107.142043 213.77686 
L 107.270945 213.282204 
L 107.356879 213.317682 
L 107.829517 213.563418 
L 107.915452 213.296643 
L 107.958419 213.325343 
L 108.130287 213.352044 
L 108.216222 213.068535 
L 108.302156 212.663399 
L 108.38809 212.72792 
L 108.817762 213.106862 
L 108.946663 212.717556 
L 109.075565 212.789905 
L 109.204466 212.708613 
L 109.333368 211.949186 
L 109.419302 212.035298 
L 109.848973 212.581016 
L 109.89194 212.520945 
L 109.977875 212.075855 
L 110.063809 212.142134 
L 110.19271 212.133058 
L 110.278645 211.676631 
L 110.364579 211.010144 
L 110.450513 211.123186 
L 110.923152 211.779075 
L 111.095021 211.405292 
L 111.180955 211.499404 
L 111.266889 211.390599 
L 111.395791 210.17147 
L 111.481725 210.294212 
L 111.911396 211.054829 
L 111.997331 210.518688 
L 112.083265 210.58413 
L 112.255133 210.610526 
L 112.298101 210.576701 
L 112.384035 209.805185 
L 112.427002 209.328971 
L 112.512936 209.472491 
L 112.985575 210.379414 
L 113.200411 209.853484 
L 113.243378 209.928183 
L 113.329312 209.918579 
L 113.458214 208.274077 
L 113.587115 208.472486 
L 113.973819 209.278453 
L 114.016786 209.229699 
L 114.274589 207.716466 
L 114.446458 204.131365 
L 114.489425 203.110575 
L 114.575359 203.179753 
L 114.962064 203.51501 
L 115.005031 203.438522 
L 115.477669 196.689048 
L 115.520637 195.250131 
L 115.606571 195.314099 
L 115.950308 196.340972 
L 116.036242 196.512954 
L 116.165144 194.099953 
L 116.208111 194.238929 
L 116.294045 194.307782 
L 116.337012 194.27075 
L 116.422947 193.982688 
L 116.551848 188.769666 
L 116.723717 189.459956 
L 117.024487 191.263161 
L 117.067454 191.248411 
L 117.196355 187.13731 
L 117.325257 187.596751 
L 117.368224 187.58052 
L 117.454158 186.466569 
L 117.58306 179.058914 
L 117.668994 179.52161 
L 118.098665 183.352734 
L 118.227567 179.054451 
L 118.313501 179.681124 
L 118.399435 179.911942 
L 118.442402 179.863539 
L 118.48537 179.398708 
L 118.614271 170.991006 
L 118.743172 172.23674 
L 119.129877 176.824523 
L 119.258778 171.287146 
L 119.344713 172.395674 
L 119.473614 173.245167 
L 119.516581 172.939448 
L 119.645483 164.034829 
L 119.774384 165.436765 
L 120.032187 169.073196 
L 120.118121 168.965393 
L 120.161088 168.53183 
L 120.28999 162.669807 
L 120.332957 163.237654 
L 120.504825 164.360851 
L 120.547793 164.016741 
L 120.633727 157.924582 
L 120.676694 153.300021 
L 120.762628 154.14296 
L 121.1923 161.388143 
L 121.321201 155.600095 
L 121.364168 156.299061 
L 121.536037 157.532424 
L 121.579004 157.204076 
L 121.664938 150.038067 
L 121.707906 145.455862 
L 121.79384 146.836655 
L 122.223511 155.923789 
L 122.309446 151.307477 
L 122.352413 151.986834 
L 122.481314 152.888669 
L 122.610216 152.387571 
L 122.653183 150.758538 
L 122.739117 141.143616 
L 122.825051 142.268189 
L 123.211756 151.857151 
L 123.254723 151.771897 
L 123.340657 145.586239 
L 123.383624 146.202388 
L 123.59846 148.852157 
L 123.641427 148.673898 
L 123.727361 140.607617 
L 123.770329 135.859575 
L 123.856263 136.72777 
L 124.242967 143.202626 
L 124.285934 142.56465 
L 124.371869 134.336792 
L 124.457803 135.569496 
L 124.629671 138.136927 
L 124.672639 137.802601 
L 124.758573 129.293917 
L 124.80154 123.227356 
L 124.887474 124.317222 
L 125.231211 133.854569 
L 125.317146 135.127882 
L 125.446047 126.650348 
L 125.489014 127.828302 
L 125.660883 130.163356 
L 125.70385 129.236254 
L 125.832752 112.895508 
L 125.918686 114.48466 
L 126.348357 126.73969 
L 126.477259 116.417167 
L 126.520226 117.901286 
L 126.692094 120.657881 
L 126.778029 113.584302 
L 126.863963 101.54366 
L 126.90693 102.555735 
L 127.336602 119.383223 
L 127.379569 119.317193 
L 127.465503 112.019318 
L 127.50847 113.564778 
L 127.766273 120.704746 
L 127.80924 120.212407 
L 127.895175 108.333517 
L 127.981109 110.711918 
L 128.367813 123.732227 
L 128.41078 122.314952 
L 128.496715 115.148823 
L 128.539682 116.518836 
L 128.797485 124.321858 
L 128.840452 124.013791 
L 128.926386 114.793852 
L 129.01232 116.830463 
L 129.399025 128.907346 
L 129.441992 128.845855 
L 129.570893 120.192459 
L 129.61386 121.746484 
L 129.785729 125.93215 
L 129.828696 125.779162 
L 129.957598 110.026534 
L 130.086499 113.250773 
L 130.473203 124.988152 
L 130.559138 116.795545 
L 130.602105 117.506113 
L 130.81694 123.27478 
L 130.859908 123.308046 
L 130.945842 113.903385 
L 130.988809 107.889874 
L 131.074743 109.792342 
L 131.461448 122.550764 
L 131.504415 122.209317 
L 131.590349 114.379086 
L 131.633316 115.521855 
L 131.891119 122.159335 
L 131.977053 113.09198 
L 132.020021 107.309135 
L 132.105955 109.102232 
L 132.492659 120.900114 
L 132.535626 120.733076 
L 132.664528 110.175786 
L 132.707495 111.917998 
L 132.879363 116.216105 
L 132.922331 115.05 
L 133.051232 97.070763 
L 133.137166 98.818851 
L 133.566838 111.680137 
L 133.695739 100.499908 
L 133.738706 102.154756 
L 133.910575 105.869994 
L 133.996509 96.602766 
L 134.082444 85.543593 
L 134.125411 86.223701 
L 134.469148 97.647251 
L 134.555082 100.311599 
L 134.598049 100.071375 
L 134.726951 85.058055 
L 134.812885 87.293675 
L 134.855852 88.063825 
L 134.898819 88.044735 
L 134.984754 80.904443 
L 135.113655 57.853053 
L 135.156622 58.654202 
L 135.414425 68.14134 
L 135.586294 75.035813 
L 135.629261 74.720324 
L 135.758162 59.170181 
L 135.801129 61.339415 
L 135.930031 66.524113 
L 135.972998 66.292991 
L 136.058932 53.07683 
L 136.144867 39.06 
L 136.187834 40.096689 
L 136.488604 55.596181 
L 136.617505 62.737695 
L 136.660472 62.599456 
L 136.746407 51.117763 
L 136.789374 53.272941 
L 137.047177 67.184655 
L 137.176078 46.165748 
L 137.304979 51.472479 
L 137.691684 72.709395 
L 137.777618 63.141418 
L 137.820585 65.730853 
L 138.078388 81.47118 
L 138.164322 70.04461 
L 138.20729 63.74701 
L 138.293224 67.387722 
L 138.722895 92.054783 
L 138.80883 84.911489 
L 138.851797 87.782615 
L 139.1096 102.461062 
L 139.152567 100.864718 
L 139.238501 88.490342 
L 139.281468 89.720154 
L 139.71114 108.421124 
L 139.754107 108.03505 
L 139.840041 99.381256 
L 139.883008 100.14104 
L 140.140811 111.937816 
L 140.269713 96.679601 
L 140.398614 100.35076 
L 140.742351 114.051978 
L 140.785318 113.780993 
L 140.871253 106.038921 
L 140.91422 107.48378 
L 141.172023 119.567921 
L 141.300924 106.346094 
L 141.429825 110.317257 
L 141.773563 124.778056 
L 141.81653 124.450105 
L 141.859497 120.277327 
L 141.902464 121.683553 
L 142.246201 137.285738 
L 142.332136 129.505147 
L 142.41807 131.583908 
L 142.804774 145.855752 
L 142.847741 145.818128 
L 142.933676 141.887346 
L 142.976643 143.576505 
L 143.234446 153.855348 
L 143.277413 152.907908 
L 143.363347 146.46276 
L 143.406314 147.321656 
L 143.835986 159.781437 
L 143.92192 157.553753 
L 144.007854 154.389199 
L 144.050821 156.014957 
L 144.22269 161.025959 
L 144.265657 160.700499 
L 144.394559 151.346571 
L 144.480493 153.045998 
L 144.867197 162.752116 
L 144.910164 162.720698 
L 145.039066 156.629233 
L 145.082033 157.931807 
L 145.253901 161.764924 
L 145.296869 160.861321 
L 145.42577 150.662857 
L 145.511704 151.435622 
L 145.898409 157.48827 
L 145.941376 156.122934 
L 145.984343 153.85361 
L 146.02731 155.355208 
L 146.371047 167.001319 
L 146.414014 166.181019 
L 146.456982 162.801278 
L 146.542916 163.334993 
L 146.800719 168.309721 
L 146.92962 170.938479 
L 146.972587 170.368517 
L 147.058522 167.909522 
L 147.101489 169.284005 
L 147.402259 177.82881 
L 147.488193 173.90719 
L 147.574127 175.201271 
L 148.003799 183.770982 
L 148.046766 182.120578 
L 148.089733 181.687642 
L 148.390503 188.161943 
L 148.43347 187.745317 
L 148.519405 184.443218 
L 148.562372 184.987944 
L 149.03501 192.061872 
L 149.120945 190.248151 
L 149.163912 190.890396 
L 149.421715 194.947286 
L 149.464682 194.556894 
L 149.593583 190.952857 
L 149.63655 191.43124 
L 150.023255 196.411321 
L 150.066222 196.295249 
L 150.109189 194.915288 
L 150.195123 195.681114 
L 150.495893 199.427095 
L 150.624795 195.972516 
L 150.753696 197.000934 
L 151.054466 198.992267 
L 151.1404 197.345103 
L 151.183368 197.670229 
L 151.527105 201.633554 
L 151.613039 200.346403 
L 151.656006 199.097902 
L 151.74194 199.524204 
L 152.085678 201.241605 
L 152.171612 199.778615 
L 152.257546 200.416556 
L 152.601283 203.575958 
L 152.687218 201.653169 
L 152.773152 201.857668 
L 153.116889 203.188276 
L 153.202823 201.892064 
L 153.288758 202.477496 
L 153.632495 205.311992 
L 153.718429 203.546918 
L 153.804363 203.619385 
L 154.148101 204.473057 
L 154.277002 202.858157 
L 154.319969 203.164671 
L 154.620739 205.961293 
L 154.663706 205.806002 
L 154.749641 204.131894 
L 154.835575 204.253989 
L 155.093378 205.141768 
L 155.179312 205.487725 
L 155.265246 204.770952 
L 155.308214 205.139257 
L 155.651951 207.849781 
L 155.694918 207.702581 
L 155.780852 206.424871 
L 155.866786 206.625393 
L 156.210524 207.854099 
L 156.253491 207.496878 
L 156.296458 207.364174 
L 156.726129 209.922579 
L 156.812064 208.98633 
L 156.897998 209.108306 
L 157.241735 210.003468 
L 157.284702 209.664088 
L 157.327669 209.628725 
L 157.757341 211.646516 
L 157.843275 211.016178 
L 157.929209 211.108611 
L 158.272947 211.834211 
L 158.315914 211.602379 
L 158.358881 211.336466 
L 158.401848 211.437553 
L 158.788552 212.731143 
L 158.874487 212.121731 
L 158.960421 212.181028 
L 159.304158 212.537357 
L 159.43306 211.924584 
L 159.476027 212.056517 
L 159.776797 212.984816 
L 159.862731 212.578142 
L 159.991632 212.204266 
L 160.292402 212.117563 
L 160.421304 211.52934 
L 160.464271 211.683904 
L 160.850975 212.968844 
L 160.93691 212.91506 
L 161.280647 212.36522 
L 161.366581 211.832644 
L 161.409548 211.857401 
L 161.925154 213.430205 
L 162.054055 213.413343 
L 162.311858 213.310481 
L 162.44076 212.976868 
L 162.483727 213.06796 
L 162.913398 214.068251 
L 163.128234 214.097192 
L 163.386037 214.105144 
L 163.514938 213.989007 
L 163.557906 214.071639 
L 163.94461 214.618742 
L 164.417248 214.561622 
L 164.503183 214.45376 
L 164.54615 214.506125 
L 164.975821 214.934371 
L 165.362526 215.025889 
L 165.577361 214.937908 
L 166.092967 215.192467 
L 167.725719 215.325297 
L 168.542094 215.380343 
L 192.302926 215.256682 
L 192.474795 215.255801 
L 193.033368 215.301075 
L 193.806776 215.305343 
L 194.107546 215.252431 
L 194.365349 215.081267 
L 194.494251 215.093956 
L 194.966889 215.243575 
L 195.611396 214.997712 
L 195.998101 215.16355 
L 196.427772 214.669966 
L 196.470739 214.560771 
L 196.513706 214.596191 
L 196.986345 215.030691 
L 197.115246 214.917197 
L 197.416016 214.535293 
L 197.458984 214.327145 
L 197.544918 214.415181 
L 197.931622 214.861455 
L 198.060524 214.909037 
L 198.361294 214.482806 
L 198.447228 214.390689 
L 198.533162 214.111588 
L 198.576129 214.190074 
L 199.005801 214.839849 
L 199.134702 214.794284 
L 199.478439 214.178949 
L 199.521407 213.866091 
L 199.607341 213.989849 
L 199.994045 214.704187 
L 200.122947 214.802756 
L 200.165914 214.76641 
L 200.552618 214.161599 
L 200.595585 213.992055 
L 200.638552 214.055346 
L 201.068224 214.795286 
L 201.154158 214.764318 
L 201.368994 214.470308 
L 201.540862 214.279399 
L 201.626797 213.883969 
L 201.669764 213.942821 
L 202.099435 214.731993 
L 202.18537 214.68683 
L 202.400205 214.369134 
L 202.48614 214.220877 
L 202.658008 213.549298 
L 202.743943 213.782935 
L 203.130647 214.584799 
L 203.216581 214.618652 
L 203.259548 214.569189 
L 203.603285 214.144172 
L 203.68922 213.767121 
L 203.732187 213.848592 
L 204.161858 214.67536 
L 204.247793 214.67086 
L 204.548563 214.279938 
L 204.634497 214.222965 
L 204.720431 213.880921 
L 204.763398 213.963709 
L 205.19307 214.729971 
L 205.279004 214.728763 
L 205.49384 214.458634 
L 205.665708 214.259135 
L 205.751643 213.9247 
L 205.79461 214.005535 
L 206.224281 214.756775 
L 206.310216 214.768721 
L 206.782854 213.970382 
L 206.825821 214.069606 
L 207.212526 214.740808 
L 207.341427 214.81863 
L 207.685164 214.486944 
L 207.728131 214.463533 
L 207.771099 214.278077 
L 207.857033 214.371169 
L 208.157803 214.723078 
L 208.372639 214.880221 
L 208.544507 214.698748 
L 208.80231 214.529448 
L 208.888244 214.571987 
L 209.317916 215.053806 
L 209.40385 215.039993 
L 209.575719 214.88214 
L 209.833522 214.741655 
L 209.876489 214.654977 
L 209.919456 214.701651 
L 210.349127 215.115598 
L 210.435062 215.067103 
L 210.60693 214.903459 
L 210.864733 214.731494 
L 210.9077 214.661275 
L 210.950667 214.705598 
L 211.380339 215.112161 
L 211.50924 215.06499 
L 211.81001 214.732844 
L 211.895945 214.470989 
L 211.981879 214.566123 
L 212.41155 215.039008 
L 212.583419 215.065625 
L 212.841222 214.761338 
L 212.927156 214.580642 
L 212.970123 214.62347 
L 213.442762 215.095267 
L 213.700565 215.125596 
L 213.9154 214.994037 
L 214.001335 214.918789 
L 214.044302 214.954496 
L 214.51694 215.238411 
L 214.860678 215.194514 
L 215.11848 215.139353 
L 215.634086 215.314095 
L 216.407495 215.313646 
L 216.880133 215.328412 
L 217.137936 215.329741 
L 217.868378 215.379595 
L 218.341016 215.415693 
L 219.715965 215.436224 
L 219.844867 215.344856 
L 224.91499 215.46 
L 291.642967 215.46 
L 291.642967 215.46 
" clip-path="url(#pf8010c9a22)" style="fill: none; stroke: #000000; stroke-linecap: square"/>
   </g>
   <g id="line2d_20">
    <path d="M 221.520585 224.28 
L 221.520585 30.24 
" clip-path="url(#pf8010c9a22)" style="fill: none; stroke-dasharray: 3.7,1.6; stroke-dashoffset: 0; stroke: #000000"/>
   </g>
   <g id="patch_3">
    <path d="M 40.5 224.28 
L 40.5 30.24 
" style="fill: none; stroke: #000000; stroke-width: 0.8; stroke-linejoin: miter; stroke-linecap: square"/>
   </g>
   <g id="patch_4">
    <path d="M 291.6 224.28 
L 291.6 30.24 
" style="fill: none; stroke: #000000; stroke-width: 0.8; stroke-linejoin: miter; stroke-linecap: square"/>
   </g>
   <g id="patch_5">
    <path d="M 40.5 224.28 
L 291.6 224.28 
" style="fill: none; stroke: #000000; stroke-width: 0.8; stroke-linejoin: miter; stroke-linecap: square"/>
   </g>
   <g id="patch_6">
    <path d="M 40.5 30.24 
L 291.6 30.24 
" style="fill: none; stroke: #000000; stroke-width: 0.8; stroke-linejoin: miter; stroke-linecap: square"/>
   </g>
   <g id="legend_1">
    <g id="patch_7">
     <path d="M 47.5 52.385313 
L 101.74375 52.385313 
Q 103.74375 52.385313 103.74375 50.385313 
L 103.74375 37.24 
Q 103.74375 35.24 101.74375 35.24 
L 47.5 35.24 
Q 45.5 35.24 45.5 37.24 
L 45.5 50.385313 
Q 45.5 52.385313 47.5 52.385313 
z
" style="fill: #ffffff; opacity: 0.8; stroke: #cccccc; stroke-linejoin: miter"/>
    </g>
    <g id="line2d_21">
     <path d="M 49.5 42.897813 
L 59.5 42.897813 
L 69.5 42.897813 
" style="fill: none; stroke: #000000; stroke-linecap: square"/>
    </g>
    <g id="text_18">
     <text style="font: 10px 'Arial', sans-serif; text-anchor: start" x="77.5" y="46.397813" transform="rotate(-0 77.5 46.397813)">2006</text>
    </g>
   </g>
  </g>
 </g>
 <defs>
  <clipPath id="pf8010c9a22">
   <rect x="40.5" y="30.24" width="251.1" height="194.04"/>
  </clipPath>
 </defs>
</svg>
