<?xml version="1.0" encoding="utf-8" standalone="no"?>
<!DOCTYPE svg PUBLIC "-//W3C//DTD SVG 1.1//EN"
  "http://www.w3.org/Graphics/SVG/1.1/DTD/svg11.dtd">
<svg xmlns:xlink="http://www.w3.org/1999/xlink" width="324pt" height="252pt" viewBox="0 0 324 252" xmlns="http://www.w3.org/2000/svg" version="1.1">
 <metadata>
  <rdf:RDF xmlns:dc="http://purl.org/dc/elements/1.1/" xmlns:cc="http://creativecommons.org/ns#" xmlns:rdf="http://www.w3.org/1999/02/22-rdf-syntax-ns#">
   <cc:Work>
    <dc:type rdf:resource="http://purl.org/dc/dcmitype/StillImage"/>
    <dc:date>2023-10-13T14:40:29.180768</dc:date>
    <dc:format>image/svg+xml</dc:format>
    <dc:creator>
     <cc:Agent>
      <dc:title>Matplotlib v3.8.0, https://matplotlib.org/</dc:title>
     </cc:Agent>
    </dc:creator>
   </cc:Work>
  </rdf:RDF>
 </metadata>
 <defs>
  <style type="text/css">*{stroke-linejoin: round; stroke-linecap: butt}</style>
 </defs>
 <g id="figure_1">
  <g id="patch_1">
   <path d="M 0 252 
L 324 252 
L 324 0 
L 0 0 
z
" style="fill: #ffffff"/>
  </g>
  <g id="axes_1">
   <g id="patch_2">
    <path d="M 48.6 201.6 
L 307.8 201.6 
L 307.8 25.2 
L 48.6 25.2 
z
" style="fill: #ffffff"/>
   </g>
   <g id="PathCollection_1">
    <defs>
     <path id="m46fd402209" style="stroke: #1f77b4; stroke-opacity: 0.8"/>
    </defs>
    <g clip-path="url(#p0ab90b4a17)">
     <use xlink:href="#m46fd402209" x="235.034975" y="41.784376" style="fill: #1f77b4; fill-opacity: 0.8; stroke: #1f77b4; stroke-opacity: 0.8"/>
     <use xlink:href="#m46fd402209" x="245.108217" y="63.301835" style="fill: #1f77b4; fill-opacity: 0.8; stroke: #1f77b4; stroke-opacity: 0.8"/>
     <use xlink:href="#m46fd402209" x="293.225878" y="82.362158" style="fill: #1f77b4; fill-opacity: 0.8; stroke: #1f77b4; stroke-opacity: 0.8"/>
     <use xlink:href="#m46fd402209" x="253.791561" y="66.87487" style="fill: #1f77b4; fill-opacity: 0.8; stroke: #1f77b4; stroke-opacity: 0.8"/>
     <use xlink:href="#m46fd402209" x="268.143763" y="72.010651" style="fill: #1f77b4; fill-opacity: 0.8; stroke: #1f77b4; stroke-opacity: 0.8"/>
    </g>
   </g>
   <g id="PolyCollection_1">
    <path d="M 235.034975 41.784376 
L 235.034975 59.739079 
L 235.622762 59.958403 
L 236.210549 60.177267 
L 236.798336 60.396131 
L 237.386123 60.614995 
L 237.97391 60.833859 
L 238.561697 61.052722 
L 239.149484 61.271586 
L 239.737271 61.49045 
L 240.325057 61.709314 
L 240.912844 61.928178 
L 241.500631 62.147041 
L 242.088418 62.365905 
L 242.676205 62.584769 
L 243.263992 62.803633 
L 243.851779 63.022497 
L 244.439566 63.241361 
L 245.027353 63.460224 
L 245.61514 63.701032 
L 246.202926 63.921141 
L 246.790713 64.141249 
L 247.3785 64.361358 
L 247.966287 64.587074 
L 248.554074 64.835808 
L 249.141861 65.211025 
L 249.729648 65.669877 
L 250.317435 66.542149 
L 250.905222 67.414421 
L 251.493009 68.286693 
L 252.080795 69.158965 
L 252.668582 70.031237 
L 253.256369 70.903508 
L 253.844156 71.77578 
L 254.431943 72.648052 
L 255.01973 73.520324 
L 255.607517 74.392596 
L 256.195304 75.264868 
L 256.783091 76.13714 
L 257.370878 76.965026 
L 257.958664 77.773641 
L 258.546451 78.582255 
L 259.134238 79.39087 
L 259.722025 80.199485 
L 260.309812 81.008099 
L 260.897599 81.816714 
L 261.485386 82.625328 
L 262.073173 83.433943 
L 262.66096 84.242557 
L 263.248747 85.051172 
L 263.836533 85.859787 
L 264.42432 86.668401 
L 265.012107 87.477016 
L 265.599894 88.28563 
L 266.187681 89.094245 
L 266.775468 89.902859 
L 267.363255 90.711474 
L 267.951042 91.520088 
L 268.538829 92.328703 
L 269.126616 93.137318 
L 269.714402 93.945932 
L 270.302189 94.754547 
L 270.889976 95.563161 
L 271.477763 96.371776 
L 272.06555 97.18039 
L 272.653337 97.989005 
L 273.241124 98.79762 
L 273.828911 99.606234 
L 274.416698 100.414849 
L 275.004484 101.223463 
L 275.592271 102.032078 
L 276.180058 102.840692 
L 276.767845 103.649307 
L 277.355632 104.457922 
L 277.943419 105.273529 
L 278.531206 106.130741 
L 279.118993 106.987953 
L 279.70678 107.845165 
L 280.294567 108.702377 
L 280.882353 109.559589 
L 281.47014 110.416802 
L 282.057927 111.274014 
L 282.645714 112.131226 
L 283.233501 112.988438 
L 283.821288 113.84565 
L 284.409075 114.702862 
L 284.996862 115.560074 
L 285.584649 116.417287 
L 286.172436 117.274499 
L 286.760222 118.131711 
L 287.348009 118.988923 
L 287.935796 119.846135 
L 288.523583 120.703347 
L 289.11137 121.560559 
L 289.699157 122.417772 
L 290.286944 123.274984 
L 290.874731 124.132196 
L 291.462518 124.989408 
L 292.050305 125.84662 
L 292.638091 126.703832 
L 293.225878 127.561044 
L 293.225878 81.493193 
L 293.225878 81.493193 
L 292.638091 81.270974 
L 292.050305 81.048756 
L 291.462518 80.826537 
L 290.874731 80.604318 
L 290.286944 80.312775 
L 289.699157 80.09119 
L 289.11137 79.871537 
L 288.523583 79.651885 
L 287.935796 79.432232 
L 287.348009 79.212579 
L 286.760222 78.992926 
L 286.172436 78.651635 
L 285.584649 78.255213 
L 284.996862 78.04135 
L 284.409075 77.667564 
L 283.821288 77.292957 
L 283.233501 76.91835 
L 282.645714 76.531577 
L 282.057927 76.117737 
L 281.47014 75.703897 
L 280.882353 75.290057 
L 280.294567 74.876217 
L 279.70678 74.462377 
L 279.118993 74.048537 
L 278.531206 73.634696 
L 277.943419 73.220856 
L 277.355632 72.807016 
L 276.767845 72.393176 
L 276.180058 71.979336 
L 275.592271 71.565496 
L 275.004484 71.151656 
L 274.416698 70.737816 
L 273.828911 70.323976 
L 273.241124 69.910136 
L 272.653337 69.496295 
L 272.06555 69.082455 
L 271.477763 68.668615 
L 270.889976 68.254775 
L 270.302189 67.840935 
L 269.714402 67.427095 
L 269.126616 67.013255 
L 268.538829 66.599415 
L 267.951042 66.185575 
L 267.363255 65.771734 
L 266.775468 65.357894 
L 266.187681 64.944054 
L 265.599894 64.530214 
L 265.012107 64.116374 
L 264.42432 63.702534 
L 263.836533 63.288694 
L 263.248747 62.874854 
L 262.66096 62.461014 
L 262.073173 62.047174 
L 261.485386 61.633333 
L 260.897599 61.219493 
L 260.309812 60.805653 
L 259.722025 60.391813 
L 259.134238 59.977973 
L 258.546451 59.564133 
L 257.958664 59.150293 
L 257.370878 58.736453 
L 256.783091 58.322613 
L 256.195304 57.908773 
L 255.607517 57.494932 
L 255.01973 57.081092 
L 254.431943 56.667252 
L 253.844156 56.253412 
L 253.256369 55.839572 
L 252.668582 55.425732 
L 252.080795 55.011892 
L 251.493009 54.598052 
L 250.905222 54.184212 
L 250.317435 53.756815 
L 249.729648 53.324807 
L 249.141861 52.892798 
L 248.554074 52.460789 
L 247.966287 52.028781 
L 247.3785 51.596772 
L 246.790713 51.164763 
L 246.202926 50.732755 
L 245.61514 50.300746 
L 245.027353 49.868738 
L 244.439566 49.436729 
L 243.851779 49.00472 
L 243.263992 48.572712 
L 242.676205 48.140703 
L 242.088418 47.708694 
L 241.500631 47.276686 
L 240.912844 46.844677 
L 240.325057 46.412669 
L 239.737271 45.98066 
L 239.149484 45.548651 
L 238.561697 45.116643 
L 237.97391 44.684634 
L 237.386123 44.252625 
L 236.798336 43.820617 
L 236.210549 43.356929 
L 235.622762 42.570652 
L 235.034975 41.784376 
z
" clip-path="url(#p0ab90b4a17)" style="fill: #a6761d; fill-opacity: 0.15"/>
   </g>
   <g id="PathCollection_2">
    <defs>
     <path id="mdddd9a2318" style="stroke: #ff7f0e; stroke-opacity: 0.8"/>
    </defs>
    <g clip-path="url(#p0ab90b4a17)">
     <use xlink:href="#mdddd9a2318" x="58.9999" y="189.927574" style="fill: #ff7f0e; fill-opacity: 0.8; stroke: #ff7f0e; stroke-opacity: 0.8"/>
     <use xlink:href="#mdddd9a2318" x="270.784659" y="158.788184" style="fill: #ff7f0e; fill-opacity: 0.8; stroke: #ff7f0e; stroke-opacity: 0.8"/>
     <use xlink:href="#mdddd9a2318" x="128.28404" y="176.745881" style="fill: #ff7f0e; fill-opacity: 0.8; stroke: #ff7f0e; stroke-opacity: 0.8"/>
     <use xlink:href="#mdddd9a2318" x="170.022048" y="169.516707" style="fill: #ff7f0e; fill-opacity: 0.8; stroke: #ff7f0e; stroke-opacity: 0.8"/>
     <use xlink:href="#mdddd9a2318" x="195.198356" y="189.930376" style="fill: #ff7f0e; fill-opacity: 0.8; stroke: #ff7f0e; stroke-opacity: 0.8"/>
     <use xlink:href="#mdddd9a2318" x="281.228128" y="177.949496" style="fill: #ff7f0e; fill-opacity: 0.8; stroke: #ff7f0e; stroke-opacity: 0.8"/>
     <use xlink:href="#mdddd9a2318" x="176.417994" y="183.602232" style="fill: #ff7f0e; fill-opacity: 0.8; stroke: #ff7f0e; stroke-opacity: 0.8"/>
     <use xlink:href="#mdddd9a2318" x="231.356574" y="157.553561" style="fill: #ff7f0e; fill-opacity: 0.8; stroke: #ff7f0e; stroke-opacity: 0.8"/>
     <use xlink:href="#mdddd9a2318" x="301.097221" y="118.291592" style="fill: #ff7f0e; fill-opacity: 0.8; stroke: #ff7f0e; stroke-opacity: 0.8"/>
     <use xlink:href="#mdddd9a2318" x="179.375673" y="170.268918" style="fill: #ff7f0e; fill-opacity: 0.8; stroke: #ff7f0e; stroke-opacity: 0.8"/>
     <use xlink:href="#mdddd9a2318" x="277.853119" y="164.425371" style="fill: #ff7f0e; fill-opacity: 0.8; stroke: #ff7f0e; stroke-opacity: 0.8"/>
     <use xlink:href="#mdddd9a2318" x="202.51128" y="183.78931" style="fill: #ff7f0e; fill-opacity: 0.8; stroke: #ff7f0e; stroke-opacity: 0.8"/>
     <use xlink:href="#mdddd9a2318" x="196.288991" y="171.797433" style="fill: #ff7f0e; fill-opacity: 0.8; stroke: #ff7f0e; stroke-opacity: 0.8"/>
    </g>
   </g>
   <g id="PolyCollection_2">
    <path d="M 58.9999 179.537043 
L 58.9999 219.958938 
L 61.445328 219.144925 
L 63.890755 218.288933 
L 66.336183 217.407642 
L 68.78161 216.526351 
L 71.227038 215.64506 
L 73.672465 214.763769 
L 76.117893 213.882478 
L 78.56332 213.001187 
L 81.008747 212.119896 
L 83.454175 211.238604 
L 85.899602 210.384169 
L 88.34503 209.664952 
L 90.790457 208.945735 
L 93.235885 208.226518 
L 95.681312 207.507123 
L 98.12674 206.78661 
L 100.572167 205.962504 
L 103.017595 205.094854 
L 105.463022 204.22716 
L 107.90845 203.359466 
L 110.353877 202.491772 
L 112.799305 201.624077 
L 115.244732 200.89268 
L 117.69016 200.184485 
L 120.135587 199.47629 
L 122.581015 198.721305 
L 125.026442 198.018286 
L 127.47187 197.263653 
L 129.917297 196.431407 
L 132.362725 195.639401 
L 134.808152 194.868091 
L 137.25358 194.270311 
L 139.699007 193.618421 
L 142.144435 192.946266 
L 144.589862 192.271962 
L 147.035289 191.597137 
L 149.480717 190.922312 
L 151.926144 190.245651 
L 154.371572 189.572663 
L 156.816999 188.883374 
L 159.262427 188.180525 
L 161.707854 187.396782 
L 164.153282 186.6241 
L 166.598709 185.940571 
L 169.044137 185.121716 
L 171.489564 184.484253 
L 173.934992 183.852655 
L 176.380419 183.22278 
L 178.825847 182.826704 
L 181.271274 182.157961 
L 183.716702 181.485405 
L 186.162129 180.833538 
L 188.607557 180.461741 
L 191.052984 180.143093 
L 193.498412 179.65682 
L 195.943839 179.43421 
L 198.389267 178.831243 
L 200.834694 178.411443 
L 203.280122 178.122433 
L 205.725549 177.704811 
L 208.170976 177.449182 
L 210.616404 177.213204 
L 213.061831 176.951339 
L 215.507259 176.831884 
L 217.952686 176.716635 
L 220.398114 176.532085 
L 222.843541 176.204905 
L 225.288969 176.011104 
L 227.734396 175.871977 
L 230.179824 175.73379 
L 232.625251 175.59531 
L 235.070679 175.456987 
L 237.516106 175.468195 
L 239.961534 175.482342 
L 242.406961 175.292609 
L 244.852389 175.126619 
L 247.297816 174.946667 
L 249.743244 174.74961 
L 252.188671 174.531357 
L 254.634099 174.350244 
L 257.079526 174.210747 
L 259.524954 174.072784 
L 261.970381 173.935456 
L 264.415809 173.798128 
L 266.861236 173.660801 
L 269.306664 173.523473 
L 271.752091 173.386145 
L 274.197518 173.248817 
L 276.642946 173.11149 
L 279.088373 172.974162 
L 281.533801 172.835652 
L 283.979228 172.803117 
L 286.424656 172.773461 
L 288.870083 172.743806 
L 291.315511 172.623731 
L 293.760938 172.45079 
L 296.206366 172.296041 
L 298.651793 172.147999 
L 301.097221 172.173449 
L 301.097221 134.312799 
L 301.097221 134.312799 
L 298.651793 135.078466 
L 296.206366 135.846033 
L 293.760938 136.61413 
L 291.315511 137.402321 
L 288.870083 138.304035 
L 286.424656 139.082215 
L 283.979228 139.763646 
L 281.533801 140.435364 
L 279.088373 141.207378 
L 276.642946 141.969717 
L 274.197518 142.732643 
L 271.752091 143.501208 
L 269.306664 144.269773 
L 266.861236 145.038338 
L 264.415809 145.885129 
L 261.970381 146.664775 
L 259.524954 147.356726 
L 257.079526 148.100382 
L 254.634099 148.788488 
L 252.188671 149.604711 
L 249.743244 150.342498 
L 247.297816 150.972125 
L 244.852389 151.760735 
L 242.406961 152.357259 
L 239.961534 152.951524 
L 237.516106 153.799023 
L 235.070679 154.599649 
L 232.625251 155.307826 
L 230.179824 156.118154 
L 227.734396 156.915144 
L 225.288969 157.583993 
L 222.843541 158.250699 
L 220.398114 158.926665 
L 217.952686 159.625739 
L 215.507259 160.251767 
L 213.061831 160.887663 
L 210.616404 161.47865 
L 208.170976 162.095802 
L 205.725549 162.71374 
L 203.280122 163.364633 
L 200.834694 163.982293 
L 198.389267 164.607718 
L 195.943839 165.182286 
L 193.498412 165.797395 
L 191.052984 166.42638 
L 188.607557 167.035967 
L 186.162129 167.653131 
L 183.716702 168.184511 
L 181.271274 168.685708 
L 178.825847 169.385001 
L 176.380419 169.893602 
L 173.934992 170.410713 
L 171.489564 170.886907 
L 169.044137 171.396993 
L 166.598709 171.890324 
L 164.153282 172.315622 
L 161.707854 172.799882 
L 159.262427 173.155205 
L 156.816999 173.542834 
L 154.371572 173.896115 
L 151.926144 174.064751 
L 149.480717 174.354067 
L 147.035289 174.804248 
L 144.589862 175.292438 
L 142.144435 175.595377 
L 139.699007 175.739005 
L 137.25358 175.857384 
L 134.808152 175.975764 
L 132.362725 176.094144 
L 129.917297 176.216236 
L 127.47187 176.444803 
L 125.026442 176.616256 
L 122.581015 176.684937 
L 120.135587 176.854945 
L 117.69016 176.988543 
L 115.244732 177.095127 
L 112.799305 177.201809 
L 110.353877 177.309634 
L 107.90845 177.454743 
L 105.463022 177.689996 
L 103.017595 177.92525 
L 100.572167 178.084862 
L 98.12674 178.113535 
L 95.681312 178.142208 
L 93.235885 178.17088 
L 90.790457 178.199553 
L 88.34503 178.268631 
L 85.899602 178.36432 
L 83.454175 178.477663 
L 81.008747 178.581267 
L 78.56332 178.686531 
L 76.117893 178.794427 
L 73.672465 178.860164 
L 71.227038 178.91186 
L 68.78161 179.039539 
L 66.336183 179.204488 
L 63.890755 179.32595 
L 61.445328 179.430867 
L 58.9999 179.537043 
z
" clip-path="url(#p0ab90b4a17)" style="fill: #666666; fill-opacity: 0.15"/>
   </g>
   <g id="PathCollection_3">
    <defs>
     <path id="ma8d0219808" d="M 0 -5 
L -5 5 
L 5 5 
z
" style="stroke: #000000"/>
    </defs>
    <g clip-path="url(#p0ab90b4a17)">
     <use xlink:href="#ma8d0219808" x="301.097221" y="118.291592" style="fill: #d95f02; stroke: #000000"/>
    </g>
   </g>
   <g id="PathCollection_4">
    <defs>
     <path id="m8f5b1c79ca" d="M 0 -5 
L -5 5 
L 5 5 
z
" style="stroke: #000000"/>
    </defs>
    <g clip-path="url(#p0ab90b4a17)">
     <use xlink:href="#m8f5b1c79ca" x="231.356574" y="157.553561" style="fill: #1b9e77; stroke: #000000"/>
    </g>
   </g>
   <g id="PathCollection_5">
    <defs>
     <path id="m3aeed852d5" d="M 0 -5 
L -5 5 
L 5 5 
z
" style="stroke: #000000"/>
    </defs>
    <g clip-path="url(#p0ab90b4a17)">
     <use xlink:href="#m3aeed852d5" x="293.225878" y="82.362158" style="fill: #66a61e; stroke: #000000"/>
    </g>
   </g>
   <g id="PathCollection_6">
    <defs>
     <path id="mbe3d4f24a7" d="M 0 -5 
L -5 5 
L 5 5 
z
" style="stroke: #000000"/>
    </defs>
    <g clip-path="url(#p0ab90b4a17)">
     <use xlink:href="#mbe3d4f24a7" x="281.228128" y="177.949496" style="fill: #7570b3; stroke: #000000"/>
    </g>
   </g>
   <g id="PathCollection_7">
    <defs>
     <path id="m5bce0eb908" d="M 0 -5 
L -5 5 
L 5 5 
z
" style="stroke: #000000"/>
    </defs>
    <g clip-path="url(#p0ab90b4a17)">
     <use xlink:href="#m5bce0eb908" x="176.417994" y="183.602232" style="fill: #e7298a; stroke: #000000"/>
    </g>
   </g>
   <g id="PathCollection_8">
    <defs>
     <path id="m9cfa7bb216" d="M 0 -5 
L -5 5 
L 5 5 
z
" style="stroke: #000000"/>
    </defs>
    <g clip-path="url(#p0ab90b4a17)">
     <use xlink:href="#m9cfa7bb216" x="195.198356" y="189.930376" style="fill: #e6ab02; stroke: #000000"/>
    </g>
   </g>
   <g id="PathCollection_9">
    <defs>
     <path id="m7663e53a35" d="M -0 5 
L 5 -5 
L -5 -5 
z
" style="stroke: #000000"/>
    </defs>
    <g clip-path="url(#p0ab90b4a17)">
     <use xlink:href="#m7663e53a35" x="245.108217" y="63.301835" style="fill: #d95f02; stroke: #000000"/>
    </g>
   </g>
   <g id="PathCollection_10">
    <defs>
     <path id="me02e483ace" d="M -0 5 
L 5 -5 
L -5 -5 
z
" style="stroke: #000000"/>
    </defs>
    <g clip-path="url(#p0ab90b4a17)">
     <use xlink:href="#me02e483ace" x="170.022048" y="169.516707" style="fill: #1b9e77; stroke: #000000"/>
    </g>
   </g>
   <g id="PathCollection_11">
    <defs>
     <path id="m89cc4fa1df" d="M -0 5 
L 5 -5 
L -5 -5 
z
" style="stroke: #000000"/>
    </defs>
    <g clip-path="url(#p0ab90b4a17)">
     <use xlink:href="#m89cc4fa1df" x="235.034975" y="41.784376" style="fill: #66a61e; stroke: #000000"/>
    </g>
   </g>
   <g id="PathCollection_12">
    <defs>
     <path id="m2f9986464c" d="M -0 5 
L 5 -5 
L -5 -5 
z
" style="stroke: #000000"/>
    </defs>
    <g clip-path="url(#p0ab90b4a17)">
     <use xlink:href="#m2f9986464c" x="270.784659" y="158.788184" style="fill: #7570b3; stroke: #000000"/>
    </g>
   </g>
   <g id="PathCollection_13">
    <defs>
     <path id="mdb9551e319" d="M -0 5 
L 5 -5 
L -5 -5 
z
" style="stroke: #000000"/>
    </defs>
    <g clip-path="url(#p0ab90b4a17)">
     <use xlink:href="#mdb9551e319" x="128.28404" y="176.745881" style="fill: #e7298a; stroke: #000000"/>
    </g>
   </g>
   <g id="PathCollection_14">
    <defs>
     <path id="m4b47944c68" d="M -0 5 
L 5 -5 
L -5 -5 
z
" style="stroke: #000000"/>
    </defs>
    <g clip-path="url(#p0ab90b4a17)">
     <use xlink:href="#m4b47944c68" x="58.9999" y="189.927574" style="fill: #e6ab02; stroke: #000000"/>
    </g>
   </g>
   <g id="PathCollection_15">
    <defs>
     <path id="m4eb4558e5a" d="M -5 5 
L 5 5 
L 5 -5 
L -5 -5 
z
" style="stroke: #000000"/>
    </defs>
    <g clip-path="url(#p0ab90b4a17)">
     <use xlink:href="#m4eb4558e5a" x="268.143763" y="72.010651" style="fill: #d95f02; stroke: #000000"/>
    </g>
   </g>
   <g id="PathCollection_16">
    <defs>
     <path id="mc4087a7f20" d="M -5 5 
L 5 5 
L 5 -5 
L -5 -5 
z
" style="stroke: #000000"/>
    </defs>
    <g clip-path="url(#p0ab90b4a17)">
     <use xlink:href="#mc4087a7f20" x="196.288991" y="171.797433" style="fill: #1b9e77; stroke: #000000"/>
    </g>
   </g>
   <g id="PathCollection_17">
    <defs>
     <path id="m1c933e018f" d="M -5 5 
L 5 5 
L 5 -5 
L -5 -5 
z
" style="stroke: #000000"/>
    </defs>
    <g clip-path="url(#p0ab90b4a17)">
     <use xlink:href="#m1c933e018f" x="253.791561" y="66.87487" style="fill: #66a61e; stroke: #000000"/>
    </g>
   </g>
   <g id="PathCollection_18">
    <defs>
     <path id="m08a35f9c62" d="M -5 5 
L 5 5 
L 5 -5 
L -5 -5 
z
" style="stroke: #000000"/>
    </defs>
    <g clip-path="url(#p0ab90b4a17)">
     <use xlink:href="#m08a35f9c62" x="277.853119" y="164.425371" style="fill: #7570b3; stroke: #000000"/>
    </g>
   </g>
   <g id="PathCollection_19">
    <defs>
     <path id="m6f0ca2db3c" d="M -5 5 
L 5 5 
L 5 -5 
L -5 -5 
z
" style="stroke: #000000"/>
    </defs>
    <g clip-path="url(#p0ab90b4a17)">
     <use xlink:href="#m6f0ca2db3c" x="202.51128" y="183.78931" style="fill: #e7298a; stroke: #000000"/>
    </g>
   </g>
   <g id="PathCollection_20">
    <defs>
     <path id="md6395cae82" d="M -5 5 
L 5 5 
L 5 -5 
L -5 -5 
z
" style="stroke: #000000"/>
    </defs>
    <g clip-path="url(#p0ab90b4a17)">
     <use xlink:href="#md6395cae82" x="179.375673" y="170.268918" style="fill: #e6ab02; stroke: #000000"/>
    </g>
   </g>
   <g id="PathCollection_21">
    <defs>
     <path id="m7fd1297810" style="stroke: #2ca02c; stroke-opacity: 0.8"/>
    </defs>
    <g clip-path="url(#p0ab90b4a17)">
     <use xlink:href="#m7fd1297810" x="235.034975" y="41.784376" style="fill: #2ca02c; fill-opacity: 0.8; stroke: #2ca02c; stroke-opacity: 0.8"/>
     <use xlink:href="#m7fd1297810" x="245.108217" y="63.301835" style="fill: #2ca02c; fill-opacity: 0.8; stroke: #2ca02c; stroke-opacity: 0.8"/>
     <use xlink:href="#m7fd1297810" x="293.225878" y="82.362158" style="fill: #2ca02c; fill-opacity: 0.8; stroke: #2ca02c; stroke-opacity: 0.8"/>
     <use xlink:href="#m7fd1297810" x="253.791561" y="66.87487" style="fill: #2ca02c; fill-opacity: 0.8; stroke: #2ca02c; stroke-opacity: 0.8"/>
     <use xlink:href="#m7fd1297810" x="268.143763" y="72.010651" style="fill: #2ca02c; fill-opacity: 0.8; stroke: #2ca02c; stroke-opacity: 0.8"/>
    </g>
   </g>
   <g id="PolyCollection_3">
    <path d="M 235.034975 41.784376 
L 235.034975 59.663473 
L 235.622762 59.883125 
L 236.210549 60.102778 
L 236.798336 60.322431 
L 237.386123 60.542084 
L 237.97391 60.761737 
L 238.561697 60.98139 
L 239.149484 61.201043 
L 239.737271 61.420696 
L 240.325057 61.640348 
L 240.912844 61.860001 
L 241.500631 62.079654 
L 242.088418 62.299307 
L 242.676205 62.51896 
L 243.263992 62.740312 
L 243.851779 62.971157 
L 244.439566 63.202003 
L 245.027353 63.432848 
L 245.61514 63.679088 
L 246.202926 63.897952 
L 246.790713 64.125384 
L 247.3785 64.356229 
L 247.966287 64.587074 
L 248.554074 64.835808 
L 249.141861 65.211025 
L 249.729648 65.669877 
L 250.317435 66.542149 
L 250.905222 67.414421 
L 251.493009 68.286693 
L 252.080795 69.158965 
L 252.668582 70.031237 
L 253.256369 70.903508 
L 253.844156 71.77578 
L 254.431943 72.648052 
L 255.01973 73.520324 
L 255.607517 74.392596 
L 256.195304 75.264868 
L 256.783091 76.13714 
L 257.370878 76.965026 
L 257.958664 77.773641 
L 258.546451 78.582255 
L 259.134238 79.39087 
L 259.722025 80.199485 
L 260.309812 81.008099 
L 260.897599 81.816714 
L 261.485386 82.625328 
L 262.073173 83.433943 
L 262.66096 84.242557 
L 263.248747 85.051172 
L 263.836533 85.859787 
L 264.42432 86.668401 
L 265.012107 87.477016 
L 265.599894 88.28563 
L 266.187681 89.094245 
L 266.775468 89.902859 
L 267.363255 90.711474 
L 267.951042 91.520088 
L 268.538829 92.328703 
L 269.126616 93.137318 
L 269.714402 93.945932 
L 270.302189 94.754547 
L 270.889976 95.563161 
L 271.477763 96.371776 
L 272.06555 97.18039 
L 272.653337 97.989005 
L 273.241124 98.79762 
L 273.828911 99.606234 
L 274.416698 100.414849 
L 275.004484 101.223463 
L 275.592271 102.032078 
L 276.180058 102.840692 
L 276.767845 103.649307 
L 277.355632 104.457922 
L 277.943419 105.266536 
L 278.531206 106.075151 
L 279.118993 106.883765 
L 279.70678 107.69238 
L 280.294567 108.500994 
L 280.882353 109.309609 
L 281.47014 110.118224 
L 282.057927 110.926838 
L 282.645714 111.735453 
L 283.233501 112.544067 
L 283.821288 113.352682 
L 284.409075 114.161296 
L 284.996862 114.969911 
L 285.584649 115.778526 
L 286.172436 116.58714 
L 286.760222 117.395755 
L 287.348009 118.204369 
L 287.935796 119.012984 
L 288.523583 119.821598 
L 289.11137 120.630213 
L 289.699157 121.438828 
L 290.286944 122.247442 
L 290.874731 123.056057 
L 291.462518 123.864671 
L 292.050305 124.673286 
L 292.638091 125.4819 
L 293.225878 126.290515 
L 293.225878 81.493193 
L 293.225878 81.493193 
L 292.638091 81.270974 
L 292.050305 81.048756 
L 291.462518 80.826537 
L 290.874731 80.604318 
L 290.286944 80.312775 
L 289.699157 80.086483 
L 289.11137 79.862591 
L 288.523583 79.643171 
L 287.935796 79.423751 
L 287.348009 79.204331 
L 286.760222 78.984911 
L 286.172436 78.646895 
L 285.584649 78.255125 
L 284.996862 78.04135 
L 284.409075 77.667564 
L 283.821288 77.292957 
L 283.233501 76.91835 
L 282.645714 76.531577 
L 282.057927 76.117737 
L 281.47014 75.703897 
L 280.882353 75.290057 
L 280.294567 74.876217 
L 279.70678 74.462377 
L 279.118993 74.048537 
L 278.531206 73.634696 
L 277.943419 73.220856 
L 277.355632 72.807016 
L 276.767845 72.393176 
L 276.180058 71.979336 
L 275.592271 71.565496 
L 275.004484 71.151656 
L 274.416698 70.737816 
L 273.828911 70.323976 
L 273.241124 69.910136 
L 272.653337 69.496295 
L 272.06555 69.082455 
L 271.477763 68.668615 
L 270.889976 68.254775 
L 270.302189 67.840935 
L 269.714402 67.427095 
L 269.126616 67.013255 
L 268.538829 66.599415 
L 267.951042 66.185575 
L 267.363255 65.771734 
L 266.775468 65.357894 
L 266.187681 64.944054 
L 265.599894 64.530214 
L 265.012107 64.116374 
L 264.42432 63.702534 
L 263.836533 63.288694 
L 263.248747 62.874854 
L 262.66096 62.461014 
L 262.073173 62.047174 
L 261.485386 61.633333 
L 260.897599 61.219493 
L 260.309812 60.805653 
L 259.722025 60.391813 
L 259.134238 59.977973 
L 258.546451 59.564133 
L 257.958664 59.150293 
L 257.370878 58.736453 
L 256.783091 58.322613 
L 256.195304 57.908773 
L 255.607517 57.494932 
L 255.01973 57.081092 
L 254.431943 56.667252 
L 253.844156 56.253412 
L 253.256369 55.839572 
L 252.668582 55.425732 
L 252.080795 55.011892 
L 251.493009 54.598052 
L 250.905222 54.184212 
L 250.317435 53.770371 
L 249.729648 53.356531 
L 249.141861 52.942691 
L 248.554074 52.528851 
L 247.966287 52.115011 
L 247.3785 51.701171 
L 246.790713 51.287331 
L 246.202926 50.873491 
L 245.61514 50.459651 
L 245.027353 50.045811 
L 244.439566 49.63197 
L 243.851779 49.21813 
L 243.263992 48.80429 
L 242.676205 48.39045 
L 242.088418 47.97661 
L 241.500631 47.56277 
L 240.912844 47.14893 
L 240.325057 46.613894 
L 239.737271 46.077281 
L 239.149484 45.548651 
L 238.561697 45.116643 
L 237.97391 44.684634 
L 237.386123 44.252625 
L 236.798336 43.820617 
L 236.210549 43.356929 
L 235.622762 42.570652 
L 235.034975 41.784376 
z
" clip-path="url(#p0ab90b4a17)" style="fill: #a6761d; fill-opacity: 0.15"/>
   </g>
   <g id="PathCollection_22">
    <defs>
     <path id="m6431839ce7" style="stroke: #d62728; stroke-opacity: 0.8"/>
    </defs>
    <g clip-path="url(#p0ab90b4a17)">
     <use xlink:href="#m6431839ce7" x="58.9999" y="189.927574" style="fill: #d62728; fill-opacity: 0.8; stroke: #d62728; stroke-opacity: 0.8"/>
     <use xlink:href="#m6431839ce7" x="270.784659" y="158.788184" style="fill: #d62728; fill-opacity: 0.8; stroke: #d62728; stroke-opacity: 0.8"/>
     <use xlink:href="#m6431839ce7" x="128.28404" y="176.745881" style="fill: #d62728; fill-opacity: 0.8; stroke: #d62728; stroke-opacity: 0.8"/>
     <use xlink:href="#m6431839ce7" x="170.022048" y="169.516707" style="fill: #d62728; fill-opacity: 0.8; stroke: #d62728; stroke-opacity: 0.8"/>
     <use xlink:href="#m6431839ce7" x="195.198356" y="189.930376" style="fill: #d62728; fill-opacity: 0.8; stroke: #d62728; stroke-opacity: 0.8"/>
     <use xlink:href="#m6431839ce7" x="281.228128" y="177.949496" style="fill: #d62728; fill-opacity: 0.8; stroke: #d62728; stroke-opacity: 0.8"/>
     <use xlink:href="#m6431839ce7" x="176.417994" y="183.602232" style="fill: #d62728; fill-opacity: 0.8; stroke: #d62728; stroke-opacity: 0.8"/>
     <use xlink:href="#m6431839ce7" x="231.356574" y="157.553561" style="fill: #d62728; fill-opacity: 0.8; stroke: #d62728; stroke-opacity: 0.8"/>
     <use xlink:href="#m6431839ce7" x="301.097221" y="118.291592" style="fill: #d62728; fill-opacity: 0.8; stroke: #d62728; stroke-opacity: 0.8"/>
     <use xlink:href="#m6431839ce7" x="179.375673" y="170.268918" style="fill: #d62728; fill-opacity: 0.8; stroke: #d62728; stroke-opacity: 0.8"/>
     <use xlink:href="#m6431839ce7" x="277.853119" y="164.425371" style="fill: #d62728; fill-opacity: 0.8; stroke: #d62728; stroke-opacity: 0.8"/>
     <use xlink:href="#m6431839ce7" x="202.51128" y="183.78931" style="fill: #d62728; fill-opacity: 0.8; stroke: #d62728; stroke-opacity: 0.8"/>
     <use xlink:href="#m6431839ce7" x="196.288991" y="171.797433" style="fill: #d62728; fill-opacity: 0.8; stroke: #d62728; stroke-opacity: 0.8"/>
    </g>
   </g>
   <g id="PolyCollection_4">
    <path d="M 58.9999 180.003399 
L 58.9999 223.117401 
L 61.445328 222.312352 
L 63.890755 221.507303 
L 66.336183 220.702254 
L 68.78161 219.897205 
L 71.227038 219.092156 
L 73.672465 218.287107 
L 76.117893 217.482058 
L 78.56332 216.676269 
L 81.008747 215.869894 
L 83.454175 215.063411 
L 85.899602 214.136128 
L 88.34503 213.203217 
L 90.790457 212.270306 
L 93.235885 211.337395 
L 95.681312 210.546252 
L 98.12674 209.792136 
L 100.572167 209.028306 
L 103.017595 208.116436 
L 105.463022 207.30311 
L 107.90845 206.442998 
L 110.353877 205.582885 
L 112.799305 204.719628 
L 115.244732 203.85432 
L 117.69016 202.989012 
L 120.135587 202.123704 
L 122.581015 201.31888 
L 125.026442 200.436906 
L 127.47187 199.531301 
L 129.917297 198.679745 
L 132.362725 197.807569 
L 134.808152 196.948932 
L 137.25358 196.090296 
L 139.699007 195.23166 
L 142.144435 194.404464 
L 144.589862 193.684909 
L 147.035289 193.003278 
L 149.480717 192.361234 
L 151.926144 191.561216 
L 154.371572 190.579998 
L 156.816999 189.565818 
L 159.262427 188.766394 
L 161.707854 188.121402 
L 164.153282 187.480506 
L 166.598709 186.843896 
L 169.044137 186.11211 
L 171.489564 185.499335 
L 173.934992 184.696037 
L 176.380419 183.854057 
L 178.825847 182.93149 
L 181.271274 182.374014 
L 183.716702 181.774383 
L 186.162129 181.166173 
L 188.607557 180.590597 
L 191.052984 180.041089 
L 193.498412 179.692854 
L 195.943839 179.320507 
L 198.389267 178.809331 
L 200.834694 178.240611 
L 203.280122 177.977125 
L 205.725549 177.700021 
L 208.170976 177.431295 
L 210.616404 177.206324 
L 213.061831 177.033618 
L 215.507259 176.859326 
L 217.952686 176.575444 
L 220.398114 176.42826 
L 222.843541 176.250258 
L 225.288969 176.037737 
L 227.734396 175.838388 
L 230.179824 175.656989 
L 232.625251 175.47559 
L 235.070679 175.381332 
L 237.516106 175.31814 
L 239.961534 175.263703 
L 242.406961 175.086148 
L 244.852389 174.906321 
L 247.297816 174.738451 
L 249.743244 174.639142 
L 252.188671 174.483325 
L 254.634099 174.391103 
L 257.079526 174.237573 
L 259.524954 174.074869 
L 261.970381 173.91841 
L 264.415809 173.802111 
L 266.861236 173.686415 
L 269.306664 173.519399 
L 271.752091 173.39791 
L 274.197518 173.340709 
L 276.642946 173.163605 
L 279.088373 173.023379 
L 281.533801 172.886967 
L 283.979228 172.715534 
L 286.424656 172.542694 
L 288.870083 172.386048 
L 291.315511 172.242419 
L 293.760938 172.065931 
L 296.206366 171.921327 
L 298.651793 171.776723 
L 301.097221 171.632119 
L 301.097221 133.895298 
L 301.097221 133.895298 
L 298.651793 134.597938 
L 296.206366 135.317011 
L 293.760938 136.058338 
L 291.315511 136.768254 
L 288.870083 137.443483 
L 286.424656 138.241817 
L 283.979228 139.040265 
L 281.533801 139.801217 
L 279.088373 140.488324 
L 276.642946 141.22754 
L 274.197518 142.022077 
L 271.752091 142.856346 
L 269.306664 143.69252 
L 266.861236 144.652536 
L 264.415809 145.456188 
L 261.970381 146.346816 
L 259.524954 147.078506 
L 257.079526 147.891971 
L 254.634099 148.642338 
L 252.188671 149.461903 
L 249.743244 150.209387 
L 247.297816 150.989346 
L 244.852389 151.611363 
L 242.406961 152.296167 
L 239.961534 152.958271 
L 237.516106 153.703455 
L 235.070679 154.452286 
L 232.625251 155.369697 
L 230.179824 156.035804 
L 227.734396 156.759587 
L 225.288969 157.497973 
L 222.843541 158.232846 
L 220.398114 158.866373 
L 217.952686 159.538019 
L 215.507259 160.159417 
L 213.061831 160.761611 
L 210.616404 161.41254 
L 208.170976 162.001909 
L 205.725549 162.589376 
L 203.280122 163.180785 
L 200.834694 163.771544 
L 198.389267 164.373479 
L 195.943839 165.125034 
L 193.498412 165.772139 
L 191.052984 166.353449 
L 188.607557 166.922493 
L 186.162129 167.470214 
L 183.716702 168.057562 
L 181.271274 168.609403 
L 178.825847 169.193983 
L 176.380419 169.794176 
L 173.934992 170.388029 
L 171.489564 170.939257 
L 169.044137 171.534996 
L 166.598709 172.030493 
L 164.153282 172.540378 
L 161.707854 172.888812 
L 159.262427 173.118297 
L 156.816999 173.476057 
L 154.371572 173.82993 
L 151.926144 174.203622 
L 149.480717 174.44583 
L 147.035289 174.789129 
L 144.589862 175.016508 
L 142.144435 175.330203 
L 139.699007 175.618139 
L 137.25358 175.749834 
L 134.808152 175.888833 
L 132.362725 175.979426 
L 129.917297 176.269964 
L 127.47187 176.590007 
L 125.026442 176.515174 
L 122.581015 176.69808 
L 120.135587 176.941005 
L 117.69016 177.167593 
L 115.244732 177.261962 
L 112.799305 177.431294 
L 110.353877 177.547406 
L 107.90845 177.666984 
L 105.463022 177.84497 
L 103.017595 177.944261 
L 100.572167 178.03621 
L 98.12674 178.128478 
L 95.681312 178.221695 
L 93.235885 178.314911 
L 90.790457 178.408128 
L 88.34503 178.501345 
L 85.899602 178.594562 
L 83.454175 178.687779 
L 81.008747 178.781603 
L 78.56332 178.875942 
L 76.117893 179.012896 
L 73.672465 179.154396 
L 71.227038 179.295897 
L 68.78161 179.437397 
L 66.336183 179.578898 
L 63.890755 179.720398 
L 61.445328 179.861898 
L 58.9999 180.003399 
z
" clip-path="url(#p0ab90b4a17)" style="fill: #666666; fill-opacity: 0.15"/>
   </g>
   <g id="PathCollection_23">
    <g clip-path="url(#p0ab90b4a17)">
     <use xlink:href="#ma8d0219808" x="301.097221" y="118.291592" style="fill: #d95f02; stroke: #000000"/>
    </g>
   </g>
   <g id="PathCollection_24">
    <g clip-path="url(#p0ab90b4a17)">
     <use xlink:href="#m8f5b1c79ca" x="231.356574" y="157.553561" style="fill: #1b9e77; stroke: #000000"/>
    </g>
   </g>
   <g id="PathCollection_25">
    <g clip-path="url(#p0ab90b4a17)">
     <use xlink:href="#m3aeed852d5" x="293.225878" y="82.362158" style="fill: #66a61e; stroke: #000000"/>
    </g>
   </g>
   <g id="PathCollection_26">
    <g clip-path="url(#p0ab90b4a17)">
     <use xlink:href="#mbe3d4f24a7" x="281.228128" y="177.949496" style="fill: #7570b3; stroke: #000000"/>
    </g>
   </g>
   <g id="PathCollection_27">
    <g clip-path="url(#p0ab90b4a17)">
     <use xlink:href="#m5bce0eb908" x="176.417994" y="183.602232" style="fill: #e7298a; stroke: #000000"/>
    </g>
   </g>
   <g id="PathCollection_28">
    <g clip-path="url(#p0ab90b4a17)">
     <use xlink:href="#m9cfa7bb216" x="195.198356" y="189.930376" style="fill: #e6ab02; stroke: #000000"/>
    </g>
   </g>
   <g id="PathCollection_29">
    <g clip-path="url(#p0ab90b4a17)">
     <use xlink:href="#m7663e53a35" x="245.108217" y="63.301835" style="fill: #d95f02; stroke: #000000"/>
    </g>
   </g>
   <g id="PathCollection_30">
    <g clip-path="url(#p0ab90b4a17)">
     <use xlink:href="#me02e483ace" x="170.022048" y="169.516707" style="fill: #1b9e77; stroke: #000000"/>
    </g>
   </g>
   <g id="PathCollection_31">
    <g clip-path="url(#p0ab90b4a17)">
     <use xlink:href="#m89cc4fa1df" x="235.034975" y="41.784376" style="fill: #66a61e; stroke: #000000"/>
    </g>
   </g>
   <g id="PathCollection_32">
    <g clip-path="url(#p0ab90b4a17)">
     <use xlink:href="#m2f9986464c" x="270.784659" y="158.788184" style="fill: #7570b3; stroke: #000000"/>
    </g>
   </g>
   <g id="PathCollection_33">
    <g clip-path="url(#p0ab90b4a17)">
     <use xlink:href="#mdb9551e319" x="128.28404" y="176.745881" style="fill: #e7298a; stroke: #000000"/>
    </g>
   </g>
   <g id="PathCollection_34">
    <g clip-path="url(#p0ab90b4a17)">
     <use xlink:href="#m4b47944c68" x="58.9999" y="189.927574" style="fill: #e6ab02; stroke: #000000"/>
    </g>
   </g>
   <g id="PathCollection_35">
    <g clip-path="url(#p0ab90b4a17)">
     <use xlink:href="#m4eb4558e5a" x="268.143763" y="72.010651" style="fill: #d95f02; stroke: #000000"/>
    </g>
   </g>
   <g id="PathCollection_36">
    <g clip-path="url(#p0ab90b4a17)">
     <use xlink:href="#mc4087a7f20" x="196.288991" y="171.797433" style="fill: #1b9e77; stroke: #000000"/>
    </g>
   </g>
   <g id="PathCollection_37">
    <g clip-path="url(#p0ab90b4a17)">
     <use xlink:href="#m1c933e018f" x="253.791561" y="66.87487" style="fill: #66a61e; stroke: #000000"/>
    </g>
   </g>
   <g id="PathCollection_38">
    <g clip-path="url(#p0ab90b4a17)">
     <use xlink:href="#m08a35f9c62" x="277.853119" y="164.425371" style="fill: #7570b3; stroke: #000000"/>
    </g>
   </g>
   <g id="PathCollection_39">
    <g clip-path="url(#p0ab90b4a17)">
     <use xlink:href="#m6f0ca2db3c" x="202.51128" y="183.78931" style="fill: #e7298a; stroke: #000000"/>
    </g>
   </g>
   <g id="PathCollection_40">
    <g clip-path="url(#p0ab90b4a17)">
     <use xlink:href="#md6395cae82" x="179.375673" y="170.268918" style="fill: #e6ab02; stroke: #000000"/>
    </g>
   </g>
   <g id="PathCollection_41">
    <defs>
     <path id="mbcfb2a5f31" style="stroke: #9467bd; stroke-opacity: 0.8"/>
    </defs>
    <g clip-path="url(#p0ab90b4a17)">
     <use xlink:href="#mbcfb2a5f31" x="235.034975" y="41.784376" style="fill: #9467bd; fill-opacity: 0.8; stroke: #9467bd; stroke-opacity: 0.8"/>
     <use xlink:href="#mbcfb2a5f31" x="245.108217" y="63.301835" style="fill: #9467bd; fill-opacity: 0.8; stroke: #9467bd; stroke-opacity: 0.8"/>
     <use xlink:href="#mbcfb2a5f31" x="293.225878" y="82.362158" style="fill: #9467bd; fill-opacity: 0.8; stroke: #9467bd; stroke-opacity: 0.8"/>
     <use xlink:href="#mbcfb2a5f31" x="253.791561" y="66.87487" style="fill: #9467bd; fill-opacity: 0.8; stroke: #9467bd; stroke-opacity: 0.8"/>
     <use xlink:href="#mbcfb2a5f31" x="268.143763" y="72.010651" style="fill: #9467bd; fill-opacity: 0.8; stroke: #9467bd; stroke-opacity: 0.8"/>
    </g>
   </g>
   <g id="PolyCollection_5">
    <path d="M 235.034975 41.784376 
L 235.034975 59.739079 
L 235.622762 59.958403 
L 236.210549 60.177267 
L 236.798336 60.396131 
L 237.386123 60.614995 
L 237.97391 60.833859 
L 238.561697 61.052722 
L 239.149484 61.271586 
L 239.737271 61.49045 
L 240.325057 61.709314 
L 240.912844 61.928178 
L 241.500631 62.147041 
L 242.088418 62.365905 
L 242.676205 62.584769 
L 243.263992 62.803633 
L 243.851779 63.022497 
L 244.439566 63.241361 
L 245.027353 63.460224 
L 245.61514 63.701032 
L 246.202926 63.921141 
L 246.790713 64.141249 
L 247.3785 64.361358 
L 247.966287 64.581607 
L 248.554074 64.817919 
L 249.141861 65.048764 
L 249.729648 65.421359 
L 250.317435 65.631692 
L 250.905222 65.842025 
L 251.493009 66.698982 
L 252.080795 67.556194 
L 252.668582 68.413407 
L 253.256369 69.270619 
L 253.844156 70.127831 
L 254.431943 70.985043 
L 255.01973 71.842255 
L 255.607517 72.699467 
L 256.195304 73.556679 
L 256.783091 74.413892 
L 257.370878 75.271104 
L 257.958664 76.128316 
L 258.546451 76.985528 
L 259.134238 77.84274 
L 259.722025 78.699952 
L 260.309812 79.557164 
L 260.897599 80.414377 
L 261.485386 81.271589 
L 262.073173 82.128801 
L 262.66096 82.986013 
L 263.248747 83.843225 
L 263.836533 84.700437 
L 264.42432 85.557649 
L 265.012107 86.414862 
L 265.599894 87.272074 
L 266.187681 88.129286 
L 266.775468 88.986498 
L 267.363255 89.84371 
L 267.951042 90.700922 
L 268.538829 91.558134 
L 269.126616 92.415347 
L 269.714402 93.272559 
L 270.302189 94.129771 
L 270.889976 94.986983 
L 271.477763 95.844195 
L 272.06555 96.701407 
L 272.653337 97.558619 
L 273.241124 98.415832 
L 273.828911 99.273044 
L 274.416698 100.130256 
L 275.004484 100.987468 
L 275.592271 101.84468 
L 276.180058 102.701892 
L 276.767845 103.559104 
L 277.355632 104.416317 
L 277.943419 105.273529 
L 278.531206 106.130741 
L 279.118993 106.987953 
L 279.70678 107.845165 
L 280.294567 108.702377 
L 280.882353 109.559589 
L 281.47014 110.416802 
L 282.057927 111.274014 
L 282.645714 112.131226 
L 283.233501 112.988438 
L 283.821288 113.84565 
L 284.409075 114.702862 
L 284.996862 115.560074 
L 285.584649 116.417287 
L 286.172436 117.274499 
L 286.760222 118.131711 
L 287.348009 118.988923 
L 287.935796 119.846135 
L 288.523583 120.703347 
L 289.11137 121.560559 
L 289.699157 122.417772 
L 290.286944 123.274984 
L 290.874731 124.132196 
L 291.462518 124.989408 
L 292.050305 125.84662 
L 292.638091 126.703832 
L 293.225878 127.561044 
L 293.225878 81.493193 
L 293.225878 81.493193 
L 292.638091 81.270974 
L 292.050305 81.048756 
L 291.462518 80.826537 
L 290.874731 80.604318 
L 290.286944 80.312775 
L 289.699157 80.093875 
L 289.11137 79.875011 
L 288.523583 79.656147 
L 287.935796 79.437284 
L 287.348009 79.21842 
L 286.760222 78.999556 
L 286.172436 78.773273 
L 285.584649 78.416778 
L 284.996862 78.042171 
L 284.409075 77.705017 
L 283.821288 77.359257 
L 283.233501 76.945417 
L 282.645714 76.531577 
L 282.057927 76.117737 
L 281.47014 75.703897 
L 280.882353 75.290057 
L 280.294567 74.876217 
L 279.70678 74.462377 
L 279.118993 74.048537 
L 278.531206 73.634696 
L 277.943419 73.220856 
L 277.355632 72.807016 
L 276.767845 72.393176 
L 276.180058 71.979336 
L 275.592271 71.565496 
L 275.004484 71.151656 
L 274.416698 70.737816 
L 273.828911 70.326761 
L 273.241124 69.930338 
L 272.653337 69.533915 
L 272.06555 69.137493 
L 271.477763 68.74107 
L 270.889976 68.344647 
L 270.302189 67.948225 
L 269.714402 67.551802 
L 269.126616 67.15538 
L 268.538829 66.758957 
L 267.951042 66.362534 
L 267.363255 65.966112 
L 266.775468 65.569689 
L 266.187681 65.173267 
L 265.599894 64.776844 
L 265.012107 64.380421 
L 264.42432 63.983999 
L 263.836533 63.587576 
L 263.248747 63.191153 
L 262.66096 62.794731 
L 262.073173 62.396988 
L 261.485386 61.964979 
L 260.897599 61.53297 
L 260.309812 61.100962 
L 259.722025 60.668953 
L 259.134238 60.236944 
L 258.546451 59.804936 
L 257.958664 59.372927 
L 257.370878 58.940919 
L 256.783091 58.50891 
L 256.195304 58.076901 
L 255.607517 57.644893 
L 255.01973 57.212884 
L 254.431943 56.780875 
L 253.844156 56.348867 
L 253.256369 55.916858 
L 252.668582 55.48485 
L 252.080795 55.052841 
L 251.493009 54.620832 
L 250.905222 54.188824 
L 250.317435 53.770371 
L 249.729648 53.356531 
L 249.141861 52.942691 
L 248.554074 52.528851 
L 247.966287 52.115011 
L 247.3785 51.701171 
L 246.790713 51.287331 
L 246.202926 50.873491 
L 245.61514 50.459651 
L 245.027353 50.045811 
L 244.439566 49.63197 
L 243.851779 49.21813 
L 243.263992 48.80429 
L 242.676205 48.39045 
L 242.088418 47.97661 
L 241.500631 47.56277 
L 240.912844 47.14893 
L 240.325057 46.613894 
L 239.737271 46.077281 
L 239.149484 45.548651 
L 238.561697 45.116643 
L 237.97391 44.684634 
L 237.386123 44.252625 
L 236.798336 43.820617 
L 236.210549 43.356929 
L 235.622762 42.570652 
L 235.034975 41.784376 
z
" clip-path="url(#p0ab90b4a17)" style="fill: #a6761d; fill-opacity: 0.15"/>
   </g>
   <g id="PathCollection_42">
    <defs>
     <path id="m67ca894783" style="stroke: #8c564b; stroke-opacity: 0.8"/>
    </defs>
    <g clip-path="url(#p0ab90b4a17)">
     <use xlink:href="#m67ca894783" x="58.9999" y="189.927574" style="fill: #8c564b; fill-opacity: 0.8; stroke: #8c564b; stroke-opacity: 0.8"/>
     <use xlink:href="#m67ca894783" x="270.784659" y="158.788184" style="fill: #8c564b; fill-opacity: 0.8; stroke: #8c564b; stroke-opacity: 0.8"/>
     <use xlink:href="#m67ca894783" x="128.28404" y="176.745881" style="fill: #8c564b; fill-opacity: 0.8; stroke: #8c564b; stroke-opacity: 0.8"/>
     <use xlink:href="#m67ca894783" x="170.022048" y="169.516707" style="fill: #8c564b; fill-opacity: 0.8; stroke: #8c564b; stroke-opacity: 0.8"/>
     <use xlink:href="#m67ca894783" x="195.198356" y="189.930376" style="fill: #8c564b; fill-opacity: 0.8; stroke: #8c564b; stroke-opacity: 0.8"/>
     <use xlink:href="#m67ca894783" x="281.228128" y="177.949496" style="fill: #8c564b; fill-opacity: 0.8; stroke: #8c564b; stroke-opacity: 0.8"/>
     <use xlink:href="#m67ca894783" x="176.417994" y="183.602232" style="fill: #8c564b; fill-opacity: 0.8; stroke: #8c564b; stroke-opacity: 0.8"/>
     <use xlink:href="#m67ca894783" x="231.356574" y="157.553561" style="fill: #8c564b; fill-opacity: 0.8; stroke: #8c564b; stroke-opacity: 0.8"/>
     <use xlink:href="#m67ca894783" x="301.097221" y="118.291592" style="fill: #8c564b; fill-opacity: 0.8; stroke: #8c564b; stroke-opacity: 0.8"/>
     <use xlink:href="#m67ca894783" x="179.375673" y="170.268918" style="fill: #8c564b; fill-opacity: 0.8; stroke: #8c564b; stroke-opacity: 0.8"/>
     <use xlink:href="#m67ca894783" x="277.853119" y="164.425371" style="fill: #8c564b; fill-opacity: 0.8; stroke: #8c564b; stroke-opacity: 0.8"/>
     <use xlink:href="#m67ca894783" x="202.51128" y="183.78931" style="fill: #8c564b; fill-opacity: 0.8; stroke: #8c564b; stroke-opacity: 0.8"/>
     <use xlink:href="#m67ca894783" x="196.288991" y="171.797433" style="fill: #8c564b; fill-opacity: 0.8; stroke: #8c564b; stroke-opacity: 0.8"/>
    </g>
   </g>
   <g id="PolyCollection_6">
    <path d="M 58.9999 180.201923 
L 58.9999 222.044034 
L 61.445328 221.216205 
L 63.890755 220.388376 
L 66.336183 219.560548 
L 68.78161 218.732719 
L 71.227038 217.90489 
L 73.672465 217.077062 
L 76.117893 216.249233 
L 78.56332 215.421404 
L 81.008747 214.590939 
L 83.454175 213.758799 
L 85.899602 212.864875 
L 88.34503 211.997938 
L 90.790457 211.031287 
L 93.235885 210.062585 
L 95.681312 209.093884 
L 98.12674 208.276763 
L 100.572167 207.491973 
L 103.017595 206.701907 
L 105.463022 205.873215 
L 107.90845 204.99983 
L 110.353877 204.194824 
L 112.799305 203.389817 
L 115.244732 202.58481 
L 117.69016 201.779803 
L 120.135587 200.974797 
L 122.581015 200.16979 
L 125.026442 199.364345 
L 127.47187 198.553255 
L 129.917297 197.706467 
L 132.362725 196.943586 
L 134.808152 196.081686 
L 137.25358 195.116211 
L 139.699007 194.435363 
L 142.144435 193.719683 
L 144.589862 192.916445 
L 147.035289 192.110315 
L 149.480717 191.303622 
L 151.926144 190.496536 
L 154.371572 189.691927 
L 156.816999 188.885797 
L 159.262427 188.12857 
L 161.707854 187.317302 
L 164.153282 186.632711 
L 166.598709 185.909747 
L 169.044137 185.171155 
L 171.489564 184.430896 
L 173.934992 183.690298 
L 176.380419 182.947865 
L 178.825847 182.354858 
L 181.271274 181.652666 
L 183.716702 181.129748 
L 186.162129 180.563848 
L 188.607557 180.097961 
L 191.052984 179.624025 
L 193.498412 179.261096 
L 195.943839 178.939539 
L 198.389267 178.626826 
L 200.834694 178.414478 
L 203.280122 178.105949 
L 205.725549 177.874601 
L 208.170976 177.622788 
L 210.616404 177.456162 
L 213.061831 177.198587 
L 215.507259 176.96233 
L 217.952686 176.846658 
L 220.398114 176.682278 
L 222.843541 176.521232 
L 225.288969 176.377874 
L 227.734396 176.243382 
L 230.179824 176.028067 
L 232.625251 175.81288 
L 235.070679 175.679349 
L 237.516106 175.518743 
L 239.961534 175.431375 
L 242.406961 175.300874 
L 244.852389 175.108425 
L 247.297816 175.054232 
L 249.743244 174.892824 
L 252.188671 174.78275 
L 254.634099 174.676914 
L 257.079526 174.508644 
L 259.524954 174.331798 
L 261.970381 174.154952 
L 264.415809 173.978106 
L 266.861236 173.80126 
L 269.306664 173.666983 
L 271.752091 173.536038 
L 274.197518 173.37572 
L 276.642946 173.296723 
L 279.088373 173.22616 
L 281.533801 173.079103 
L 283.979228 172.97886 
L 286.424656 172.815449 
L 288.870083 172.650934 
L 291.315511 172.48642 
L 293.760938 172.321905 
L 296.206366 172.157391 
L 298.651793 171.992876 
L 301.097221 171.828361 
L 301.097221 133.542513 
L 301.097221 133.542513 
L 298.651793 134.338856 
L 296.206366 135.134209 
L 293.760938 136.012038 
L 291.315511 136.891458 
L 288.870083 137.717055 
L 286.424656 138.456413 
L 283.979228 139.195899 
L 281.533801 139.936953 
L 279.088373 140.678006 
L 276.642946 141.51711 
L 274.197518 142.393485 
L 271.752091 143.266909 
L 269.306664 144.10803 
L 266.861236 144.829832 
L 264.415809 145.611542 
L 261.970381 146.594115 
L 259.524954 147.452152 
L 257.079526 148.30238 
L 254.634099 149.021514 
L 252.188671 149.740647 
L 249.743244 150.45978 
L 247.297816 151.178914 
L 244.852389 151.888595 
L 242.406961 152.623789 
L 239.961534 153.260238 
L 237.516106 153.994894 
L 235.070679 154.634875 
L 232.625251 155.382504 
L 230.179824 155.963114 
L 227.734396 156.608898 
L 225.288969 157.521673 
L 222.843541 158.304739 
L 220.398114 159.008162 
L 217.952686 159.703027 
L 215.507259 160.477494 
L 213.061831 161.146617 
L 210.616404 161.717791 
L 208.170976 162.33275 
L 205.725549 163.123425 
L 203.280122 163.698632 
L 200.834694 164.326568 
L 198.389267 164.947403 
L 195.943839 165.610657 
L 193.498412 166.272885 
L 191.052984 166.733564 
L 188.607557 167.253819 
L 186.162129 167.868135 
L 183.716702 168.480161 
L 181.271274 169.008728 
L 178.825847 169.633308 
L 176.380419 170.231431 
L 173.934992 170.571911 
L 171.489564 170.976389 
L 169.044137 171.599837 
L 166.598709 171.959062 
L 164.153282 172.545571 
L 161.707854 172.843385 
L 159.262427 173.090755 
L 156.816999 173.581856 
L 154.371572 173.951924 
L 151.926144 174.332279 
L 149.480717 174.696637 
L 147.035289 175.030397 
L 144.589862 175.268085 
L 142.144435 175.533675 
L 139.699007 175.775671 
L 137.25358 176.067775 
L 134.808152 176.237443 
L 132.362725 176.385195 
L 129.917297 176.608343 
L 127.47187 176.832945 
L 125.026442 177.005209 
L 122.581015 177.055566 
L 120.135587 177.180828 
L 117.69016 177.423286 
L 115.244732 177.615552 
L 112.799305 177.790356 
L 110.353877 177.90651 
L 107.90845 177.976567 
L 105.463022 178.050426 
L 103.017595 178.142567 
L 100.572167 178.235913 
L 98.12674 178.328456 
L 95.681312 178.420999 
L 93.235885 178.555839 
L 90.790457 178.75947 
L 88.34503 178.913898 
L 85.899602 178.995563 
L 83.454175 179.087992 
L 81.008747 179.179118 
L 78.56332 179.271364 
L 76.117893 179.365264 
L 73.672465 179.459165 
L 71.227038 179.553065 
L 68.78161 179.646965 
L 66.336183 179.745784 
L 63.890755 179.869498 
L 61.445328 180.001154 
L 58.9999 180.201923 
z
" clip-path="url(#p0ab90b4a17)" style="fill: #666666; fill-opacity: 0.15"/>
   </g>
   <g id="PathCollection_43">
    <g clip-path="url(#p0ab90b4a17)">
     <use xlink:href="#ma8d0219808" x="301.097221" y="118.291592" style="fill: #d95f02; stroke: #000000"/>
    </g>
   </g>
   <g id="PathCollection_44">
    <g clip-path="url(#p0ab90b4a17)">
     <use xlink:href="#m8f5b1c79ca" x="231.356574" y="157.553561" style="fill: #1b9e77; stroke: #000000"/>
    </g>
   </g>
   <g id="PathCollection_45">
    <g clip-path="url(#p0ab90b4a17)">
     <use xlink:href="#m3aeed852d5" x="293.225878" y="82.362158" style="fill: #66a61e; stroke: #000000"/>
    </g>
   </g>
   <g id="PathCollection_46">
    <g clip-path="url(#p0ab90b4a17)">
     <use xlink:href="#mbe3d4f24a7" x="281.228128" y="177.949496" style="fill: #7570b3; stroke: #000000"/>
    </g>
   </g>
   <g id="PathCollection_47">
    <g clip-path="url(#p0ab90b4a17)">
     <use xlink:href="#m5bce0eb908" x="176.417994" y="183.602232" style="fill: #e7298a; stroke: #000000"/>
    </g>
   </g>
   <g id="PathCollection_48">
    <g clip-path="url(#p0ab90b4a17)">
     <use xlink:href="#m9cfa7bb216" x="195.198356" y="189.930376" style="fill: #e6ab02; stroke: #000000"/>
    </g>
   </g>
   <g id="PathCollection_49">
    <g clip-path="url(#p0ab90b4a17)">
     <use xlink:href="#m7663e53a35" x="245.108217" y="63.301835" style="fill: #d95f02; stroke: #000000"/>
    </g>
   </g>
   <g id="PathCollection_50">
    <g clip-path="url(#p0ab90b4a17)">
     <use xlink:href="#me02e483ace" x="170.022048" y="169.516707" style="fill: #1b9e77; stroke: #000000"/>
    </g>
   </g>
   <g id="PathCollection_51">
    <g clip-path="url(#p0ab90b4a17)">
     <use xlink:href="#m89cc4fa1df" x="235.034975" y="41.784376" style="fill: #66a61e; stroke: #000000"/>
    </g>
   </g>
   <g id="PathCollection_52">
    <g clip-path="url(#p0ab90b4a17)">
     <use xlink:href="#m2f9986464c" x="270.784659" y="158.788184" style="fill: #7570b3; stroke: #000000"/>
    </g>
   </g>
   <g id="PathCollection_53">
    <g clip-path="url(#p0ab90b4a17)">
     <use xlink:href="#mdb9551e319" x="128.28404" y="176.745881" style="fill: #e7298a; stroke: #000000"/>
    </g>
   </g>
   <g id="PathCollection_54">
    <g clip-path="url(#p0ab90b4a17)">
     <use xlink:href="#m4b47944c68" x="58.9999" y="189.927574" style="fill: #e6ab02; stroke: #000000"/>
    </g>
   </g>
   <g id="PathCollection_55">
    <g clip-path="url(#p0ab90b4a17)">
     <use xlink:href="#m4eb4558e5a" x="268.143763" y="72.010651" style="fill: #d95f02; stroke: #000000"/>
    </g>
   </g>
   <g id="PathCollection_56">
    <g clip-path="url(#p0ab90b4a17)">
     <use xlink:href="#mc4087a7f20" x="196.288991" y="171.797433" style="fill: #1b9e77; stroke: #000000"/>
    </g>
   </g>
   <g id="PathCollection_57">
    <g clip-path="url(#p0ab90b4a17)">
     <use xlink:href="#m1c933e018f" x="253.791561" y="66.87487" style="fill: #66a61e; stroke: #000000"/>
    </g>
   </g>
   <g id="PathCollection_58">
    <g clip-path="url(#p0ab90b4a17)">
     <use xlink:href="#m08a35f9c62" x="277.853119" y="164.425371" style="fill: #7570b3; stroke: #000000"/>
    </g>
   </g>
   <g id="PathCollection_59">
    <g clip-path="url(#p0ab90b4a17)">
     <use xlink:href="#m6f0ca2db3c" x="202.51128" y="183.78931" style="fill: #e7298a; stroke: #000000"/>
    </g>
   </g>
   <g id="PathCollection_60">
    <g clip-path="url(#p0ab90b4a17)">
     <use xlink:href="#md6395cae82" x="179.375673" y="170.268918" style="fill: #e6ab02; stroke: #000000"/>
    </g>
   </g>
   <g id="matplotlib.axis_1">
    <g id="xtick_1">
     <g id="line2d_1">
      <defs>
       <path id="mc5233d11eb" d="M 0 0 
L 0 3.5 
" style="stroke: #000000; stroke-width: 0.8"/>
      </defs>
      <g>
       <use xlink:href="#mc5233d11eb" x="60.942857" y="201.6" style="stroke: #000000; stroke-width: 0.8"/>
      </g>
     </g>
     <g id="text_1">
      <text style="font: 12px 'Arial', sans-serif; text-anchor: middle" x="60.942857" y="217.189375" transform="rotate(-0 60.942857 217.189375)">0.2</text>
     </g>
    </g>
    <g id="xtick_2">
     <g id="line2d_2">
      <g>
       <use xlink:href="#mc5233d11eb" x="122.657143" y="201.6" style="stroke: #000000; stroke-width: 0.8"/>
      </g>
     </g>
     <g id="text_2">
      <text style="font: 12px 'Arial', sans-serif; text-anchor: middle" x="122.657143" y="217.189375" transform="rotate(-0 122.657143 217.189375)">0.3</text>
     </g>
    </g>
    <g id="xtick_3">
     <g id="line2d_3">
      <g>
       <use xlink:href="#mc5233d11eb" x="184.371429" y="201.6" style="stroke: #000000; stroke-width: 0.8"/>
      </g>
     </g>
     <g id="text_3">
      <text style="font: 12px 'Arial', sans-serif; text-anchor: middle" x="184.371429" y="217.189375" transform="rotate(-0 184.371429 217.189375)">0.4</text>
     </g>
    </g>
    <g id="xtick_4">
     <g id="line2d_4">
      <g>
       <use xlink:href="#mc5233d11eb" x="246.085714" y="201.6" style="stroke: #000000; stroke-width: 0.8"/>
      </g>
     </g>
     <g id="text_4">
      <text style="font: 12px 'Arial', sans-serif; text-anchor: middle" x="246.085714" y="217.189375" transform="rotate(-0 246.085714 217.189375)">0.5</text>
     </g>
    </g>
    <g id="xtick_5">
     <g id="line2d_5">
      <g>
       <use xlink:href="#mc5233d11eb" x="307.8" y="201.6" style="stroke: #000000; stroke-width: 0.8"/>
      </g>
     </g>
     <g id="text_5">
      <text style="font: 12px 'Arial', sans-serif; text-anchor: middle" x="307.8" y="217.189375" transform="rotate(-0 307.8 217.189375)">0.6</text>
     </g>
    </g>
    <g id="text_6">
     <text style="font: 12px 'Arial', sans-serif; text-anchor: middle" x="178.2" y="232.31" transform="rotate(-0 178.2 232.31)">Carbon use efficiency [-]</text>
    </g>
   </g>
   <g id="matplotlib.axis_2">
    <g id="ytick_1">
     <g id="line2d_6">
      <defs>
       <path id="m89b3ac6255" d="M 0 0 
L -3.5 0 
" style="stroke: #000000; stroke-width: 0.8"/>
      </defs>
      <g>
       <use xlink:href="#m89b3ac6255" x="48.6" y="193.2" style="stroke: #000000; stroke-width: 0.8"/>
      </g>
     </g>
     <g id="text_7">
      <text style="font: 12px 'Arial', sans-serif; text-anchor: end" x="41.6" y="197.494687" transform="rotate(-0 41.6 197.494687)">0.01</text>
     </g>
    </g>
    <g id="ytick_2">
     <g id="line2d_7">
      <g>
       <use xlink:href="#m89b3ac6255" x="48.6" y="161.7" style="stroke: #000000; stroke-width: 0.8"/>
      </g>
     </g>
     <g id="text_8">
      <text style="font: 12px 'Arial', sans-serif; text-anchor: end" x="41.6" y="165.994687" transform="rotate(-0 41.6 165.994687)">0.02</text>
     </g>
    </g>
    <g id="ytick_3">
     <g id="line2d_8">
      <g>
       <use xlink:href="#m89b3ac6255" x="48.6" y="119.7" style="stroke: #000000; stroke-width: 0.8"/>
      </g>
     </g>
     <g id="text_9">
      <text style="font: 12px 'Arial', sans-serif; text-anchor: end" x="41.6" y="123.994688" transform="rotate(-0 41.6 123.994688)">0.04</text>
     </g>
    </g>
    <g id="ytick_4">
     <g id="line2d_9">
      <g>
       <use xlink:href="#m89b3ac6255" x="48.6" y="77.7" style="stroke: #000000; stroke-width: 0.8"/>
      </g>
     </g>
     <g id="text_10">
      <text style="font: 12px 'Arial', sans-serif; text-anchor: end" x="41.6" y="81.994688" transform="rotate(-0 41.6 81.994688)">0.06</text>
     </g>
    </g>
    <g id="ytick_5">
     <g id="line2d_10">
      <g>
       <use xlink:href="#m89b3ac6255" x="48.6" y="35.7" style="stroke: #000000; stroke-width: 0.8"/>
      </g>
     </g>
     <g id="text_11">
      <text style="font: 12px 'Arial', sans-serif; text-anchor: end" x="41.6" y="39.994688" transform="rotate(-0 41.6 39.994688)">0.08</text>
     </g>
    </g>
    <g id="text_12">
     <text style="font: 12px 'Arial', sans-serif; text-anchor: middle" x="11.861875" y="113.4" transform="rotate(-90 11.861875 113.4)">Growth rate [h-1]</text>
    </g>
   </g>
   <g id="line2d_11">
    <path d="M 235.034975 50.865462 
L 235.622762 51.217786 
L 236.210549 51.57011 
L 236.798336 51.922434 
L 237.386123 52.274758 
L 237.97391 52.627082 
L 238.561697 52.979406 
L 239.149484 53.33173 
L 239.737271 53.684055 
L 240.325057 54.036379 
L 240.912844 54.388703 
L 241.500631 54.741027 
L 242.088418 55.093351 
L 242.676205 55.445675 
L 243.263992 55.797999 
L 243.851779 56.150323 
L 244.439566 56.502647 
L 245.027353 56.854972 
L 245.61514 57.207296 
L 246.202926 57.55962 
L 246.790713 57.911944 
L 247.3785 58.264268 
L 247.966287 58.616592 
L 248.554074 58.968916 
L 249.141861 59.32124 
L 249.729648 59.673564 
L 250.317435 60.025889 
L 250.905222 60.378213 
L 251.493009 60.730537 
L 252.080795 61.082861 
L 252.668582 61.435185 
L 253.256369 61.787509 
L 253.844156 62.139833 
L 254.431943 62.492157 
L 255.01973 62.844481 
L 255.607517 63.196806 
L 256.195304 63.54913 
L 256.783091 63.901454 
L 257.370878 64.253778 
L 257.958664 64.606102 
L 258.546451 64.958426 
L 259.134238 65.31075 
L 259.722025 65.663074 
L 260.309812 66.015398 
L 260.897599 66.367722 
L 261.485386 66.720047 
L 262.073173 67.072371 
L 262.66096 67.424695 
L 263.248747 67.777019 
L 263.836533 68.129343 
L 264.42432 68.481667 
L 265.012107 68.833991 
L 265.599894 69.186315 
L 266.187681 69.538639 
L 266.775468 69.890964 
L 267.363255 70.243288 
L 267.951042 70.595612 
L 268.538829 70.947936 
L 269.126616 71.30026 
L 269.714402 71.652584 
L 270.302189 72.004908 
L 270.889976 72.357232 
L 271.477763 72.709556 
L 272.06555 73.061881 
L 272.653337 73.414205 
L 273.241124 73.766529 
L 273.828911 74.118853 
L 274.416698 74.471177 
L 275.004484 74.823501 
L 275.592271 75.175825 
L 276.180058 75.528149 
L 276.767845 75.880473 
L 277.355632 76.232798 
L 277.943419 76.585122 
L 278.531206 76.937446 
L 279.118993 77.28977 
L 279.70678 77.642094 
L 280.294567 77.994418 
L 280.882353 78.346742 
L 281.47014 78.699066 
L 282.057927 79.05139 
L 282.645714 79.403715 
L 283.233501 79.756039 
L 283.821288 80.108363 
L 284.409075 80.460687 
L 284.996862 80.813011 
L 285.584649 81.165335 
L 286.172436 81.517659 
L 286.760222 81.869983 
L 287.348009 82.222307 
L 287.935796 82.574631 
L 288.523583 82.926956 
L 289.11137 83.27928 
L 289.699157 83.631604 
L 290.286944 83.983928 
L 290.874731 84.336252 
L 291.462518 84.688576 
L 292.050305 85.0409 
L 292.638091 85.393224 
L 293.225878 85.745548 
" clip-path="url(#p0ab90b4a17)" style="fill: none; stroke: #a6761d; stroke-width: 2; stroke-linecap: square"/>
   </g>
   <g id="line2d_12">
    <path d="M 58.9999 196.291196 
L 61.445328 195.85518 
L 63.890755 195.419163 
L 66.336183 194.983147 
L 68.78161 194.54713 
L 71.227038 194.111114 
L 73.672465 193.675097 
L 76.117893 193.23908 
L 78.56332 192.803064 
L 81.008747 192.367047 
L 83.454175 191.931031 
L 85.899602 191.495014 
L 88.34503 191.058997 
L 90.790457 190.622981 
L 93.235885 190.186964 
L 95.681312 189.750948 
L 98.12674 189.314931 
L 100.572167 188.878915 
L 103.017595 188.442898 
L 105.463022 188.006881 
L 107.90845 187.570865 
L 110.353877 187.134848 
L 112.799305 186.698832 
L 115.244732 186.262815 
L 117.69016 185.826798 
L 120.135587 185.390782 
L 122.581015 184.954765 
L 125.026442 184.518749 
L 127.47187 184.082732 
L 129.917297 183.646716 
L 132.362725 183.210699 
L 134.808152 182.774682 
L 137.25358 182.338666 
L 139.699007 181.902649 
L 142.144435 181.466633 
L 144.589862 181.030616 
L 147.035289 180.594599 
L 149.480717 180.158583 
L 151.926144 179.722566 
L 154.371572 179.28655 
L 156.816999 178.850533 
L 159.262427 178.414517 
L 161.707854 177.9785 
L 164.153282 177.542483 
L 166.598709 177.106467 
L 169.044137 176.67045 
L 171.489564 176.234434 
L 173.934992 175.798417 
L 176.380419 175.3624 
L 178.825847 174.926384 
L 181.271274 174.490367 
L 183.716702 174.054351 
L 186.162129 173.618334 
L 188.607557 173.182318 
L 191.052984 172.746301 
L 193.498412 172.310284 
L 195.943839 171.874268 
L 198.389267 171.438251 
L 200.834694 171.002235 
L 203.280122 170.566218 
L 205.725549 170.130201 
L 208.170976 169.694185 
L 210.616404 169.258168 
L 213.061831 168.822152 
L 215.507259 168.386135 
L 217.952686 167.950118 
L 220.398114 167.514102 
L 222.843541 167.078085 
L 225.288969 166.642069 
L 227.734396 166.206052 
L 230.179824 165.770036 
L 232.625251 165.334019 
L 235.070679 164.898002 
L 237.516106 164.461986 
L 239.961534 164.025969 
L 242.406961 163.589953 
L 244.852389 163.153936 
L 247.297816 162.717919 
L 249.743244 162.281903 
L 252.188671 161.845886 
L 254.634099 161.40987 
L 257.079526 160.973853 
L 259.524954 160.537837 
L 261.970381 160.10182 
L 264.415809 159.665803 
L 266.861236 159.229787 
L 269.306664 158.79377 
L 271.752091 158.357754 
L 274.197518 157.921737 
L 276.642946 157.48572 
L 279.088373 157.049704 
L 281.533801 156.613687 
L 283.979228 156.177671 
L 286.424656 155.741654 
L 288.870083 155.305638 
L 291.315511 154.869621 
L 293.760938 154.433604 
L 296.206366 153.997588 
L 298.651793 153.561571 
L 301.097221 153.125555 
" clip-path="url(#p0ab90b4a17)" style="fill: none; stroke: #666666; stroke-width: 2; stroke-linecap: square"/>
   </g>
   <g id="line2d_13">
    <path d="M 235.034975 50.865462 
L 235.622762 51.217786 
L 236.210549 51.57011 
L 236.798336 51.922434 
L 237.386123 52.274758 
L 237.97391 52.627082 
L 238.561697 52.979406 
L 239.149484 53.33173 
L 239.737271 53.684055 
L 240.325057 54.036379 
L 240.912844 54.388703 
L 241.500631 54.741027 
L 242.088418 55.093351 
L 242.676205 55.445675 
L 243.263992 55.797999 
L 243.851779 56.150323 
L 244.439566 56.502647 
L 245.027353 56.854972 
L 245.61514 57.207296 
L 246.202926 57.55962 
L 246.790713 57.911944 
L 247.3785 58.264268 
L 247.966287 58.616592 
L 248.554074 58.968916 
L 249.141861 59.32124 
L 249.729648 59.673564 
L 250.317435 60.025889 
L 250.905222 60.378213 
L 251.493009 60.730537 
L 252.080795 61.082861 
L 252.668582 61.435185 
L 253.256369 61.787509 
L 253.844156 62.139833 
L 254.431943 62.492157 
L 255.01973 62.844481 
L 255.607517 63.196806 
L 256.195304 63.54913 
L 256.783091 63.901454 
L 257.370878 64.253778 
L 257.958664 64.606102 
L 258.546451 64.958426 
L 259.134238 65.31075 
L 259.722025 65.663074 
L 260.309812 66.015398 
L 260.897599 66.367722 
L 261.485386 66.720047 
L 262.073173 67.072371 
L 262.66096 67.424695 
L 263.248747 67.777019 
L 263.836533 68.129343 
L 264.42432 68.481667 
L 265.012107 68.833991 
L 265.599894 69.186315 
L 266.187681 69.538639 
L 266.775468 69.890964 
L 267.363255 70.243288 
L 267.951042 70.595612 
L 268.538829 70.947936 
L 269.126616 71.30026 
L 269.714402 71.652584 
L 270.302189 72.004908 
L 270.889976 72.357232 
L 271.477763 72.709556 
L 272.06555 73.061881 
L 272.653337 73.414205 
L 273.241124 73.766529 
L 273.828911 74.118853 
L 274.416698 74.471177 
L 275.004484 74.823501 
L 275.592271 75.175825 
L 276.180058 75.528149 
L 276.767845 75.880473 
L 277.355632 76.232798 
L 277.943419 76.585122 
L 278.531206 76.937446 
L 279.118993 77.28977 
L 279.70678 77.642094 
L 280.294567 77.994418 
L 280.882353 78.346742 
L 281.47014 78.699066 
L 282.057927 79.05139 
L 282.645714 79.403715 
L 283.233501 79.756039 
L 283.821288 80.108363 
L 284.409075 80.460687 
L 284.996862 80.813011 
L 285.584649 81.165335 
L 286.172436 81.517659 
L 286.760222 81.869983 
L 287.348009 82.222307 
L 287.935796 82.574631 
L 288.523583 82.926956 
L 289.11137 83.27928 
L 289.699157 83.631604 
L 290.286944 83.983928 
L 290.874731 84.336252 
L 291.462518 84.688576 
L 292.050305 85.0409 
L 292.638091 85.393224 
L 293.225878 85.745548 
" clip-path="url(#p0ab90b4a17)" style="fill: none; stroke: #a6761d; stroke-width: 2; stroke-linecap: square"/>
   </g>
   <g id="line2d_14">
    <path d="M 58.9999 196.291196 
L 61.445328 195.85518 
L 63.890755 195.419163 
L 66.336183 194.983147 
L 68.78161 194.54713 
L 71.227038 194.111114 
L 73.672465 193.675097 
L 76.117893 193.23908 
L 78.56332 192.803064 
L 81.008747 192.367047 
L 83.454175 191.931031 
L 85.899602 191.495014 
L 88.34503 191.058997 
L 90.790457 190.622981 
L 93.235885 190.186964 
L 95.681312 189.750948 
L 98.12674 189.314931 
L 100.572167 188.878915 
L 103.017595 188.442898 
L 105.463022 188.006881 
L 107.90845 187.570865 
L 110.353877 187.134848 
L 112.799305 186.698832 
L 115.244732 186.262815 
L 117.69016 185.826798 
L 120.135587 185.390782 
L 122.581015 184.954765 
L 125.026442 184.518749 
L 127.47187 184.082732 
L 129.917297 183.646716 
L 132.362725 183.210699 
L 134.808152 182.774682 
L 137.25358 182.338666 
L 139.699007 181.902649 
L 142.144435 181.466633 
L 144.589862 181.030616 
L 147.035289 180.594599 
L 149.480717 180.158583 
L 151.926144 179.722566 
L 154.371572 179.28655 
L 156.816999 178.850533 
L 159.262427 178.414517 
L 161.707854 177.9785 
L 164.153282 177.542483 
L 166.598709 177.106467 
L 169.044137 176.67045 
L 171.489564 176.234434 
L 173.934992 175.798417 
L 176.380419 175.3624 
L 178.825847 174.926384 
L 181.271274 174.490367 
L 183.716702 174.054351 
L 186.162129 173.618334 
L 188.607557 173.182318 
L 191.052984 172.746301 
L 193.498412 172.310284 
L 195.943839 171.874268 
L 198.389267 171.438251 
L 200.834694 171.002235 
L 203.280122 170.566218 
L 205.725549 170.130201 
L 208.170976 169.694185 
L 210.616404 169.258168 
L 213.061831 168.822152 
L 215.507259 168.386135 
L 217.952686 167.950118 
L 220.398114 167.514102 
L 222.843541 167.078085 
L 225.288969 166.642069 
L 227.734396 166.206052 
L 230.179824 165.770036 
L 232.625251 165.334019 
L 235.070679 164.898002 
L 237.516106 164.461986 
L 239.961534 164.025969 
L 242.406961 163.589953 
L 244.852389 163.153936 
L 247.297816 162.717919 
L 249.743244 162.281903 
L 252.188671 161.845886 
L 254.634099 161.40987 
L 257.079526 160.973853 
L 259.524954 160.537837 
L 261.970381 160.10182 
L 264.415809 159.665803 
L 266.861236 159.229787 
L 269.306664 158.79377 
L 271.752091 158.357754 
L 274.197518 157.921737 
L 276.642946 157.48572 
L 279.088373 157.049704 
L 281.533801 156.613687 
L 283.979228 156.177671 
L 286.424656 155.741654 
L 288.870083 155.305638 
L 291.315511 154.869621 
L 293.760938 154.433604 
L 296.206366 153.997588 
L 298.651793 153.561571 
L 301.097221 153.125555 
" clip-path="url(#p0ab90b4a17)" style="fill: none; stroke: #666666; stroke-width: 2; stroke-linecap: square"/>
   </g>
   <g id="line2d_15">
    <path d="M 235.034975 50.865462 
L 235.622762 51.217786 
L 236.210549 51.57011 
L 236.798336 51.922434 
L 237.386123 52.274758 
L 237.97391 52.627082 
L 238.561697 52.979406 
L 239.149484 53.33173 
L 239.737271 53.684055 
L 240.325057 54.036379 
L 240.912844 54.388703 
L 241.500631 54.741027 
L 242.088418 55.093351 
L 242.676205 55.445675 
L 243.263992 55.797999 
L 243.851779 56.150323 
L 244.439566 56.502647 
L 245.027353 56.854972 
L 245.61514 57.207296 
L 246.202926 57.55962 
L 246.790713 57.911944 
L 247.3785 58.264268 
L 247.966287 58.616592 
L 248.554074 58.968916 
L 249.141861 59.32124 
L 249.729648 59.673564 
L 250.317435 60.025889 
L 250.905222 60.378213 
L 251.493009 60.730537 
L 252.080795 61.082861 
L 252.668582 61.435185 
L 253.256369 61.787509 
L 253.844156 62.139833 
L 254.431943 62.492157 
L 255.01973 62.844481 
L 255.607517 63.196806 
L 256.195304 63.54913 
L 256.783091 63.901454 
L 257.370878 64.253778 
L 257.958664 64.606102 
L 258.546451 64.958426 
L 259.134238 65.31075 
L 259.722025 65.663074 
L 260.309812 66.015398 
L 260.897599 66.367722 
L 261.485386 66.720047 
L 262.073173 67.072371 
L 262.66096 67.424695 
L 263.248747 67.777019 
L 263.836533 68.129343 
L 264.42432 68.481667 
L 265.012107 68.833991 
L 265.599894 69.186315 
L 266.187681 69.538639 
L 266.775468 69.890964 
L 267.363255 70.243288 
L 267.951042 70.595612 
L 268.538829 70.947936 
L 269.126616 71.30026 
L 269.714402 71.652584 
L 270.302189 72.004908 
L 270.889976 72.357232 
L 271.477763 72.709556 
L 272.06555 73.061881 
L 272.653337 73.414205 
L 273.241124 73.766529 
L 273.828911 74.118853 
L 274.416698 74.471177 
L 275.004484 74.823501 
L 275.592271 75.175825 
L 276.180058 75.528149 
L 276.767845 75.880473 
L 277.355632 76.232798 
L 277.943419 76.585122 
L 278.531206 76.937446 
L 279.118993 77.28977 
L 279.70678 77.642094 
L 280.294567 77.994418 
L 280.882353 78.346742 
L 281.47014 78.699066 
L 282.057927 79.05139 
L 282.645714 79.403715 
L 283.233501 79.756039 
L 283.821288 80.108363 
L 284.409075 80.460687 
L 284.996862 80.813011 
L 285.584649 81.165335 
L 286.172436 81.517659 
L 286.760222 81.869983 
L 287.348009 82.222307 
L 287.935796 82.574631 
L 288.523583 82.926956 
L 289.11137 83.27928 
L 289.699157 83.631604 
L 290.286944 83.983928 
L 290.874731 84.336252 
L 291.462518 84.688576 
L 292.050305 85.0409 
L 292.638091 85.393224 
L 293.225878 85.745548 
" clip-path="url(#p0ab90b4a17)" style="fill: none; stroke: #a6761d; stroke-width: 2; stroke-linecap: square"/>
   </g>
   <g id="line2d_16">
    <path d="M 58.9999 196.291196 
L 61.445328 195.85518 
L 63.890755 195.419163 
L 66.336183 194.983147 
L 68.78161 194.54713 
L 71.227038 194.111114 
L 73.672465 193.675097 
L 76.117893 193.23908 
L 78.56332 192.803064 
L 81.008747 192.367047 
L 83.454175 191.931031 
L 85.899602 191.495014 
L 88.34503 191.058997 
L 90.790457 190.622981 
L 93.235885 190.186964 
L 95.681312 189.750948 
L 98.12674 189.314931 
L 100.572167 188.878915 
L 103.017595 188.442898 
L 105.463022 188.006881 
L 107.90845 187.570865 
L 110.353877 187.134848 
L 112.799305 186.698832 
L 115.244732 186.262815 
L 117.69016 185.826798 
L 120.135587 185.390782 
L 122.581015 184.954765 
L 125.026442 184.518749 
L 127.47187 184.082732 
L 129.917297 183.646716 
L 132.362725 183.210699 
L 134.808152 182.774682 
L 137.25358 182.338666 
L 139.699007 181.902649 
L 142.144435 181.466633 
L 144.589862 181.030616 
L 147.035289 180.594599 
L 149.480717 180.158583 
L 151.926144 179.722566 
L 154.371572 179.28655 
L 156.816999 178.850533 
L 159.262427 178.414517 
L 161.707854 177.9785 
L 164.153282 177.542483 
L 166.598709 177.106467 
L 169.044137 176.67045 
L 171.489564 176.234434 
L 173.934992 175.798417 
L 176.380419 175.3624 
L 178.825847 174.926384 
L 181.271274 174.490367 
L 183.716702 174.054351 
L 186.162129 173.618334 
L 188.607557 173.182318 
L 191.052984 172.746301 
L 193.498412 172.310284 
L 195.943839 171.874268 
L 198.389267 171.438251 
L 200.834694 171.002235 
L 203.280122 170.566218 
L 205.725549 170.130201 
L 208.170976 169.694185 
L 210.616404 169.258168 
L 213.061831 168.822152 
L 215.507259 168.386135 
L 217.952686 167.950118 
L 220.398114 167.514102 
L 222.843541 167.078085 
L 225.288969 166.642069 
L 227.734396 166.206052 
L 230.179824 165.770036 
L 232.625251 165.334019 
L 235.070679 164.898002 
L 237.516106 164.461986 
L 239.961534 164.025969 
L 242.406961 163.589953 
L 244.852389 163.153936 
L 247.297816 162.717919 
L 249.743244 162.281903 
L 252.188671 161.845886 
L 254.634099 161.40987 
L 257.079526 160.973853 
L 259.524954 160.537837 
L 261.970381 160.10182 
L 264.415809 159.665803 
L 266.861236 159.229787 
L 269.306664 158.79377 
L 271.752091 158.357754 
L 274.197518 157.921737 
L 276.642946 157.48572 
L 279.088373 157.049704 
L 281.533801 156.613687 
L 283.979228 156.177671 
L 286.424656 155.741654 
L 288.870083 155.305638 
L 291.315511 154.869621 
L 293.760938 154.433604 
L 296.206366 153.997588 
L 298.651793 153.561571 
L 301.097221 153.125555 
" clip-path="url(#p0ab90b4a17)" style="fill: none; stroke: #666666; stroke-width: 2; stroke-linecap: square"/>
   </g>
   <g id="patch_3">
    <path d="M 48.6 201.6 
L 48.6 25.2 
" style="fill: none; stroke: #000000; stroke-width: 0.8; stroke-linejoin: miter; stroke-linecap: square"/>
   </g>
   <g id="patch_4">
    <path d="M 307.8 201.6 
L 307.8 25.2 
" style="fill: none; stroke: #000000; stroke-width: 0.8; stroke-linejoin: miter; stroke-linecap: square"/>
   </g>
   <g id="patch_5">
    <path d="M 48.6 201.6 
L 307.8 201.6 
" style="fill: none; stroke: #000000; stroke-width: 0.8; stroke-linejoin: miter; stroke-linecap: square"/>
   </g>
   <g id="patch_6">
    <path d="M 48.6 25.2 
L 307.8 25.2 
" style="fill: none; stroke: #000000; stroke-width: 0.8; stroke-linejoin: miter; stroke-linecap: square"/>
   </g>
   <g id="legend_1">
    <g id="patch_7">
     <path d="M 55.6 161.226563 
L 148.734375 161.226563 
Q 150.734375 161.226563 150.734375 159.226563 
L 150.734375 32.2 
Q 150.734375 30.2 148.734375 30.2 
L 55.6 30.2 
Q 53.6 30.2 53.6 32.2 
L 53.6 159.226563 
Q 53.6 161.226563 55.6 161.226563 
z
" style="fill: #ffffff; opacity: 0.8; stroke: #cccccc; stroke-linejoin: miter"/>
    </g>
    <g id="line2d_17">
     <path d="M 57.6 37.979688 
L 67.6 37.979688 
L 77.6 37.979688 
" style="fill: none; stroke: #d95f02; stroke-width: 1.5; stroke-linecap: square"/>
     <defs>
      <path id="mbd6a2e5e9c" d="M 3 0 
L -3 -0 
" style="stroke: #d95f02"/>
     </defs>
     <g>
      <use xlink:href="#mbd6a2e5e9c" x="67.6" y="37.979688" style="fill: #d95f02; stroke: #d95f02"/>
     </g>
    </g>
    <g id="text_13">
     <text style="font: 10px 'Arial', sans-serif; text-anchor: start" x="85.6" y="41.479688" transform="rotate(-0 85.6 41.479688)">Sugars</text>
    </g>
    <g id="line2d_18">
     <path d="M 57.6 52.370313 
L 67.6 52.370313 
L 77.6 52.370313 
" style="fill: none; stroke: #1b9e77; stroke-width: 1.5; stroke-linecap: square"/>
     <defs>
      <path id="m38cd5c2c3e" d="M 3 0 
L -3 -0 
" style="stroke: #1b9e77"/>
     </defs>
     <g>
      <use xlink:href="#m38cd5c2c3e" x="67.6" y="52.370313" style="fill: #1b9e77; stroke: #1b9e77"/>
     </g>
    </g>
    <g id="text_14">
     <text style="font: 10px 'Arial', sans-serif; text-anchor: start" x="85.6" y="55.870313" transform="rotate(-0 85.6 55.870313)">Organic acids</text>
    </g>
    <g id="line2d_19">
     <path d="M 57.6 66.632812 
L 67.6 66.632812 
L 77.6 66.632812 
" style="fill: none; stroke: #66a61e; stroke-width: 1.5; stroke-linecap: square"/>
     <defs>
      <path id="m940134ef8a" d="M 3 0 
L -3 -0 
" style="stroke: #66a61e"/>
     </defs>
     <g>
      <use xlink:href="#m940134ef8a" x="67.6" y="66.632812" style="fill: #66a61e; stroke: #66a61e"/>
     </g>
    </g>
    <g id="text_15">
     <text style="font: 10px 'Arial', sans-serif; text-anchor: start" x="85.6" y="70.132812" transform="rotate(-0 85.6 70.132812)">Amino acids</text>
    </g>
    <g id="line2d_20">
     <path d="M 57.6 80.778125 
L 67.6 80.778125 
L 77.6 80.778125 
" style="fill: none; stroke: #7570b3; stroke-width: 1.5; stroke-linecap: square"/>
     <defs>
      <path id="ma6003c3154" d="M 3 0 
L -3 -0 
" style="stroke: #7570b3"/>
     </defs>
     <g>
      <use xlink:href="#ma6003c3154" x="67.6" y="80.778125" style="fill: #7570b3; stroke: #7570b3"/>
     </g>
    </g>
    <g id="text_16">
     <text style="font: 10px 'Arial', sans-serif; text-anchor: start" x="85.6" y="84.278125" transform="rotate(-0 85.6 84.278125)">Fatty acids</text>
    </g>
    <g id="line2d_21">
     <path d="M 57.6 95.040625 
L 67.6 95.040625 
L 77.6 95.040625 
" style="fill: none; stroke: #e7298a; stroke-width: 1.5; stroke-linecap: square"/>
     <defs>
      <path id="m0d5f994984" d="M 3 0 
L -3 -0 
" style="stroke: #e7298a"/>
     </defs>
     <g>
      <use xlink:href="#m0d5f994984" x="67.6" y="95.040625" style="fill: #e7298a; stroke: #e7298a"/>
     </g>
    </g>
    <g id="text_17">
     <text style="font: 10px 'Arial', sans-serif; text-anchor: start" x="85.6" y="98.540625" transform="rotate(-0 85.6 98.540625)">Nucleotides</text>
    </g>
    <g id="line2d_22">
     <path d="M 57.6 109.185938 
L 67.6 109.185938 
L 77.6 109.185938 
" style="fill: none; stroke: #e6ab02; stroke-width: 1.5; stroke-linecap: square"/>
     <defs>
      <path id="m0f13fe75ee" d="M 3 0 
L -3 -0 
" style="stroke: #e6ab02"/>
     </defs>
     <g>
      <use xlink:href="#m0f13fe75ee" x="67.6" y="109.185938" style="fill: #e6ab02; stroke: #e6ab02"/>
     </g>
    </g>
    <g id="text_18">
     <text style="font: 10px 'Arial', sans-serif; text-anchor: start" x="85.6" y="112.685938" transform="rotate(-0 85.6 112.685938)">Auxins</text>
    </g>
    <g id="line2d_23">
     <path d="M 57.6 123.33125 
L 67.6 123.33125 
L 77.6 123.33125 
" style="fill: none; stroke: #ffffff; stroke-width: 1.5; stroke-linecap: square"/>
     <defs>
      <path id="mea9d6a3bc8" d="M 0 -4 
L -4 4 
L 4 4 
z
" style="stroke: #000000; stroke-linejoin: miter"/>
     </defs>
     <g>
      <use xlink:href="#mea9d6a3bc8" x="67.6" y="123.33125" style="fill-opacity: 0; stroke: #000000; stroke-linejoin: miter"/>
     </g>
    </g>
    <g id="text_19">
     <text style="font: 10px 'Arial', sans-serif; text-anchor: start" x="85.6" y="126.83125" transform="rotate(-0 85.6 126.83125)">Positive</text>
    </g>
    <g id="line2d_24">
     <path d="M 57.6 137.476563 
L 67.6 137.476563 
L 77.6 137.476563 
" style="fill: none; stroke: #ffffff; stroke-width: 1.5; stroke-linecap: square"/>
     <defs>
      <path id="m10d10c42c0" d="M -0 4 
L 4 -4 
L -4 -4 
z
" style="stroke: #000000; stroke-linejoin: miter"/>
     </defs>
     <g>
      <use xlink:href="#m10d10c42c0" x="67.6" y="137.476563" style="fill-opacity: 0; stroke: #000000; stroke-linejoin: miter"/>
     </g>
    </g>
    <g id="text_20">
     <text style="font: 10px 'Arial', sans-serif; text-anchor: start" x="85.6" y="140.976563" transform="rotate(-0 85.6 140.976563)">Negative</text>
    </g>
    <g id="line2d_25">
     <path d="M 57.6 151.739063 
L 67.6 151.739063 
L 77.6 151.739063 
" style="fill: none; stroke: #ffffff; stroke-width: 1.5; stroke-linecap: square"/>
     <defs>
      <path id="m92f35060b5" d="M -4 4 
L 4 4 
L 4 -4 
L -4 -4 
z
" style="stroke: #000000; stroke-linejoin: miter"/>
     </defs>
     <g>
      <use xlink:href="#m92f35060b5" x="67.6" y="151.739063" style="fill-opacity: 0; stroke: #000000; stroke-linejoin: miter"/>
     </g>
    </g>
    <g id="text_21">
     <text style="font: 10px 'Arial', sans-serif; text-anchor: start" x="85.6" y="155.239063" transform="rotate(-0 85.6 155.239063)">Undefined</text>
    </g>
   </g>
  </g>
 </g>
 <defs>
  <clipPath id="p0ab90b4a17">
   <rect x="48.6" y="25.2" width="259.2" height="176.4"/>
  </clipPath>
 </defs>
</svg>
